<svg id="b82633b5-dd86-4d25-8758-9b7202e1d7ef" data-name="1" xmlns="http://www.w3.org/2000/svg" viewBox="0 0 841.89 1190.55"><path d="M841.89,228.28c-2.74-5.63-10.18-9.8-11.23-12.1s-.47-4.55-.95-6.66-2.19-3-3.09-4.4c-.61-1-.52-2.42-1.19-3.86s-1.8-.83-3.34-4.87-.52-7.1-.56-8.64c-.12-3.91-1.47-7.09-1.46-9.94,5.07,2.78,7.75,6.5,11.66,8.84s8.19,4.49,10.16,5.91V150a57.52,57.52,0,0,1-9.39-4.55c-5.16-3.13-8.28-7.25-13-11,1.45-11.93,3.58-22.64,6.53-31.06,1.82-5.2,11.71-33.52,15.89-46.86V0H790a10.71,10.71,0,0,1,1.29,4.28c0,1.28-.75,2.83-1,4.21-.16.7-.18,1.39-.32,2.09-.07.34-.34,2.25-1,1.5-1.83-2.18-6.23-3.67-7.83-5.68-1.33-1.68.12-3.38-.92-3.47-2.52,4.65,2.85,7,5.08,10.58a17.39,17.39,0,0,1,2,7c.31,4.09-1.54,8.33-1.7,12.35-1.43,2.26-2.89,4.28-4,6.21-1.52,0-3,0-4.43,0,.06-.35,1.31-6.59,1.47-9.11a9.56,9.56,0,0,0-1.7-6.94c-1.19-1.69-2.25-4.73-2.82-5-1.25,3.91,2.88,4.84,1.42,12.41-.53,2.76-1.17,5.94-1.89,9a9.77,9.77,0,0,0-2,.6c-.61-1.48,2.21-5.6,2.17-8.77-1.11-.2-.87,2.81-2.06,2.31,1.42-6.08-2.31-12.25-3-15.9-1.26.4,1.09,5.51.38,6.55-.23-.89-2.31-4.19-2.61-5.31-.7-2.59.26-9.76,1.34-11.71-2.09,1.11-1.65,4.26-2.08,6.11s-1.34,4.57-1,6.37c.78,4.36,4.46,5.78,3.92,11.32s-2.51,6.33-3.3,8.31c-.67,1.7-.47,3.49-1.45,4.87a13.81,13.81,0,0,1-2.61,2.72c-1.32-2.39-6.38-3.26-7.77-5.71.43-1.15.82-2.08,1.14-2.72a34.15,34.15,0,0,0,2.75-6c.83-3.51.79-5.76,2.16-8.4,1-1.95,2.65-2.74,3.16-4.32A64,64,0,0,0,764,13.21c.85-3.86,3.7-9.25,6.71-13.21H758.16c-2.54,5-4.64,10.29-6.07,12.22s-3.83,8.16-6,13c-1.1-1.15.63-5-.23-5.58-.82,2.17-2.15,7.79-1.64,9.9-.59,1.39-1.1,2.63-1.49,3.63a27.5,27.5,0,0,0-4.76-5c-.56-1.44-1.41-3.93-1.1-5.43s.26-6.24-1.07-7.44-.13-2.64-1-3.8c0-2.42,1.11-7.17-.72-8.63A3.67,3.67,0,0,1,732.84,0h-9.05c.78,2.17,1.89,4.11,2.41,6.88.7,3.64-.66,4.72-1.31,4.61.14-1.84-.84-4.34-1.61-6.53-.31-.86-1.86-4.15-2.1-5h-163c2.09,1.93,4.05,3.63,6,5.19C560.09,5.7,556,6,552,6.3a12.14,12.14,0,0,0-3.72-2.49c-3.27-1.31-3.91-2.32-6-3.81H465a26.21,26.21,0,0,0,5.67,1.44,102.65,102.65,0,0,0,14,.58c4.61-.34,5.38.16,9.12-.55,0,.55,0,.55,0,1.11-9.61,1.08-22.59,4.57-33.31,4,1.72,1.89,13,.92,19.47.76,4.21-.1,9,0,13.1-1.63l.69-.24c0,.45,0,.9,0,1.37a25.93,25.93,0,0,1-4,.94c-3.24.34-4.69,2.14-7.73,2.31s-14.21,3.07-17.36,7.69c-.45.66-.82,1.23-1.15,1.76-2.45-1.76-10.12-5-13-5.41a12.39,12.39,0,0,0-5.14.34c.91-2.1,1.48-4,2.65-5.41s3.14-5.2,5.64-7.22c.72-.59,1.4-1.2,2.09-1.83h-9.29a3.51,3.51,0,0,1-1,.62c-2.24.84-10.53.55-16.39,1.65-4.64.86-12.76-.73-18.18-2.27H387.61c.56.6,4,3.25,4.69,4a12.73,12.73,0,0,0-.18,2.35c0,3.36,1.73,7.51,1.95,10,.15,1.76-1,2.31-2.39,2.24-2.82-3.35-7.45-8.55-11-13.25A31.44,31.44,0,0,0,384.45,0H352c1.94.82,4,1.63,6,2.4a36.92,36.92,0,0,1-10,.54c-.33-.77-.78-1.78-1.31-2.94H337c1.22,3.16,2.29,6.39,3.43,9.43a21.67,21.67,0,0,1,.93,3.37c-2.61-.81-7-2.28-9.85-3-5.39-1.33-9.74-.14-13.27-1.33-1.93-.65-5.86-1.14-9.25-2.39-1.17-1.82-2.16-4-3.29-6.1H270.52c.05,1.75.11,3.55.19,5.37-.78.6-1.43,1.1-1.8,1.42-1.79,1.52-2.12,3.44-2.88,4.63-1,1.59-2.68,3-3.51,4.49-.32.58-.93,1.93-1,2-1.36-1.92-2.5-3.66-3.22-4.85-2.78-4.61-5.37-6.21-6.76-9.13A10.07,10.07,0,0,1,250.82,0H231.5a22.09,22.09,0,0,1,1.71,2.42c1.6,2.75,2.64,8.1,4.31,11.44-1.46,2.34.32,4,1.31,6.88.5,1.46.37,3.76,1.64,5.47s2.12,10.26,2.13,10.39a98.82,98.82,0,0,1-10,5.56c-1-.65-2.85-3-4.89-3.18s-3.46-2-5.27-2.62c-.36-3-.87-6-.37-9.13.7-4.38,3.89-10.27,3.36-12.89S223.2,10,222.34,7.76c.93-2.73.89-5.3,1.2-7.76H193.2a29.8,29.8,0,0,1,1.31,5.65c.2,1.88,1.42,8.67-1,15.22a138.51,138.51,0,0,0-5,18.31c-.32,1.47-.72,3-1.17,4.43a81.79,81.79,0,0,0-8.23,1.3c-3.25.77-7.67,1.58-11.24,2.41-5.36,1.26-10.16.65-13.84,4.46-.87.16-1.71.36-2.54.59-1.56-11.83-5.72-12-6.69-18.7a29.49,29.49,0,0,1,.07-7.13c1.5-.82,3-1.65,4.69-2.52,2.86-1.51,8.47-5.46,7.89-6.46-2.77,2.86-5.08,3.5-9,5.13A26.69,26.69,0,0,0,145.12,24c.65-5.21,1.56-9.88.72-13a12.76,12.76,0,0,0-.71-1.92c.66-.61,6.45-6.64,8.51-9.08H63.85A30.67,30.67,0,0,1,73,10.26a40.07,40.07,0,0,0,4.51,5.4c0,1.63.06,3,1.41,3.72-.21,1.58-.38,3.07-.52,4.38-2.44,2-5.14,4.84-6.54,6.27a16.32,16.32,0,0,0-5.66-.51c-2.83-2.18-5.8-3.85-8.66-5.93a3.82,3.82,0,0,0,.7-1.89c.17-3.47,2.63-7.41,4.9-8.61-2.15-.36-4.44,3.59-6.65,7.47-1,1.69-3.64,3.22-4.7,4.48-4.12,1.5-8.34,2.8-12.59,4-.47-.39-3.3-3.1-4.21-4.16,2.65-6.15,5.81-7.58,6.69-9.16-1.85.55-5.19,3.67-8.2,7.21-2.59-3.67-4.69-8.76-4.9-16.74-1.3,2.22-.95,7.93.32,12.15a45.21,45.21,0,0,0,2.69,6.94c-.82,1.07-1.58,2.14-2.22,3.16a15.84,15.84,0,0,0-1.74,3.72c-2.55-.11-4.64,1.22-7,1.84.21-2.89.05-5.61.4-8.23a124.4,124.4,0,0,1,2.83-13C25.33,7.25,23.8,4.06,25,0H16.29c-.67,8.77-3,17.83-5.84,23.88C9.24,15.13,5,5.25,0,.75v1189.8H841.89Zm-22.56-92.71c1.82,2.06,4.26,4.56,4.35,5.38a59.29,59.29,0,0,0-4.47-4.37Zm-.2,1.73c2.71,2.59,5.69,6.07,7,7.51a36.84,36.84,0,0,1-7.41-3.25C818.83,140.13,819,138.71,819.13,137.3Zm-39.79-91c.29,1.73,1,3.55-.4,5.11a9.51,9.51,0,0,1-2.39-4.74C777.42,46.58,778.35,46.45,779.34,46.34Zm-6.1,1.08c.74,2.88,1.84,5.84-.78,7.67-2.14-.35-6.06.31-7.64-2.22C767.48,51.65,770.32,47.81,773.24,47.42Zm-17.62,60.26a92.52,92.52,0,0,0-.11,9.72c-3-.75-3-4.76-3.77-8.09-.42-1.83-1.55-2.51-2.12-3.33C751.74,106.48,753.74,107,755.62,107.68ZM732.54,76c-.61,2.25-1.45,7.75-1.47,8A33.83,33.83,0,0,1,726.82,76C728.71,76.4,731.4,77.56,732.54,76Zm-8.4,80.33a18.82,18.82,0,0,1,7.91-.38c2.35,1.92,1.48,5.05,2.43,7.11s.39,7-.18,9.63.54,8.87-1.8,13a66.77,66.77,0,0,0-20.17-13,80,80,0,0,0-7.93-2.46c1.69-1.88,2.26-3.07,3.17-6.2a27.94,27.94,0,0,1,2.91-5.92c1.84.57,2.65,0,4.12.12,1.73.17,2.87,2.2,4.47,1.49S721.37,157.35,724.14,156.29Zm-112-54.67c-2.35-2.92-5.5-7.86-5.8-10.6-.91.49,1.66,7.87,3.92,11.8-3.06-.16-5.24-2.13-8.65-2.75a15.33,15.33,0,0,0-3.83-.06c-.37-.42-.76-.84-1.16-1.22a12.69,12.69,0,0,1-2.87-4.42c2.91-.91,5.52-2.72,6.42-4.48a5.48,5.48,0,0,0,0-3.37c2.35.24,4.83.11,7.46,2A41.22,41.22,0,0,0,620,94.36c1.55.5,2.75,1.88,3.88,2.39a2.36,2.36,0,0,0,1.8-.13c3.63,2.74,7.72,4.93,11.19,10.55-5.21-.55-11.48,1-14.82.81a11.38,11.38,0,0,0-1.4,0,19.79,19.79,0,0,0-1.76-1.57C616.61,104.66,613.56,103.43,612.1,101.62Zm2.48,7.28a42.92,42.92,0,0,1-6,.9c-3.71-.26-6.11-3.7-8.72-7.13a11.69,11.69,0,0,1,1.4.49c2.32,1,4,2,5.76,2.54s3.39.11,4.92,1.15A23.13,23.13,0,0,1,614.58,108.9ZM596.53,79.31a9.83,9.83,0,0,1-2.76-.2q.38-1.87.69-3.9a16.62,16.62,0,0,1,3.2,4c-.23,0-.47,0-.7.06-.35-.52-.5-1.16-1-1.14C596.2,78.55,596.36,78.93,596.53,79.31Zm-1.1,5.42a6.89,6.89,0,0,0,2.6,1.41,7.51,7.51,0,0,1-.58,2c-.66,1.5-2.53,2.61-4.67,3.09a20.42,20.42,0,0,1-.23-6.52A12.14,12.14,0,0,0,595.43,84.73ZM633.8,97.35c.62-.15,1.21-.31,1.73-.39,1.26-.18,2.25.67,3.38,1.09-1,1.21-3.61-1.21-3.9.07,3.8,1.79,7,4.33,10.4,5.44.54.18,1.08.32,1.61.45a4,4,0,0,0-.43.27c-1.76,1.22-1.39,3-2.9,4-.13-.06-.26-.11-.39-.18A34.2,34.2,0,0,0,633.8,97.35Zm9.28-5.17c-4-1.78-8.42-1.33-12.07-2-6-1.14-12.28-6-17.58-10.24a10.92,10.92,0,0,0,3.69-.34c4.27-1.56,6.58-1.45,10.84-.41,2.56,2.91,8.36,3.13,11.83,5.59,1.94,1.36,1.9,2.63,3.9,3.67,1.13.59,2.84.25,4.08,1,1,.58,2.23,2.38,3.35,3.09a8.85,8.85,0,0,0,2.43,1c.3.62.61,1.25.91,1.89l-.23,0a11.76,11.76,0,0,1-7.18-1.06C645.67,93.62,644.19,92.68,643.08,92.18Zm12.46,46.6c1.53,3,3.1,6,4.68,8.91a81.74,81.74,0,0,0-7.29-4.17C653.75,141.88,654.62,140.28,655.54,138.78Zm0-44.79.25.06a5,5,0,0,1,1.55.88l-1.11.19C656,94.73,655.78,94.35,655.55,94Zm-7.36-45.86c.19-2.41.52-5,.7-7,4.57,3.36,8.32,7.85,8.94,11.41A34.84,34.84,0,0,1,648.19,48.13Zm11.11,84.81c.47-.66,1-1.31,1.51-1.95a23.62,23.62,0,0,1,6.82,1.5c2.27,8.66,3.59,17,8.51,26.54-2.46-.57-2.79-3.57-3.92-5.19-.75-1.06-2.45-2.24-2.9-3.17-1.5-3.08-3-7-5.15-10.06A43.05,43.05,0,0,1,659.3,132.94Zm3.08-30.35a4.14,4.14,0,0,1,.44,1,3.89,3.89,0,0,1-2.12-.34l-.13-.25Zm-1.07-65a15.61,15.61,0,0,1,3.34.78c.62.53-.22,1-.62,1.55C663.29,39.24,662.35,38.45,661.31,37.59Zm3.63,3.21q1,0,1.95,0c-.13.31-.6,1.66-.72,2A10.74,10.74,0,0,0,664.94,40.8Zm33.67,33.68c-1.85,6.51-9.26,8-10.44,7.75-2.87-.54-3-1.94-5.71-2.81a10.25,10.25,0,0,0-3.59-.51,111.58,111.58,0,0,1-4.54-13.5c-.79-3.49-1.11-8.85-3.57-12.7-.73-1.14-1.52-2.49-2.24-3.87.71-2.46,1.63-5,2.64-7.48,5.29,1,10.68,3,15.44,3a25.87,25.87,0,0,1,6.44.9c1.86,1.64,5.13,3.7,6.26,5.34,1.87,2.7,4.6,10.88,3.87,14a14.08,14.08,0,0,0-3.61,1.71c-1.49,1-4.6,5.58-6.06,7-2.42,2.43-6.62,4.18-6.35,6.7C689.41,77.62,695.64,73.5,698.61,74.48ZM671.68,133c.25-.2,11.68,2.21,17.54,1.87,2,2.82,4.95,5,8.2,7.24-.06,1.95,2,6.56,5.35,9.14a15,15,0,0,1,2.47,2.4c-.79,2-1.42,3.43-1.73,4-1.53,2.72-5,5.43-8.12,8.5l0,0a13.47,13.47,0,0,1-2.31-.49c-.93-.4-1.67-1.37-2.54-1.66-2.25-.75-4.78-.21-6.92-1.12C676.17,154.2,673.15,142.17,671.68,133Zm16,50.28c1.65,2.42,9.79,6,11.28,8.18-2.13.26-8.87-2.24-11.72-2.78-1.85-.36-3.72,0-4.4-.35a10.4,10.4,0,0,1-1.3-.84,2.68,2.68,0,0,1,.36-1.79C683.09,184,686,184.21,687.63,183.23Zm8-4.34c.14-.1,2.24-1,3.07-1.31a43.26,43.26,0,0,1,5.6,2c4.94,2.31,5.84,3.73,8.84,5.42,1.64.92,4,2,5,2.79a39.35,39.35,0,0,1,3.94,3.37,13.37,13.37,0,0,1-3.67-1c-.79-.36-1-1.3-2.53-1.89s-3.44-.46-5-1c-2.52-.91-3.94-2.95-6.55-4.1-1.73-.77-3.24-.76-4.93-1.69A33.79,33.79,0,0,1,695.61,178.89Zm24.06-79-.06.07a11,11,0,0,1-2.62,2c-7.24.09-20.69-7.23-21.24-7.44.06,0,5.42-6.65,9.91-9.11C705.92,85.62,717.34,93.73,719.67,99.84ZM679.74,3.33c1,.82,3.73.18,5.55,1.76A14.34,14.34,0,0,0,694,8.33c2.46.08,4.27-1.34,5.87-1.71s2.89.75,4.48.36c.78-.19,1-.88,2.14-.94a35.59,35.59,0,0,1,1.34,7.31c-1.78-1.9-3.48-2.55-5.25-4.26.72,2.28,4.53,4.37,6,6.6-.27,3.48-1.34,6.2-2.09,9.42-1.29-.25-2.57-.54-3.84-.83-4.93-4.67-8.69-9.65-15-12.79-2.69-1.35-5.13-4.15-8.38-6.83C679.45,4.22,679.59,3.78,679.74,3.33ZM648.62,11c1.27-1.62,3.07-2.9,4.5-4.42.61-.65,1.18-1.32,1.73-2a3,3,0,0,0,1,.15A47.22,47.22,0,0,0,664,2c1.62,1.82,3.36,6.06,4.06,8.54.48,1.73.07,4.22.4,6.11.55,3.07,3.35,5.49,5.44,8v0c-.07.3-.14.57-.21.86-4.81.95-10.16-3.11-13.14-2.3a24.41,24.41,0,0,1-6.77,1,33.27,33.27,0,0,1-9.36-2.12C644.09,18.52,647.34,12.63,648.62,11ZM638.3,64.86c3.88,10.23,9.92,12.17,16.29,15.91a20.87,20.87,0,0,1,2.58,1.79c0,.1,0,.22,0,.31-4.51-1.56-7.64,1.13-13-1.62s-7.17-.76-10.6-2.86A46,46,0,0,1,625.22,72c-2-2-4.49-5.11-5.34-4.55,2,2.43,3.71,6.16,6.31,8.4-3.78-.73-6.51.47-10.32,1.18-1.59.3-3.79.22-5.55.36-2.34-2.55-11.71-8-14.75-11.18l.09-.94c1.7-1.44,4.41-2.47,6.65-4.28,1-.8,1.94-1.63,2.87-2.41a12.41,12.41,0,0,0,2.2-1c3.36-2.09,15.86-4.85,25.39-4.16a29.92,29.92,0,0,1,.94,4.69,16.7,16.7,0,0,1-1.09,4.8c-.5,1.65-1.55,4.52-.75,5.9.66-4.13,3.83-8.22,3.78-10.93a30.83,30.83,0,0,0-.46-4.2c.64.1,1.27.21,1.87.35C636.92,57.77,636.94,61.29,638.3,64.86Zm-43-14c3-2.46,6.63-4.55,9.14-4a2.81,2.81,0,0,0,.57,1c-.85.73-3.61,4.19-4.1,4.47-.06,0-4.31,1.51-4.68,1.56A19.1,19.1,0,0,0,595.3,50.85Zm36.6-3.32c1.4.45,2.57.89,3.36,1.2-.85-.06-1.83-.12-3-.17A10.36,10.36,0,0,0,631.9,47.53Zm-1-13.76a14.84,14.84,0,0,1,2.09-.1,11.63,11.63,0,0,0,2.49,1c.17.67.33,1.35.47,2-2.07.4-4.35.84-6.67,1.22A31.57,31.57,0,0,1,630.9,33.77Zm-1.78,14.7c-1.16,0-10,.41-12.33.83.56-.78,1.15-1.64,1.69-2.36a5.93,5.93,0,0,1,2.3-1.34,28.93,28.93,0,0,1,6.82.76C627.74,47.18,628.61,47.85,629.12,48.47Zm-3.73-11c.07.42.12.75.15,1l-1.15.14C624.84,37.93,625.19,37.48,625.39,37.44ZM598.3,12.88a14.62,14.62,0,0,1,5.48-2.07c1.22-.16,4.28,1.13,5.64.94a49.69,49.69,0,0,1,5-.34,38.86,38.86,0,0,0,7.19,1.82c.51,1.32,2.68,5.47,3,5.87-.46,1-1,2-1.54,3.09a45.86,45.86,0,0,1-8.33-2.05c-1-2.32-4.6-1.84-8.62-2.32-2.36-.28-5.64-2-8.28-3.36A10.43,10.43,0,0,1,598.3,12.88ZM586.13,25.2c2.93-1,4.59-.23,6.58-1.43A62.35,62.35,0,0,1,599,26.72c1.5.86,2.55,2.22,4.08,2.8s3.73.46,5.48.77c3.29.57,6.26.26,8,.82-.17.38-1.38.21-2.36.93s-1.67,1.93-2.65,2.66c-1.57,1.19-3.4,1.24-5.16,2.38-1,.61-1.52,1.34-2.38,2a44.23,44.23,0,0,1-16.56-3.22,34,34,0,0,1-1.8-4,28.77,28.77,0,0,1-1.36-6.19A9.87,9.87,0,0,0,586.13,25.2Zm5.34,34.94c-.07.35-.14.7-.19,1.06a5.47,5.47,0,0,1-.64.71l-.64-.55a5.19,5.19,0,0,0-.2-1.28C590.36,60.11,590.91,60.13,591.47,60.14Zm-5.82-6.93c-.81-1.06-.72-3.1-1.58-4.59,1.44-.09,4.33.53,6.23-.19.25.49.48,1,.7,1.46A60.73,60.73,0,0,1,585.65,53.21Zm1.45-9.15c-.47,0-1.91-.1-2.35,0,.21.42,2.32.51,2.51.71a9,9,0,0,1-3.54.63,8.71,8.71,0,0,0-1.24-2.82C583.33,43.25,586.73,43.42,587.1,44.06Zm-8.74-19.24a6.35,6.35,0,0,0,2.52.8,29.88,29.88,0,0,0,1.36,7.53c-.62-.38-1.24-.78-1.86-1.21-2.42-1.67-4.42-4.15-5.93-5.67C575.73,25.88,577,25.37,578.36,24.82ZM563.9,70.46c-1.19,4.46-4,8-5.76,10.79-1.62-1.42-3-2.64-4.25-2.69-2.73-.12-2.3.6-4.55,1-.72.12-4.17-.53-5.72,0,.35.57,4.64,0,4.48,1.28-5.85.28-9.93-2.42-14.12-5.18,1-2.17,1.31-4.84,2.58-7.15a16.86,16.86,0,0,1,2.67-3.62c2.16,1.74,4.76,4.27,8.83,3.61,2.48-.4,6.56-5.48,6.78-10.16a45.53,45.53,0,0,1,7-5c.33.07.66.15,1,.25,4,1.21,6.56,3.69,11.85,4.86-.58,2.67-1.45,5.54-.94,8.43S577,73.28,578.16,77a18.26,18.26,0,0,1,.11,5.65,6.81,6.81,0,0,1-3.81,1.19c-4.06-.52-10.59-.57-13.37-.66-.17-1.37.5-2.71,1.17-4.38C563.55,75.64,565.25,71.83,563.9,70.46ZM550,85.19c-2.66.56-7.68-.44-11.15.09a86.13,86.13,0,0,0-4.55-7.62A48.07,48.07,0,0,0,550,85.19Zm-30.85-22.5c-1.33,1.81-3.42,2.36-5.18,4.21a6.63,6.63,0,0,0-.62.78c-1-1.33-1.94-2.6-2.86-3.57a59.35,59.35,0,0,0-6.55-5.67c.43-1.45.35-2.92,1.06-4.77.49-1.26,2.27-3.1,2.62-4.58a11.15,11.15,0,0,1,3.65-6.4,86.38,86.38,0,0,1,10.66,2.05,1.9,1.9,0,0,0-.22.78c-.18,3.09,2.66,7.5,4.65,9.52a20.23,20.23,0,0,0,4.06,2.51c-1.73.45-3.78.63-5.55,1.24-2,.7-4,2.08-5.7,2.25-2.74.28-7,.23-8.86-.69C510.24,61.11,515.81,62.5,519.14,62.69Zm-29-16.47a21.08,21.08,0,0,1,1.45-5.61,25,25,0,0,0,5.29,1,19.38,19.38,0,0,0,4.39-.6,13.43,13.43,0,0,0,1.48.56c-.9.19-1.54.45-1.49.94a20,20,0,0,1,7.33-.06c-1.62,1.9-2,3.94-3,6.38-.56,1.34-1.85,3-2.38,4.3a19.33,19.33,0,0,0-.87,4.07c-3.78-2.85-8.1-5.92-12.38-9.34A8.81,8.81,0,0,0,490.14,46.22ZM489,36.69l-.85-.16c-.05-1.07-.17-1.93-.14-2.59l2.19.25C489.77,35.07,489.37,35.92,489,36.69ZM501.1,39c-1.51.18-6.68-.22-8.27-1.44.46-1,1-2.09,1.52-3.13a100.67,100.67,0,0,0,13.5-.83c2.82-.3,7.48-.85,12.49-1a8.94,8.94,0,0,1-.82.53c-3.85,2.19-3.35,4.11-6,5.37a38.31,38.31,0,0,1-5.26,2c-1.69-.1-3.38-.17-5.05-.23,2.5-1.05,5-3.27,6.19-3.41C509.08,35.62,504.57,38.62,501.1,39Zm26.21,1.76a24.88,24.88,0,0,1-2.73,1.79c-.7-.1-7.39-1.24-10.15-1.52,1.79-1.24,3.54-3,5.49-3.82,1.62-.64,2.38-.11,3.83-.92.81-.46,1.29-1.65,2.22-2.13.77-.39,2.36-.42,3.25-.82a5.56,5.56,0,0,0,.79-.45,31,31,0,0,1,4.8.91C531.61,36.12,529.28,39.26,527.31,40.77Zm5.1,5.74c1.39,0,2.78,0,4.14,0a4.87,4.87,0,0,0,1.66,1.22,31.61,31.61,0,0,1-2.91,4.91c-1.56-1.48-3.2-3.92-3.18-5.23A1.82,1.82,0,0,1,532.41,46.51Zm14.78-4a7,7,0,0,0-1.14-.18c.1-.64.29-1.36.42-2,2.06,1.43,4.11,2.9,6,4.16l-2-.22C549.15,44.1,548.07,42.73,547.19,42.5ZM550,47.29l-.73.11a6.94,6.94,0,0,0-.24-.73C549.22,46.77,549.85,47.19,550,47.29Zm-4.38-6.76a4,4,0,0,1-.57-1.22l1.12.78C546,40.41,545.87,40.63,545.62,40.53Zm3.54,10.28a4.4,4.4,0,0,1,3.49.45c2,1.53,5.13,1.37,8.16,1.85a19,19,0,0,0-6,5.07c0-.61.14-1.74-.13-1.78-.48,2.45-2.66,8.91-6.48,8.58-1.32-.12-2.58-1.47-5-3.16a10.23,10.23,0,0,0-.84-1.94c.67-1.36,1.31-2.46,1.82-3.49C545.75,53.23,548.21,53.18,549.16,50.81Zm7.62-16.41a12.38,12.38,0,0,1,9.77,2.44c1.38,1.35,5.21,10.2,5.52,10.76a19.1,19.1,0,0,0-3.89-1.37c-.58-.5-1.15-1-1.7-1.51-4.55-4.15-8.81-5.46-13.48-8.66-.53-.37-1-.71-1.55-1.05C553.82,34.7,555.87,34.61,556.78,34.4Zm-7.57-20.47c-3.9.27-9,.59-12.06-1.75A68.81,68.81,0,0,0,549.21,13.93Zm-7.16-7.59c-1.09.43-6.89-1-8.48-1.52-2.08-.65-4.81-2.63-7.46-4.45C531.22.48,536.61,2.35,542.05,6.34Zm-9,4.72c-.74-.17-5.37-1.15-8-1.86C528.21,8.08,529.81,10.09,533.06,11.06Zm-7.31,14.71a7.28,7.28,0,0,0-1.74,2c-6.81.59-15.85,1.95-20.27,2.62-2.33.35-5,.71-7.57.91,2-3.14,5.24-6.18,7.55-7.17.36.06-1.88,2.86-1.32,3,.48-1.11,3.53-3.41,4.71-3.84a51.07,51.07,0,0,1,7.14-1.79,29.58,29.58,0,0,0,5.51,2A18.21,18.21,0,0,1,525.75,25.77Zm-18.4-12.6A26.32,26.32,0,0,1,500,17.65a25.78,25.78,0,0,1-2-4C501.58,12.53,505.19,12.23,507.35,13.17Zm-10.44-8.4c1-.11,1.95-.18,3.19-.35l.6.24c-1.15.34-2.48.77-3.84,1.2C496.87,5.49,496.88,5.12,496.91,4.77Zm-3.63,10.92a23.16,23.16,0,0,1,2.23-1.11,20,20,0,0,0,2.39,3.9A28.13,28.13,0,0,1,492,19.91C492.19,18.64,493,17,493.28,15.69Zm2.66,9.83c-1,1.34-2.42,3.27-4.13,5.93-.8,0-1.57,0-2.32-.08A34.11,34.11,0,0,1,495.94,25.52Zm-10.19-4.66c2.08-1.11,2.83-2.73,4.11-3.25a113.25,113.25,0,0,1-6,13.18l-1.21-.13C483.07,27.81,483.89,23.54,485.75,20.86Zm.17,22.37a4.91,4.91,0,0,1-.22,1.11l-1.06-.94A3.24,3.24,0,0,1,485.92,43.23Zm-1-3.13c0-.2.07-.39.11-.58.29.07.57.14.85.19A4.16,4.16,0,0,1,484.89,40.1Zm-1.31,11.26A6.84,6.84,0,0,1,481.72,54a21.64,21.64,0,0,1-.69-5.51C481.93,49.5,482.75,50.45,483.58,51.36Zm-1.14-27.23c-.34,1.85-1,4.07-1.48,6.34-1-.11-2-.19-2.93-.27l-.38-.37C478.07,29.3,481.28,24.75,482.44,24.13Zm-14.76-4.88c2-1.38,7.31-3,10.34-3.78.43.92-2.21,2.66-2.35,3.7a7.72,7.72,0,0,1-1,3.17,12.27,12.27,0,0,1-2.5,2.53,34.92,34.92,0,0,0-5.93-4.07A7.52,7.52,0,0,1,467.68,19.25ZM467.8,39c.82-.41,1.69-.58,2.49-.91,1.82.83,3.48,4.13,5.21,5.34a29.29,29.29,0,0,1-12,9.12,32,32,0,0,1-5.94,1.38,30.53,30.53,0,0,0-4.24,1.62c-4.34,1.52-9.11,3.41-13.5,3.67A13.08,13.08,0,0,0,433.29,61c-2.28,1.6-3.12,1.47-5.18,2.34a24.94,24.94,0,0,0-5.74,3c-5,4.16-6.57,10-9.4,14.47a27.46,27.46,0,0,1-3.28-5c-1.38-2.89-2.54-6.25-5-7.38A41,41,0,0,1,402,59c2.88.17,6.39-1.44,9.27-1.15,2.86,1.26,6.66,1.88,10,3.54-.38-1-2.28-1.9-4.16-2.83a18.08,18.08,0,0,0,3.12-.16c2.78-.76,8.64-3.57,14.28-5a114.68,114.68,0,0,0,18.83-6.6c2.7-1.13,5.24-2.41,7.65-3.71S465.48,40.16,467.8,39Zm-65.15,6.37c1.6,3,3.13,3.55,4.25,6.17.13-1.94-1.6-3.83-3-7,1.08-.27,2.16-.55,3.24-.86,1.1.21,2.22.4,3.39.54a26.91,26.91,0,0,0,7.91-.21c1.81-.33,3.63-1.32,5.45-1.48,2-.18,4.08,1,5.87,1,1.32,0,2.39-.63,3.61-.51a6.41,6.41,0,0,1,3.75,1.79c-2.93.56-5.77,2.9-9.16,4.13s-7.73,1.16-8.3,3.89c-5.11,1.91-9.19,1.32-13.09.87-1.29-.14-2.74-.23-4.22-.32l-.61-.28a36.4,36.4,0,0,0-1.41-5.58C401.05,46.73,401.84,46,402.65,45.35Zm-2.74.8c-.06-.22-.12-.43-.19-.65l1.12-.26Zm10.58-3.5c2.83-.88,5.61-1.85,8.28-2.91a9.34,9.34,0,0,1,1.88,1.3A23.63,23.63,0,0,1,410.49,42.65ZM404.21,57.2a21.91,21.91,0,0,1-2.32.59q0-.66,0-1.32A7.49,7.49,0,0,1,404.21,57.2Zm55-25.43c1.08.46,2.14.95,3.14,1.5-1.28.8-2.67,1.54-3.74,2.14C459.12,34.33,459,33.21,459.25,31.77Zm-8.66-4.16a20.3,20.3,0,0,0,5.33,2.81c0,.15-.06,2.17-.11,3.16-.07,1.22-2.15,4-3.41,4.67-2.06,1.19-5.87,1.89-10.44,3.44-1.57,0-6.77-1.92-9-1.44-3.28.71-6.07-.69-8.22-.45a10.68,10.68,0,0,1-4.08-.85c.49-.2,1-.4,1.47-.61,6.62-2.89,11-3.66,17.82-9.73C445.22,31.34,447.8,25.28,450.59,27.61ZM400.46,1.22c2.26.63,5,1.6,8,2.55,2.21.72,3.59.41,5.78.94,1.68.41,4.21,1.73,5.7,1.86,2.77.25,5.07,1.33,10.26,0,3.94-1,9.3-.5,12.88-.64-.42,4.79-3.28,6.35-4.94,8.91-5.5-1.06-17-4.82-24.18-5.08-5.22-.19-10.45-2.26-15.32-6.61C399.21,2.52,399.88,1.88,400.46,1.22Zm-2.89,16.59c1-2.66-.44-5.66-.81-9a22,22,0,0,0,4.45,3.65c7.79,4.26,16.06,3.2,23.08,4.75,3.74.83,7.28,1.78,10.49,2.54-1.82.73-5.49,1.27-7,2.13-6,3.28-10.57,2.38-13.14,3.69,3.93-.6,6.8.22,11.8-1.33,3.27-1,7-2.61,9-1.73a36,36,0,0,1-3.76,2.93A45.84,45.84,0,0,1,426,28c-.75.14-2.3,1.11-3.06,1.32-1.92.54-2.83.33-4.86,1.41a30.66,30.66,0,0,0-3.68,2.32c-3.93,1.28-7.51,2.07-9.94,1.92-1.9-.11-4.08-.06-6.37,0a13.26,13.26,0,0,1-1.91-4.78c-.31-1.75-.43-5.06-1.82-7.9C397,21.48,397,19.33,397.57,17.81Zm-.25,34.06-.81-.19c.18-.24.39-.5.59-.75C397.18,51.25,397.26,51.57,397.32,51.87Zm-1.53-5.57c.36,1.13.69,2.23,1,3.29-.5.59-1,1.18-1.45,1.76a49.73,49.73,0,0,1-6.84-2.61c1.06-.53,2.07-1.16,3-1.71C392.85,46.82,394.31,46.57,395.79,46.3Zm-4.32,5.31a26.8,26.8,0,0,0-8-.72c-1,0-2,.16-3,.31,0-.9.07-1.71.13-2.44a9.59,9.59,0,0,0,1.57.85,6.12,6.12,0,0,0,4.28,0C388.09,50.32,389.78,51,391.47,51.61Zm-3.85-27a31.19,31.19,0,0,1,4.84,10.63c-2.9.33-6.38,1.2-9.11.32a24.88,24.88,0,0,1-5.58-3.2,32.62,32.62,0,0,0-2.19-4.21,43.16,43.16,0,0,0-3-3.78,12.31,12.31,0,0,0,2.83,1.81c1,.55,3.48-.21,8.25-.6A14.51,14.51,0,0,0,387.62,24.59ZM358.93,44.37c0-2-.87-2.36-.85-4.3,3.13.22,6.13-.23,9.45.38,1.08.59,5.9,2.77,7.2,3.22,1.47,1.18,2.86,2.65,4.31,3.9,0,1.25,0,2.55.11,3.85a24.6,24.6,0,0,0-3.53.94c-3.67,1.28-11.93,3-12.06,3a12.66,12.66,0,0,1-3.25-2.57C358.64,50.82,359,46.74,358.93,44.37Zm11.52-16.16a7.59,7.59,0,0,1,.42-1.43,25.2,25.2,0,0,1,2.19,2.61C372.84,29.27,371.11,28.46,370.45,28.21ZM366.9,7.15A8.85,8.85,0,0,0,372,9.35,47,47,0,0,1,377,14c2.35,2.7,4.17,6.63,6.59,8-2.28.52-6.58,1.44-7.34,1-1.33-.71-4.83-2.55-6.17-5.73a10.21,10.21,0,0,0-.62-2.88c-.69-1.6-1.93-2.63-2.37-4.2A8.06,8.06,0,0,1,366.9,7.15Zm-5.51-3.38.74.32c.36,2.84.78,6.3,1.82,7.86,2.45,3.7,2.07,7.83,3.41,10.36a13.33,13.33,0,0,1,.91,5.16,58.58,58.58,0,0,1-6.47-2.07c-5.57-2.56-9.61-12.51-13.39-21.45A48.49,48.49,0,0,0,361.39,3.77ZM346,50.83c1.73,2.75,4.62,4.33,7.59,7.49a31,31,0,0,1,2.14,3.22c.69,1,3.76,1.67,4.63,1.66,2.41,0,5.22,1.07,6.56,1.45s2.48,1.49,4.27.76c.9.67,3,1.74,3.73,2.24,5,3.66,8.88,7.43,11.5,6.12-3.06-1.5-6.08-5.92-9.93-8.56-3.43-2.35-6.48-5.08-8.8-5.84-1.64-.54-2.5-2.32-2.83-2.72,2.76-.33,7.24-1.54,10.67-1.78a39.08,39.08,0,0,0,4-.34,14.65,14.65,0,0,0,.72,2.52c.05-1,.08-1.88.11-2.72,3.22-2.25,9.22-.71,12.1.9a109.77,109.77,0,0,1-11,12.1c5.75-3.2,7.88-7.83,12.23-11.83a24.84,24.84,0,0,0,4,.52c.1.78.2,1.55.33,2.33a45.35,45.35,0,0,0-6,.72,44.51,44.51,0,0,0,6.17.32A34.42,34.42,0,0,0,401,67.88a37.46,37.46,0,0,0,5.62,9c1.59,1.86,3.31,4,4.89,6.09-3.78,5.43-7.38,9.89-7.37,13.22,0,3.64-3.79,6.64-4.88,7.94a21.45,21.45,0,0,1-7.52,5.61c-2.05.68-2,1.3-2.4,1.76-2-.18-2.94,1.31-4.72,2.45-5,3.2-5,5.59-6.77,8.07a18.54,18.54,0,0,0-2.26,3.65,105.88,105.88,0,0,0-11.76-3.87c-3.22-.93-6.37-1.78-9.5-2.57a19.81,19.81,0,0,0-1.33-2.13c-2.77-3.79-7.47-5.17-9.76-9.15-1.1-1.92-1.81-4.52-2.83-6.83s-1.81-5.08-3-7.08c-.65-1.08-1.7-1.86-2.14-2.88-.64-1.49-.32-3.63-.69-5.45-.4-2-2-5.33-1.51-7.24,2.45,2,5.59,1.54,8.8.24,5.79-2.33,11.83-7.39,14.63-5.77a35.8,35.8,0,0,1,8.45,8.27c1.64,2.39,5.26,7.81,5.12,9-.23,2-.58,9.14-3.39,11.48-4,3.31-4.52,6.17-6.93,6.64,2.57.3,3.5-1.43,5.08-3.09s3.65-.84,5.3-3.05,1-3.68,2.64-6.52a13.4,13.4,0,0,0,1.61-5.94c.18-1.52-1.94-4.18-4.71-9.88-2.35-4.84-7.5-7.91-8.93-11.13-1.58-3.57-3.93-2.07-6.17-2.3-3.92-.42-9.79,4.88-14,6.34-3.08,1.06-6.11-.81-9-1.87-.31-3.09-.45-7-.69-11a14.21,14.21,0,0,0-.44-2.78,8.5,8.5,0,0,0,2.85-4.82c.9-4.14-3.91-15-6.87-16.3-.59-1.29-3.19-5.31-3.51-5.85,1.75,1.09,3.37,1.93,3.84,3.21a5.8,5.8,0,0,0,4.86,4c2.6.34,3,2,5.85,4.5C339.78,44,341.42,47,345.05,49,345.35,49.64,345.67,50.24,346,50.83ZM303.17,116A82.26,82.26,0,0,1,331,117.36c1.38,5.79,4.56,11.19,5.88,12.22s3.31,4.19,4.32,5.8a30,30,0,0,1-5.78-1.49c-3.26-1.36-7.28-3.52-11.67-4.49-6.32-1.4-5.23-6.39-12.31-10.07.52-1.23,4.19-.27,6.19,1,0-1.21-2.87-3.33-8.36-3.12C305.94,117.32,303.09,116.74,303.17,116Zm29.09-8a58.8,58.8,0,0,0-1-9.14c1,1.37,2,2.41,3,1.81-1.92-2.17-2.65-4.82-3.61-6.28a13,13,0,0,1,.05-3.36c1,3.1,4.18,6.44,5.59,10.33,2.06,5.7,4,8.84,7.37,12.31a46.53,46.53,0,0,0,5.48,4.38c-4.15-1-14.84-3.37-15.94-3.68A28.54,28.54,0,0,1,332.26,107.92Zm-7-43c-.27-.62-.65-1.56-1.1-2.68h0c.33-.36.66-.69,1-1C325.24,62.68,325.27,64,325.24,64.87Zm17.81-28.44c-2.86-1.85-6.27-4.39-8.4-7.4a35.16,35.16,0,0,1,8.93,2.06C343.36,32.94,343.17,34.72,343.05,36.43Zm-1.27-18.49c0,.85,0,1.67,0,2.46a6,6,0,0,1-.86-2.92Zm-9.38.14c1.87-.06,3.81.19,4.78.92,1.37,1,5.17,6.69,5.18,6.75-5-1.65-10-3.17-13.42-6.67-2.09-2.15-3.53-1.28-6.87-2.54a8.49,8.49,0,0,1-1.85-1C325.21,15.31,328.19,18.2,332.4,18.08Zm-11.75,54c1,2.28,3.94,3.64,6.08,4.44A86.54,86.54,0,0,0,326.08,91c-.68-.17-1.11-1.51-1.18-1.92-.73-4.12-3.06-6.08-4.08-8.21C319.53,78.15,321,75.46,320.65,72.12ZM310,20.86a18.61,18.61,0,0,0,2.66,1.66c1,2.13,2,4.51,3.18,6.83-1.76-.65-3.81-1.05-5.65-3.12a30.77,30.77,0,0,1-3.65-5c-2.24-3.4-8-6.39-10.35-11.45C302.63,11.83,304.89,16.7,310,20.86Zm1.94,29.88c.56.78,1.38,3.19,2.9,5.42-.28.33-2.12.28-3.94-1.3S301.81,51.3,298.54,46C301.32,47.85,309.53,47.4,311.94,50.74Zm-11.91-8c1.15-.59,3.68-1.73,5.61-1.06,1.67.58,2.76,2.88,3.54,3.87C307.21,45.42,302.59,43.07,300,42.75Zm2.25,12.54c2.74.52,5.41,2,8.53,4.74a7,7,0,0,0,2.41,1.18c-1.59,2.36-3,4.88-5.83,6.65-3.78,2.39-8,7.63-12.51,10.24-.32-.68-.64-1.35-.95-2-2-4.22-3.57-7.84-4.91-11.16a135.66,135.66,0,0,1-6.59-21.35c2.38.34,4.34.14,5.8,1.29,1.72,1.35,2.7,4.06,4.69,5.83A21.73,21.73,0,0,0,302.28,55.29ZM281.74,25.62a9.16,9.16,0,0,1,9.9,3.79c1.08,1.56-.2,3.9.44,5a22.23,22.23,0,0,1-4.74-.26,5.6,5.6,0,0,0-1-1,12.28,12.28,0,0,0-7.26-2.57c-.36-.94-.68-1.93-1-2.94A19.05,19.05,0,0,1,281.74,25.62Zm-30.05-4.14c1.28,1.51,2.53,3.18,3.73,4.85-.13.14-2.35,2.29-3.38,3.2a14.77,14.77,0,0,1,.22-4C252.49,23.75,250.94,23.22,251.69,21.48Zm-4.93,37.85a2.56,2.56,0,0,0,2.12-.34c.75-.67.89-2.1,1.38-3.37A30.8,30.8,0,0,1,253,53.2a13.11,13.11,0,0,0,3.78-2,16.94,16.94,0,0,0,4.87-2.37c4.28-3.51,8.95-6.48,13.36-6.63a10.58,10.58,0,0,0,3.11,1.15c3.57,8,5.37,17.95,8.16,23.5,2.35,4.67,4.45,8.38,6.57,12.27a79.83,79.83,0,0,1-11.49,4.37c-1.79.47-5.51.93-5.53,3.27a56,56,0,0,0,19.06-3.86c4.53,8.4,10.55,20.63,13.67,21-3.87-3.66-7.56-13.29-11.7-21.75A99.07,99.07,0,0,0,316.39,71.5c1.32,2.14-1,5.33-.11,8.24,1.06,3.43,5.74,8.38,6.91,11.28a5.53,5.53,0,0,0,3,3,81.71,81.71,0,0,0,3.5,19.31,50.52,50.52,0,0,0-5.29-.92c-12.76-1.58-24.36-.06-37.05.39-2,.07-4.14.14-6.21.1,2.16-2.78,1.2-5.16,1.85-7.68,1.11-4.37,5.1-7.83,6.53-8.19-2.23-.3-7.58,5.4-8.8,9.48a14.76,14.76,0,0,1-2.67,5c-5.25-.4-11.48-3.49-14.32-4.3s-4.32-.51-8-3.7a26.25,26.25,0,0,1-4.44-5.42c1.23-1.13,4.59-6.5,6.22-8.86s3.34-2.69,5.66-6.09c1.71-2.5,5.22-2.92,8.33-4.39,3.72-1.77,7.77-5.68,7.5-6.56a50.64,50.64,0,0,1-7.86,4.47c-4.8,2-7.34,1.38-11.78,6-1.22,1.27-2.82,1.74-4.92,4.95a34.08,34.08,0,0,1-5.37,6.7c-4.12-7.63-7.75-18.15-8-27.47C241.57,63.56,245.46,60.76,246.76,59.33Zm23.31,59.94c-2.25.18-5.87-.66-9.4-2.1,1.14,0,2.26.06,3.35.12C265.24,117.91,269.43,119.05,270.07,119.27ZM244.75,97.53l-.62.3c-2.51-3.09-4-6.66-5.95-9.7a40.62,40.62,0,0,0-3.88-4.49,12.34,12.34,0,0,1,2.25-3.34A75.45,75.45,0,0,0,244.75,97.53Zm-35,30.17a132.12,132.12,0,0,0,14.73,7,48.48,48.48,0,0,1-7.19-.12c-2.33-.3-4.71-.57-6.92-1.06a4.87,4.87,0,0,1,0-1.27C210.69,130.9,209.51,129.21,209.78,127.7Zm1.35-3c1-1.57,1.82-2.82,1.33-5.11s-3.78-5.69-6.3-7.28c1-.35,2.16-.67,3.35-1,.67.29,1.42.74,2.61,1.2,2.3.9,4.29,2.7,7.76,2.79s4.94,1.57,9.8,2.07a59,59,0,0,1,9.13,2.21c1.86,4.11,4.55,9.24,4.9,12.37-3.59.42-6.94,2.16-10.76,2.76-1.31-.47-2.61-1-3.92-1.55A175,175,0,0,1,211.13,124.74Zm9.21-15.4c5.14-1,9.61-2,14.57-.6a37.54,37.54,0,0,1,2.23,6.5,16.68,16.68,0,0,0,.81,2.42c-2.83-.78-5.13-2.1-8-2.34-4-.33-6.92-2.21-8.57-2.72a8.06,8.06,0,0,1-3.46-2.35,16.26,16.26,0,0,0,4.69-.64C222.31,109.36,220.68,109.71,220.34,109.34Zm20.36,7.42a4.11,4.11,0,0,1,1.67,2.13c-.37-.13-.74-.24-1.11-.35Zm-6.36-47.42c-.19,2.75.42,4.45.82,6.57A14,14,0,0,1,232.33,82l-.18-.14C231.59,79.05,231.87,72.94,234.34,69.34ZM228.51,94s1,2.72,1.64,4.12a11,11,0,0,1-3.11-.94A11.73,11.73,0,0,1,228.51,94Zm-7.06-22.28a16.73,16.73,0,0,1,5.11-1.46,29,29,0,0,0-1.16,7.24c-2.18-1.24-4.33-2.41-6.47-3.82A10.53,10.53,0,0,1,221.45,71.72ZM204.93,90.86c1.5-2.49,2.75-5.88,5.41-9.08,1.31,2.12,8.27,4.11,11,5.65a23.16,23.16,0,0,1,5.76,4.84c-.38,1.29-.79,2.73-1.13,4.18-2-1.49-4.07.44-6.3.74s-4.48-.81-5.79.13c-3.15,2.26-8.62,3.23-12.29,3.76a8.63,8.63,0,0,0-2.52-.43C200.42,97.41,202.87,94.29,204.93,90.86Zm-.88,35.5a11.32,11.32,0,0,0-.86,3.15,32.51,32.51,0,0,0-1.4-3.26c-1.32-2.1-4.7-3.51-5.59-6.23C197.34,120,201.55,124.47,204.05,126.36Zm-11.7-2.53c.6.76.86,1.42,1.84,2.55,1.42,1.64,2.79,1.54,3.57,2.59,1.05,1.41,2.56,4.39,4.27,5.74a34.59,34.59,0,0,1-5.78,9.09c-2.46-2.28-7.6-6.4-8.33-9.2A32.86,32.86,0,0,0,192.35,123.83Zm1,22.52c-.91.68-1.83,1.33-2.77,2s-2.84,2.26-2.23,3.64a28.52,28.52,0,0,0,7-3.87,51,51,0,0,1,9.41,10.32,20.94,20.94,0,0,0-9.06,2.28c-2,1.14-4,3.91-5.8,6.48-.81.29-1.41,1.27-2.1,1.47a18.9,18.9,0,0,1-2.91-.12,14.4,14.4,0,0,1-3.08.09,35.32,35.32,0,0,1-4.34-1.84c-1.5-.65-3.22-.89-4.28-1.46-3.39-1.83-5.75-4.83-8.87-6.14a29,29,0,0,0-4.62-1.5c5.43-4.8,11.92-7.93,15.75-13.32,3.51-.4,6.81-2.73,9.57-5.89C186.4,141,190.94,144.32,193.33,146.35Zm12.3,13.46,1.69,2.84c-1.77.77-3.55,1.54-5.4,2.29a32.17,32.17,0,0,1-7.36,2.3,11.41,11.41,0,0,1-2.33,0,13.69,13.69,0,0,1,3.33-4.2C198.13,160.87,202,160.1,205.63,159.81ZM181.73,49.08a32.72,32.72,0,0,0,3.93-.48c-.31.88-3.18,6.9-5.1,8.06-1,.59-3.51-.54-6.6.31-4.89,1.35-7,2.28-11,2.94-1.88-1-7-1.41-7.36-1.53,2.46-1.38,5.69-3.52,9.47-4.37C169.46,53,178.48,49.26,181.73,49.08ZM158.66,77.14c2.78-.18,6.35-.86,7.92-.66,2.67.34,4.73,1.91,7,3.06a48.12,48.12,0,0,1-2.87,4.87,8.72,8.72,0,0,0-2.22-2.11c-1.31-.74-3.38-.47-5.4-1s-3.88-1.86-5.44-2a8.11,8.11,0,0,0-3.32.58c-.24-1.14-.46-2.31-.65-3.51C156.17,76.39,157.6,77.21,158.66,77.14Zm-4.07,86.45a20.06,20.06,0,0,1,2.37.23c4.59.8,8.13,4,12,6.05,4.11,2.13,10.2,4.45,13.94,4.27a14.38,14.38,0,0,0,2.86-.49,33.79,33.79,0,0,0-1.07,5.27c-.3,1.94-.3,4.56-1.73,6.52-5.76-4.32-12.45-7.1-14.05-6,4.59,2,8.9,4.35,11.72,9.21l-.39.51a53.89,53.89,0,0,1-6.73,0c-6.81-.44-14-.83-21.15-3.56,1.42-1.43,6.11-6.53,9.12-7.88s7.15-3.13,7.51-5.71c-1.83,2-4.59,3.17-9.48,4.72a7.54,7.54,0,0,0-1.38.59c-1.88,0-3.77,0-5.65-.11-2.34-.08-4.31.38-7,.19C148.21,172.58,151.78,168.37,154.59,163.59Zm-4.5,24.13a54.34,54.34,0,0,0,10.92,3.6c-.17-.58-1.67-1-2.13-1.68,5.75,1,14,2,20.21,1a28.57,28.57,0,0,0-3.63,5.66c-1.21,1.32-26,6.94-33.1,8.28-3.19.6-5.28.16-7-.91a27.18,27.18,0,0,0,6.43-6C143.64,195.35,145.84,190,150.09,187.72Zm-2-4c.15-.24,1.35-.28,2.74,0l-.89.89C149.32,184.35,148.71,184.05,148.09,183.73Zm3.76,28.15c4.45-3.07,8.46-4.08,13.2-4.94a21.93,21.93,0,0,1,9.47.76c.63-1.43-3.46-2-3.55-3a57.71,57.71,0,0,1,8.74-1.81c-3.62,5.61-9.22,12.15-12.58,11.77a12.57,12.57,0,0,0-6.49.71c-2,.79-7.66-.76-12.92-1.91h0A11.54,11.54,0,0,0,151.85,211.88Zm-7.62-32c3.38-.74,7.76-.63,11.53-.91a51.86,51.86,0,0,0-4.28,4.11c-2.24-1.12-5.93-2-7.39-2.95ZM142,184.15c.18.07,3.78,1.69,5.57,2.48-2.3.83-5.11,5.42-7.89,9.33a13.34,13.34,0,0,1-5.66,4.57C136.65,195.06,139.28,189.53,142,184.15ZM104.27,49.35a6.62,6.62,0,0,0,1.18,0,5.52,5.52,0,0,1,1.35,2.22c.83,2.7.91,7.56.87,12.89a9.63,9.63,0,0,1-1,.32c-2.9-3.73-6.83-8.88-7.38-9.4C99.39,55.28,102.6,51.25,104.27,49.35Zm-10,46c5.28,2.1,10,4.66,16.13,7.77l0,0a68.52,68.52,0,0,1,.33,7,124,124,0,0,1-3.57,29.06,22.58,22.58,0,0,1-8.21,1.9c1.27-1.46,3-3.36,3-4.08-.91,1-4.48,4.08-4.55,4.17-4.32.2-8.65.07-12.39,1.5,3.21-2.92,4.55-6.6,6.5-9.69.61-1,2.28-2.39,3.46-4.37a21.41,21.41,0,0,0,2.7-7.34c.45-2.14,1.92-4.23,2.28-5.63.87-3.34.09-5-1.5-8.61-1.07-2.4-3.28-3.94-5.4-5C93.19,101.44,92.73,97.48,94.28,95.35ZM48.4,239.07c2.9-4.4,3.72-10.34,2.89-16.24.16-.07,13.91-4.89,20.49-6.82C66.9,224.6,60,234.85,58.71,238,54.9,238.48,51.4,241,48.4,239.07ZM30.82,108.64c6.47-2.26,18.1-3.53,22.9-3.28-4.35,7.12-3.82,14.67-2.87,22.08-4.45,2.71-12.4,6.72-19.32,10,0-.78,0-1.55,0-2.32C38.36,127.85,37.28,114,30.82,108.64Zm8.31-10.2c2.35-1.54,4.27-5.73,5.53-6.69,1.9-1.44,1.38-2.61,3-4,2.36.62,15.38,1.58,19,1.45a68.13,68.13,0,0,1,9.5.18c.37,1.81,1.27,2.76,1,3.93-.58,2.28-4.43,6.94-6,10.06-2.3,4.71-3.11,7-4.69,9.43a45.17,45.17,0,0,1-13.07,13c-1.27-4.68-2.15-9.46-.88-14.1,1.08-3.93,2.64-6.82,5.81-11.92A26.7,26.7,0,0,0,54,105c-2.62-1.76-12.17-1.14-18.7-.37C36.44,103.47,38.9,100.81,39.13,98.44Zm-2.54-12a40.85,40.85,0,0,1,7.25.85c-.7,1.64-2.22,2.13-2.72,3.83a8.15,8.15,0,0,1-1.69,2.84c-.2-1.18-2.06-2.64-2.84-4C36.1,89,36.33,87.71,36.59,86.39Zm7.25,66.25a50.08,50.08,0,0,0,5.95-2.56c-.51,2.86-1,5.88-1.63,8.87-.91.5-1.84,1-2.76,1.58a20.4,20.4,0,0,1-5.1-2.13C40.55,156.63,42.53,154.58,43.84,152.64Zm14,8.47a47.51,47.51,0,0,1,18.14-12,43.21,43.21,0,0,1,6.55-1.89c2.09-.47,8.64-3.59,12.14-2.54-3,3.57-6.32,6.77-10.21,8.64-3.69,1.78-5.65.24-10.47.6s-8.58,5.33-13.25,6.69A14,14,0,0,1,57.82,161.11Zm12.41,9.29c-1.32-.36-2.92-2.77-3.5-4.14,2.53-2.16,11.15,1.06,14.2-1.37s7.16-3,10.3-4.65c1-.53,2.54-1.49,2.58-2.82-2.58,2.82-8.25,3.58-13.07,5.5s-8.41-2-13.32-1.29c1.18-3,5.37-4.15,8.24-4.48,3.26-.38,5.28.19,7.78-.63,3-1,4.76-2.7,7.47-5.77,2.1-2.38,3.64-4.27,5.2-6.18a66.59,66.59,0,0,0,10.24-2q-1,3.8-2.24,7.39c-2.77,2.34-4.2,4.8-7,7.1a35.44,35.44,0,0,1-11.52,6.52C80.27,165.41,75.5,168.35,70.23,170.4ZM85.54,43.3c1.46-.51,3.26-.12,5.23.65a30.62,30.62,0,0,1-.28,4.93q-1.09.81-2.25,1.59c-.73-.91-1.54-1.86-2.32-2.84A14.17,14.17,0,0,1,85.54,43.3Zm-1.62,86.51c1.75-1.79,3.52-4.4,3.86-6.2.74-3.89-1.19-5.59-.94-8.08,1.14-1.58,2.21-3.3,3.28-5.09a23.51,23.51,0,0,0,2-4.36c3.42,1.15,4.7,6.19,2.06,11.11-1.33,2.49-2.2,5.39-3.91,9.09s-7.09,7.2-10.14,11.31c-4.48,6-11.47,10.67-24.47,17.45a74.84,74.84,0,0,1,.69-8.52c2.66-1.49,5.34-3,8-4.33,3.23-1.6,7-2,9.68-4.87,2.22-2.37,2.45-3,4.13-4.26S82.62,131.14,83.92,129.81ZM78.17,26.66c0,.69-.23,4.11-.33,4.91-1.17-.23-2.29-.53-3.41-.85C74.56,30.57,77.08,27.8,78.17,26.66ZM73,71.46c1.23,1.52,1.12,4.09,1.07,5.13-4.17-.09-8.44-.12-12.85.16C64.69,74.07,69.57,74.24,73,71.46Zm-12.45-15c1.18,1,3,4.93,4.48,7.48a31.68,31.68,0,0,1-7.79,3.9C56.46,67.1,58.4,63.21,60,60A5.86,5.86,0,0,0,60.55,56.43Zm-2.93-2.06a4.32,4.32,0,0,0-.3,1.16,25.4,25.4,0,0,1-7.42,7c1.55-3.44,2.08-8.23.81-10.63a13.22,13.22,0,0,1-1.19-3.66C50.83,49.28,54.23,52.81,57.62,54.37Zm-2.86,8.49a13.65,13.65,0,0,0-2.36,6.86,82.22,82.22,0,0,1-11.61,3.73c2-1.54,4.32-2.81,6.82-4.6A59.76,59.76,0,0,0,54.76,62.86ZM34.1,29.23c.06.07.66.73.9,1l-1.91.52C33.32,30.35,34,29.34,34.1,29.23ZM28.19,52.56C29,51.32,31.44,49,32,47.73c1.7-4,.06-7.29-.28-10.82,3.4,1.37,10.68,6.23,13.13,7.86,1.74,5.63,2,10,0,15.41-2.32,6.11-7.39,9-11.57,11.9a11.1,11.1,0,0,0-2.7,3.11c-1.11.09-3.56.06-3.81,0-.95-1.61-1.82-3.58-2.69-5.09-1.29-2.24-5.71-7.66-3.41-11.28,1-1.61,3.81-1.27,4.75-2.09C26.61,55.68,27,54.35,28.19,52.56ZM20.58,35c1.5.41,2.73,1.46,4.14,1.69a7.94,7.94,0,0,0,2.18,0c0,.91,0,1.83.12,2.77.24,2.79.83,3.12-.34,6.62s-5.15,3.12-7.33,6.22c-.45-2.54.26-6.23-1.71-8.23A21.53,21.53,0,0,0,20.58,35ZM4.32,72.83a23.3,23.3,0,0,1,.15-3.43c0-.42,3-7.26,4.52-10.27,1.58.35,3.44,5.78,2.78,8.39a11.24,11.24,0,0,0,.14,6.07C9.42,72.92,7,71.93,4.32,72.83ZM9.85,87.28a10.32,10.32,0,0,1-2.47-2.8c.59,0,7.52,2,11.08,1.85,1.93,1.14,4.37,1.77,4.89,3.32.74,2.21-.88,4.15-1.68,6,.73,1.13,1.8.37,2.74.77-.26,2.78-2.54,4.81-4.79,7.45C14.9,100.48,14.56,90.85,9.85,87.28ZM52,973.47a11.41,11.41,0,0,1,2.7,2.66,13,13,0,0,0-2.34.68C52.24,975.71,52.12,974.59,52,973.47Zm3,21.8a4.54,4.54,0,0,1,2.55,2.61,3,3,0,0,1-.6,2.57C56.85,1000.18,55.4,996.76,55,995.27Zm5.54,26.19c.66-1.42,2.59-1.61,3.43-1.69,1.75-.19,3.46-2.07,3.39-3.42-.8.65-1.68,2.46-3.64,2.55a8.37,8.37,0,0,0-3.72.73,36.66,36.66,0,0,1-1.06-5.91c.45-1.23.68-2.76,1.21-3.85s2.28-5.35,1.47-6.52c-.1,1.75-1.35,5.38-3,6.32a46.1,46.1,0,0,0-1.12-7.77,5.2,5.2,0,0,0,1.26-4.47c-.54-2.31-2.35-3.21-4.17-3.87,0-.21-1-5.54-1.52-7.94a21.85,21.85,0,0,1-.34-4.49c2.22-.39,3.11-1.76,2.7-4.49,1.85,1,4,3.43,6.66,4,3.46.77,8.5.28,10,2.72.48.78.25,2.26.56,3.28,1,3.3,5.31,4.59,5.34,8a21.1,21.1,0,0,1-.76,3.33c-.74,3.67-1.64,10.91.72,13.84a92.89,92.89,0,0,1-7.23,7.07,91.06,91.06,0,0,1-8.58,7C61.64,1024.43,61.06,1023,60.55,1021.46ZM69.32,1046c1.82-2.69,5-4.45,7.46-6.7a27.3,27.3,0,0,0,1,2.94c-3.41.08-6.23,2.19-8.42,4.25C69.37,1046.31,69.35,1046.15,69.32,1046Zm6.41-7.58.72-.66c0,.15,0,.31.08.46A1.55,1.55,0,0,1,75.73,1038.4Zm-3.5,28.15c-.06-.21-.11-.42-.16-.63a15,15,0,0,0,1.16-2c.26-.85,2.63-2.58,4.35-2.72-.12-.91-4.22.44-5.9,1.91-.87-3.69,1.85-7.52,3.74-9.43,1.21-1.22,3.23-2.67,5.23-2.68,2,2.45,1.12,5.25,1.82,7.08-2-2.22-4.79-4.32-7.18-4.13,2.15,1.22,5.4,3.62,6.74,6.67a6.69,6.69,0,0,1-.78,1.07C77.43,1062.36,73.63,1063.37,72.23,1066.55Zm22.47-16.73a8.1,8.1,0,0,1-.43,2.7c-1.16-1-3.25-1-3.68-2.46C91.94,1050,93.31,1049.94,94.7,1049.82Zm-.39-13.39a10.56,10.56,0,0,0,.93-3.51c0-.39.05-.74.05-1.07,1.27,2,2.64,3.86,1,6.79A8,8,0,0,0,94.31,1036.43Zm.49,20.51a13,13,0,0,0-.72,3,3.26,3.26,0,0,1-2.37.38c0-1.13,1.32-2.33,3-3.61Zm-.83-1.17c-2.09,1.3-3.77,3.82-6.61,4.68q-.92.27-2,.48c.49-1.35-.1-2.7-.3-4.3a20,20,0,0,0-.84-4.82,4.62,4.62,0,0,0-.85-1.4c1.49-.15,3.11-.21,4.8-.27a4.83,4.83,0,0,0,.15.83C89,1053.39,92.2,1054,94,1055.77Zm-4.84,9a48.57,48.57,0,0,1-5.12,3A10.88,10.88,0,0,1,89.13,1064.77Zm-5.44,7.54c3.92-2.25,8.92-5.52,11.78-9a32.16,32.16,0,0,0,3.89-1.28c.93,2.91.84,7.13-.52,9.28-.45,0-.94,0-1.42,0,.81-1,1.77-2.69,1.06-3.31a6.53,6.53,0,0,1-4.93,3.15c-.81-.3-1.62-.91-1.64-2.72A2.48,2.48,0,0,0,92,1071a5.07,5.07,0,0,0,.41.56,34.17,34.17,0,0,1-4.07,2.24,71.41,71.41,0,0,1-8.57,2c.21-.44.41-1,.62-1.55C81.78,1073.86,83.21,1073.52,83.69,1072.31Zm13.19.87c-2,.57-3.65,1.89-5.39,2.93a4.45,4.45,0,0,1,2.27-1.95,10,10,0,0,0,1.29-.7A13.68,13.68,0,0,0,96.88,1073.18Zm-10.36,49.25a6.26,6.26,0,0,1,3,1.74,11.89,11.89,0,0,0-2.49,2.24,10.82,10.82,0,0,1-2.43-1.35C85.23,1124.13,85.88,1123.25,86.52,1122.43Zm3,10.7c.16-.71.37-1.41.47-2.11a6.67,6.67,0,0,1,2.43-2.38c.12,1.08-1.15,2.92-2,4.92C90.13,1133.43,89.82,1133.29,89.52,1133.13Zm4.73.18c-.11-2.43,1.43-3.71,2.82-4.93a7.51,7.51,0,0,0,1.21,2.77C96.74,1131.69,95.67,1132.67,94.25,1133.31Zm2.47-41.23c.06-.19.11-.38.17-.57a13.23,13.23,0,0,1,2.2-2.38c0,.19,0,.43,0,.68A17.72,17.72,0,0,1,96.72,1092.08Zm2.4,1.48c0,.54,0,1.1,0,1.66a4.63,4.63,0,0,1-1.65.35A16.48,16.48,0,0,1,99.12,1093.56Zm.28,5.4,0,0c.06.51.14,1,.23,1.51-.53.2-1.15.43-1.88.77-.36-.36-.72-.73-1.06-1.11A10.52,10.52,0,0,0,99.4,1099Zm-.08,3.65-.36-.3a7.06,7.06,0,0,1,1-.34v.06A4.81,4.81,0,0,1,99.32,1102.61Zm-1.82-18.22c-2,3.19-7.8,4.54-9.14,6.13,1-1.23,1.59-4.72,1.27-8.38,1.58-2.06,6.72-3.74,9.15-5.59.21,2.18,1,2.57,1.76,2.8C100.33,1079.69,99.54,1081.2,97.5,1084.39Zm5.17,51.74a15,15,0,0,1-2.32-.08,19,19,0,0,0,1-2.11,7.48,7.48,0,0,0,3.24-.68c0,.28.06.55.09.86A9.19,9.19,0,0,0,102.67,1136.13ZM106.1,1088c0,.19,0,.38,0,.57a11.6,11.6,0,0,1-2.37,2.87c0-.67.11-1.33.19-2C104.67,1089,105.38,1088.5,106.1,1088Zm-1.75-.71a14.44,14.44,0,0,1,1.35-3.83c.09.8.17,1.75.26,2.77C105.47,1086.6,104.94,1087,104.35,1087.31Zm2.12,5.45c0,.39.07.77.1,1.15-.88.95-1.73,1.9-2.48,2.77-.09-.43-.16-.86-.22-1.31C104.79,1094.51,105.69,1093.61,106.47,1092.76Zm-1.78,5.81c.72-1,1.37-1.85,2.07-2.72.09.88.2,1.73.31,2.53a9.49,9.49,0,0,1-2.36.23Zm2.26,2.67a10.7,10.7,0,0,1-1.12-1c.48-.08,1-.14,1.49-.19.05.27.1.53.16.77C107.32,1100.93,107.14,1101.08,107,1101.24Zm-.35-29.14a65.49,65.49,0,0,0-4.4,5c-.82-.28-1.62-.42-1.91-1.54,1.85-1.82,5.17-2.62,6.21-5.19a22.65,22.65,0,0,0,2.39-1.63A30.32,30.32,0,0,1,106.6,1072.1Zm3.08,60.2c1.11-.23,2-.6,2.73-.37a9.94,9.94,0,0,1,1.42,1.36,8.55,8.55,0,0,1-4.14-.72A2.44,2.44,0,0,0,109.68,1132.3Zm4.34-36.44c-1.12-1.15-.59-2.94-2.09-3.23a2.31,2.31,0,0,0-.62.24c-.07-.47-.12-.94-.17-1.42.62-.46,1.34-1,2.14-1.47a23.06,23.06,0,0,1,1,4.68,8.34,8.34,0,0,0,.16.87Zm.7,26.19a21.27,21.27,0,0,1,.93,3.68,10.37,10.37,0,0,1-2.43,1.8C114,1125.87,113,1123.09,114.72,1122.05ZM111,1089.71c-.07-1.25-.1-2.5-.07-3.74l.47-.4c.35.77.86,1.71,1.36,3C112.12,1088.94,111.53,1089.34,111,1089.71Zm3.78,63.1a5.12,5.12,0,0,1-2.7-1.46,8.12,8.12,0,0,0-1.75-1.65,13.29,13.29,0,0,0,.64-2.78c1.14-.35,4-.35,5,.41C116.27,1149,114.82,1152.67,114.79,1152.81Zm1.06-19.64c-.37-.58-.77-1.14-1.2-1.69a5.39,5.39,0,0,0,1.62-.94c.1.86.19,1.71.3,2.55Zm6.64-11a12.28,12.28,0,0,0-1.22-.45c-.39-.84-.7-1.57,0-2.22A2.59,2.59,0,0,1,122.49,1122.13Zm-2.78-32.68c-.73-.54-1.6-1.16-2.41-1.88,2.33-1.33,4.29-3.36,6.16-3.89-1.09-.32-4.37,1.47-7.15,2.88a6.06,6.06,0,0,1-1.57-3.56,41.39,41.39,0,0,0,3.76-3.37c2.65-2.72,5.46-6,6.3-8.14-.78.76-1.65,1.65-2.59,2.6-3.29,0-7.37,3.72-9.5,4.87-.83-4.93,4.4-6.11,6.9-9.86,2.43-1.24,4.85-1.22,6.14-2a7.12,7.12,0,0,0-5.18,0,10.1,10.1,0,0,0-.1-5.42c-.7,6.11-2.3,6.15-5.19,7.31a90.94,90.94,0,0,1,4.74-9.58,21.17,21.17,0,0,0,4.1-2.9c-3.63,1.69-5.17,1.22-7.25,2.86a26.51,26.51,0,0,0-3.13,3,12.75,12.75,0,0,1,.76-2.07,18.12,18.12,0,0,1,2.72-3.84,5.83,5.83,0,0,0,3.23-1.88c3.17,0,5.4-2.17,7.38-1.83a4.2,4.2,0,0,0,2.71-1c1.17.72,1.22.08,2.8.12.78.39,1.67,1.33,1.47,2-.11,1.67-2.11,3.56-2.78,4.17s-2.42-.38-2.64.34c.42,1.62,2.81,1.36,4,.3s4.18-3.31,3.31-6.06c-.47-1.49-.76-3.09-2.49-3.43.87-.53,7.15-6.37,7.8-7.73,1.38,1.5,5.55,4.56,2.36,8.23-1.35-.05-3.55-.31-4.24-1.46-.26,1.38-.67,1.85,0,3.52s-.42,2.72.92,4.45,3.13,4.61,5.6,4.75c-3.21,2.21-6.58,8.06-5.32,12.45-.43.63-.85,1.26-1.23,1.92a57,57,0,0,0-11.5,5.28c0-.35,1.62-1.66,1.25-2.23-.28.6-1.88,1.82-2.28,2.9A23.47,23.47,0,0,0,119.71,1089.45Zm-4.23-9a17.74,17.74,0,0,1,5-4.63C119,1077.31,117.27,1078.92,115.48,1080.4ZM113.6,1068c1.28-4.76,3.39-6.68,5.66-8.15C117.1,1061.8,115.56,1065.05,113.6,1068Zm42.28-14.77a7.24,7.24,0,0,1,3.47,6.14c-.18,2.43-2.84,5-5.72,7.89a31,31,0,0,1-7.83,5.91c-1.33-1.4,2.63-4.35,1.54-6.88a55.5,55.5,0,0,0-3.92,4.21,11,11,0,0,1,2.41-5.28c1.94-2.43,4.32-4,5.25-7.07A12.84,12.84,0,0,0,155.88,1053.23Zm-4.15,2.1c.31-.77.67-1.57,1-2.39a4.91,4.91,0,0,1,1.38-.17C153.36,1054.25,152.41,1055.23,151.73,1055.33Zm5.15-8.85c.15-2.72,3.8-5,8-7.4a15.18,15.18,0,0,0,4.57-4.42,38.41,38.41,0,0,1,.46,4.52c.18,6.33-1.16,13.1-6.48,17-.32-1.89-3.58-4.71-6.7-5.8A35.93,35.93,0,0,0,156.88,1046.48Zm11.1,20.37c4.64-.23,7.16-2.51,7.57-6.06.2-1.75,1.6-3.69,3.25-5.4.92,1.87,1.41,5.14.65,10.12-3.66,1.66-5.57,4.33-5.27,7.24.17,1.75,2.19,3.4,2.35,5.26s-2.53,2.7-2.1,5.44c-6.1.07-8.76,4.51-12.28,6.88-4.35,2.94-10.48,3.91-14,8.76.36-2.79,3.18-7.52,2.24-11.92,1.19-.87,3.78.31,5.55-2.1,3.94-.09,7.17-3,8.47-4.63,2-2.39,2.15-4.58,4.44-5.4-1.57-1.24-4,3.27-5.61,5s-3.2,2.15-6.24,2.6a6.65,6.65,0,0,0,.73-3.15c1.68-.77,3.48-2.56,3-3.53a6.34,6.34,0,0,1-3,2.42,6.69,6.69,0,0,1,.72-3.35c1.3-2.11,6.69-.7,8.57-3.32A6.2,6.2,0,0,0,168,1066.85Zm-2.51,3.39c-1.22,1.41-6.53.23-8.89,3-1.32,1.55-1.45,4-1.55,5.84a10.73,10.73,0,0,0-2.56.36,10.94,10.94,0,0,0-3.56,1.74,18.13,18.13,0,0,1-.73-2.19c-.16-.59-.32-1.13-.48-1.63a36.24,36.24,0,0,0,4.28-2.09c2.61-1.54,9.35-7.51,10.81-10,1.31-2.2,2.51-4.06,3.68-5.9a12.88,12.88,0,0,0-.22,2C166.19,1063.38,166.68,1068.83,165.47,1070.24Zm-10.54,10.22c0,.18-.05.36-.08.5-.37,1.59-1.64,2.34-3.43,2.55a1.56,1.56,0,0,1-1-.24A3.78,3.78,0,0,1,153,1081C153.52,1080.86,154.19,1080.68,154.93,1080.46Zm-19.76,45.88c-.28-2.77.27-5-.45-8.06.92-.41,1.82-1.32,2.93-1.92.52.25,1.06.49,1.6.72a27.86,27.86,0,0,0,.31,6.48C138,1124.43,137.27,1125.84,135.17,1126.34Zm3.66-39.57c-.49-1.67-.35-3.26-1.85-4.35-1.91,3-2.58,4.95-2.61,6.36-.05,1.88,1,2.74,1.82,3.72-1.45,2.35-3.27,4.69-3.63,7.35l-.31.18c-3.55-.48-4.52-8.67-3.76-11.64,1.26-4.87,9-7.12,16.15-9.81a18.09,18.09,0,0,1,2.66,5.43c-.12,1.14.23,1.76,0,2.62-.57,2.14-5.11,3.58-7.72,6,.5-3.34-.12-7.57,3.83-10.07C142.37,1082.11,140.05,1084.55,138.83,1086.77Zm.82,9.77a17,17,0,0,1,6.08-4.62c-1.28,2.76-2.94,5.6-3.45,8.76-.22.08-.43.18-.64.28A11.21,11.21,0,0,1,139.65,1096.54Zm2.44,39.51c1.42-2.18,3-4.84,6.13-5.87.63.25.73,1.22.83,2.25a23,23,0,0,0-3.91,2.57,20.39,20.39,0,0,1-2.54,1.56C142.43,1136.4,142.25,1136.23,142.09,1136.05Zm1.83,1.65a14.21,14.21,0,0,0,2.36-1.42c1-.74,2-1.76,3-2.47.19.81.55,1.45,1.41,1.52a5.24,5.24,0,0,1-.4-2.14,8.58,8.58,0,0,0,2.4-1.25c.2.67.43,1.26.53,1.68,1.31-.21,1.37-.87,1.47-1.85,3,.62,5.86,1.48,5.53,3.91-5.85-1.65-11,1.13-15,2.81A13.34,13.34,0,0,1,143.92,1137.7Zm8.58-6.35c0,.1.05.2.07.29a7.56,7.56,0,0,0-2.41.36c0-.45-.09-.88-.16-1.28A17.82,17.82,0,0,0,152.5,1131.35Zm-2.41-2.57c1.14-.48,2.27-1,2.71-.59a3.5,3.5,0,0,0-.23.58C151.78,1128.81,151,1128.82,150.09,1128.78Zm5.92-.24a9.8,9.8,0,0,1,1.92-1.6c1.39-.37,1.47.81,1.57,1.9A10.24,10.24,0,0,0,156,1128.54Zm4.17.55-.06,0c0-.68-.2-1.66.16-2.25s2.55-1.49,4.95.31c1.89,1.41,2.1,4.58,4,7.29C165.87,1133,163.51,1130.55,160.18,1129.09Zm14.63,19c1.14.3,2.22.74,3.1,1a24.31,24.31,0,0,0,4.46.46c-2.06,1.7-5.3,3.16-7.13,6.35C174.23,1154.17,174.94,1150.7,174.81,1148.07Zm33.26,1.39a4.24,4.24,0,0,1-5.1,1.81c-.4-1.8-.1-3.84,0-6.18,2.47.26,4.5-1.85,6.12-.94A8,8,0,0,1,208.07,1149.46Zm23.66,3.16A27.16,27.16,0,0,1,235,1154C234.33,1156.06,232.1,1153.79,231.73,1152.62Zm7.53-6.59h2.35a3.21,3.21,0,0,1,0,3.3,3.14,3.14,0,0,1-4.71.94C238.16,1149.33,240,1148.93,239.26,1146Zm7.53,3.77c-.34,1.85-3.73,2.91-5.82,3C241.92,1151.57,244.17,1149.38,246.79,1149.8Zm12.32,20.43c2.21-7.93,13.49-15.57,19.78-16.76-1.39,4.09-5.51,6-7.85,9.42a29.21,29.21,0,0,0-5,12.32C261.62,1169.62,259,1172.34,259.11,1170.23Zm36.16-19c-1.34,2.26-6,2.48-7.47,4.06s-.17,3.43-1.47,5c-2.62-.9-6.37,6.86-9.88,11.19-2.6-.08-5.84,1.71-7.2,2.86.81-7.84,6.33-7.78,9.55-11.33,2.67-2.94,3.18-7.51,5.65-10.36,3.25-3.74,6.29-4.13,8.92-6.25a10.19,10.19,0,0,0,3.32-4.57c2.31-.83,3.86-2.42,6.59-2.83C301.53,1144,296.62,1149,295.27,1151.21Zm1.52-13.26a5.1,5.1,0,0,0-.33-3.52c1.27-1.08,6.53.47,8.58.16C304.05,1135.78,299.32,1135.9,296.79,1138Zm24.84,10.91h-4.7c0-2.35-.81-3.9-3.77-3.3,1.38-3.33,5.49-3.92,9.41-4.7C322.86,1142.73,321,1146.58,321.63,1148.86Zm26.24-2c-5.83-.45-10.3-4.92-15.29-6.21,4.42.9,10.87.71,12.42,2.37s4.13.86,5.23,1.72C349.58,1146.45,348.76,1146.69,347.87,1146.85Zm33.55-8.25c.51-2.55-1.13-3.53-1.41-5.28,1.92,1.37,3.72,5.1,5.69,6.42C385,1141,382.27,1138.73,381.42,1138.6Zm9.59,15.77c1.18.07,2.19-.1,2.62,1.31.59,2,.37,5.82.57,7.35C392.33,1162.23,389.46,1157,391,1154.37Zm-7.35-21.25c2.34-.86,6.65.64,10.21.87,2.87.19,3.87-2.5,5.08-.67s.27,4.15-.09,5.2C392.76,1140,386.81,1136.09,383.66,1133.12Zm14.23,30.8c-.79-.78-.37-2.76-.47-4.23,1.68,1.45,6.65,3.74,8.55,5C405.16,1165.75,399.48,1163.62,397.89,1163.92Zm13.18.94c-2.06-3.26-.64-10.64-3.17-13.44-2.41,1.57.34,4.07-1.53,10.15-3.59-1.91-6.94-4-8.95-7.53,1.7-5.37,10.64-3.48,16-5.18-.27,6.25,5.64,9.26,7.05,14.59C416.77,1163.34,414.54,1164.72,411.07,1164.86Zm9.42-8.87c-1.37-.79-1.84-3.23-1.89-5.25,2.1.06,3.56-1.59,5.35-1.84a42.1,42.1,0,0,1,1.47,7.19C423.8,1155.85,421.73,1156.7,420.49,1156Zm6.12,6.52h-2.36c-.71-1.33-2.07-2-2.35-3.77,1.94.37,2.41-.72,4.23-.47C426,1160,427.48,1161.5,426.61,1162.51Zm-1.42-14.12c3-.32,1.2-5.39,3.3-6.59,3.38,4.43-1.2,7.92-1.28,12.74C426.12,1153.12,425.88,1150.21,425.19,1148.39Zm5.18.94c1.42.57.44,3.41-1.6,4.55C427.78,1151.69,430.23,1149.89,430.37,1149.33Zm-.29,12.81c-.9-2.05-1.56-3.44-2-4.42.28-2.57,3.44-2.17,4.21-5.1,1.76.92,2.34,3,3.77,4.24C434.84,1159.22,432.06,1162.37,430.08,1162.14Zm69.34,3.15a14.5,14.5,0,0,0,3.44-3.61,16.83,16.83,0,0,1,5.18,4.71c.17.92.27,1.81.35,2.68A94,94,0,0,1,499.42,1165.29Zm17.2-10.18a3.62,3.62,0,0,0,1.42,1.52,2,2,0,0,1-1.08.79,28.09,28.09,0,0,0-6.21-1A29.81,29.81,0,0,1,516.62,1155.11Zm5.72-16.51c-.84.15-4.17-.58-5-.5-1.89-.5-3.73-1.18-5.09-1.48,2.34-2.46,9.14-3,13.49-2.11C526.13,1136.51,523.24,1136.31,522.34,1138.6Zm6.88,17.9c1.42.22.94,1.75,1.76,2.58-1.19.55-1.39,3.63-2.83,3.82-.55-1.12,0-2.24,0-3.84A2.45,2.45,0,0,0,529.22,1156.5Zm48,17.42c-2.68,0-5.73-.4-5.17,2.82-2.39,0-3-1.66-5.18-1.88.89-1.15,2.81-2.64,2.47-5-2,2-7.42,2.17-7.68,1.47.24-2.54,4.33-2.62,4.16-4.91-3.06-.24-5.94,1.46-8.37,1.86-2.1-1.16-4.2-.72-7.52-1.88-4.61-1.62-6.84-4.42-9.42-2.83,0,1.76,2.51,1.46,3.9,4.08-3.28-.19-9.36,1.31-12,.54-.29-.55-2.33-.76-2.23-1.9,1.63-1.2,5.74-2.32,5.19-5.7-1.89,1.8-4.36.69-5.67,2.16-.15-1.82,1.89-2.69,2.25-3.44s-1-2-.84-4a11,11,0,0,0,4.76,1.7c.2.41,2.78,1.77,2.83,2.31.71-.3-1.3-1.72-1.08-2.29a13,13,0,0,0,3.39-.65c2.25-.75,3.94-2.81,5.76-4.52a16.72,16.72,0,0,1,1.6,3.71,19.26,19.26,0,0,1,.17,8.92c2.75-2,.69-10,1.42-12.7,2.39-.67.86,3.91,2.08,5.75.57.57.74-3.88,1.72-4.21,1.64,2.7.58,5.73.9,6.93,2.08-.39,1.49-4.5.94-6.12,8.72,4.3,17.36,8.68,22.6,16.47A18.47,18.47,0,0,0,577.23,1173.92Zm-36.35-33.31c.63-1.42.46-2.63,2.24-3.62a10.12,10.12,0,0,1,5-.81,2.18,2.18,0,0,1-.7.84C544.91,1138.19,542,1139.37,540.88,1140.61Zm14.91,8.3a.64.64,0,0,1,.26-.52,7.31,7.31,0,0,0,2.1-.74c.4.78.68,1.48.82,1.68C558.57,1149.78,557.24,1149.5,555.79,1148.91Zm29.92,5.71c-2-.64-3.07-2.27-4.24-3.77.51-1.52,2.31-2.47,3.31-3.52-.83-.27-2.78,1.27-2.84.23,1.46-1.91,3.47-1.92,3.71-3.41-3.51-.46-9.11,5.5-10.77,1.06,1.83-1,5.58-7,7.06-7.86-1.77-.81-6.85,8.05-9.88,6,.69-2.44,3.07-3.2,3.76-5.65-2.88.57-3.19,3.72-5.64,4.71a29.12,29.12,0,0,0-3.65-2.62c1.78-1.62,3.81-3.34,4.59-5,4.63-1.86,12.16,1.83,13.73.34s3.63.14,6-.46c1.33-.34,2.23-.54,3.16-.83.67,0,1.38-.06,1.32,1-.17.57-3.53,3-4.46,3.09.63.88,3.52-1.4,3.57-.59-1,1.24-3,3.57-2.72,6.71C591,1148.51,588.57,1153.29,585.71,1154.62Zm41.93,6.28c-3.72-1.34-8.37-.55-10.86,2.66-3.16-1.54-8.73-.68-10.83-3.29,1.53.12,3.52.28,3.6-1-5.23-2.45-15-3.1-20.75-3.35a32.47,32.47,0,0,0,3.9-9.77c.64,1.48,3.82,2.93,4.08,4.77s3.47,5.15,6.83,4.63c6-.94,9.39,3.72,13.86,2.25,3-1,4.88-5.43,4.52-9.6a16.08,16.08,0,0,0,5,1.14,3.39,3.39,0,0,1,.59,2.66C627.09,1154.79,627.5,1158,627.64,1160.9Zm-2.28-13.53a24,24,0,0,1-3.54-.42,8.45,8.45,0,0,0-2.28-4.42c-1.64,1.28.74,8.46-2.1,9.78s-12.23-3.07-12.54-6.58c-.17-1.86,1.56-4.27,5.69-4.27s9.39-.23,12.69-2.24C625.68,1140.77,623.19,1144.9,625.36,1147.37Zm2.55-10.77a7.37,7.37,0,0,1,1.94-1.79c-.38,2.91,2.61,4.78,1.94,6.27C631.72,1140.94,628.53,1138.23,627.91,1136.6Zm4.87,29.32c-1.19-1.71-1.31-4.46-1.14-6.92.45-.22,1.27,1.87,1.27,4,.82-1.79.12-5,.75-5.37,1.76.82,5.28,7.27,5.6,7.67A7.46,7.46,0,0,1,632.78,1165.92Zm8.35-19.41c-1,0-1.93,0-2.92.11a4.44,4.44,0,0,1-2.41-5c1.76,1,3.88,1.79,5.51,2.67A7.15,7.15,0,0,1,641.13,1146.51Zm.92-4.33c-.29-2-.75-4.31-1.59-5.53a23.46,23.46,0,0,0,.55,4.91,20.13,20.13,0,0,0-4.69-1.94,24.78,24.78,0,0,1,3.35-6.08,30.42,30.42,0,0,1,3.56,3.33,12.69,12.69,0,0,1-.65,5.63Zm4,8a2.54,2.54,0,0,1-2.05-.93c.51.06,1,.13,1.47.23l1.5.34A1.92,1.92,0,0,1,646.07,1150.14Zm2.41-3.6c-1.6-1-3.14-2.18-4.74-3.27a14.76,14.76,0,0,0,1.18-4.43c1.35,1.65,2.59,3.33,3.78,4.9A23.58,23.58,0,0,1,648.48,1146.54Zm-7.15-58.39a2.5,2.5,0,0,1-1.15.24c-5.54-.25-4.37-10.54-6.39-15,.89-1.48,2.26-.33,4.16-2.78,2.89-1.23,7.29-4.44,9.47-6,1.57,3.9-1,7.24,1.79,9.25-1.71.33-4.17.63-3.9,3.27a18.6,18.6,0,0,1-2,9c-1.88.23-3.66.91-4.91.38C638,1087.52,639.86,1088.06,641.33,1088.15Zm7.33,52c-.86-1-1.71-2.11-2.6-3.14,1-1,1.2-2.7,2.59-3.25A54.39,54.39,0,0,0,648.66,1140.19Zm-.44-54.13a8.64,8.64,0,0,1-2.24.08,26.25,26.25,0,0,0,1.59-8.2c0-.89,1.9-1,4-1.2,1.69-.15,3.11-1.6,4.79-.93,1.5,3.28,6.48,5.15,8.07,2.06.74-1.43,1.74-1.28,2.25-1.88s.66-2.09.83-3.64c1.25.38,4.4,2.87,5.62,1.23-1.58-.52-4.62-2.42-5.36-3.93,2.69-.8,4.48,1.45,6.1.21,2.52-1.91,6.82,1.09,6.3,5.31-.92.56-2.36-.12-4.13,1.07-2.59.4-5.35-1-6.12.47,1.64-.69,3.66.71,4.73,1.37-2.46,3.53.63,4.58-1.56,7-.81.91-3.14,1.66-6,2.51,0-.57.16-2.95.24-4.21-.52-.18-.87,3.36-.85,4.4l-1.92.58c0-.88.21-1.48-.07-1.88-.72,0-1,1.21-1,2.22l-1.43.48c-1.94-.93-2-3.26-5.42-5-1.32-.66-4.77-.52-7.15-.92C648.42,1084.3,649.84,1085.56,648.22,1086.06Zm10.7-11.11c1.28-1.13,3.62-1.36,5.56-2.5-.39,1.59-1,3.67-2.58,4.1S659.71,1075.49,658.92,1075Zm12.32,15.12c-.53,1.68-2.1,2.16-2.12,3.72-.61-1-.82-.58-1.18-1.5a11.41,11.41,0,0,1-.61-2.53,18.35,18.35,0,0,0,5.11-1.91,6.64,6.64,0,0,1-2,5.77C670.93,1092.25,671.87,1091.27,671.24,1090.07Zm-4.34,1.85a4.23,4.23,0,0,0-1.75-1.66l1.57-.36A18.56,18.56,0,0,1,666.9,1091.92Zm-13.24,53.24q-.6-.42-1.17-.9c.16-1.62,1.3-2.25,1.75-3.58a3.61,3.61,0,0,0,.15-1,78.87,78.87,0,0,1,6.85,4.13,25.14,25.14,0,0,1,1.17,4.63C659.3,1147.68,657.24,1144.66,653.66,1145.16Zm14.9-1.37c-.89-1.48-2.81-3-4.86-4.83-3-2.7-4.39-7.94-6.45-7.31,1.06,1,1.62,2.83,2.1,4.86-1.55-.81-4.56-2.2-4.89-2.57a23.21,23.21,0,0,1,.46-3.65c.14-.19,1.08-1.5,1.48-2.18,5.35-.77,5.38-4.89,4.29-11.08-.11-.61-.29-1.32-.5-2.08.6-3.22,1.66-6.24,1.3-7.4a3.39,3.39,0,0,0-.2-.53c.49-.41,1-.8,1.5-1.18h.05c-.6,1.43-.69,4.23.43,5.16.77-.82-.32-2.33.43-4.3,1.94.88,1.24,4.46,1.54,6.75,1.83-.89.33-3.88,1.9-5,1.49,1-.84,4.11.69,5.82,1.46-.26,0-3.41,1.89-3.24,1.5,2.62,3.71,6,6.88,5.59.69,6.06,1.37,12.78,1.45,19.31C674,1136.26,671.89,1141,668.56,1143.79Zm8.64-44.89a14.17,14.17,0,0,1-2.32-.36,19.53,19.53,0,0,1-.86-4.73c-1.21.35-.51,2.64-1.29,3.44-1.26-.32-1.84-1.31-2.58-2.15a1.79,1.79,0,0,1,0-.24c2.29-.44,4.48-4.19,4-8,2.73-1.21.49-7.85,3.58-8.69a3.22,3.22,0,0,1,4,2c-.24,1-2.17,2.15-1.6,3.16s-.2,2.43.72,2.93c1.16-.13,2.05,0,2.6-1.12.76,1.23,1.79,1.16,2.25,2.12-.35,1.72-1.89,2.53-2.11,5.25s-3,4.52-4,5.07S678,1098.39,677.2,1098.9Zm5.42,37c0,.92-.07,1.91-.07,2.85-.27.16-.51.26-.72.1-.59-.43-.76-1.8-.94-2.29s-.6-.49-.85-.54a33.94,33.94,0,0,1,.63-6.29c.41-1.91.14-5.82,1.52-5.44C682.12,1128.56,682.74,1132.37,682.62,1136Zm1.89,2.5a1.26,1.26,0,0,0-.4-.3,8,8,0,0,1,.45-3.92A25,25,0,0,1,684.51,1138.45Zm2.84,4a8.21,8.21,0,0,0-1.23,0c-.13-.37-.26-.75-.38-1.13a31.32,31.32,0,0,0,.45-4.51A8.28,8.28,0,0,1,687.35,1142.4Zm4.65-.67c-1-1.54-1.27-3.56-1.52-3.82a9.83,9.83,0,0,0,1.56,5.48c0,.17,0,.35,0,.52-.71-.2-1.43-.4-2.18-.56-.1-.49.33-2.53-.2-4a17.55,17.55,0,0,1-.78-4.44c1.48-.5,1.23,3.57,2.34,3.44.66-.46,0-2.37.85-3.19C692,1137.24,692,1139.45,692,1141.73Zm-.34-27.71c-4-1.65-5.27-12.52-8.24-13.87a12.28,12.28,0,0,0-3.19-.9c1.94-1.2,3.84-2.41,4.59-4.53a7.29,7.29,0,0,1,4.84,4.1c1.11,2.4.75,7,1.31,9.24s1.95,4.93,1.88,6.39C692.45,1114.32,692,1114.18,691.66,1114Zm10.87,1a3.64,3.64,0,0,0-1.49-1.8,5.54,5.54,0,0,1-.77,1.3,2.38,2.38,0,0,0-1-.91c-.36.31.51.94.51,1.5l-.13.14c-.64.12-2.43-.18-3.22,0a22,22,0,0,1-1.19-2.21c-1.13-2.42-1.35-5.72-2.59-8.51,2.53,1.19,4.47,3.09,7.2,4.06a24.39,24.39,0,0,0,2.78,6.19C702.59,1114.82,702.56,1114.9,702.53,1115Zm17.82,5.78a41.53,41.53,0,0,1-4.25.36c-1.9-1.55-3.53-3.44-5.91-4.43-1-.32-1,0-2,.16a17.49,17.49,0,0,1-.65-2.35c-.36.12,0,1.26,0,1.72-.9-1.24-1.55-2.66-2.69-4.06-1.31-1.61-2.11-1.75-2.87-4.43-.34-1.22-1.34-2.68-1.55-3.61-.47-2.05-.45-3.51-2-4.82-1.23,1.07.06,4.26-.09,6.24-2.71-1.21-4-3-6.31-4.33-1.42-5.13-4.21-5.92-6.92-6.79,1.08-1.87,1.87-6,5.23-6,2.63,1.32,4.06,4.58,5.06,6.59s2.4,2.52,3.91,3.56c1.5,3.78,3.57,6.9,6.66,8.79.16-3.07-3.31-4.67-4.08-7.76,2.54,1.19,4.44,3.14,6.63,4.74,1,3.19.6,6.32,1.67,8.58,1.68,3.58,4.59,2.36,8.92,2.36.4,1.32,1.34,3,1.89,4.52Zm-36-115.28c-.07-1.3,1.51-2.71,1.35-4.53,2,.45,2.73,3.43,3.91,5.59.92,1.7,2.21,2.89,2.66,5.69a28.59,28.59,0,0,1,.17,4.24c-4-2.93-9.73-2.84-11.31-3.42C682.94,1009.94,685.21,1006.59,684.37,1005.5Zm.17,9.37c-2,.3-4,1.46-5.08,1.68a16.62,16.62,0,0,1,1.2-2.6A14.27,14.27,0,0,1,684.54,1014.87ZM678,1012c-.77-2.84-1.87-5.92-4.36-6.72a5.75,5.75,0,0,1,3.05-3.61c1.66-.85,3.51-.68,6.59-.83C684.45,1002.33,679.28,1008.34,678,1012Zm1.13,5.37c.63-.47,2.32,2,3.59,2.18a6.2,6.2,0,0,0,5.53-2.75c.44.3.88.62,1.31.95,1,.79,2,1.69,3.15,2.51a4.65,4.65,0,0,0,1.41,2.73c.82,6.89,3.43,6.38,5.52,6.76,3.24.59,2.09,6.86.56,9.86-.72,1.43-.32,3.12-.89,4.13a23.6,23.6,0,0,1-2.93,3.56c-.93-3.08-5.06-5.85-5.27-8s-.92-2.7-1.49-3.17c-1.81-3-6.72-3.14-8.72-6.19C678.63,1026.49,677.79,1023.62,679.15,1017.39Zm56.71,45.71a17.59,17.59,0,0,1-2.17,0,65.28,65.28,0,0,1,.23-7.78c.42.23.75.47,1.12.72C734.89,1057.59,734.78,1061.52,735.86,1063.1Zm-.2-13.69c.36-.61.75-1.19,1.16-1.77-.2.77-.39,1.55-.59,2.33A4.32,4.32,0,0,1,735.66,1049.41Zm-1.55-12.61.61-.47a1,1,0,0,1,.17.45A2.27,2.27,0,0,0,734.11,1036.8ZM733,1027c-.79-.39-1.6-.82-2.39-1.31,1.57-2,3.15-5,3-7.19a42,42,0,0,1-4.58,6.13,21.07,21.07,0,0,1-3.67-3.33,41.12,41.12,0,0,0-3.3-3.43,30.11,30.11,0,0,0,2-6.13,14.66,14.66,0,0,0-3,5.2,15.32,15.32,0,0,0-4.68-3c.64-2.82,4.79-6.64,5.48-9.48.79-3.27,6.35-5.62,8-6.19,0,2.92-.14,5.95.7,8.22,1.69,4.59,6.62,6.81,7.76,10.86C739.48,1021.84,734.11,1024.1,733,1027Zm-14.54,33.21c.28,1,3.64,1,4.51,2.33-.38.63-2.94.75-3.47,1.26-2.43-2.9-5.08-3.84-7.54-6.77.1,1.71,1.23,3,2.53,4.16-.37,1.21,1.21,3.5.9,4.75l0,0c-3.18-.09-6.25-4.29-8.14-7.73-.22-1.44-.88-3.35-.64-5.11s1.91-3.13,2.86-4c3.48-.73,5.37.45,8.72-.12-.72.6-1.55,4.06-3.3,5.27s-2.91.42-3,1.81c3.52,1.83,5.46-2.42,7.14-4,3,1.62,6.58-1.46,9.11-3.18.23,3.51.6,6.77.2,8.24,1.12-.32,1.08-3.44,1.1-6.63a6.62,6.62,0,0,0,1.47,2.89,21.4,21.4,0,0,1-.1,3.8c.62-.34.88-1.8,1.08-3l.32.21a44.44,44.44,0,0,0,.34,8.61C727.64,1062.36,724.48,1059.61,718.49,1060.21Zm13.84,5.86c-.41,3.29-2.79,5.86-3.22,9.14l-2.16.18c-1.17-2.39-1.81-7.54-2.12-9.82C727.15,1064.55,730.13,1065.92,732.33,1066.07Zm-34.74-13.43c2.37-2,6.46-7.41,9.29-11.7,3.12-.15,5.2-2.55,6.4-4.32-.14,3.9-3.3,7.26-6.35,10-2,1.86-4.42,3.66-4.59,5.26s1.28,3,.95,4.14c-2.46,1.57-4.54,3.86-6.85,5.12C698,1058.25,696.72,1055.3,697.59,1052.64Zm3.75,11.21c1.06-1.47,4.52-1.88,5.63-3.71a14.56,14.56,0,0,0,2,3.26,41.58,41.58,0,0,0,4.08,4.1,5.09,5.09,0,0,0-1.75,3c.72.25,1.63-.82,2.92-1.82,1.05.89,2.89,5.81,5.22,8.2a25.84,25.84,0,0,1-5.35,1.12,20.19,20.19,0,0,1-9-1.57c-1.66-1.8-3.54-3.92-5.42-5.93A12.87,12.87,0,0,1,701.34,1063.85Zm16.41,4.92a14.66,14.66,0,0,1,2.7-1.15,10.54,10.54,0,0,1,3.09,8.06,7,7,0,0,0-1.68.38A19.94,19.94,0,0,1,717.75,1068.77Zm-.78-3.63a22.54,22.54,0,0,0-1.55-3.15,13.48,13.48,0,0,1,2.51,2.63Zm5.08,1.59,1.57-.73c.08.55.14,2.48.26,3.06C723.26,1068.19,722.85,1067.15,722.05,1066.73Zm8.22-34.35a3.29,3.29,0,0,0,.41.59c-.12.86-.19,1.8-.23,2.85a7.46,7.46,0,0,0-1,.57C729.32,1034.75,729.69,1033,730.27,1032.38Zm-13.6-1.72c-.43-1.85,1.19-2.49,2.9-5.45a11.81,11.81,0,0,0,.94-2.29,16.53,16.53,0,0,0,3.77,4.44c0,.5-.07,1-.07,1.6-1.43,1.77-4.57,2.07-6.53,3.27a9.25,9.25,0,0,1,3.94-4.43C720.77,1026.74,717.55,1029.77,716.67,1030.66Zm1.24,4.36a30.92,30.92,0,0,0,6.5-3.47,28,28,0,0,0,1.85,6.75c-2.15.61-8.61.14-9.58.56A19.83,19.83,0,0,0,717.91,1035Zm1.44-13.68a12.26,12.26,0,0,1-3.69,5.45,6.1,6.1,0,0,0-1.33-3.19c.07-1.14,1.4-3.87,1.42-5.19A8.89,8.89,0,0,1,719.35,1021.34Zm-4.15,22.16c3.26-1.34,3.26-1.34,8.6-1.5a16,16,0,0,0,4.43-.44,25.91,25.91,0,0,0-.21,4c-2.17.08-3.55,2-5.57,2.45-3.58.8-7.83-.58-12.07.07C710.35,1047.17,713.81,1045.46,715.2,1043.5Zm-2-10.18c-.68.76-3.39,2.52-4.2,3.18,2-2.87,3.48-6.61,3.54-8.67A7.34,7.34,0,0,1,713.19,1033.32Zm-8.56,3.14c.29-2.74.72-7-1.35-8.62-2.38.33-4-2-6.66-1.3a9.25,9.25,0,0,1-.87-4.58,14,14,0,0,0,4.57.93c3.1.14,5.23,2.24,9.41,1.65.2,0,.39-.1.58-.14C708.38,1028.38,707.87,1033.57,704.63,1036.46Zm-15.89,28.75.49.16a14.34,14.34,0,0,1,2.39,1.41,14.84,14.84,0,0,0,.35,7.84c1.31,3.46,6.24,4,6.85,7.21a9.69,9.69,0,0,1-10.3-4.36C687.17,1075,688.87,1070.4,688.74,1065.21Zm-.22-3.15a64.24,64.24,0,0,0,5.31-5.33,65,65,0,0,1-1.67,7.49C691,1063.51,689.75,1062.8,688.52,1062.06Zm39,48.82a5.59,5.59,0,0,0-.55,1,13.36,13.36,0,0,1-3.2-8.79c.11-1.36.36-3.8-.76-5.44-1.68-2.5-6.27-2.79-6.36.69,1.19-1.19,2.57-1.69,3.68-1.09,1.35.72,2.07,4.17,1.44,6.1-.79-1.84-1.5-2.8-2-2.7,1.12,2.67.44,2.9,1.56,6.2.77,2.25,2.29,4.33,3.81,6.75-1.51.29-1.35-2-1.85-1.78a12.32,12.32,0,0,0,.4,2.19,5.61,5.61,0,0,0-3.32-3.31c-1.29-.29-4.06.35-5.92,1-2.55-1.18-3-6.62,0-7.48.19-1.59,1.11-5.44-.84-6.17-2.19.74-.78,4.52-2.64,5.53-1.64-2-4.15-3.37-6.67-5-.73-.49-1.32-1.4-2-1.7-1.74-.75-3.6-.49-4.85-2.08-.89-1.13-.73-2.72-1.58-3.92,2.18,1.22,4.14,3.79,7.23,4.38,4.86.92,11.63-2.06,17-1.76,4.8.28,7.69,2.4,9.07,7.65-1.07,1-2.7.64-3.56,2.17C724.27,1105.58,725.26,1110.05,727.47,1110.88Zm-4.07-25.83c-2.45-.43-6.31.62-9.53,1.21-3,.55-7.4,1.69-8.73.33-1-1.07-.63-1.55-2.07-3.21,2,1.13,4.11.58,7.5,1.73s13.66-3,18.76-.41a12,12,0,0,1,1.51,3.46C728,1087.59,725.86,1085.47,723.4,1085.05Zm7.81-10c0-2.11,1.34-5,2-7.47.16,1.31.67,2.1.32,3.88,1.1-.63.76-3.21.45-5.41a30.31,30.31,0,0,0,3.3,0c.45.84.91,1.65,1.33,2.51a13.93,13.93,0,0,0-5.82,6.4A9.56,9.56,0,0,1,731.21,1075.1Zm9.79-23a14,14,0,0,1,.78-2.06,5.15,5.15,0,0,0,.82,2.46C742.28,1052.4,741.69,1052.27,741,1052.08Zm1.48,8a1.65,1.65,0,0,1-.29.54,10.37,10.37,0,0,1,0-1.67A2.74,2.74,0,0,1,742.48,1060.05Zm-.92,16.93c0,.21-.07.42-.09.61-1.66-.75-3.28-2.14-5.33-2.42a7.05,7.05,0,0,1,3.5-3.82,13.51,13.51,0,0,1,.44,2.4A4.82,4.82,0,0,0,741.56,1077Zm-1.07,18.46c-1.29-1.64-2.92-4.1-3.76-5.07a2.52,2.52,0,0,0-1.74-1,11,11,0,0,0-1.15-3.35c1.8,0,3.27-.24,3.93.85,1.14,1.88,3.43,3.73,5.53,5.57A18.09,18.09,0,0,1,740.49,1095.44Zm5.32-65.91c1.09-.9,3.89-2,4.73-3-.78,2.28-.09,3.58-.29,4.52-.27,1.23-1.57,1.67-1.16,2.92.56,1.7,2.28,5.61,2.7,7.26a26.9,26.9,0,0,1-.68,14.09c-2.4-.56-4.31-1.88-6.79-2.35,1.41-2.43.44-6.6.46-6.84.43-5.47.46-11-1.29-13.79.84-.8,2.5-2.4,4-2.3C747.48,1029.15,745.67,1030.1,745.81,1029.53Zm-.58,33.6c1.07-1.44-.27-2.6.37-3.32,1.36.31,3,.88,4.44,1.16-.46,3.08-3.07,4.27-5.94,5.31a16,16,0,0,1-1-2.09A5.49,5.49,0,0,0,745.23,1063.13Zm1.56,19.25c-1.46-1.15-3-2.37-3.38-3.78a2.83,2.83,0,0,1-.06-.42,9.23,9.23,0,0,1,2.82,1.86A3.36,3.36,0,0,1,746.79,1082.38Zm11.37-6.49a46.55,46.55,0,0,0-7.59-3.59,11.19,11.19,0,0,1-5-3.82c3.1-1.48,6-3.24,6.83-6.33,2.85,1.06,4.77,4.88,6.86,6.83A11.79,11.79,0,0,1,758.16,1075.89Zm11.33-19.07c-.67,1.89-1.91,4.71-2,6.26s-1.13,4.88-1.89,5c-.11-2.91,3.34-13.86.64-14.08,1.07,3.13-1.14,7.9-2.46,11.43-.19-3.78-4.46-3.58-4.91-6.44-.29-3.92,1.91-5.7,2.87-7.84-2.76,1.12-4.33,4.5-4.73,6.49,0-.27-2.1-1.46-3.71-1.76,1-3.2,1.22-7.8.55-13.21,1.6,2.46,4.7,2.31,7.61,1.48a19.15,19.15,0,0,1,2.4,3.23c.7,1.3,3,1,4.73.86C769.2,1048.37,770.42,1054.23,769.49,1056.82Zm-8.86-33.18c1,.55,2.4,2.63,1.41,5.88a8.46,8.46,0,0,1-1.13.42,15.19,15.19,0,0,1,.73-4.87c-.82-.38-1.95,3.69-3,5.55a6.26,6.26,0,0,1-4.74,2.9c-.07-6.1,3.54-8.19,3.48-14.27a16.63,16.63,0,0,1,1.29,2.27A4.13,4.13,0,0,0,760.63,1023.64Zm-1.7-4.6c.37,0,.72-.06,1.08-.08.07.33.46,1.82.52,2.19C759.92,1021.39,759.22,1019.71,758.93,1019Zm1.63,14.6a14.82,14.82,0,0,0-1.55,5.74c-1.67.83-2.94-1.35-3.71-2.37A35.15,35.15,0,0,0,760.56,1033.64Zm4.82-37.17c-.81-.78-1.42-4.21-1.78-5.83,3,.3,3.77.16,4.72,1.76s.38,6-.68,7.85C767.28,999.94,766.2,997.25,765.38,996.47Zm2.81,9.76c1,.11,2.63,3,2.53,5.26C770,1009.62,768.89,1008.17,768.19,1006.23Zm54.21-411c-1.33,15.29-2.56,82.1-5.85,94.56-3.22,12.17,3.3,21,1.65,26.28-1.55,4.95-3.39,10.36-4.53,15.56-1.82,8.28-.21,15.24-.91,20.59-.84,6.41-4.06,22.59-2.76,29.74s-7.23,38.88-5.56,48.6-1.16,17.07-.83,29.53c.44,16.23-5.07,24.25-7,36a201.25,201.25,0,0,0-.64,24.73c.45,5.9-3.18,25-3.8,29.62s-6.64,14.61-7,18.07-6.49,11.59-5.24,17-4.25,24.25-6.86,23.31c-.78-3.51-2.37-5-3.67-6.54.09-1.73,1.6-3.31,1.77-4.83.66-5.88-2.8-9-6.5-8.64-2.38.23-2.35-.61-3.24-.49,3.45-1.48,1.68-4.59.25-7.21-1.6,1.62-.1,4.67-1.15,6.75-1.4-1.13-4.75.37-5.77-.24,1.23-.89,1-4.54.85-6.11-1.86-1-3.33,2.88-2.23,5.65-1.89-.59-3.53-4.57-6-5.11-1.65-2.67-.27-5.09-.77-7.91a16.7,16.7,0,0,0-1.06,7.41c-.56.83-2.26.14-2.57,2.17-.25,1.61-1.56,2.14-1.69,4.36s-1.42,4.41-1.78,5.48c1.12.45,1.26-2,2.13-2,.77,4.59,4.77,6.73,7.91,5.17.19-.71-.41-1.49-.56-2.11a5.54,5.54,0,0,0-6.71-3.76,9.28,9.28,0,0,0,.91-2.73c.08-.61,1.08-1.09,1.63-1.82s.57-1.61,1.37-1.73c1.66-.26,4,4.11,6.11,5a9.7,9.7,0,0,0,5.57.55c2.44-.58,3.51,1.55,4,3.82a24.05,24.05,0,0,0,2.6,6.63c-.08,1.64.12,3.79-.68,4.86a3.89,3.89,0,0,0-1-.47c-.67-1-1.44-3-2.78-2.4.16,1.09-.58,1.67-.81,2.42a4.15,4.15,0,0,0-2.92,1.57c.05.11.11.22.17.33-1.74,1.48-2.49.84-2.89,2.13.59,1.86,3.14,2.75,5,5.94-1.64.36-3.31.09-4,2.13-.56-1.93.53-3.06-.1-3.72-.87,1.18-1,3.34-1.5,4.79-2.64-2.21-7.11-3.57-6.48-6.83s6.4-7.17,6.33-9.89c-1.35,2.26-2.65,2.72-4.17,4.52-1.23,1.46-3.91,3.49-4,5.22a6.44,6.44,0,0,0,2.33,5.41c1.62,1.43,4.08,1.93,4.67,3.73.84,2.57-1,4.25-2.49,5.09a35.62,35.62,0,0,0-6.36,4.32,5.68,5.68,0,0,0-2.66.09c-1.31-.54-2.88-1.1-4.56-1.79,1.57-2.72,4.82-4.23,5.53-7.2,1.22-5.12-2.43-6.82-4.06-9.88-.17-3.93.89-6.48,3.06-7.75-.79-1-4.54,3.66-4.69,6.32a10,10,0,0,1-2.85-4.13,27.16,27.16,0,0,1-1-8.15,22.41,22.41,0,0,0,8-16.18c-.64.8-1.83,7.21-4.18,10.06,2.2-4.3,1.72-11,1-11.88-.17,6.17-.76,10.41-4.72,14.64-.27-4.2,1.16-7.08.81-8.48-1.57,2.07-1.78,6.37-2.51,9.63-3.46,1.55-7.58,3.42-9.53,6.36-1,1.41-1.49,3.33-2.79,4,1.39-4.7,2.85-8.26,3.47-14.68.5-5.14,1.7-11.43,1.93-16.85.17-3.92.39-6.07,1.56-7.71-1.56.62-2,3.94-2.29,6.12-1.24,11.66-5.24,32.16-7,34.57-1,1.36-1.54,4.28-2.1,7.29-1.31.72-2.22,2.89-2.67,4.89-1.68-2-3.47-2.78-4.74-4.74a71.54,71.54,0,0,0,1.92-9.14,17.34,17.34,0,0,0-.35-7.29c-.1,4.46-.62,11.6-3.07,15.37-.77-.56-2.81-1.86-3.48-3.78-2.39-6.89-1.61-16-.33-22.85-2,1.37-2.85,20.86-1.33,24.74.53,1.33,3.23,3.22,4.32,5a16.52,16.52,0,0,0,4.27,4.76,6.3,6.3,0,0,1-4.5-1.51c-1.31-1.11-4.73,0-6.63-.65a39.67,39.67,0,0,0,1.91-4.78c.41-1.55-.28-3.57-.48-4.9-.58-3.89-1.48-9.22-3.14-11,.66,3.79,2.34,9.58,2,14.52a15.45,15.45,0,0,1-1.72,5.21c-.34-.23-.73-.48-1.16-.73-.08-1.76,0-3.56-.14-4.79-.45-3.6-2.5-5.57-3.36-8.08-1-3-3.55-5.14-5.46-6.64-2.84-2.22-5.78-4.36-6.74-7.73-.9-3.21-.84-8.52-2.1-10.11,1.39,6.06-.12,10.54,2.52,14.25,1.6,2.25,4.4,2.92,4.73,4.74-4-.22-6.32.17-7.73.87-2.5,1.25-2.23,3.5-4.37,5-2.78,2-6.63.35-7.93,2.3-1.41,2.12,1.65,5.86,1.61,7.33s-4.29,2.87-5.2,4c0,.32,1.17.33,1.88-.22.05,2,.23,4.49,1.33,6.2,1.62,2.54,5.31,4.5,6.63,2.81-.94-1.54.38-5.13-1.85-7.25a7.54,7.54,0,0,0-5.22-2.16c3.8-1.13,4.76-3.47,3.65-4.85s-1.66-4-1.36-4.43c.65-.83,7.4-.9,8.15-2.8,2.41,1.15,3.73,4.39,4,7.72-.44.19-.73.44-.79.79.28-.06.55-.12.82-.16,0,.45,0,.89,0,1.33-.57,2.92-1.39,4.38-1.34,8.11.1,7.91,6.16,12.63,9.08,13.37a2.92,2.92,0,0,1,2.53,2.26c-1.55,2.23-7.78.93-8.69,1.65,1.8,1.74,6.83,1.68,9.26.33.88,4.34,5.2,5.2,5.59,9.2-2.33,2.84-7.52,5.12-9.64,8.36a11,11,0,0,1-3.08-4.15c-1.18-3-1.25-6.9-3.28-8.06,1.28,3,1.53,6,2.36,8.85A12,12,0,0,0,683,1061c0,.38,0,.78,0,1.21-1-.33-2.24-1.25-2.57-.63a3.78,3.78,0,0,0,2.69,2.22,14.51,14.51,0,0,1,.07,3.92,29.53,29.53,0,0,0-4.76-1.59c-.93-3.42-4.93-3-7.92-1.51-3.07-7.14-7.16-12.4-10.15-19.65-.87-2.13-.77-3.68-1.09-4.06-1.68,3.87,6.81,17.82,7.93,21.46-.76-1.68-9.26-15-10.17-16.86s-.82-3.75-1.59-4.23c-.47,3.19,2.19,7.43,4,10.57,2.74,4.71,6.35,10.89,8.37,14-2.55-1.29-6.5-5.25-8.42-7.08,1.94,4.4,4.41,4.13,6.58,8.37a2.34,2.34,0,0,0-.7,2c-3.83.79-6.39,3.12-10.74,3.47a14,14,0,0,1-1.66-7.49c.07-1.94.52-3.82.55-5-2.64,2.66-1.24,9-1.19,12.17-2.34-1.75-1.24-4.45-1.56-6.31-.2-1.16-1.19-2.19-.91-3.35,2.47-1.92,5.66-7.48,7.89-8.76-1.85-.12-5.91,6.23-8.61,7.58-1.73-3.79-8.44-4.27-10.41-7.33-1.15-1.78-1.65-5.79-4.16-6.4,1.1,1.63,1.33,3.66,2.16,7.17s8.72,4.44,10.39,8.21c-.44.22-5,3-7.82,4.49a14,14,0,0,0-.2-6.85c-.84-2.28-4.43-3.35-3.58-7.73-4.61.21.45,7.73-2.32,9-3.37,1.51-4.84,3.44-5,6.89s2.42,4.27,3.88,4.65c.47,2,1.65,4.08,1.64,6.84-1.47-.09-1.52-3.07-2.3-3.21.82,2.77,1.63,6,2.78,9.32s4.58,5.09,6.45,4.83a7.91,7.91,0,0,1,3.6.45c-2.82,2.32-2.77,6.27-4.56,8.53-2.11,2.67-3.28,4.66-4.63,5.54-1.89,1.22-2.76,1.09-3.11,1.77,5.36.66,6.41-3.81,8.72-4.73-1.21,2.84-1,8.39-1.84,10.75-1.68,4.69-7.68,7.52-11.45,10-1.82-2.28-1.94-6.72-1.14-9.7a21.71,21.71,0,0,0,.25-8.37c.06-.79,1.76,0,2-.55-.54-1-1.27-1-2.4-1.68-.09-.35,1.94-.68,1.54-1.76a1.8,1.8,0,0,1-2.11-1c-.51-1.57-.63-4.12-1.29-5.28.52-.72,2.88.4,2.54-1.51-.51-.5-2.23-.71-3.29-.66-2.1-4.21-3.94-14.5-8.15-15.42-3.11-8.18-5.31-10.84-9.17-16.31-1.71-2.42-3.08-6.18-4.33-11.27-.56-2.28-1.86-5.15-1.5-8-1.62,2.33.12,5.55.6,8.41a62.46,62.46,0,0,0,1.79,8.54c.92,2.32,4.53,6.87,4.85,11.85.12,1.92,2.69,4.61,5.31,9.53.95,1.79,1.2,3.47,2.76,6.32-.56,2-3.06,0-3.43,1.56.78-.1,1.71.42,2.32.4s1.1-.25,1.92.31c-.06.59.5,1.36,1.06,3.25-2.17-.3-3.36-2.31-4.07-1.1.78,2.08,3.19,2.1,4.59,3.56.51,5.4,1.95,9.07,1.08,14.09-.77,4.5-2.16,10.85-.08,14.6.76,1.37.67,2.77,1.29,3.87-2,2.3-6.37,1.67-10,1.48a21.18,21.18,0,0,1-7-1.85c-.37,1.25,3,1.47,3,2.76-3.77,0-9.75.27-12,2.22-1.64.67-5.39.86-9.18-.29-4-1.21-6.74-2.26-10.35-2.39s-6.69,1.64-8.16,2.21c.23-1.11,2-2.76.43-3.74-.63,1.74-1.71,1.9-5.33,4.41a21.91,21.91,0,0,1-3.1,1.7,12,12,0,0,1-1.11-.89c-.36-1.94.73-2.42.48-4.24-1.34-1-1.87,2.83-3.77,2.82a20.17,20.17,0,0,0-9.88-1.88c-1.4.65-1.76,2.32-3.3,2.83-.68-.73-2.41-.42-3.77-.47-3,2.19-4,6.36-6.59,8.94-1.85.13-3.67-1.14-3.76-2,.91-1.23.12-3.66-.08-4.6a6.69,6.69,0,0,0,3.37-1c1.15-2-.34-4.61,1.09-6.49a8.34,8.34,0,0,1,5.23-3.59c.94-.07,2.92,2.71,4,2.55-.21-1.35-1.67-1.47-1.41-3.29,3.65-.46,5.75-3.81,10.35-4.71,5.29-1,12.93,1.46,18.66,1.2,3-.13,5-1.08,5.81-3.26-6,2.12-15.44.13-22.31-1.76-1.32-.36-2.69-1.3-4.52-.46a35.76,35.76,0,0,1-8.33,2.53c-2.32.36-11.93,7.32-17.49,10.14s-12.09-1.92-19.94-.49c-6.52,1.19-13.28,7.79-18.72,8.58a35.84,35.84,0,0,1-12.34-.82c-3.65-.77-12.82-.41-14.54,2.21-1.07,1.62-8.59.37-13.16,1-6.18.82-7.55,4.89-8.92,10.81,1.73,1.86,4.73-3.34,5-1.41-1.72,2.37.06,8.63-1.15,9.15-1.72-1.92-4.76-5.3-5.49-9.48-1.28-7.34,3.1-7.15,3.1-14.34,3.92-1.47,4-2.51,6.3-2.79.89-.11,4.48-.53,4-1.85.09-.73,3-.39,5-.4.79,0,3.88-1.3,4.75-.91,3.35,1.48,6.79,1.62,9.45.06,4.8-2.81,9.21-12.06,6.32-13.44-.61,1,.23,5.54-7.62,7.16-1.95-3.23-4.88.47-7.53.47-3.07,0-7.21-3.09-9.83-1.62-1.59.89-7.63,1.39-11.06,3.18-2.91,1.52-5.52,5.76-10.25,8.25-5.52.53-3.71,9.77-10.34,10.7-2.05-2.64-6.59-1.67-7.44-2.56,0,0,.08-3.56-1.56-4.74s-2.69-5.07-6.95-5.68c-1.88.32-1.95,1.51-3.42,2.17s-8.07-1.95-9.76-1.23c-.73.32-1.77,1.23-1.11,2.21-.9.82-13.59-3-19.23-2s-9.06,8.7-10.6,9c-4.07.74-12.49-.78-16-1s-5.06-6.87-7.78-5.76-11.28-1.89-18.22-.13-12.23-1-17.64,2.3c-2.52,1.54-4.89,5.24-8.59,5.07.88,2.25,6.23-.75,8.34-3.13-.24,1.45.45,3.85-.18,5.07-1.53.74-3.61,3-6,4.34-2.11,1.19-12.35-2.88-15,.26-8,9.65-14.51,6-20.26,12,1.16,1.51,5.68-2.1,7.24-1-1.89,3.75-6.63,8-8.75,11.58-2.09.37-2.26-.39-4.14-.23-.77-1.11-.15-3.62-1.88-3.77-.68.73-.63,2.2-1.42,2.82-1.75-1.07.66-4.34-1.88-5.18-.65.3-.07,1.82-.94,1.89-.64-1.1-.88-5,0-6.12,2.85-.45,7.19.27,8-1.88-.35-.38-2.12.19-3-.79,2-.86,4.5-2.91,4.44-5.8a9.63,9.63,0,0,0-6.12-1.41c-1.13-1.23-1.09-2.65-4.24-2.83s-2-4.91-6.12-4.23c-2.72,4-6.55,7.49-11.77,5.64-3.17-1.12-5.74-8.18-11.77-6.59-.8-.6,0-2.81-1.41-2.82-.25.68.55,2.43-.47,2.35-5.62.54-13.61,1-18.48-.33s-4.61-6.08-6.47-8.14a19.14,19.14,0,0,0-7.4-.27c-.73-2.5.32-8.79-2.86-11-1,.23.45,3.92-1.2,4.31a8.63,8.63,0,0,1-1.47-5.47c-1.38,0-1.23,1.09-1.34,2-2.68-.35-5.4-2-9.16-2-4.54,0-12.9,2.58-14.27,3.52-.65-.38-1.68-5.75-1.32-6.6,6.46.68,11.05-2.79,15.73-4.89,1.56-.7,2.4-.49,5-.83,1.91,0,1.34,5.12,1.06,5.85,2.5-.91.83-4.6,2.23-5.71a5.54,5.54,0,0,1,2.5-.09c.55.34.49,3.13.61,4,1.23-.39.85-3.54,1.66-3.75,1.61-.44,4.22.23,6,.16,1.45,2.17-.31,4.15.84,5.06,2.1-.57,2.54-3,3.48-4.8,2.46.15,5.52,1.68,7.74,2.1.47,2.08-1.48,2.55-1,4.63,1.87-.38,2.62-2.31,3.22-3.54a9.55,9.55,0,0,1,3.37,2.25c.13,1.72-1.88,2.81-1.45,4.73a40.85,40.85,0,0,1,3.55-3.18c.15,1.23-2.64,2.31-2,3.45,2-1.42,2.55-1.65,3.37-2.21.7.45,1.73,1.27,1.42,2-1.83.69-2.16,1.48-2,2.19,1.07-.91,1.68-.43,3.2-1,1,.47,1.46,1.55,2.35,2.15-.29,1-.38,5.54-2.14,8.37,3.87-.27,3.58-4.15,5.12-6,2.9.93,5.07,6,8.85,4.29,3.26,2.75,7.29,3,12.52,5.48,2.6,1.22,2.83,1.89,6.55,3.1,3.43,1.12,7.47-1.59,12.28-2.42,4.06-.7,7.82.69,9.31-.94s0-4.37-2.33-4.88c-.52.74,1.31,2.92.45,3.43a20.32,20.32,0,0,0-8.87,0c-5.24.92-10.25-.83-14.44-1.61a14,14,0,0,0-1.89-7c-1.69-.31-1,2.69-1.78,3-6.49-1.46-5-9-7-10.77-.37-1.75,3.42-.44,3.44-1.93-3.44-2.93-9.27-3.07-12.25-6.51-1.07-4.18-5.81-7.94-6-11.53-2.36,3.62,1.86,5.34,1.91,8.75-3.73.88-5.08-.82-7.51-1.35-.51-5.51-1-10.1-7.21-11.19-3.48-.61-7.26,2.46-11.14,2.58s-14,.22-16-1.09c3.53-5.82,12.48-4.61,12.69-8.87a8.67,8.67,0,0,1,1.95-5.65c2.6-1.58,9.33-.81,10.17-2.58s-1-4.31,1.07-4.18,9.17-4.34,13.86-2.57c-2.38-4.24-11.89.37-14.48.27-5.86-.24-2.4,3.57-3.3,4.57s-5.74-1.54-8.07.79c-1-2.1-3.74-2.21-2.51-4.89,1.35-2.95,10.32-7.22,13.3-13.22,1.3-2.61.25-7.33.33-9.63-2.33,1.16,1,5.3-2.17,9.13a23.09,23.09,0,0,1-7.86,6.11c-.66-3.54-1-7-2.9-8.73a32.13,32.13,0,0,1,5-4c2.75-1.59,4.46-1.49,6-2.44-3.89,0-8.51,2.85-11.82,5.86a4.91,4.91,0,0,0-1.35-.5,3.16,3.16,0,0,1,1,.86c-2.42,2.27-4.06,4.6-4,5.85.05,3-3.06,4.55-6.1,4.5a21.91,21.91,0,0,1,.06-6.8c1.15-5.8,5.92-8.64,5.82-13.22a16.07,16.07,0,0,1-2.42,4.8c1-4.35.39-10.68-1-16.86a19.69,19.69,0,0,0,2.47-7,4.42,4.42,0,0,0-1.24,2.25c-.5,1.21-1,2.39-1.51,3.51-.28-1.18-.57-2.34-.88-3.49-.61,1.48-.47,3.36-.19,5.44a15,15,0,0,1-7.36,6.11c-3.06,1.32-7.58,3.42-7,7.6a9.05,9.05,0,0,1,0,2.85,4.31,4.31,0,0,0-1.62.1,6.41,6.41,0,0,0-.31-2.34c-.94-2.8-4.2-4.21-4.6-6.71s1.85-8.24,1-9.69a2.55,2.55,0,0,0-4-.83c-1.32,1.24-.78,3.85.26,3.67.28-.53,0-1.73.39-2.47.25-.49,1.51-1.5,2.15-.26s-2.09,7.49-1.09,10.54,3.43,4,4.22,6.87-1.78,5.08-2.47,7c-.62,1.7-.57,3.69-1.82,4.46-2.12-1.83.21-5.47-2.2-10.14.36-1.26,1.71-1.13,2-2.39.53-2.5-3.39-9.07-4.93-8.84s-3.53,4.5-6.17,5.94a10,10,0,0,0,.91-8.45c1.45-.56,1.93-2.24,2.56-2.16s.27,1.72,1.26,1.42a1.76,1.76,0,0,0-1.2-2.82c-1.33-.12-1.35.92-2.36,1.63-.77.53-1.58-.11-2,1s.46,2.54.61,4.81-3.21,8-4.31,8.52c-.55.24-3.73,1.51-4.43,1.24,3.75-2.49,4.78-6.58,4.63-8.07s1.27-1.54,1.22-2.68c-1.44-2.07-11.53,4.13-7.21,11.14-1.41.79-4.33.38-5.11,1.18a6.11,6.11,0,0,1-3.24,1.66,5.18,5.18,0,0,0-4.18,2.65c-1.42,2.43-2.4,4-2.75,6.62-2.39,1.59-6.08,6.25-6.79,6.3a9.18,9.18,0,0,0,.16-4.73,14.12,14.12,0,0,0-1-3.74,7.36,7.36,0,0,0,3.63-6.45,11.57,11.57,0,0,1-4.52,4.7,9.36,9.36,0,0,0-2.62-3c.1-3.61,2-6.07,3.26-6.7,3.42.3,11.42-2.49,14.57-3.34s3.44-4.79,5.71-6.59c.55-.44,1.52-.66,2.15-1.18,1.31-1.06,1.76-4.57,1.26-7a13.29,13.29,0,0,0-2.81-5.43c-1.23-1.82-.35-3.14-.94-4.75,5.41-1.76,10,1,14.22.23,3.86-.73,5.84-5.56,8.18-8.37,1.73-2.07,3.89-3.46,3.84-5.62a48.17,48.17,0,0,1-4.18,5.09,66.12,66.12,0,0,1-6.49,6.47c-2.68,1.94-5.09.33-8.49.13-2.33-.14-5.35-.86-7.94.38-1.11-4-2.68-8.47-1-14.29a20.62,20.62,0,0,0,5.07-5.47c2-3.17,3.71-3.35,5.1-4.81,1.71-1.79,2.41-4.32,3.55-6.7,1.34-2.8,1.45-8.73,2.24-10.81.85-2.24,5.89-3.59,5.17-5.61-1.14,2.11-4.58,3.09-5.34,4-2,2.22-2.07,6.49-2.75,9.75a35.7,35.7,0,0,1-3,7.29c-.84,1.67-3.24,2-4.73,3.78.19-4.09-1.22-6.46-3.37-8-.28,1.71,1.73,2.8,2.15,4.76a10.07,10.07,0,0,1-1.08,6.64c-.5.79-2.57,3.14-3.13,3.07-.41-3.31,1.53-5.4,1.45-7.27a5.78,5.78,0,0,0-.35-2,6.12,6.12,0,0,0-1.5-5.24,8.89,8.89,0,0,0-1.76-1.32,46.36,46.36,0,0,1-.93-7.76c.19-2.86,1.89-3.69,1.63-4.36-3,2.69-2.8,6.29-2.27,9.77.09.57.16,1.12.23,1.65-3.05-1.39-6.52-1.75-6-.4a9.37,9.37,0,0,1,3.08,1.35c-2.1.72-4.43,2.57-3.74,4.57,1.71.49,3.51-3.45,5.77-2.78-.66,1.26-1.7,2.47-1.82,5s-3.44,2.49-4.24,5.11c-2,6.58-11.91,8.76-14.72,16.1A46.48,46.48,0,0,0,93.72,1027a9,9,0,0,1-.41-2c-1,1,.7,3.34.56,7a7.27,7.27,0,0,1-1.18,3.29,15.36,15.36,0,0,1-4.57-3.39c-.86,1.79.91,2.66,1.49,4.65s-3.64,1.4-3.06,4.11c-.78-.06-1.21-.51-2-.6,0-1.56.62-3.79.49-5.15-.19-1.86-.36-4.69-2-5.33a12.38,12.38,0,0,1,.9,6A18.67,18.67,0,0,0,82,1029c-1.86,1.33,1.68,5.65-.88,8.62a2.71,2.71,0,0,1-1.88-1.21,9.33,9.33,0,0,0,.64-1.21c-.11,0-.45.37-.9.86l-.41-.57a9.59,9.59,0,0,0,2.21-5c.43-2.47.55-3.83,2.93-5.82s2.73-4.72,3.41-7c1.26-4.29.19-6.93-.07-10.61a11,11,0,0,1,2-6.62,16.91,16.91,0,0,1,8.8-6.61c2-.67,3.92,0,4.77-1.21s.22-5.29,1.7-6.43S107,984.09,107,982s-2.91-3.63-3.65-4.6a5,5,0,0,1-.31-4.89c.87-1.89,2.33-1.6,2.7-2.39-1.32-.85-2.81.19-3.74,2.07a6.46,6.46,0,0,0,.22,6.18c.86,1.55,3.21,2.7,2.89,4.23s-1.59,1.22-2.57,2.6a9.49,9.49,0,0,0-1.48,6c-1.87-1-6,1.2-7.34,1.95,0-.82,1.25-2.62.85-3.22-.67,1.81-1.49,2.33-3.34,4.79-1.94,1.47-6.23,6.73-6.67,10.53-.49,4.29,2.41,10.45-2.25,16.81-3.57,1.21-4.93,4.47-5,9-1.2.74-.94,2.26-1.87,3.14-2,2-6.74,5.5-9.71,9.09-.66-4-3.5-7.8-3-10.78.11-.69,4-4.11,4.6-4.83a91.74,91.74,0,0,1,9.49-9.53c2.86-2.61,4.33-4.27,4.87-7,.42-2.15-.29-4-.13-5.57.45-4.3,1.38-9.46,2.39-11,3.23-4.91,7.26-4.08,8.14-6.26-2.75,1.05-7.43,2.39-9.54,5.62-1.92,3-2.3,8.13-3.7,11.58-.6-5.74,2.21-9.39,2.14-13.94,1.47-2.45,2-7.19,2.57-9.81-1.56.74-1.46,7.06-3.35,8.16.87-2.82,2.07-8.79.58-13.26-.42.51,0,2.38,0,3.48.22,4-1.62,7-2,10.41-1.52-1.4-3.05-2.26-3.66-3.83-.5-1.3-.06-3.28-1-4.58-2.59-3.42-8.2-2.81-11.57-3.54-1.89-.41-4.56-2.08-7.71-5.18a14.86,14.86,0,0,0-3.09-2.36c-2.47-20.38-6.6-43.19-5-59.92,1-10.19-3.77-34.29-4-45.33-.39-17.78-3.19-19.25-5-36-.69-6.38.95-11.9.44-18.07-.35-4.13-2.66-15.39-3.82-23.26-2.44-16.64-3.43-41.66-2.56-45.32s-1.61-14-2.61-18.9-.88-14.57-.5-18c.5-4.5.39-9-1.05-16.29-1.63-8.3,1.05-12.71-1.45-21.71-3.25-11.72-3.52-18.44-2.58-33.1s-3.23-28.74-1.39-33-.86-11.16-.27-16.85c.92-9,.42-18.44,1.53-26.44s.78-8.43,3.53-18.89c2.39-9.12,1.08-17.44,1.39-21.46.6-7.64,3.51-16.06,4.18-29.73S37.18,455,39.18,443s12.31-52.35,17.49-57.36c10.66-10.34,6.79-12,12.62-29.36,4.71-14,9.45-21.67,16-31.48,5.5-8.29,2.17-44.31,8.07-50.83,2.69-3,4.16-7.17,6.74-9.35,3.08-2.62,7.31-3,11.2-3.85a34.52,34.52,0,0,0,3.81,1.62c5.57,1.92,9.63.83,14.59.92s15.45-1.79,18.34-1.53c2.61.24,4.51.86,6.13-1.29-1.81.52-3,.39-6.15-.35s-10.18.05-15.73-.12c-4.29-.13-9.26-.09-13.52-1.26,4.39-1.72,8-4.75,9.5-11.75-3.51-1.23-6.77,1.77-10.7,2-1.84-4.28-.48-11.72-.37-17.93,2.92-4.09,3.79-11.69,8.26-13.5,6.3,2.53,9,1.2,17.16,2.85,5.24,1.06,10,4,13.56,4.6,2.85.45,7.9,1,10.48.6,3.58-.51,4.39-3,7.87-5a28.55,28.55,0,0,0,8.44-7.41,49.23,49.23,0,0,0,6.65-11.34c4.69,1.64,21.56-.37,28.25,4.08s10.25,5.57,17.1,4.58c4.54-.66,6.87-1.83,8.05-4.51s-.05-6.11,2.85-10.75c-2.69,1.75-2.84,5.28-4.17,8.63-1.38,3.51-14,4.93-20.12-.55s-14.77-6.16-18.77-6.59c-3.3-.36-7.16-1-11.21-1.15a17.41,17.41,0,0,0-4-6.17c1.41-3.45.92-6.46,1.51-10.16a71.53,71.53,0,0,1,1.3-7c.41-.1.81-.2,1.21-.26a137.82,137.82,0,0,0,14.69-2.9c1.38-.36,2.75-.83,4.12-1.28a28.15,28.15,0,0,1,2.28,5.1c2,6,1.94,8.3,2.6,11.17,2.22-3.88.28-10.56-2.43-17a12.32,12.32,0,0,1,6.18-.35c2.26.57,5.39,2.75,7.61,2.32,2.39-.47,7.81-.1,9.38-.2,2.74-.18,6.9-1.32,8.1-2.16-1.23-.82-5.81.75-8.78.6a43.56,43.56,0,0,0-8-.2c-4,.5-4.27-2.27-9.33-3,0-.83,3.24-1.71,4-2.36-1-1.07-9.74,2.82-10.12,1.71,10-5.34,20.63-5.37,28.79-6.3,6.77-.76,12-2.41,19-1.77a33.07,33.07,0,0,0,4.74.4c-5.3-2.32-11.13-1.87-15.88-1.58-6.09.37-11.69,1-17.49,1.78-2.38.33-3.81.06-7.76.94a73,73,0,0,0-13,4.46c-.28-.61-.57-1.2-.84-1.77,1.26,0,2.41,0,3.35-.07-.37-.42-1.86-.83-3.88-1l-1.08-2.22c-1.56-3.28-5.45-6.94-9.44-10.6a52.52,52.52,0,0,0,7.8-8.78,22.53,22.53,0,0,0,3,.86,4.14,4.14,0,0,0,.78,1.57c1.52,1.8,5.53,3.74,7,5.2s3.07,1.05,4,1.31c1.53.41,4,3.16,4.9,2-2.22-1.16-3.47-3.25-4.6-3.31s-2.53-.18-3.2-1.18c-1.51-2.28-4.12-3.18-5.16-4.33a7.59,7.59,0,0,1-.62-.78c6,.67,12.39-.14,16.77-.58a18,18,0,0,0,2.73-.53,46,46,0,0,0,7.74,1.6c2,.2,5.31.87,7.15,0-3.71-.94-7.26-1.86-10.77-3,3.2-1.28,6.32-2.88,8.62-3.83l-.68.07c.46-2.2-.62-6.91-1.92-11.42l1.33.44c.56,1.63,1,3,1.34,2.87a6.74,6.74,0,0,0-.13-2.5c1.89.53,3.48.7,4.56-.27a22.57,22.57,0,0,1-5-1.68,73.16,73.16,0,0,0-2.74-7.54A26.9,26.9,0,0,0,245,115c2.09,1.22,5.4,1.58,7.92,3.1,1.2.72,2.73,2.51,5.15,3.34,5.81,2,12.26,2.08,15.85-.39a29.05,29.05,0,0,1,2.89,1.87c2.48,1.83,3.51,3.43,6,5.73s5.1,3.38,6.29,4.41c4,3.41,5.19,5.8,8.88,8.29,5.23,3.54,7.81,2,11.38,2.64,3.84.64,7.42-.64,7.08-1.28-2,.77-5,.47-7.34.05-3.44-.6-6.63-.74-9.6-2.83s-5.61-6-8-9.27c-2.15-2.93-7-5.41-8.88-8.09a13.3,13.3,0,0,0-2.65-2.7c3.6.54,7.19,1,11.06,1.33,7.24.64,15.16-.37,20.54,3.28,3,2,6.18,6.86,9.77,7.4,3.86.59,11.67,4,14.06,4.67a41,41,0,0,0,7.34,1.23c2.42,3.68,4.4,6.07,5.67,5.69-1.14-.68-3.05-3.63-4.26-5.6a18.81,18.81,0,0,0,4.74-.18c-.67-1-3.17-1.47-6-2-1.73-3.11-3-5.9-3.87-7-1.76-2.11-3.54-6.4-4.83-10.67,5.75,1.3,18.13,4.43,19.19,4.65,5.12,7.64,8.27,19.21,8.81,23.33,1.54-2.21-2.89-15.76-5.94-22.77,6.48,1.21,12.49,2.1,18.73,4.33-.05.27-.1.56-.13.87a23,23,0,0,0,.64,7.16c1.26-.62.11-3.85.79-6.39a4.92,4.92,0,0,1,.42-1c.95.38,1.9.77,2.86,1.22,1.44.67,5.21,2.75,6.78,3.09a31.89,31.89,0,0,0-8.7-5.89c.56-.88,1.16-1.75,1.56-2.32.81-1.18,1.71-2.34,2.34-3.45a10.93,10.93,0,0,1,5.48-4.64c5.49-2.48,10.24-4.55,13.6-8.45,1.57-1.81,6-5.39,7.07-7.31,1.82-3.3.64-4.86,2.34-8a67.61,67.61,0,0,1,4-5.81,34.7,34.7,0,0,1,1.86,3.23c1.26,2.52,4.07,2.93,6,3.83s5.32,2.16,7.16,2c-1.3-1.31-3.19-1.68-5.46-2.82s-5.17-3.19-5.43-4.33a12.69,12.69,0,0,0-2.41-4.33,51.59,51.59,0,0,0,5-8.27c2.25-5.2,7.76-8.66,16-10.66,4.5-1.09,19.47-6.56,23.69-7,4.61-.5,9.67-2.06,10.83-3,.58-.48,1.54-1.72,2.31-2a15.59,15.59,0,0,0,4.66-2.67c1.26,3.3.33,5.34.54,8-1.46,1.53-2.23,3.14-4,4.13a36.94,36.94,0,0,1-8.94,3.41c-4.38,1.13-6.9,3.22-10.75,4.81-5.21,2.14-8.38,3.67-13.88,9.84-2.3,2.58-7.43,13.77-9.44,18.17a48.58,48.58,0,0,1-5.39,9.55c-3.4,4.21-6.57,7.64-8.36,11.26,3.13-3.59,7-6.56,10.08-10.22,3.31-4,5-7.37,7.32-11.81,2-3.94,6.64-13.39,11.91-17.27,3.72-2.73,11.22-4.79,15.44-7.18-.58,1.7-2.61,4.6-2.65,6.05s.14,2-1.15,3.26-1,5.26-.62,7.15c.59,2.69.85,4.87,1.91,4.75-1.32-2.06-1.67-9.52.11-10.79s1.8-5.7,3.93-6.43,3.4-3.57,5.49-5.33c2.71-2.28,5.64-2.69,9-6.67A93.2,93.2,0,0,0,487,54.6c3.93,3.14,7.73,4,9.63,7a20.06,20.06,0,0,0,1.25,1.79,39.71,39.71,0,0,0-2.78,5.33c1.54-1.07,2.52-4,3.48-4.43,2.79,3.42,7.13,7.47,10.17,7.54a4.13,4.13,0,0,1,1.43.32,16.57,16.57,0,0,1-9.8,3.08c1.2.56,7,.09,10.37-2a6,6,0,0,0,.65-.47c3.4,2,7.16,7,7.72,9.41s-.1,7-.46,10.51c-.74,7.32-.66,14.38-3.69,17.57s-4.49,10.32-11.3,14.16c1.85,2.35,9.09-4.22,14.37-13.08s5.59-25,5.92-31.4-4.42-6.33-5.71-7.23a19,19,0,0,1-3.62-3.47,8.58,8.58,0,0,1,1.16-1c1.54-1,2.87-1.67,3.89-2.52s1.43-2,2.68-2.57c3.23-1.36,6.36-1.3,11-2.89-1.44,1.16-3.35,6.14-5.28,8.92-1.1,1.59-3.12,2.34-3.13,4.14,0,1.22,1.6,3.86,1.06,4.58s-.94,2.72.38,3.19a4.47,4.47,0,0,1,2.4,3c.4,1.19,2.58.66,3.42,2,1.27,2.1,1.87,4.53,4,6C538.63,94,542,93,543.53,94s4.88.8,9,.57a6.58,6.58,0,0,0,6.53-5.34,30.71,30.71,0,0,1,4.89.15c6.69.71,8.5,1,12.48-.34.37-.12.77-.28,1.19-.44-.08.7-.15,1.36-.2,1.94-.19,2.18,1.35,5.1,1.47,6.74.09,1.37-.83,1.2-.8,2.88,0,1.39,2,3.2,2.1,5.49s-.59,4.26.6,7c3.48,8,13.6,5.06,19.14,7.46-.76,1-1.5,1.93-2.1,1.89-1.22-.09-3.79.95-3.35,2.8s-.59,3.65-1.64,5,1.16,3.41.22,5.4c-1.44,3-3.76,5.51-3.89,9.07-.15,4.14,3.43,7.21,3.56,9.68s2.71,6.16,6.08,10.72,7.91,4.73,11,3.46,5.87-.34,8.67-2.44,13.17-.93,16.21-6c-14.54,2.27-24.87,1.38-27.75,1-1.3-.86-2.23-2.52-2.94-4.64-.75-2.27-2.19-5.48-2.52-7.27s.33-4-1.52-5.52A86.7,86.7,0,0,0,605,129.44c2.23,0,6.9-1.35,7-1.31,7.36,2.9,14.39,2.67,23.41,1,2-.36,3.76-1.64,5.15-2,1.63.52,4.82,1.22,4.93,1.26-4.15,2.42-7.51,6.1-11.93,8.59.7,1.05,3.64-.37,5.18-1.45a67.94,67.94,0,0,1,9.36-5.26,13.52,13.52,0,0,1,2.46-.94c.92,1.73,1.88,3.56,2.86,5.44a79.05,79.05,0,0,0-4,7.2,20.63,20.63,0,0,0-8-1.85c2.78.86,5.25,1.69,7.59,2.66a39.63,39.63,0,0,0-3.67,12.88c-.21,2.2-.89,6.06,1.13,7.75.49-2.14.15-3.75,1-6.75.77-2.76,2.56-9.38,4.92-12.3a44.49,44.49,0,0,1,9.74,7c.53,1,1.06,1.88,1.59,2.78-1.68-.36-5.25-1.65-5.44-.69,1.88.23,4.1,1.48,6.65,2.71a45,45,0,0,0,6.8,9.1,16.39,16.39,0,0,0,3.61,2.45,18.23,18.23,0,0,0,2.2,3.86c.84,1,4.24,4.24,4.52,4.6-2.78.76-5.48,1.69-7.51,4.65a7.41,7.41,0,0,0-1,3.33,5.6,5.6,0,0,1-.9-.22c-1.86-.62-2.75.8-5.47.14-1.13-.28-2.21-.19-3.18-.48-1.53-.46-2-1.47-3.65-1.43-2.26.06-5.18,1.21-6.06,2.21-3.84.8-5.77-.32-11.3,1.07-5,1.27-10.17,2.77-13.95,6.08s-5.15,5.5-5.23,8.69c0,1.82,1,3.08,1.51,4.41s.63,2.81,1.15,3.52c3.23,4.39,9.28,6.52,12.92,6.12s11.36-8.89,10.3-12.44c-2.91,7.26-5.92,8.35-10.26,9.06s-10.41-5-10.89-10.53,4-5.53,10.94-9.1,6.13,1.69,13,1c3.59-.34,7.81-1.47,11.42-.46,2.93.82,6.18,3.2,10,4.43,3.27,1.06,6.58,1.81,9.25,3.09a15.1,15.1,0,0,0,3.24,3.53c2.94,2.25,7,4.21,9,4.5s4.36-1.38,6.87-3.15c4.07,2.22,14.92,0,15.67.76-2.32,2.2-1.93,1.12-4.19,3.55-.67.71-1,1.53-1.82,2.61s-2.22,2.52-2.83,3.47-.67,2.47-1.3,3.78-1.43,1.7-1.78,2.93.41,2.86-.74,3.93-3,3.57-4.65,4.58a23.45,23.45,0,0,1-6.27,2.33c-2.25.66-6.7,1.47-7.28,3.54,5.21-1.46,14.23-1.43,15.66-3.51s4.09-3.7,5.34-5.34.69-2.9,1.28-4.21c.39-.87,1.27-1.56,1.81-2.5,1.09-1.91.7-2.57,1.11-3.65s2.53-2.45,4-4.42c2.25-3,10.26-3.44,15.15-4.33.6,2.08,1.6,3.71,1.61,5.83,0,2.75-1.75,4.48-.42,10.52,1.22,5.53-.21,12.67,1.06,14.39s2.21,2,3.2,4.45,2,4.37,5.48,8.86a66.9,66.9,0,0,0,8.8,8.63c-.56,1.21-1.81,3.54-1.19,5.49,1.64,5.17,2,10.67,2.88,16.06a68.68,68.68,0,0,1,1.23,11.14c-.08,18.44-.74,24.13,14.61,51.42,8.66,15.41,30.85,65.76,34.66,89.37,7.66,47.43,11.58,79.3,12.18,95.18C816.1,541,825,565.33,822.4,595.27ZM114.12,1032.45c.15-.28.3-.56.45-.86.4-.83.39-1.82.78-2.67.3-.64.89-1.33,1.25-2,.87-1.67,1.84-4.34,3.41-5.19,1,.88-.24,3.51,1.57,5.5a7.87,7.87,0,0,1,2.2,3.59c.5,1.8.53,4.64-1,5.42a10.62,10.62,0,0,0-4,3.87c-.94,1.43-1.67,3.49-3.81,3.86-2.72.47-4.18.43-7.92,1.2.61-1.56,1.39-1.08,3.36-3.56.77-1,1.46-4.64,2-6,.22-.51.43-.94.65-1.34a6.36,6.36,0,0,0,2.68.67C115.9,1033.73,114.65,1033.81,114.12,1032.45Zm1.06-24c2.18-4.2-.49-8.26,2.84-10.07a5.52,5.52,0,0,0,1.72-1.48,24.72,24.72,0,0,0-1.24,2.88c-.44,1.7.54,3.4,0,6-1.29,5.69.22,10.8,1.18,14-2.91.64-3.16,3.76-4.76,5.62C117,1020.42,119.62,1013.41,115.18,1008.42ZM112.86,1023c0-.45.29-.75.73-1a15.65,15.65,0,0,1-.46,1.62A1,1,0,0,1,112.86,1023Zm-1.94-1c-.54,1.85.49,3,1.32,4.12a13.74,13.74,0,0,0-.84,3.89,8.53,8.53,0,0,0,.13,2.11c-.38.68-.76,1.35-1,2-1,2.2-1.48,4.45-2.64,6a5,5,0,0,1-.54.58,13.09,13.09,0,0,0-2.44-7.26,8.41,8.41,0,0,1-.59-1,10.2,10.2,0,0,0-.09-2.28A8.12,8.12,0,0,0,103,1028c-.72-5.19.17-11.59,1.86-13.78,1.47-1.9,3.21-4.65,5.72-4.74,0,1.94,1,2.75,1.41,4.67s2,4.34,1.88,5.14C113.37,1020.67,111.33,1020.62,110.92,1022Z" transform="translate(0 0)" style="fill-rule:evenodd"/></svg>