<svg id="a3ddd0a5-cfc8-447b-9755-00881c57befd" data-name="Layer 1" xmlns="http://www.w3.org/2000/svg" viewBox="0 0 1200 680"><defs><style>.bb68a2be-d994-448e-98d2-0c637c6111bf{fill:#ffdf00;}.a914d22f-dcf7-4651-a0bb-d905c356a0e5{fill:#283e42;}.ea8fba30-f06c-4dc6-b1be-775fc9426d36{fill:#00a7a2;}.a174cc16-e8b9-4527-9266-f7c6596c588f,.b068114d-dd1a-4b71-a75c-daacac6a5324{fill:#fff;}.ac9a0a47-8ed9-4558-853e-49b0838e0d7f{fill:#9a0056;}.e7209080-1bc3-475a-a852-9e685156ae62{fill:#fff4ff;}.e248ff86-19a7-496c-920e-f595d62da3da{fill:#ffc73e;opacity:0.38;}.b068114d-dd1a-4b71-a75c-daacac6a5324{opacity:0.74;}</style></defs><path class="bb68a2be-d994-448e-98d2-0c637c6111bf" d="M416.17,30.13h0a1.43,1.43,0,0,1-1.44-1.44V21.53a1.44,1.44,0,0,1,1.44-1.44h0a1.44,1.44,0,0,1,1.43,1.44v7.16A1.43,1.43,0,0,1,416.17,30.13Z"/><path class="a914d22f-dcf7-4651-a0bb-d905c356a0e5" d="M899.82,264.76a23.43,23.43,0,0,0-.78-3.48l3.85-4.69a28,28,0,0,0-3.51-5.85l-6,1.21a23.3,23.3,0,0,0-5.69-4.22l-.6-6.06A27.92,27.92,0,0,0,880.5,240l-3.36,5.07a22.5,22.5,0,0,0-3.55.26,22.13,22.13,0,0,0-3.47.79l-4.7-3.87a28.5,28.5,0,0,0-5.85,3.52l1.21,6a23.17,23.17,0,0,0-4.22,5.7l-6,.59a27.94,27.94,0,0,0-1.66,6.62l5.07,3.36a22.41,22.41,0,0,0,.26,3.55,21.63,21.63,0,0,0,.79,3.47l-3.86,4.7a27.64,27.64,0,0,0,3.52,5.85l6-1.2a23.58,23.58,0,0,0,5.7,4.21l.59,6.06a28.87,28.87,0,0,0,6.63,1.65l3.36-5.07a22.28,22.28,0,0,0,3.54-.26,22.76,22.76,0,0,0,3.47-.79l4.7,3.86a28.46,28.46,0,0,0,5.85-3.51l-1.2-6a23.72,23.72,0,0,0,4.21-5.69l6.06-.6a28.37,28.37,0,0,0,1.65-6.63l-5.06-3.36A23.74,23.74,0,0,0,899.82,264.76Zm-20.76,17.15a13.89,13.89,0,1,1,11.68-15.8A13.88,13.88,0,0,1,879.06,281.91Z"/><path class="a914d22f-dcf7-4651-a0bb-d905c356a0e5" d="M488.45,600.62a58.31,58.31,0,0,0-1.91-8.43l9.36-11.38a68.53,68.53,0,0,0-8.53-14.2l-14.48,2.92a56.77,56.77,0,0,0-13.82-10.23l-1.44-14.7a68.8,68.8,0,0,0-16.07-4l-8.17,12.3a56.21,56.21,0,0,0-17,2.55L405,546.06a68.4,68.4,0,0,0-14.2,8.54l2.93,14.47a56.28,56.28,0,0,0-10.24,13.84l-14.68,1.44a67.37,67.37,0,0,0-4,16.07l12.3,8.15a56.33,56.33,0,0,0,2.55,17L370.22,637a68,68,0,0,0,8.56,14.22l14.46-2.93a56.66,56.66,0,0,0,13.83,10.22l1.44,14.7a68.31,68.31,0,0,0,16.07,4l8.17-12.3a56.33,56.33,0,0,0,17-2.55l11.4,9.38a69.19,69.19,0,0,0,14.2-8.54l-2.93-14.48a56.48,56.48,0,0,0,10.22-13.81l14.71-1.44a69.2,69.2,0,0,0,4-16.09l-12.28-8.15A58.63,58.63,0,0,0,488.45,600.62Zm-50.4,41.63a33.71,33.71,0,1,1,28.36-38.34A33.71,33.71,0,0,1,438.05,642.25Z"/><circle class="a914d22f-dcf7-4651-a0bb-d905c356a0e5" cx="433.06" cy="608.9" r="16.48"/><path class="bb68a2be-d994-448e-98d2-0c637c6111bf" d="M581.24,572.51a33.26,33.26,0,0,0-1-4.49l5-6.08a36.32,36.32,0,0,0-4.55-7.57l-7.73,1.56a30.56,30.56,0,0,0-7.37-5.47l-.77-7.84a36.69,36.69,0,0,0-8.58-2.14L551.85,547a28.83,28.83,0,0,0-4.6.34,30.05,30.05,0,0,0-4.48,1l-6.09-5A37.09,37.09,0,0,0,529.1,548l1.57,7.73a30.16,30.16,0,0,0-5.47,7.38l-7.83.77a35.51,35.51,0,0,0-2.15,8.58l6.56,4.35a29.93,29.93,0,0,0,.33,4.6,30.89,30.89,0,0,0,1,4.49l-5,6.08a36.33,36.33,0,0,0,4.56,7.59l7.72-1.56a30.6,30.6,0,0,0,7.38,5.45l.77,7.84a36,36,0,0,0,8.58,2.14l4.36-6.56a29.8,29.8,0,0,0,4.59-.33,30.2,30.2,0,0,0,4.49-1l6.09,5a37.18,37.18,0,0,0,7.58-4.55l-1.57-7.73a30.52,30.52,0,0,0,5.46-7.37l7.84-.77a36.16,36.16,0,0,0,2.14-8.59l-6.55-4.35A31.36,31.36,0,0,0,581.24,572.51Zm-26.9,22.22a18,18,0,1,1,15.13-20.46A18,18,0,0,1,554.34,594.73Z"/><circle class="bb68a2be-d994-448e-98d2-0c637c6111bf" cx="551.67" cy="576.94" r="8.79" transform="translate(-143.57 969.15) rotate(-75.71)"/><path class="ea8fba30-f06c-4dc6-b1be-775fc9426d36" d="M806.17,207.28H460.85V73.08a11.42,11.42,0,0,1,11.43-11.42H806.17Z"/><rect class="a174cc16-e8b9-4527-9266-f7c6596c588f" x="502.29" y="148.17" width="232.88" height="5.02" rx="2.51"/><path class="a174cc16-e8b9-4527-9266-f7c6596c588f" d="M732.66,129.78H504.8a2.51,2.51,0,0,1-2.51-2.51h0a2.52,2.52,0,0,1,2.51-2.51H732.66a2.51,2.51,0,0,1,2.51,2.51h0A2.51,2.51,0,0,1,732.66,129.78Z"/><path class="a174cc16-e8b9-4527-9266-f7c6596c588f" d="M732.66,106.37H504.8a2.51,2.51,0,0,1-2.51-2.51h0a2.51,2.51,0,0,1,2.51-2.5H732.66a2.5,2.5,0,0,1,2.51,2.5h0A2.51,2.51,0,0,1,732.66,106.37Z"/><rect class="a914d22f-dcf7-4651-a0bb-d905c356a0e5" x="784.02" y="61.34" width="44.29" height="173.03" rx="22.14"/><rect class="a914d22f-dcf7-4651-a0bb-d905c356a0e5" x="324.56" y="195.32" width="528.46" height="373.88" rx="21.79"/><rect class="bb68a2be-d994-448e-98d2-0c637c6111bf" x="332.88" y="203.64" width="511.83" height="357.24" rx="13.47"/><path class="a914d22f-dcf7-4651-a0bb-d905c356a0e5" d="M794.81,203.64v91.59a22.14,22.14,0,0,1-22.14,22.14H706.23V561.29H374.86V203.64Z"/><polygon class="a914d22f-dcf7-4651-a0bb-d905c356a0e5" points="695.44 143.95 717.59 143.95 761.88 316.98 671.12 316.98 695.44 143.95"/><rect class="ea8fba30-f06c-4dc6-b1be-775fc9426d36" x="617.24" y="143.97" width="145.95" height="152.97"/><polygon class="a914d22f-dcf7-4651-a0bb-d905c356a0e5" points="716.5 143.95 685.58 193.29 693.38 143.95 716.5 143.95"/><rect class="a914d22f-dcf7-4651-a0bb-d905c356a0e5" x="695.44" y="143.95" width="44.29" height="173.03" rx="22.14"/><rect class="ea8fba30-f06c-4dc6-b1be-775fc9426d36" x="739.73" y="143.95" width="44.29" height="173.03" rx="22.14"/><path class="ea8fba30-f06c-4dc6-b1be-775fc9426d36" d="M695.44,560.89H364.08V165.63A21.68,21.68,0,0,1,385.76,144H695.44Z"/><path class="a174cc16-e8b9-4527-9266-f7c6596c588f" d="M646.53,493.44V491h8.65l.05,2.15v.27Zm-8.65,0h-8.65V491h8.65Zm-17.31,0h-8.65V491h8.65Zm-17.3,0h-8.65V491h8.65Zm-17.31,0h-8.65V491H586Zm-17.3,0H560V491h8.65Zm-17.82-.83a5.5,5.5,0,0,1-2.62-4.7v-4.27h2.43v4.27a3.1,3.1,0,0,0,1.46,2.64ZM660.71,486h-2.42v-8.65h2.42ZM550.65,475h-2.43v-8.65h2.43Zm110.06-6.31h-2.42V460h2.42Zm-110.06-11h-2.43V449h2.43Zm110.06-6.31h-2.42v-8.65h2.42Zm-110.06-11h-2.43v-8.65h2.43Zm110.06-6.31h-2.42v-8.65h2.42Zm-110.06-11h-2.43v-1.9a5.55,5.55,0,0,1,5.5-5.53v2.43a3.1,3.1,0,0,0-3.08,3.1Zm106.15-4.55a3,3,0,0,0-1.62-.45H648.9v-2.43h6.28a5.55,5.55,0,0,1,2.89.81Zm-16.55-.45H631.6v-2.43h8.65Zm-17.31,0h-8.65v-2.43h8.65Zm-17.3,0H597v-2.43h8.65Zm-17.31,0h-8.65v-2.43h8.65Zm-17.3,0h-8.65v-2.43H571Z"/><rect class="ac9a0a47-8ed9-4558-853e-49b0838e0d7f" x="780.84" y="386.93" width="82.38" height="40.42" rx="8.06"/><polygon class="ac9a0a47-8ed9-4558-853e-49b0838e0d7f" points="792.39 424.3 786.04 441.03 816.82 421.8 792.39 424.3"/><path class="e7209080-1bc3-475a-a852-9e685156ae62" d="M849.92,408.77H794.14a1.63,1.63,0,0,1-1.63-1.63h0a1.63,1.63,0,0,1,1.63-1.63h55.78a1.63,1.63,0,0,1,1.63,1.63h0A1.63,1.63,0,0,1,849.92,408.77Z"/><rect class="e7209080-1bc3-475a-a852-9e685156ae62" x="792.51" y="414.92" width="38.01" height="3.25" rx="1.3"/><rect class="e7209080-1bc3-475a-a852-9e685156ae62" x="792.51" y="396.17" width="59.04" height="3.25" rx="1.63"/><rect class="ea8fba30-f06c-4dc6-b1be-775fc9426d36" x="211.66" y="228.09" width="66.28" height="40.42" rx="7.23"/><polygon class="ea8fba30-f06c-4dc6-b1be-775fc9426d36" points="266.4 265.45 272.74 282.19 241.97 262.95 266.4 265.45"/><rect class="e7209080-1bc3-475a-a852-9e685156ae62" x="219.01" y="246.67" width="49.33" height="3.25" rx="1.49"/><path class="e7209080-1bc3-475a-a852-9e685156ae62" d="M220.63,259.33h46.09a1.63,1.63,0,0,0,1.62-1.62h0a1.63,1.63,0,0,0-1.62-1.63H220.63a1.62,1.62,0,0,0-1.62,1.63h0A1.62,1.62,0,0,0,220.63,259.33Z"/><rect class="e7209080-1bc3-475a-a852-9e685156ae62" x="219.01" y="237.32" width="49.33" height="3.25" rx="1.49"/><rect class="a174cc16-e8b9-4527-9266-f7c6596c588f" x="886.32" y="328.22" width="49.2" height="49.2"/><polygon class="a914d22f-dcf7-4651-a0bb-d905c356a0e5" points="939.67 381.57 933.38 381.57 933.38 379.78 937.88 379.78 937.88 375.28 939.67 375.28 939.67 381.57"/><path class="a914d22f-dcf7-4651-a0bb-d905c356a0e5" d="M924.4,381.58h-9v-1.8h9Zm-18,0h-9v-1.8h9Z"/><polygon class="a914d22f-dcf7-4651-a0bb-d905c356a0e5" points="888.46 381.57 882.16 381.57 882.16 375.28 883.96 375.28 883.96 379.78 888.46 379.78 888.46 381.57"/><path class="a914d22f-dcf7-4651-a0bb-d905c356a0e5" d="M884,366.3h-1.8v-9H884Zm0-18h-1.8v-9H884Z"/><polygon class="a914d22f-dcf7-4651-a0bb-d905c356a0e5" points="883.96 330.36 882.16 330.36 882.16 324.06 888.46 324.06 888.46 325.86 883.96 325.86 883.96 330.36"/><path class="a914d22f-dcf7-4651-a0bb-d905c356a0e5" d="M924.4,325.86h-9v-1.79h9Zm-18,0h-9v-1.79h9Z"/><polygon class="a914d22f-dcf7-4651-a0bb-d905c356a0e5" points="939.67 330.36 937.88 330.36 937.88 325.86 933.38 325.86 933.38 324.06 939.67 324.06 939.67 330.36"/><path class="a914d22f-dcf7-4651-a0bb-d905c356a0e5" d="M939.67,366.3h-1.79v-9h1.79Zm0-18h-1.79v-9h1.79Z"/><path class="a914d22f-dcf7-4651-a0bb-d905c356a0e5" d="M896.68,335.31h27.77v8.93h-2.52a24.73,24.73,0,0,0-1.11-3.49,6.85,6.85,0,0,0-1.17-1.95,3.62,3.62,0,0,0-1.32-.95,6,6,0,0,0-2.12-.28H913v26.27a13.85,13.85,0,0,0,.17,2.41,3.9,3.9,0,0,0,.51,1.43,2.35,2.35,0,0,0,.94.82,9.08,9.08,0,0,0,1.85.58v1.25H904.69v-1.25a12.72,12.72,0,0,0,1.36-.39,3.32,3.32,0,0,0,1-.5,2.46,2.46,0,0,0,.62-.76,4.22,4.22,0,0,0,.38-1.25,13.8,13.8,0,0,0,.14-2.34V337.57h-3.23a7,7,0,0,0-2,.23,3.18,3.18,0,0,0-1.45,1,7.22,7.22,0,0,0-1.22,2.08,25.17,25.17,0,0,0-1,3.4h-2.54Z"/><polygon class="a914d22f-dcf7-4651-a0bb-d905c356a0e5" points="910.16 52.3 909.09 74 981.98 9.19 910.16 52.3"/><polygon class="ea8fba30-f06c-4dc6-b1be-775fc9426d36" points="884.72 26.39 944.83 71.96 988.34 2.79 884.72 26.39"/><polygon class="a914d22f-dcf7-4651-a0bb-d905c356a0e5" points="988.34 2.79 906.46 42.87 909.09 74 918.76 52.2 988.34 2.79"/><rect class="ac9a0a47-8ed9-4558-853e-49b0838e0d7f" x="584.87" y="427.49" width="123.01" height="90.05" rx="6.16"/><rect class="a174cc16-e8b9-4527-9266-f7c6596c588f" x="592.89" y="435.5" width="106.98" height="74.02" rx="3.28"/><polygon class="ac9a0a47-8ed9-4558-853e-49b0838e0d7f" points="604.47 509.93 636.09 455.16 667.71 509.93 604.47 509.93"/><polygon class="ac9a0a47-8ed9-4558-853e-49b0838e0d7f" points="645.68 509.64 669.66 468.11 693.63 509.64 645.68 509.64"/><circle class="ac9a0a47-8ed9-4558-853e-49b0838e0d7f" cx="658.75" cy="452.42" r="5.21" transform="translate(67.09 989.6) rotate(-76.72)"/><rect class="ac9a0a47-8ed9-4558-853e-49b0838e0d7f" x="393.09" y="173.35" width="105.96" height="77.57" rx="2.47"/><rect class="a174cc16-e8b9-4527-9266-f7c6596c588f" x="399.99" y="180.26" width="92.16" height="63.77" rx="1.64"/><polygon class="ac9a0a47-8ed9-4558-853e-49b0838e0d7f" points="409.97 244.42 437.2 197.24 464.44 244.42 409.97 244.42"/><polygon class="ac9a0a47-8ed9-4558-853e-49b0838e0d7f" points="445.47 244.12 466.12 208.35 486.78 244.12 445.47 244.12"/><circle class="ac9a0a47-8ed9-4558-853e-49b0838e0d7f" cx="456.73" cy="194.83" r="4.49"/><path class="a174cc16-e8b9-4527-9266-f7c6596c588f" d="M663.36,383.64H400.84a9.14,9.14,0,0,1-9.13-9.13V293.64a9.14,9.14,0,0,1,9.13-9.13H663.36a9.14,9.14,0,0,1,9.14,9.13v80.87A9.14,9.14,0,0,1,663.36,383.64ZM400.84,287.26a6.39,6.39,0,0,0-6.38,6.38v80.87a6.39,6.39,0,0,0,6.38,6.38H663.36a6.38,6.38,0,0,0,6.38-6.38V293.64a6.38,6.38,0,0,0-6.38-6.38Z"/><path class="a174cc16-e8b9-4527-9266-f7c6596c588f" d="M668.61,248.59H520.33a2.5,2.5,0,0,1-2.5-2.51h0a2.51,2.51,0,0,1,2.5-2.51H668.61a2.51,2.51,0,0,1,2.51,2.51h0A2.51,2.51,0,0,1,668.61,248.59Z"/><path class="a174cc16-e8b9-4527-9266-f7c6596c588f" d="M668.61,225.18H520.33a2.5,2.5,0,0,1-2.5-2.5h0a2.5,2.5,0,0,1,2.5-2.51H668.61a2.51,2.51,0,0,1,2.51,2.51h0A2.5,2.5,0,0,1,668.61,225.18Z"/><path class="a174cc16-e8b9-4527-9266-f7c6596c588f" d="M668.61,201.78H520.33a2.51,2.51,0,0,1-2.5-2.51h0a2.5,2.5,0,0,1,2.5-2.51H668.61a2.51,2.51,0,0,1,2.51,2.51h0A2.51,2.51,0,0,1,668.61,201.78Z"/><path class="a174cc16-e8b9-4527-9266-f7c6596c588f" d="M668.61,178.37H520.33a2.5,2.5,0,0,1-2.5-2.51h0a2.51,2.51,0,0,1,2.5-2.51H668.61a2.51,2.51,0,0,1,2.51,2.51h0A2.51,2.51,0,0,1,668.61,178.37Z"/><path class="a174cc16-e8b9-4527-9266-f7c6596c588f" d="M522,491.81H391.68a2.36,2.36,0,0,1-2.2-2.51h0a2.37,2.37,0,0,1,2.2-2.51H522a2.37,2.37,0,0,1,2.2,2.51h0A2.36,2.36,0,0,1,522,491.81Z"/><path class="a174cc16-e8b9-4527-9266-f7c6596c588f" d="M522,468.4H391.68a2.36,2.36,0,0,1-2.2-2.5h0a2.36,2.36,0,0,1,2.2-2.51H522a2.36,2.36,0,0,1,2.2,2.51h0A2.36,2.36,0,0,1,522,468.4Z"/><path class="a174cc16-e8b9-4527-9266-f7c6596c588f" d="M522,445H391.68a2.37,2.37,0,0,1-2.2-2.51h0a2.36,2.36,0,0,1,2.2-2.51H522a2.36,2.36,0,0,1,2.2,2.51h0A2.37,2.37,0,0,1,522,445Z"/><path class="a174cc16-e8b9-4527-9266-f7c6596c588f" d="M522,421.59H391.68a2.36,2.36,0,0,1-2.2-2.51h0a2.37,2.37,0,0,1,2.2-2.51H522a2.37,2.37,0,0,1,2.2,2.51h0A2.36,2.36,0,0,1,522,421.59Z"/><path class="a174cc16-e8b9-4527-9266-f7c6596c588f" d="M643.69,360H415.83a2.51,2.51,0,0,1-2.51-2.51h0a2.51,2.51,0,0,1,2.51-2.51H643.69a2.51,2.51,0,0,1,2.51,2.51h0A2.51,2.51,0,0,1,643.69,360Z"/><path class="a174cc16-e8b9-4527-9266-f7c6596c588f" d="M643.69,336.58H415.83a2.51,2.51,0,0,1-2.51-2.51h0a2.5,2.5,0,0,1,2.51-2.5H643.69a2.5,2.5,0,0,1,2.51,2.5h0A2.51,2.51,0,0,1,643.69,336.58Z"/><path class="a174cc16-e8b9-4527-9266-f7c6596c588f" d="M643.69,313.18H415.83a2.51,2.51,0,0,1-2.51-2.51h0a2.51,2.51,0,0,1,2.51-2.51H643.69a2.51,2.51,0,0,1,2.51,2.51h0A2.51,2.51,0,0,1,643.69,313.18Z"/><path class="bb68a2be-d994-448e-98d2-0c637c6111bf" d="M418.05,63.21a25.5,25.5,0,0,1-10.41,20.35,14.31,14.31,0,0,0-2.74,2.7,13.2,13.2,0,0,0-2.82,8.1v13.85a10.88,10.88,0,0,1-3.55,8A12.52,12.52,0,0,1,390,119.5c-6.68,0-12.1-5.06-12.1-11.29V94.36a13.51,13.51,0,0,0-5.53-10.77A25.55,25.55,0,0,1,361.9,63.44c0-.57,0-1.15.05-1.71.83-13.63,13-24.6,27.81-24.7C405.36,36.92,418.05,48.69,418.05,63.21Z"/><path class="e248ff86-19a7-496c-920e-f595d62da3da" d="M404.9,86.26a13.2,13.2,0,0,0-2.82,8.1v13.85a10.88,10.88,0,0,1-3.55,8A12.52,12.52,0,0,1,390,119.5c-6.68,0-12.1-5.06-12.1-11.29V94.36a13.51,13.51,0,0,0-5.53-10.77A25.55,25.55,0,0,1,361.9,63.44c0-.57,0-1.15.05-1.71,7,14.49,22.59,24.58,40.74,24.58C403.43,86.31,404.17,86.29,404.9,86.26Z"/><path class="a914d22f-dcf7-4651-a0bb-d905c356a0e5" d="M402.79,102.52v6c0,6.52-5.62,11.84-12.58,12-7.2.12-13.06-5.4-13.06-12.12v-5.88a.36.36,0,0,1,.33-.34h24.91a.06.06,0,0,0,.06,0h0A.35.35,0,0,1,402.79,102.52Z"/><path class="a914d22f-dcf7-4651-a0bb-d905c356a0e5" d="M402.64,106.19H377.31a2,2,0,0,1-2-2h0a2,2,0,0,1,2-2h25.33a2,2,0,0,1,2,2h0A2,2,0,0,1,402.64,106.19Z"/><path class="a914d22f-dcf7-4651-a0bb-d905c356a0e5" d="M402.64,110.2H377.31a2,2,0,0,1-2-2h0a2,2,0,0,1,2-2h25.33a2,2,0,0,1,2,2h0A2,2,0,0,1,402.64,110.2Z"/><path class="bb68a2be-d994-448e-98d2-0c637c6111bf" d="M390.06,33.43h0A1.43,1.43,0,0,1,388.63,32V24.83a1.44,1.44,0,0,1,1.43-1.44h0a1.44,1.44,0,0,1,1.44,1.44V32A1.43,1.43,0,0,1,390.06,33.43Z"/><path class="bb68a2be-d994-448e-98d2-0c637c6111bf" d="M367.37,42.17h0a1.38,1.38,0,0,1-1.89,0L359.9,37a1.37,1.37,0,0,1,0-2h0a1.38,1.38,0,0,1,1.89,0l5.58,5.2A1.37,1.37,0,0,1,367.37,42.17Z"/><path class="bb68a2be-d994-448e-98d2-0c637c6111bf" d="M358.25,63.26h0a1.34,1.34,0,0,1-1.33,1.34l-8.09,0a1.34,1.34,0,0,1-1.34-1.34h0A1.34,1.34,0,0,1,348.82,62l8.08,0A1.36,1.36,0,0,1,358.25,63.26Z"/><path class="bb68a2be-d994-448e-98d2-0c637c6111bf" d="M367.5,84.1h0a1.39,1.39,0,0,1,0,2L362,91.35a1.38,1.38,0,0,1-1.89,0h0a1.38,1.38,0,0,1,0-2l5.56-5.23A1.38,1.38,0,0,1,367.5,84.1Z"/><path class="bb68a2be-d994-448e-98d2-0c637c6111bf" d="M412.51,42.13h0a1.4,1.4,0,0,1,0-2l5.58-5.2a1.37,1.37,0,0,1,1.88,0h0a1.38,1.38,0,0,1,0,2l-5.58,5.21A1.4,1.4,0,0,1,412.51,42.13Z"/><path class="bb68a2be-d994-448e-98d2-0c637c6111bf" d="M421.74,63h0a1.34,1.34,0,0,1,1.34-1.34h8.08A1.34,1.34,0,0,1,432.5,63h0a1.33,1.33,0,0,1-1.34,1.33h-8.08A1.34,1.34,0,0,1,421.74,63Z"/><path class="bb68a2be-d994-448e-98d2-0c637c6111bf" d="M412.67,84h0a1.39,1.39,0,0,1,1.88,0l5.57,5.21a1.37,1.37,0,0,1,0,2h0a1.37,1.37,0,0,1-1.88,0L412.66,86A1.38,1.38,0,0,1,412.67,84Z"/><path class="b068114d-dd1a-4b71-a75c-daacac6a5324" d="M408,67a2.61,2.61,0,0,1-2.61-2.61A15.34,15.34,0,0,0,390.06,49a2.61,2.61,0,0,1,0-5.21,20.57,20.57,0,0,1,20.55,20.54A2.61,2.61,0,0,1,408,67Z"/><path class="a914d22f-dcf7-4651-a0bb-d905c356a0e5" d="M897.89,88.59,897.2,88c1.85-2.18,3-3.42,3-3.43l.66.63S899.73,86.43,897.89,88.59Z"/><path class="a914d22f-dcf7-4651-a0bb-d905c356a0e5" d="M900,192.73a28.63,28.63,0,0,1-7.77-1.07l.25-.88a27.59,27.59,0,0,0,9.07,1l0,.91C901,192.71,900.48,192.73,900,192.73Zm10.82-2-.33-.85a30.66,30.66,0,0,0,8-4.51l.56.72A32,32,0,0,1,910.77,190.71Zm-27.12-3.06a32.09,32.09,0,0,1-6.88-6.43l.71-.57a31.48,31.48,0,0,0,6.68,6.25Zm41.82-8.4-.74-.52a32.41,32.41,0,0,0,4.17-8.16l.87.3A33.53,33.53,0,0,1,925.47,179.25Zm-53.66-6a47.3,47.3,0,0,1-1.86-4.46,43.37,43.37,0,0,1-1.32-4.38l.88-.22a41.64,41.64,0,0,0,1.3,4.29c.55,1.52,1.16,3,1.82,4.38Zm-59.94-.13-.81-.4c1.39-2.82,2.92-5.57,4.55-8.18l.78.48C814.77,167.59,813.25,170.31,811.87,173.1Zm119.78-11.45-.91-.07c.07-1,.11-2,.11-3,0-.78,0-1.58-.07-2.36a24.17,24.17,0,0,0-.51-3.83l.9-.19a26,26,0,0,1,.52,4c0,.81.07,1.62.07,2.42C931.76,159.64,931.72,160.66,931.65,161.65Zm-109.94-4.23-.72-.56a83.19,83.19,0,0,1,6.18-7l.65.64A83.09,83.09,0,0,0,821.71,157.42Zm45.65-2.35q0-.93,0-1.86a57.09,57.09,0,0,1,.51-7.51l.9.12a57,57,0,0,0-.5,7.39q0,.91,0,1.83Zm-32.68-10.84-.57-.71a83,83,0,0,1,7.6-5.47l.49.77A80,80,0,0,0,834.68,144.23Zm92.12-.2a30.16,30.16,0,0,0-6.08-6.83l.58-.7a30.87,30.87,0,0,1,6.27,7Zm-56.2-7.28-.87-.24a90.73,90.73,0,0,1,3-8.89l.85.33A91.73,91.73,0,0,0,870.6,136.75Zm-20.3-2.44-.4-.82a81.7,81.7,0,0,1,8.65-3.6l.3.86A81,81,0,0,0,850.3,134.31ZM913,132.19a52.24,52.24,0,0,0-8.59-3.38l.26-.87a53.15,53.15,0,0,1,8.74,3.43Zm-45.26-4-.2-.89a81.38,81.38,0,0,1,9.24-1.56l.1.91A79.62,79.62,0,0,0,867.75,128.18Zm27.63-1.31a70.12,70.12,0,0,0-9.24-.69v-.91a73.46,73.46,0,0,1,9.35.69Zm-18.07-7.4-.82-.41c1.34-2.7,2.84-5.47,4.46-8.23l.78.46C880.13,114,878.64,116.78,877.31,119.47Zm9.37-16-.75-.51c1.71-2.55,3.54-5.11,5.43-7.61l.72.55C890.21,98.33,888.39,100.88,886.68,103.42Z"/><path class="a914d22f-dcf7-4651-a0bb-d905c356a0e5" d="M806.6,186l-.87-.28c.49-1.45,1-2.9,1.54-4.31l.86.32C807.59,183.1,807.08,184.54,806.6,186Z"/></svg>