<?xml version="1.0" encoding="utf-8"?>
<!-- Generator: Adobe Illustrator 25.4.1, SVG Export Plug-In . SVG Version: 6.00 Build 0)  -->
<svg version="1.1" id="Layer_1" xmlns="http://www.w3.org/2000/svg" xmlns:xlink="http://www.w3.org/1999/xlink" x="0px" y="0px"
	 viewBox="0 0 767 915.3" style="enable-background:new 0 0 767 915.3;" xml:space="preserve">
<style type="text/css">
	.st0{fill:#273D44;}
	.st1{fill:#2BA5A2;}
	.st2{fill:#8E1B55;}
	.st3{fill:#FBE101;}
	.st4{fill:none;stroke:#FBE101;stroke-width:10;stroke-linecap:round;stroke-linejoin:round;stroke-miterlimit:10;}
	.st5{fill:#FBE100;}
	.st6{fill:#4C4C4C;}
</style>
<path class="st0" d="M272.1,85.4h-76.2c-2.9,0-5.6,1.5-7,4L151,153.1c-1.5,2.6-1.5,5.8,0,8.4l37.9,63.7c1.5,2.5,4.2,4,7,4h76.2
	c2.9,0,5.6-1.5,7-4l37.9-63.7c1.5-2.6,1.5-5.8,0-8.4l-37.9-63.7C277.7,86.9,275,85.4,272.1,85.4z"/>
<path class="st1" d="M122.2,169.5H46c-2.9,0-5.6,1.5-7,4L1.1,237.2c-1.5,2.6-1.5,5.8,0,8.4L39,309.3c1.5,2.5,4.2,4,7,4h76.2
	c2.9,0,5.6-1.5,7-4l37.9-63.7c1.5-2.6,1.5-5.8,0-8.4l-37.9-63.7C127.8,171,125.1,169.5,122.2,169.5z"/>
<path class="st1" d="M272.1,254.5h-76.2c-2.9,0-5.6,1.5-7,4L151,322.2c-1.5,2.6-1.5,5.8,0,8.4l37.9,63.7c1.5,2.5,4.2,4,7,4h76.2
	c2.9,0,5.6-1.5,7-4l37.9-63.7c1.5-2.6,1.5-5.8,0-8.4l-37.9-63.7C277.7,256,275,254.5,272.1,254.5z"/>
<path class="st0" d="M571.5,85.4h-76.2c-2.9,0-5.6,1.5-7,4l-37.9,63.7c-1.5,2.6-1.5,5.8,0,8.4l37.9,63.7c1.5,2.5,4.2,4,7,4h76.2
	c2.9,0,5.6-1.5,7-4l37.9-63.7c1.5-2.6,1.5-5.8,0-8.4l-37.9-63.7C577.1,86.9,574.4,85.4,571.5,85.4z"/>
<path class="st0" d="M272.1,593.8h-76.2c-2.9,0-5.6,1.5-7,4L151,661.5c-1.5,2.6-1.5,5.8,0,8.4l37.9,63.7c1.5,2.5,4.2,4,7,4h76.2
	c2.9,0,5.6-1.5,7-4l37.9-63.7c1.5-2.6,1.5-5.8,0-8.4l-37.9-63.7C277.7,595.3,275,593.8,272.1,593.8z"/>
<path class="st0" d="M571.5,593.8h-76.2c-2.9,0-5.6,1.5-7,4l-37.9,63.7c-1.5,2.6-1.5,5.8,0,8.4l37.9,63.7c1.5,2.5,4.2,4,7,4h76.2
	c2.9,0,5.6-1.5,7-4l37.9-63.7c1.5-2.6,1.5-5.8,0-8.4l-37.9-63.7C577.1,595.3,574.4,593.8,571.5,593.8z"/>
<path class="st2" d="M421.5,169.5h-76.2c-2.9,0-5.6,1.5-7,4l-37.9,63.7c-1.5,2.6-1.5,5.8,0,8.4l37.9,63.7c1.5,2.5,4.2,4,7,4h76.2
	c2.9,0,5.6-1.5,7-4l37.9-63.7c1.5-2.6,1.5-5.8,0-8.4l-37.9-63.7C427.1,171,424.4,169.5,421.5,169.5z"/>
<path class="st3" d="M421.5,0h-76.2c-2.9,0-5.6,1.5-7,4l-37.9,63.7c-1.5,2.6-1.5,5.8,0,8.4l37.9,63.7c1.5,2.5,4.2,4,7,4h76.2
	c2.9,0,5.6-1.5,7-4l37.9-63.7c1.5-2.6,1.5-5.8,0-8.4L428.5,4C427.1,1.5,424.4,0,421.5,0z"/>
<path class="st1" d="M571.5,254.5h-76.2c-2.9,0-5.6,1.5-7,4l-37.9,63.7c-1.5,2.6-1.5,5.8,0,8.4l37.9,63.7c1.5,2.5,4.2,4,7,4h76.2
	c2.9,0,5.6-1.5,7-4l37.9-63.7c1.5-2.6,1.5-5.8,0-8.4l-37.9-63.7C577.1,256,574.4,254.5,571.5,254.5z"/>
<path class="st2" d="M272.1,424h-76.2c-2.9,0-5.6,1.5-7,4L151,491.6c-1.5,2.6-1.5,5.8,0,8.4l37.9,63.7c1.5,2.5,4.2,4,7,4h76.2
	c2.9,0,5.6-1.5,7-4L317,500c1.5-2.6,1.5-5.8,0-8.4l-37.9-63.7C277.7,425.5,275,424,272.1,424z"/>
<path class="st2" d="M571.5,424h-76.2c-2.9,0-5.6,1.5-7,4l-37.9,63.6c-1.5,2.6-1.5,5.8,0,8.4l37.9,63.7c1.5,2.5,4.2,4,7,4h76.2
	c2.9,0,5.6-1.5,7-4l37.9-63.7c1.5-2.6,1.5-5.8,0-8.4l-37.9-63.7C577.1,425.5,574.4,424,571.5,424z"/>
<path class="st0" d="M421.4,341.2h-76.2c-2.9,0-5.6,1.5-7,4l-37.9,63.7c-1.5,2.6-1.5,5.8,0,8.4l37.9,63.7c1.5,2.5,4.2,4,7,4h76.2
	c2.9,0,5.6-1.5,7-4l37.9-63.7c1.5-2.6,1.5-5.8,0-8.4l-37.9-63.7C426.9,342.7,424.3,341.2,421.4,341.2z"/>
<path class="st1" d="M720.9,169.5h-76.2c-2.9,0-5.6,1.5-7,4l-37.9,63.7c-1.5,2.6-1.5,5.8,0,8.4l37.9,63.7c1.5,2.5,4.2,4,7,4h76.2
	c2.9,0,5.6-1.5,7-4l37.9-63.7c1.5-2.6,1.5-5.8,0-8.4l-37.9-63.7C726.5,171,723.8,169.5,720.9,169.5z"/>
<path class="st1" d="M122.2,507.4H46c-2.9,0-5.6,1.5-7,4L1.1,575.1c-1.5,2.6-1.5,5.8,0,8.4L39,647.2c1.5,2.5,4.2,4,7,4h76.2
	c2.9,0,5.6-1.5,7-4l37.9-63.7c1.5-2.6,1.5-5.8,0-8.4l-37.9-63.7C127.8,508.9,125.1,507.4,122.2,507.4z"/>
<path class="st1" d="M720.1,507.4h-76.2c-2.9,0-5.6,1.5-7,4L599,575.1c-1.5,2.6-1.5,5.8,0,8.4l37.9,63.7c1.5,2.5,4.2,4,7,4h76.2
	c2.9,0,5.6-1.5,7-4l37.9-63.7c1.5-2.6,1.5-5.8,0-8.4l-37.9-63.7C725.7,508.9,723,507.4,720.1,507.4z"/>
<path class="st1" d="M421.4,510.3h-76.2c-2.9,0-5.6,1.5-7,4L300.3,578c-1.5,2.6-1.5,5.8,0,8.4l37.9,63.7c1.5,2.5,4.2,4,7,4h76.2
	c2.9,0,5.6-1.5,7-4l37.9-63.7c1.5-2.6,1.5-5.8,0-8.4l-37.9-63.7C426.9,511.8,424.3,510.3,421.4,510.3z"/>
<polyline class="st4" points="382,837.2 382,666.9 334.3,666.9 283.7,581.5 334.1,496.3 434.3,496.5 484.4,411.6 432.9,325.8 
	332.8,326.4 283.3,241.6 346.1,133.3 "/>
<g>
	<path class="st5" d="M352.4,828.8c0,0,37.8-15.2,53.3,25.3v33.7c0,0-22,13.3-52.4,4.1L352.4,828.8z"/>
	<path class="st6" d="M378.7,827.2l-0.8-1.6V823l-1.7-0.9l-2-0.7l-1.5-1.9h-3.4l-4.1-7l-1.1,2.3l-1.1-0.2l-4.1,6.1l-2,8.8l-2.2,3.7
		l2.2,38.6l5,26.6l9.9,10.1l6.9,3.1c0,0,1.3,0.5,1.1-7.6c0,0,0.9-2.4,1.5-0.2c0,0-0.2,9.4,1.3,8.8l6.5-4.3l14.9-22.9l8-32.1V825
		l-6.9-6.5l-0.9,3.2l-1.3,1.7l-0.6,4.1l-1.7,0.4l-1.1,8.6h-1.7l-0.7,2.7c0,0,7.8,10.1,8.1,15c0,0-1,22.3-13.7,35l-5.7,3.7
		c0,0-8.4,3.4-18.8,0.2l-2.8-7.3l-0.9-3.2l0.6-4.5l-2.2-7.6l-2.4-29.4c0,0-0.4-6.6-0.4-7.1s0.4-2.6,0.4-2.6l0.5-3.6
		C359.7,827.7,370.9,825.6,378.7,827.2z"/>
	<path class="st1" d="M365.2,812.5c0,0-20.8-0.6-33.3,8h-1.8c0,0-13.5,6.4-18.7,34.3c-5.2,27.8,20.2,52.9,30.9,54.8
		c10.7,1.8,7-1.5,18,3.7s18.4-1.5,18.4-1.5s0.5-3.6-4.1-3.6l-1.7-1.1l-1.7-2.6h-2l-0.9-2.8c0,0-4.7-4.3-6.3-13.6l-2.3-14.9l-0.2-2.6
		c-1.8,0-3.1-23.4-2.4-28.7c0,0-1.4-8.6-0.2-12.2l1.1-4.5l0.9-4.3l2-3.2l2-3l1.1,0.2L365.2,812.5z"/>
	<path class="st1" d="M406.2,816.3c0,0,14.5,4.5,25.5,14.2h1.3c0,0,22.2,14.3,4.5,53.5c0,0-14,26.1-38.2,28.7c0,0-3.5-0.6-5-1.1
		c0,0-7.5-1.1-11.7,1.1l3-3.4l0.7-4.1l5.4-3.4l0.4-5.8l1.1-1.3l0.7-1.5l3.2-3v-2.6l1.7-4.5l2-0.4c1.2,0.2,10.1-23.2,8-30.5l-0.4-3.6
		l-0.4-7.5l-0.2-2.7l0.6-5.5l-1.1-1.9l0.9-5.4l-2.2-4.1l-0.9-3.2L406.2,816.3z"/>
</g>
</svg>
