<svg id="a389884a-7ecc-4dfd-92c4-e8455b4c3a5f" data-name="Layer 1" xmlns="http://www.w3.org/2000/svg" viewBox="0 0 641.5 581.09"><path d="M502.6,250.4a94.51,94.51,0,0,0,137.1-79.1H591.1a45.91,45.91,0,0,1-50.8,40.6,44.35,44.35,0,0,1-13.4-3.6Z" transform="translate(0 -0.01)" style="fill:#9a0056;fill-rule:evenodd"/><path d="M540.2,71.8a94.44,94.44,0,0,0-46.5,173.4L518,203.1a46,46,0,0,1,22.1-82.8Z" transform="translate(0 -0.01)" style="fill:#00a7a2;fill-rule:evenodd"/><path d="M624.4,114.5a94.28,94.28,0,0,0-74-42.7v48.6a45.79,45.79,0,0,1,31.9,18.4Z" transform="translate(0 -0.01)" style="fill:#283e42;fill-rule:evenodd"/><path d="M639.6,161a93.2,93.2,0,0,0-10.1-37.6l-42.1,24.3A43.74,43.74,0,0,1,591,161Z" transform="translate(0 -0.01)" style="fill:#ffdf00;fill-rule:evenodd"/><path d="M59.1,211.3,0,195.5a61.19,61.19,0,0,1,59.1-45.4Z" transform="translate(0 -0.01)" style="fill:#9a0056;fill-rule:evenodd"/><path d="M66.2,221.1V159.9A61.1,61.1,0,1,1,5,221a59.41,59.41,0,0,1,2.1-15.7Z" transform="translate(0 -0.01)" style="fill:#ffdf00;fill-rule:evenodd"/><path d="M105.3,468.8H560.9a14.4,14.4,0,0,0,14.4-14.4V425.3H90.8v29A14.58,14.58,0,0,0,105.3,468.8Z" transform="translate(0 -0.01)" style="fill:#eaeaea;fill-rule:evenodd"/><path d="M105.3,137.9H560.9a14.4,14.4,0,0,1,14.4,14.4V427H90.8V152.3A14.55,14.55,0,0,1,105.3,137.9Z" transform="translate(0 -0.01)" style="fill:#283e42;fill-rule:evenodd"/><rect x="267.8" y="468.79" width="130.5" height="44.2" style="fill:#eaeaea"/><path d="M329,511.7H438.5c3.3,0,6,2.2,6,4.8v7.7H221.6v-7.6c0-2.6,2.7-4.8,6-4.8l101.4-.1Z" transform="translate(0 -0.01)" style="fill:#eaeaea;fill-rule:evenodd"/><polygon points="267.8 468.79 398.3 468.79 398.3 478.69 329.8 511.69 267.8 511.69 267.8 468.79" style="fill:#c1c1c1;fill-rule:evenodd"/><rect x="221.6" y="518.79" width="222.9" height="5.4" style="fill:#c1c1c1"/><rect x="111" y="158.09" width="444.1" height="248.7" style="fill:#fff"/><rect x="111" y="406.79" width="444.1" height="20.2" style="fill:#283e42"/><rect x="166.5" y="326.49" width="27.8" height="80.3" style="fill:#283e42"/><rect x="194.3" y="308.29" width="27.8" height="98.6" style="fill:#00a7a2"/><rect x="249.8" y="328.29" width="27.8" height="78.5" style="fill:#00a7a2"/><rect x="277.6" y="306.29" width="27.8" height="100.5" style="fill:#283e42"/><rect x="305.3" y="288.79" width="27.8" height="118" style="fill:#00a7a2"/><rect x="138.8" y="363.09" width="27.8" height="43.7" style="fill:#00a7a2"/><rect x="222" y="343.59" width="27.8" height="63.2" style="fill:#283e42"/><rect x="360.8" y="303.79" width="27.8" height="103.1" style="fill:#00a7a2"/><rect x="388.6" y="279.49" width="27.8" height="127.3" style="fill:#283e42"/><rect x="333.1" y="257.89" width="27.8" height="148.9" style="fill:#283e42"/><rect x="499.6" y="259.19" width="27.8" height="147.6" style="fill:#283e42"/><rect x="444.1" y="270.69" width="27.8" height="136.1" style="fill:#283e42"/><rect x="416.3" y="251.69" width="27.8" height="155.1" style="fill:#00a7a2"/><rect x="471.9" y="246.09" width="27.8" height="160.7" style="fill:#00a7a2"/><rect x="106.1" y="353.39" width="32.7" height="53.4" style="fill:#283e42"/><rect x="527.4" y="234.39" width="27.8" height="172.4" style="fill:#00a7a2"/><path d="M384.6,201.6a84.6,84.6,0,1,0,84.6,84.6A84.63,84.63,0,0,0,384.6,201.6Z" transform="translate(0 -0.01)" style="fill:#fff;fill-rule:evenodd"/><path d="M340.8,299.6h42.9v71.2a84.3,84.3,0,0,1-42.9-12.2Z" transform="translate(0 -0.01)" style="fill:#00a7a2;fill-rule:evenodd"/><path d="M383.7,262.2h43v97.5a84.91,84.91,0,0,1-42,11.2h-1Z" transform="translate(0 -0.01)" style="fill:#283e42;fill-rule:evenodd"/><path d="M322.6,228.8h18.2V358.7a84.57,84.57,0,0,1-28.5-116.2A76.74,76.74,0,0,1,322.6,228.8Z" transform="translate(0 -0.01)" style="fill:#283e42;fill-rule:evenodd"/><path d="M436.2,219.1h-9.5V359.6a84.61,84.61,0,0,0,31.4-115.5,87.2,87.2,0,0,0-21.9-25Z" transform="translate(0 -0.01)" style="fill:#00a7a2;fill-rule:evenodd"/><path d="M308.9,210.4a107.13,107.13,0,1,1,0,151.5c-41.9-41.7-41.9-109.6,0-151.5Zm16,16a84.64,84.64,0,1,0,119.7,0h0a84.56,84.56,0,0,0-119.7,0Z" transform="translate(0 -0.01)" style="fill:#ffdf00;fill-rule:evenodd"/><rect x="472.41" y="341.39" width="23.2" height="88.4" transform="translate(-130.89 455.17) rotate(-45)" style="fill:#ffdf00"/><path d="M490.8,366.1l91.4,91.4a3.26,3.26,0,0,1,0,4.5l-21.8,21.8a3.26,3.26,0,0,1-4.5,0l-91.4-91.4a3.26,3.26,0,0,1,0-4.5l21.8-21.8A3.26,3.26,0,0,1,490.8,366.1Z" transform="translate(0 -0.01)" style="fill:#9a0056;fill-rule:evenodd"/><path d="M489.9,365.3,583,458.4c.8.8.4,2.4-.8,3.6l-5.4,5.4-95.9-95.8,5.4-5.4C487.5,364.9,489.2,364.5,489.9,365.3Z" transform="translate(0 -0.01)" style="fill:#9a0056;fill-rule:evenodd"/><path d="M498.1,373.4l4.4,4.4L476.3,404l-4.4-4.4Zm72.3,72.4,4.4,4.4-26.2,26.2-4.4-4.4Z" transform="translate(0 -0.01)" style="fill:#fff;fill-rule:evenodd"/><rect x="129.9" y="176.99" width="30.1" height="30.1" style="fill:#9a0056"/><rect x="171.2" y="190.19" width="91.5" height="16.9" style="fill:#00a7a2"/><rect x="129.9" y="222.09" width="30.1" height="30.1" style="fill:#9a0056"/><rect x="171.2" y="235.29" width="91.5" height="17" style="fill:#00a7a2"/><path d="M629.5,343.8h0a4.44,4.44,0,0,1,4.4,4.4v3.2h3.2a4.44,4.44,0,0,1,4.4,4.4h0a4.44,4.44,0,0,1-4.4,4.4h-3.2v3.2a4.44,4.44,0,0,1-4.4,4.4h0a4.44,4.44,0,0,1-4.4-4.4v-3.2h-3.2a4.44,4.44,0,0,1-4.4-4.4h0a4.44,4.44,0,0,1,4.4-4.4h3.2v-3.2A4.31,4.31,0,0,1,629.5,343.8Z" transform="translate(0 -0.01)" style="fill:#ffdf00;fill-rule:evenodd"/><path d="M49.5,326.4h0a4.59,4.59,0,0,1,4.6,4.6v3.3h3.3a4.65,4.65,0,0,1,4.6,4.6h0a4.65,4.65,0,0,1-4.6,4.6H54v3.3a4.59,4.59,0,0,1-4.6,4.6h0a4.59,4.59,0,0,1-4.6-4.6v-3.3H41.5a4.65,4.65,0,0,1-4.6-4.6h0a4.65,4.65,0,0,1,4.6-4.6h3.3V331A4.74,4.74,0,0,1,49.5,326.4Z" transform="translate(0 -0.01)" style="fill:#00a7a2;fill-rule:evenodd"/><path d="M242.7,16.2h0a5.8,5.8,0,0,1,5.8,5.8v4.2h4.2a5.8,5.8,0,0,1,5.8,5.8h0a5.8,5.8,0,0,1-5.8,5.8h-4.2V42a5.8,5.8,0,0,1-5.8,5.8h0a5.8,5.8,0,0,1-5.8-5.8V37.8h-4.2a5.8,5.8,0,0,1-5.8-5.8h0a5.8,5.8,0,0,1,5.8-5.8h4.2V22A5.8,5.8,0,0,1,242.7,16.2Z" transform="translate(0 -0.01)" style="fill:#00a7a2;fill-rule:evenodd"/><path d="M169.7,117.3c12.3,3.6,30.5-4.3,48.7-12.2,20.4-8.9,40.9-17.8,57.4-12.8,15.4,4.6,25.8,10.9,38.2,18.3,11.5,6.9,24.9,14.9,45.5,23.5,16.9,7.1,36.8-21.9,57.5-52.1,23.5-34.3,47.9-69.9,76.3-67.8l-3.8,19.5c-20.3-1.6-41.5,29.4-62,59.3-24.7,36.1-48.6,70.9-75.3,59.7a335.14,335.14,0,0,1-46.8-24.1c-12-7.1-21.9-13.1-35.9-17.3-12.3-3.7-30.6,4.2-48.9,12.2-20.3,8.8-40.6,17.7-57,12.9Z" transform="translate(0 -0.01)" style="fill:#ffdf00;fill-rule:evenodd"/><path d="M363,120.6a23.85,23.85,0,1,1-29.9,15.6h0A23.9,23.9,0,0,1,363,120.6Z" transform="translate(0 -0.01)" style="fill:#9a0056;fill-rule:evenodd"/><path d="M359.3,132.2a11.7,11.7,0,1,1-14.7,7.6A11.84,11.84,0,0,1,359.3,132.2Z" transform="translate(0 -0.01)" style="fill:#fff;fill-rule:evenodd"/><path d="M498.5,1.1a23.8,23.8,0,1,1-29.9,15.5h0A23.89,23.89,0,0,1,498.5,1.1Z" transform="translate(0 -0.01)" style="fill:#9a0056;fill-rule:evenodd"/><path d="M494.9,12.6a11.73,11.73,0,1,1-14.7,7.7h0A11.73,11.73,0,0,1,494.9,12.6Z" transform="translate(0 -0.01)" style="fill:#fff;fill-rule:evenodd"/><path d="M279.8,79a23.85,23.85,0,1,1-29.9,15.6h0A23.9,23.9,0,0,1,279.8,79Z" transform="translate(0 -0.01)" style="fill:#9a0056;fill-rule:evenodd"/><path d="M276.1,90.6a11.73,11.73,0,1,1-14.7,7.7h0A11.81,11.81,0,0,1,276.1,90.6Z" transform="translate(0 -0.01)" style="fill:#fff;fill-rule:evenodd"/><path d="M173.8,104.1A23.85,23.85,0,1,1,144,119.7h0A23.76,23.76,0,0,1,173.8,104.1Z" transform="translate(0 -0.01)" style="fill:#9a0056;fill-rule:evenodd"/><path d="M170.2,115.7a11.73,11.73,0,1,1-14.7,7.7h0A11.57,11.57,0,0,1,170.2,115.7Z" transform="translate(0 -0.01)" style="fill:#fff;fill-rule:evenodd"/><path d="M416.7,549.5h0a5.8,5.8,0,0,1,5.8,5.8v4.2h4.2a5.8,5.8,0,0,1,5.8,5.8h0a5.8,5.8,0,0,1-5.8,5.8h-4.2v4.2a5.8,5.8,0,0,1-5.8,5.8h0a5.8,5.8,0,0,1-5.8-5.8v-4.2h-4.2a5.8,5.8,0,0,1-5.8-5.8h0a5.8,5.8,0,0,1,5.8-5.8h4.2v-4.2A5.8,5.8,0,0,1,416.7,549.5Z" transform="translate(0 -0.01)" style="fill:#9a0056;fill-rule:evenodd"/></svg>