<svg id="b4f0a11c-dd0e-4ecb-8a7a-cb5db684e69f" data-name="Layer 1" xmlns="http://www.w3.org/2000/svg" viewBox="0 0 451.37 643.51"><defs><style>.a3eff1e9-4031-48f7-a7a2-9d8ff7adaefc{fill:#FFD400; }.b0a9f3f0-6e26-4255-b86a-4886ceaa8d59{fill:#2ba5a2;}.b7ac7d86-9851-4a0a-ad1b-128c4001f6f5{fill:#bcc9c9;}.aed1c3dd-f843-41c0-ad9f-30b5d1afbb7c{fill:#8e1b55;}.f740db5d-3789-4217-866e-d435cca29441{fill:#FFD400;}.f11af323-e09c-4f61-865d-7e84c25a0a59{fill:#4c4c4c;}</style></defs><path class="a3eff1e9-4031-48f7-a7a2-9d8ff7adaefc" d="M0,364.73s163.92-90.18,185.24,14.13c0,0,5.6,30.23-13.66,46.37C171.58,425.23,108,483,0,364.73Z"/><path class="b0a9f3f0-6e26-4255-b86a-4886ceaa8d59" d="M435.35,440.7s-174.57-67.29-181.66,38.94c0,0-1.48,30.71,19.79,44.11C273.48,523.75,344.25,572.4,435.35,440.7Z"/><path class="b7ac7d86-9851-4a0a-ad1b-128c4001f6f5" d="M451.37,252.33s-187,5-152.73,105.76c0,0,10.44,28.93,35.22,33.12C333.86,391.21,417.89,408.92,451.37,252.33Z"/><path class="a3eff1e9-4031-48f7-a7a2-9d8ff7adaefc" d="M406.89,86.41S224.72,129,278.64,220.83c0,0,16.06,26.22,41.18,25.33C319.82,246.16,405.7,246.54,406.89,86.41Z"/><path class="aed1c3dd-f843-41c0-ad9f-30b5d1afbb7c" d="M149.41,0s-49.45,180.44,57,176.84c0,0,30.7-1.61,41.9-24.11C248.27,152.73,289.58,77.43,149.41,0Z"/><path class="b0a9f3f0-6e26-4255-b86a-4886ceaa8d59" d="M22,155.11s186.71,12,148.68,111.4c0,0-11.51,28.51-36.43,31.78C134.21,298.29,49.57,312.85,22,155.11Z"/><path class="f740db5d-3789-4217-866e-d435cca29441" d="M206.05,589.46s23.65-9.52,33.36,15.87v21.11s-13.77,8.34-32.78,2.57Z"/><path class="f11af323-e09c-4f61-865d-7e84c25a0a59" d="M222.52,588.51l-.49-1v-1.63l-1.05-.59-1.29-.46-.93-1.17h-2.1l-2.59-4.35-.68,1.43-.7-.11-2.56,3.85-1.29,5.48-1.4,2.33,1.4,24.15L212,633.09l6.19,6.3,4.33,1.92s.8.29.68-4.72c0,0,.58-1.52.93-.12,0,0-.11,5.86.82,5.48l4.08-2.68,9.34-14.35,5-20.06V587.13l-4.31-4.08-.59,2-.81,1.05-.35,2.57-1.05.23-.7,5.37h-1.05l-.43,1.69s4.88,6.32,5.09,9.39c0,0-.6,13.94-8.57,21.91L227,629.59a19.26,19.26,0,0,1-11.78.12l-1.75-4.55-.58-2,.35-2.8-1.4-4.78-1.52-18.43s-.25-4.12-.25-4.47.24-1.63.24-1.63l.31-2.27S217.65,587.46,222.52,588.51Z"/><path class="b0a9f3f0-6e26-4255-b86a-4886ceaa8d59" d="M214.07,579.28s-13-.38-20.87,5h-1.15s-8.43,4-11.68,21.44S193,638.83,199.71,640s4.4-1,11.29,2.3,11.51-1,11.51-1,.33-2.27-2.58-2.27l-1.05-.7-1-1.64h-1.29L216,635s-2.92-2.68-4-8.51l-1.41-9.32-.1-1.65c-1.12,0-1.94-14.67-1.49-17.93,0,0-.85-5.39-.15-7.61l.7-2.8.59-2.68,1.28-2,1.28-1.86.7.11Z"/><path class="b0a9f3f0-6e26-4255-b86a-4886ceaa8d59" d="M239.76,581.65a49.6,49.6,0,0,1,16,8.86h.81s13.88,9,2.8,33.48c0,0-8.75,16.33-23.91,18a23.54,23.54,0,0,1-3.15-.7s-4.67-.7-7.35.7l1.87-2.1.46-2.56,3.39-2.1.23-3.62.7-.81.47-.94,2-1.86v-1.64l1.05-2.8,1.28-.23c.77.1,6.31-14.51,5-19.09l-.23-2.26-.24-4.66-.11-1.71.35-3.42-.7-1.17.58-3.38-1.4-2.57-.58-2Z"/><path class="b7ac7d86-9851-4a0a-ad1b-128c4001f6f5" d="M139.43,257.59c3.23,2.28,6.49,4.43,9.81,6.47,1.64,1.06,3.3,2.07,5,3.06s3.36,2,5,2.95c6.72,3.89,13.57,7.51,20.48,11,3.49,1.72,6.94,3.48,10.47,5.1,1.76.83,3.49,1.72,5.27,2.5s3.54,1.61,5.31,2.44c.89.4,1.75.85,2.65,1.23l2.68,1.18,5.34,2.42c3.57,1.61,7.18,3.12,10.73,4.9-3.88-.72-7.73-1.61-11.55-2.59s-7.61-2.13-11.31-3.49-7.44-2.68-11.06-4.26c-1.82-.79-3.65-1.52-5.43-2.38l-5.35-2.58a163.11,163.11,0,0,1-20.35-12.21c-3.23-2.3-6.36-4.74-9.35-7.34A71.48,71.48,0,0,1,139.43,257.59Z"/><path class="b0a9f3f0-6e26-4255-b86a-4886ceaa8d59" d="M130.1,388.9c3.81.77,7.58,1.41,11.38,1.94l2.83.42,2.85.35c1.88.26,3.79.43,5.68.66,7.57.82,15.16,1.37,22.76,1.78,3.81.15,7.61.37,11.42.41,1.9,0,3.81.15,5.72.15s3.81,0,5.73.06c.95,0,1.91.06,2.87.05h2.87l5.75,0c3.85,0,7.69-.08,11.58.1-3.76.93-7.56,1.68-11.38,2.35-3.84.5-7.67,1.15-11.54,1.41s-7.74.58-11.62.6c-1.94,0-3.88.1-5.83,0l-5.82-.19a157.92,157.92,0,0,1-23.13-2.9c-3.8-.8-7.58-1.76-11.29-2.92A69.85,69.85,0,0,1,130.1,388.9Z"/><path class="b0a9f3f0-6e26-4255-b86a-4886ceaa8d59" d="M324.24,191a98,98,0,0,1-10.32,11.43l-2.81,2.66-2.88,2.56c-1.9,1.74-3.94,3.31-5.93,4.94A215.22,215.22,0,0,1,276.83,230c-4.5,2.5-9,5.07-13.6,7.28-2.32,1.11-4.59,2.31-7,3.34s-4.71,2-7.08,3c-1.18.5-2.35,1-3.54,1.49s-2.4.93-3.61,1.36l-7.23,2.63c-4.87,1.61-9.8,3.06-14.74,4.38,4.57-2.37,9.23-4.42,13.81-6.65l6.86-3.37c1.13-.56,2.29-1.1,3.43-1.64s2.26-1.16,3.39-1.74q3.38-1.77,6.77-3.47c2.26-1.15,4.47-2.4,6.7-3.59,4.5-2.33,8.85-4.92,13.27-7.39,8.73-5.13,17.31-10.49,25.67-16.2,2.09-1.44,4.18-2.88,6.22-4.38l3.1-2.21,3-2.3C316.4,197.54,320.38,194.38,324.24,191Z"/><path class="b7ac7d86-9851-4a0a-ad1b-128c4001f6f5" d="M277.82,483,263,489.85c-4.88,2.32-9.74,4.66-14.53,7.1-1.21.6-2.42,1.19-3.6,1.83l-3.59,1.86c-2.36,1.3-4.77,2.51-7.12,3.83-4.77,2.56-9.39,5.36-14.25,8a84.6,84.6,0,0,1,12.6-10.61c2.21-1.64,4.58-3,6.91-4.49s4.77-2.74,7.24-3.95A116.18,116.18,0,0,1,261.85,487,82.73,82.73,0,0,1,277.82,483Z"/><path class="a3eff1e9-4031-48f7-a7a2-9d8ff7adaefc" d="M338.13,346.77a98.57,98.57,0,0,1-13.08,7.8l-3.42,1.68-3.47,1.58c-2.31,1.09-4.69,2-7,2.94a210.11,210.11,0,0,1-29.14,9c-5,1-9.94,2.17-15,2.89-2.51.37-5,.83-7.53,1.11s-5.05.55-7.58.8l-3.79.37c-1.26.07-2.53.16-3.8.21l-7.59.36q-7.6.11-15.2-.23c5-.9,10-1.46,15-2.22l7.45-1.17c1.24-.2,2.49-.36,3.73-.54l3.7-.65q3.71-.68,7.41-1.28c2.47-.44,4.92-1,7.38-1.43,4.93-.88,9.79-2.06,14.68-3.09,9.73-2.28,19.4-4.84,29-7.78,2.39-.74,4.77-1.49,7.14-2.31l3.57-1.18,3.54-1.28C328.81,350.64,333.49,348.81,338.13,346.77Z"/><path class="a3eff1e9-4031-48f7-a7a2-9d8ff7adaefc" d="M202.41,126.31a501.37,501.37,0,0,1,11.87,58c.77,4.87,1.43,9.76,2.07,14.65l.94,7.35.82,7.35c1.17,9.8,1.91,19.64,2.62,29.48,1.07,19.71,1.6,39.43,1.85,59.13l.2,7.39c.07,2.46,0,4.93.1,7.39.08,4.93.12,9.85.25,14.78l.34,29.57c0,9.85.1,19.7.06,29.55s-.11,19.69-.21,29.53l-.45,59c-.19,19.67-.07,39.36-.29,59s-.51,39.4-1.19,59.1a.25.25,0,0,1-.26.24.24.24,0,0,1-.24-.23c-1-19.69-1.61-39.38-2.24-59.06s-1.06-39.38-1.11-59.11.56-39.42,1.08-59.11c.26-9.85.54-19.69.9-29.53s.83-19.69,1.21-29.52l.43-14.76c.13-4.91.33-9.83.27-14.75,0-9.84,0-19.69-.47-29.52l-.68-14.74-1.1-14.72-.55-7.36-.68-7.34-1.36-14.69c-3.67-39.14-7.83-78.23-14.67-117h0a.25.25,0,0,1,.2-.29A.26.26,0,0,1,202.41,126.31Z"/></svg>