<?xml version="1.0" encoding="UTF-8"?>
<svg id="Layer_1" data-name="Layer 1" xmlns="http://www.w3.org/2000/svg" xmlns:xlink="http://www.w3.org/1999/xlink" viewBox="0 0 1200 1200">
  <defs>
    <style>
      .cls-1 {
        fill: #2ba5a2;
      }

      .cls-1, .cls-2, .cls-3, .cls-4, .cls-5 {
        stroke-width: 0px;
      }

      .cls-2 {
        fill: url(#linear-gradient);
      }

      .cls-3 {
        fill: url(#linear-gradient-4);
      }

      .cls-4 {
        fill: url(#linear-gradient-2);
      }

      .cls-5 {
        fill: url(#linear-gradient-3);
      }
    </style>
    <linearGradient id="linear-gradient" x1="97.58" y1="690.87" x2="1102.42" y2="690.87" gradientUnits="userSpaceOnUse">
      <stop offset="0" stop-color="#2ba5a2"/>
      <stop offset=".51" stop-color="#2da5a0"/>
      <stop offset=".56" stop-color="#2ea6a0"/>
      <stop offset=".6" stop-color="#38a897"/>
      <stop offset=".68" stop-color="#53b082"/>
      <stop offset=".78" stop-color="#80bd5f"/>
      <stop offset=".89" stop-color="#bdcf2f"/>
      <stop offset="1" stop-color="#fbe100"/>
    </linearGradient>
    <linearGradient id="linear-gradient-2" x1="821.98" y1="181.69" x2="1030.76" y2="181.69" xlink:href="#linear-gradient"/>
    <linearGradient id="linear-gradient-3" x1="822.23" y1="837.2" x2="1030.69" y2="837.2" xlink:href="#linear-gradient"/>
    <linearGradient id="linear-gradient-4" x1="446.4" y1="509.2" x2="753.5" y2="509.2" xlink:href="#linear-gradient"/>
  </defs>
  <g id="nXUoAo">
    <g>
      <path class="cls-2" d="M653.5,769.76v49.21c9.65,6.19,11.87,16.04,11.84,27.36-.19,72.72-.02,145.44-.13,218.16-.04,25.95-9.44,47.51-33.13,59.93-24.57,12.89-49.18,11.11-72.02-5.04-17.39-12.29-24.99-30.34-25.11-50.83-.46-76.29-.41-152.58.18-228.86.05-7.01,5.31-13.98,8.15-20.97,1.02.33,2.05.67,3.07,1v-51.46c-15.89-2.58-31.21-4.91-46.47-7.59-97.67-17.1-185.1-57.66-264.74-115.93-46.64-34.12-88.57-73.37-126.59-116.84-14.76-16.87-14.51-20.36.12-37.13,65.58-75.15,141.8-136.7,231.63-180.65,83.04-40.64,170.89-62.09,263.42-61.32,106.22.88,204.99,30.02,296.82,83.03,72.96,42.11,135.93,96.28,191.33,159.49,13.58,15.49,14.02,19.83,1.5,34.17-78.68,90.14-171.22,161.14-283.55,204.68-46.37,17.98-94.3,29.77-143.68,35.71-2.65.32-5.31.61-7.91,1.21-1.24.29-2.31,1.26-4.73,2.65ZM599.73,735.78c124.91,0,227.32-101.16,228.13-225.36.82-125.64-101.7-229.24-226.98-229.36-126.1-.12-229.02,102.21-228.81,227.5.2,125.06,102.55,227.21,227.67,227.21ZM448.02,717.61c-66.26-53.63-103.82-121.45-104.44-207.69-.62-86.13,36.56-154.1,103.83-208.86-100.7,22.99-278.74,141.95-314.46,209.85,86.21,97.02,188.28,170.32,315.07,206.7ZM750.53,718.36c126.98-36.59,229.88-109.93,316.69-207.49-42.74-72.97-246-207.71-312.6-207.96,138.08,107.02,135.73,310.95-4.09,415.45ZM564.32,850.58v17.54c0,55.78,0,111.56,0,167.34,0,11.16-.24,22.32.12,33.46.64,20.12,14.08,33.28,33.97,33.68,22.65.47,37.13-13.2,37.19-36.04.19-68.27.09-136.55.03-204.82,0-3.45-.65-6.9-1.08-11.17h-70.23ZM622.09,770.49h-45.36v49.51h45.36v-49.51Z"/>
      <path class="cls-4" d="M1001.26,106.84c-6.39,0-11.6,0-16.81,0-45.91,0-91.82,0-137.74-.06-4.44,0-9.02.11-13.28-.9-7.26-1.72-11.82-6.65-11.42-14.37.38-7.43,4.65-12.49,12.17-13.91,3.46-.66,7.1-.5,10.66-.5,53.94-.03,107.87-.07,161.81,0,20.95.03,24.1,3.31,24.09,24.01-.01,52.6,0,105.2-.01,157.79,0,4.46.18,8.94-.26,13.36-.92,9.25-6.44,14.65-14.5,14.02-8.21-.64-13.1-5.13-13.59-13.63-.23-4-.22-8.02-.22-12.03-.01-45.47.02-90.93-.04-136.4,0-5.21-.49-10.42-.85-17.38Z"/>
      <path class="cls-1" d="M197.83,106.83c0,7.52,0,12.75,0,17.98,0,46.34,0,92.68-.04,139.01,0,4,.23,8.14-.69,11.96-1.64,6.83-6.42,10.55-13.57,10.53-7.12-.02-11.96-3.57-13.47-10.56-.83-3.87-.76-7.97-.76-11.97-.04-54.8-.07-109.61,0-164.41.03-18.38,3.67-22.2,21.75-22.25,55.25-.13,110.5-.05,165.75-.05,1.78,0,3.58-.05,5.34.13,10.12,1.02,15.48,6.18,15.52,14.86.04,8.48-5.34,13.57-15.78,14.56-3.98.38-8.01.19-12.02.2-44.56.01-89.11,0-133.67,0-5.29,0-10.58,0-18.38,0Z"/>
      <path class="cls-5" d="M1002.14,912.18c0-7.25,0-12.47,0-17.7,0-45.46,0-90.93.01-136.39,0-4.01-.1-8.04.23-12.03.69-8.3,5.2-13.1,13.68-13.45,8.33-.34,13.48,4.77,14.46,14.07.23,2.21.16,4.45.16,6.68,0,55.27.04,110.54-.04,165.81-.03,17.87-4.22,22.45-21.8,22.51-55.27.19-110.54.09-165.81,0-3.53,0-8.13.5-10.36-1.41-4.3-3.68-9.41-8.56-10.27-13.61-1.19-7,3.82-12.68,11.45-14.01,4.34-.75,8.88-.5,13.34-.5,45.91-.02,91.82,0,137.73,0,4.86,0,9.72,0,17.23,0Z"/>
      <path class="cls-1" d="M197.83,912.19c7.59,0,12.83,0,18.08,0,45.94,0,91.89,0,137.83,0,3.12,0,6.27-.2,9.36.1,8.65.83,14.21,5.04,14.47,14.33.24,8.71-4.78,13.08-12.79,14.38-3.93.64-7.99.73-11.99.74-52.63.04-105.27.03-157.9.02-2.68,0-5.36.06-8.03-.16-12.86-1.05-17.31-5.43-17.45-18.67-.28-27.65-.12-55.31-.13-82.96,0-28.1-.02-56.2.03-84.3,0-4.01-.12-8.1.63-12,1.34-6.94,5.8-10.94,13.04-11.06,7.76-.14,12.83,3.77,14.26,11.35.82,4.33.55,8.89.56,13.34.03,45.5.02,91,.03,136.49,0,5.27,0,10.54,0,18.41Z"/>
      <path class="cls-3" d="M598.92,662.63c-83.19-.03-152.55-69.61-152.52-153,.03-84.14,69.3-153.71,153.19-153.85,84.07-.14,153.56,69.02,153.91,153.16.35,84.46-69.3,153.72-154.58,153.69ZM476.06,507.85c-.25,69.39,55.14,125.45,124.15,125.65,67.27.2,123.59-55.89,123.84-123.32.26-67.96-54.93-124.24-122.25-124.68-69.04-.45-125.5,54.49-125.75,122.35Z"/>
      <path class="cls-1" d="M586.14,500.27c0,15.57.16,31.14-.05,46.71-.17,12.52-5.04,18.36-14.44,18.18-8.95-.17-13.78-5.75-13.86-17.38-.2-31.58-.2-63.17,0-94.76.07-11.86,4.7-17.29,13.7-17.46,9.57-.19,14.46,5.55,14.63,17.99.22,15.57.05,31.14.05,46.71h-.03Z"/>
      <path class="cls-1" d="M651.76,504.75c0-13.78-.23-27.56.07-41.33.25-11.73,4.87-17.14,13.93-17.4,8.95-.26,14.92,5.23,15.12,16.48.51,28.87.52,57.76,0,86.64-.2,11.09-6.34,16.43-15.5,16-8.53-.39-13.29-5.69-13.54-16.4-.34-14.66-.09-29.33-.09-43.99Z"/>
      <path class="cls-1" d="M633.75,516.98c0,10.67.31,21.36-.09,32.01-.39,10.42-5.4,15.84-13.92,16.2-9.17.4-15.14-5.19-15.36-16.12-.44-21.78-.47-43.58-.05-65.36.21-10.99,6.09-16.5,15.31-16.2,8.62.28,13.55,5.46,14,16.11.47,11.1.11,22.23.1,33.34Z"/>
      <path class="cls-1" d="M539.5,516.19c0,11.1.41,22.22-.11,33.3-.48,10.33-5.78,15.56-14.43,15.71-8.7.15-14.46-5.07-14.68-15.31-.46-22.19-.44-44.41-.03-66.61.19-10.5,5.58-15.73,14.24-15.75,8.51-.02,14.38,5.47,14.88,15.35.55,11.07.13,22.2.13,33.3Z"/>
    </g>
  </g>
</svg>