<?xml version="1.0" encoding="UTF-8"?>
<svg id="Layer_1" data-name="Layer 1" xmlns="http://www.w3.org/2000/svg" xmlns:xlink="http://www.w3.org/1999/xlink" viewBox="0 0 1200 1200">
  <defs>
    <style>
      .cls-1 {
        fill: #2ba5a2;
      }

      .cls-1, .cls-2 {
        stroke-width: 0px;
      }

      .cls-2 {
        fill: url(#linear-gradient);
      }
    </style>
    <linearGradient id="linear-gradient" x1="136.25" y1="600" x2="1063.75" y2="600" gradientUnits="userSpaceOnUse">
      <stop offset="0" stop-color="#2ba5a2"/>
      <stop offset=".51" stop-color="#2da5a0"/>
      <stop offset=".56" stop-color="#2ea6a0"/>
      <stop offset=".6" stop-color="#38a897"/>
      <stop offset=".68" stop-color="#53b082"/>
      <stop offset=".78" stop-color="#80bd5f"/>
      <stop offset=".89" stop-color="#bdcf2f"/>
      <stop offset="1" stop-color="#fbe100"/>
    </linearGradient>
  </defs>
  <path class="cls-1" d="M599.77,500.79c-55.02-.14-99.24,43.74-99.5,98.74-.25,54.96,43.76,99.06,98.64,99.7,54.29.63,99.87-44.67,99.92-99.15.05-54.69-45.5-99.98-99.06-99.29ZM599.52,661.48c-33.92.06-61.46-27.41-61.53-61.35-.07-34,27.29-61.59,61.18-61.7,34.34-.11,61.69,27.18,61.79,61.66.1,33.86-27.4,61.33-61.44,61.39Z"/>
  <path class="cls-2" d="M1063.75,813.38c0-51.85-42.18-94.03-94.03-94.03-.56,0-1.12.03-1.68.04-14.97-.12-29.14,3.63-42.45,10.99-.33.18-.67.35-1,.53-.43.24-.86.49-1.29.74-6.51,3.71-12.54,8.18-17.96,13.28-1.15,1.03-2.3,2.03-3.43,3.12-.98.94-2.13,1.71-3.42,2.73-34.55-19.96-68.88-39.79-103.45-59.76,1.21-3.02,2.18-5.23,2.98-7.5,3.25-9.21,6.67-18.37,9.58-27.69,2.62-8.38.38-15.66-6.31-21.49-6.14-5.36-11.91-11.23-18.45-16.03-7.69-5.65-11.67-12.15-10.34-22.07.53-3.97,1.42-6.76,4.45-9.33,8.24-6.98,16.25-14.24,24.37-21.36,6.67-5.85,8.71-13.07,6.31-21.52-1.39-4.9-2.85-9.78-4.58-14.57-2.4-6.67-5.07-13.25-7.91-20.6,34.64-20,69.1-39.9,103.4-59.71,42.24,43.87,99.17,35.57,129.61,10.3,33.97-28.2,44.44-76.33,24.51-115.11-20.22-39.35-64.74-59.5-107.28-48.37-21.25,5.56-38.77,17.11-51.7,34.86-18.89,25.92-22.84,54.69-14.13,85.09-1.14.92-1.72,1.51-2.4,1.91-35.82,20.69-71.63,41.39-107.51,61.99-1.85,1.06-4.18,1.59-6.34,1.77-7.92.68-15.94.57-23.76,1.79-7.95,1.24-13.82-.41-19.36-6.69-3.67-4.15-4.87-7.8-4.38-13.04,1.01-10.75,1.51-21.55,2.05-32.33.38-7.62-3-13.46-9.47-17.29-16.93-10.03-34.92-17.61-53.98-22.5-7.72-1.98-14.54-.09-19.94,6.02-3.24,3.66-6.45,7.36-9.71,11-1.55,1.73-3.21,3.35-5.19,5.4-1.66-6.9-1.44-143.79,0-148.48,54.98-13.41,80.1-65.37,72.46-107.84-7.99-44.4-45.08-76.53-90.67-77.94-43.33-1.34-83.21,29.5-93.08,71.95-5.04,21.66-2.89,42.59,6.91,62.51,13.43,27.29,35.6,43.88,64.58,51.13,1.67,7.72,1.3,143.66-.56,148.74-4.94-5.56-9.66-10.81-14.32-16.12-5.71-6.49-12.74-8.36-20.99-6.18-18.43,4.87-35.85,12.17-52.34,21.74-7.17,4.16-10.9,10.24-10.47,18.6.46,8.95.38,18.01,1.8,26.82,1.45,8.95-.51,15.63-7.71,21.36-3.45,2.74-6.34,4.28-11.08,3.42-8.05-1.46-16.21-1.96-24.38-1.78-5.01.11-9.08-1.15-13.18-3.53-30.86-17.88-61.79-35.63-92.68-53.45-4.89-2.82-9.69-5.79-14.36-8.59,16.04-56.11-15.94-100.95-53.76-116.38-40.33-16.45-87.6-2.77-112.48,32.97-25.28,36.32-21.97,85.57,7.86,117.31,15.36,16.35,34.06,26.46,56.33,29.28,32.65,4.13,60.02-7.01,82.78-30.46,34.85,20.13,69.17,39.96,103.65,59.87-.9,2.29-1.53,3.76-2.05,5.26-3.45,9.82-7.04,19.6-10.26,29.5-2.56,7.87-.07,16.5,6.17,21.94,6.14,5.36,11.94,11.17,18.44,16.05,7.33,5.51,11.64,11.57,10.32,21.42-.59,4.38-1.46,7.46-4.89,10.32-8.33,6.94-16.35,14.24-24.45,21.45-5.72,5.1-7.99,13-5.93,20.38,1.48,5.29,3.05,10.58,4.89,15.76,2.31,6.49,4.95,12.87,7.76,20.1-34.58,19.98-69.05,39.89-103.35,59.71-44.94-46.29-103.21-33.38-131.05-9.19-33.42,29.03-42.94,76.45-22.52,115.01,21.1,39.83,65.81,58.95,108.34,46.92,21.17-5.99,38.37-17.86,51.02-35.82,18.07-25.65,21.66-53.85,13.04-83.94,2.14-1.3,3.84-2.38,5.58-3.39,34.16-19.75,68.34-39.45,102.47-59.27,3.23-1.87,6.86-2.92,10.59-3.05,7.33-.25,14.74-.32,21.94-1.56,7.83-1.35,13.41.58,18.79,6.61,3.65,4.1,5.01,7.8,4.54,13.02-.97,10.75-1.59,21.54-2.16,32.32-.4,7.61,2.97,13.56,9.42,17.34,15.87,9.3,32.49,17.04,50.13,22.36,8.38,2.53,15.71.59,21.42-6.34,4.8-5.82,9.57-11.65,14.42-17.43.82-.97,1.93-1.69,3.09-2.68,1.75,6.42,1.52,148.01-.1,152.85-57.11,14.7-79.28,66.81-72.71,106.6,6.78,41.07,41.39,78.03,90.86,79.17,46.09,1.06,82.44-30.7,92.63-70.15,5.57-21.57,3.79-42.57-5.61-62.64-13.2-28.17-35.7-45.34-65.33-52.82-1.48-7.57-1.15-143.71.34-148.39.71.48,1.47.78,1.94,1.33,3.71,4.34,7.5,8.61,11,13.12,5.98,7.71,13.56,9.47,22.84,7.49,19.21-4.1,36.6-12.37,53.19-22.53,6.18-3.78,9.56-9.42,9.24-16.82-.4-9.37-.27-18.84-1.74-28.05-1.45-9.01.62-15.56,7.81-21.27,3.26-2.59,6-3.97,10.18-3.47,8.96,1.07,17.97,1.53,26.98,1.92,4.04.18,7.49,1.34,10.94,3.32,31.09,17.86,62.25,35.61,93.36,53.45,4.89,2.81,9.62,5.91,14.33,8.82-1.03,5.44-2.24,10.34-2.93,15.21-.34,2.16-.58,4.35-.76,6.55-.28,2.53-.51,5.09-.35,7.65,0,.1,0,.19,0,.29,0,10.48,1.75,20.56,4.93,29.98,1.28,5.74,4.05,11.04,6.93,16.17,20.63,36.69,62.19,54.15,100.52,46.07,43.09-8.56,75.68-46.65,75.68-92.22ZM968.43,330.66c39.96-.14,70.81,41.58,49.85,82.87-6.55,12.91-18.35,22.59-32.27,26.54-38.71,10.99-72.82-16.68-72.82-53.44,0-30.73,24.8-55.86,55.23-55.96ZM230,442.5c-30.92.06-56.05-24.99-56.03-55.86.02-30.73,25.24-55.89,56.08-55.96,30.48-.06,55.68,24.89,55.96,55.4.29,31.24-24.65,56.35-56.02,56.41ZM230.4,869.29c-33.7.1-60.66-29.52-55.86-63.89,3.9-27.91,28.75-48.71,56.93-47.92,30.49.85,54.6,25.44,54.53,56.06-.07,30.5-25.17,55.67-55.6,55.76ZM543.52,173.42c.47-36.8,31.39-57.22,56.55-55.79,30.92.2,55.93,25.6,55.49,56.34-.44,30.84-25.86,55.71-56.64,55.43-30.46-.28-55.79-25.77-55.4-55.98ZM655.36,1022.17c2.47,32.86-23.04,59.94-55.62,60.21-31.04.26-55.84-24.22-56.24-55.51-.45-35.24,33.59-64.04,70.46-54.43,22.84,5.95,39.63,26.19,41.4,49.73ZM734.89,590.52c1.47,6.31,1.2,12.86-.14,19.19-1.96,9.25.05,16.27,6.13,21.67,7.78,6.89,15.46,13.9,23.41,20.59,3.17,2.66,3.96,5.17,2.2,8.97-2.8,6.07-5.21,12.32-7.83,18.6-3.22,0-5.85.14-8.45-.02-9.15-.57-18.3-1.18-27.44-1.89-6.7-.52-13.26,2.03-17.78,7-6.63,7.29-13.67,14.23-20.92,20.91-4.84,4.47-7.39,10.89-6.9,17.46.78,10.47,1.29,20.97,2.13,31.44.24,2.96-1.44,5.73-4.18,6.88-6.33,2.65-12.63,5.38-19.26,8.22-6.26-7.48-12.6-13.9-17.57-21.26-7.44-11.01-16.83-15.6-30.14-13.71-9.44,1.34-19.04.97-28.62-.6-5.79-.95-11.62,1.37-15.34,5.9-6.22,7.57-12.47,15.12-18.73,22.66-1.42,1.71-2.92,3.35-4.93,5.65-6.85-3.02-13.64-6.02-20.68-9.13,0-2.71-.12-4.92.02-7.11.59-9.15,1.09-18.31,1.93-27.43.77-8.35-1.99-14.79-8.37-20.31-6.14-5.31-12.16-10.79-17.27-17.09-5.98-7.37-12.91-10.3-22.11-9.31-9.31,1.01-18.7,1.17-28.04,1.96-4.52.38-7.02-1.32-8.23-6.76-.91-4.1-2.74-7.93-4.86-11.56-2.28-3.91-1.81-6.4,1.11-8.9,7.44-6.35,14.6-13.03,22.12-19.28,6.45-5.36,9.31-11.74,8.71-20.24-.6-8.49-.77-17.01-.03-25.49.77-8.94-2.2-15.54-8.93-21.1-7.22-5.97-14.01-12.47-21.21-18.45-3.71-3.08-4.16-6-1.14-10.87,2.08-3.36,3.35-7.15,4.38-10.97,1.34-4.97,3.98-6.34,8.42-5.95,9.33.82,18.73,1.02,28.04,1.98,8.99.93,15.79-2.03,21.67-9.24,5.15-6.31,11.14-11.85,17.32-17.16,6.36-5.47,9.16-11.83,8.44-20.07-.85-9.74-1.27-19.52-2.1-29.26-.33-3.8.85-6.16,4.48-7.55,6.42-2.46,12.75-5.15,19.44-7.88,4.48,5.05,8.52,9.59,12.55,14.13,3.92,4.42,7.85,8.83,11.73,13.29,4.96,5.7,11.27,7.77,19.4,6.74,7.79-.99,15.67-1.3,23.43-.12,9.69,1.48,16.78-1.41,22.26-8.9,4.1-5.61,8.9-10.69,13.72-15.69,8.81-9.14,6.95-10.07,14.28-7.2,6.04,2.36,11.97,4.99,18.09,7.56,0,3,.12,5.41-.02,7.81-.57,9.35-1.12,18.71-1.87,28.05-.55,6.8,2.17,13.43,7.21,18.01,7.01,6.37,13.79,13.06,20.14,20.09,4.73,5.23,11.56,8.07,18.59,7.48,9.13-.77,18.29-1.32,27.44-1.89,2.41-.15,4.84-.02,8.08-.02,3.23,7.77,6.47,15.57,9.83,23.66-7.07,6.29-13.59,12.09-20.12,17.89-2.74,2.44-5.55,4.8-8.21,7.32-5.68,5.38-7.36,12.35-5.28,21.3ZM914.39,813.38c0-30.51,24.82-55.34,55.34-55.34,18.91,0,35.62,9.54,45.6,24.06,2.26,3.41,4.17,7.07,5.68,10.87,1.99,5.03,3.29,10.34,3.82,15.73.13,1.55.24,3.1.24,4.68,0,30.51-24.82,55.34-55.34,55.34s-55.34-24.82-55.34-55.34Z"/>
</svg>