<svg id="f7669ee1-f934-4142-a607-f548cb03d2f6" data-name="Layer 1" xmlns="http://www.w3.org/2000/svg" viewBox="0 0 1200 680"><defs><style>.bac39882-c87e-4bd4-b640-950c46368fc8,.e72cb127-3af3-42fe-b292-d35e7bec571a{fill:#283e42;}.aef71108-5038-473a-8c53-62e7c18b672c,.bcf4766d-30c1-46b9-ae95-23d72d46bc20{fill:#00a7a2;}.a9a8d4a0-3459-4c45-8f83-b22fba9d46f9{fill:#ffdf00;}.f42e301a-aa0f-4909-8bdd-5a59dec0f8cd{fill:#fff;}.bac39882-c87e-4bd4-b640-950c46368fc8,.bcf4766d-30c1-46b9-ae95-23d72d46bc20{stroke:#fff;stroke-width:6px;}.bac39882-c87e-4bd4-b640-950c46368fc8,.bc900fb7-6163-4a2c-a989-cd86181db36a,.bcf4766d-30c1-46b9-ae95-23d72d46bc20{stroke-miterlimit:10;}.fd350110-a8c6-4690-bf03-f271845254f9{fill:#9a0056;}.bc900fb7-6163-4a2c-a989-cd86181db36a{fill:none;stroke:#ffdf00;stroke-width:5px;}</style></defs><path class="e72cb127-3af3-42fe-b292-d35e7bec571a" d="M281.7,306.5a36.66,36.66,0,0,0,1.2-5.39l8.53-4a43.59,43.59,0,0,0-1.05-10.55l-9.17-2.27a36.27,36.27,0,0,0-5.19-9.7l3.19-8.9A44.4,44.4,0,0,0,271,259l-8.09,4.88a35,35,0,0,0-5.15-2,35.64,35.64,0,0,0-5.39-1.19l-4-8.54a43.46,43.46,0,0,0-10.54,1l-2.27,9.17a36.07,36.07,0,0,0-9.71,5.2L217,264.35a42.71,42.71,0,0,0-6.73,8.19l4.88,8.08a35.87,35.87,0,0,0-2,5.15,33.72,33.72,0,0,0-1.19,5.4l-8.54,4a43.73,43.73,0,0,0,1.05,10.56L213.6,308a36.26,36.26,0,0,0,5.2,9.69l-3.19,8.89a43.1,43.1,0,0,0,8.2,6.72l8.09-4.88a36.3,36.3,0,0,0,10.53,3.18l4,8.55A44.17,44.17,0,0,0,257,339.12l2.27-9.18a36.36,36.36,0,0,0,9.69-5.19l8.9,3.19a44.27,44.27,0,0,0,6.72-8.21l-4.88-8.07A36.27,36.27,0,0,0,281.7,306.5Zm-40.54,10.29a21.57,21.57,0,1,1,26.89-14.41A21.58,21.58,0,0,1,241.16,316.79Z"/><circle class="e72cb127-3af3-42fe-b292-d35e7bec571a" cx="247.4" cy="296.14" r="10.54"/><path class="aef71108-5038-473a-8c53-62e7c18b672c" d="M407.49,562.58a37.23,37.23,0,0,0-1.23-5.43l6-7.34a43.94,43.94,0,0,0-5.5-9.15l-9.33,1.89a36.62,36.62,0,0,0-8.9-6.6l-.93-9.48a44.79,44.79,0,0,0-10.36-2.58L372,531.82a36.22,36.22,0,0,0-5.56.4,35.74,35.74,0,0,0-5.41,1.24l-7.35-6a43.68,43.68,0,0,0-9.15,5.5l1.88,9.33a36.24,36.24,0,0,0-6.59,8.92l-9.47.92a43.58,43.58,0,0,0-2.59,10.36l7.92,5.25a37.33,37.33,0,0,0,.4,5.56,35.73,35.73,0,0,0,1.25,5.43l-6,7.34a43.92,43.92,0,0,0,5.52,9.16l9.32-1.89a36.51,36.51,0,0,0,8.91,6.59l.93,9.47a43.92,43.92,0,0,0,10.36,2.58l5.26-7.92a36.52,36.52,0,0,0,11-1.64l7.35,6a44.46,44.46,0,0,0,9.15-5.5l-1.88-9.34a36.61,36.61,0,0,0,6.58-8.9l9.48-.93a44.13,44.13,0,0,0,2.58-10.37l-7.92-5.25A36.11,36.11,0,0,0,407.49,562.58ZM375,589.41a21.72,21.72,0,1,1,18.28-24.71A21.73,21.73,0,0,1,375,589.41Z"/><circle class="aef71108-5038-473a-8c53-62e7c18b672c" cx="371.79" cy="567.92" r="10.62"/><path class="e72cb127-3af3-42fe-b292-d35e7bec571a" d="M947.68,460.19a50,50,0,0,0,1.6-7.2l11.39-5.37a58.39,58.39,0,0,0-1.41-14.08l-12.24-3a48.69,48.69,0,0,0-6.93-12.95l4.26-11.87a58.94,58.94,0,0,0-10.94-9l-10.8,6.51a48.11,48.11,0,0,0-6.88-2.67,47,47,0,0,0-7.19-1.58l-5.38-11.4a57.8,57.8,0,0,0-14.07,1.4l-3,12.24a48.35,48.35,0,0,0-13,6.94l-11.86-4.25a57.76,57.76,0,0,0-9,10.94l6.52,10.78a49,49,0,0,0-2.67,6.88,47.35,47.35,0,0,0-1.58,7.2l-11.4,5.37a58.07,58.07,0,0,0,1.41,14.09l12.23,3a48.28,48.28,0,0,0,7,12.94L859.46,487a58.41,58.41,0,0,0,10.94,9l10.8-6.52a47.53,47.53,0,0,0,14.06,4.25l5.39,11.41a58.46,58.46,0,0,0,14.07-1.41l3-12.24a48.79,48.79,0,0,0,12.94-6.93l11.87,4.26a59.2,59.2,0,0,0,9-11L945,467.07A49.29,49.29,0,0,0,947.68,460.19Zm-54.11,13.73a28.79,28.79,0,1,1,35.89-19.23A28.78,28.78,0,0,1,893.57,473.92Z"/><circle class="e72cb127-3af3-42fe-b292-d35e7bec571a" cx="901.9" cy="446.35" r="14.07"/><polygon class="e72cb127-3af3-42fe-b292-d35e7bec571a" points="511.81 569.99 499.2 653.84 659.51 653.84 645.1 569.99 511.81 569.99"/><path class="e72cb127-3af3-42fe-b292-d35e7bec571a" d="M279.6,192.62l593,.63c14.71,0,26.63,9.89,26.62,22.05L898.83,549c0,12.16-12,22-26.67,22l-593-.63c-14.71,0-26.63-9.89-26.62-22l.36-333.73C252.94,202.45,264.88,192.6,279.6,192.62Z"/><path class="a9a8d4a0-3459-4c45-8f83-b22fba9d46f9" d="M262.74,548.35l.36-333.74c0-7.5,7.41-13.6,16.49-13.59l593,.64c9.07,0,16.46,6.12,16.45,13.62L888.66,549c0,7.5-7.41,13.6-16.48,13.59l-593-.64C270.12,562,262.74,555.85,262.74,548.35Z"/><path class="f42e301a-aa0f-4909-8bdd-5a59dec0f8cd" d="M296.65,405l.15-143.73c0-3.23,3.31-5.86,7.36-5.85l264.65.28c4.05,0,7.35,2.64,7.35,5.87L576,405.3c0,3.23-3.3,5.86-7.35,5.85L304,410.87C299.94,410.87,296.64,408.23,296.65,405Z"/><path class="f42e301a-aa0f-4909-8bdd-5a59dec0f8cd" d="M296.69,531.54l.12-103.91c0-2.34,3.3-4.23,7.35-4.23l264.71.28c4,0,7.35,1.91,7.34,4.25l-.11,103.91c0,2.34-3.3,4.23-7.35,4.23L304,535.78C300,535.78,296.69,533.88,296.69,531.54Z"/><path class="f42e301a-aa0f-4909-8bdd-5a59dec0f8cd" d="M588.08,404.87l.15-143.73c0-3.23,3.16-5.85,7-5.85l252.75.27c3.87,0,7,2.64,7,5.87l-.16,143.73c0,3.23-3.15,5.86-7,5.85l-252.76-.27C591.22,410.74,588.07,408.1,588.08,404.87Z"/><path class="f42e301a-aa0f-4909-8bdd-5a59dec0f8cd" d="M725.31,531.76l.11-104c0-2.34,1.54-4.24,3.42-4.24l122.84.13c1.88,0,3.4,1.91,3.4,4.25l-.11,104c0,2.34-1.54,4.24-3.42,4.24L728.72,536C726.84,536,725.31,534.1,725.31,531.76Z"/><path class="f42e301a-aa0f-4909-8bdd-5a59dec0f8cd" d="M588,531.76l.11-104c0-2.34,1.54-4.24,3.42-4.24l122.83.13c1.88,0,3.41,1.91,3.41,4.25l-.11,104c0,2.34-1.54,4.24-3.42,4.24L591.43,536C589.55,536,588,534.1,588,531.76Z"/><circle class="e72cb127-3af3-42fe-b292-d35e7bec571a" cx="575.88" cy="309.4" r="236.73"/><polygon class="e72cb127-3af3-42fe-b292-d35e7bec571a" points="895.88 234.93 255.85 234.93 262.75 199.1 889.02 201.02 895.88 234.93"/><circle class="bcf4766d-30c1-46b9-ae95-23d72d46bc20" cx="575.88" cy="309.4" r="215.75"/><circle class="bac39882-c87e-4bd4-b640-950c46368fc8" cx="575.88" cy="309.4" r="125.47"/><circle class="bcf4766d-30c1-46b9-ae95-23d72d46bc20" cx="575.88" cy="309.4" r="51.01"/><path class="fd350110-a8c6-4690-bf03-f271845254f9" d="M887.73,44.73,853.32,37,846.51,2.33c-70.09,52-63.91,98.21-63.17,102.46l-.13.13.16,0,0,.15.13-.12C787.76,105.85,833.77,113.32,887.73,44.73Z"/><line class="bc900fb7-6163-4a2c-a989-cd86181db36a" x1="854.97" y1="35.32" x2="617.89" y2="269.55"/><polygon class="fd350110-a8c6-4690-bf03-f271845254f9" points="622.5 243.53 645.01 266.05 575.88 310.98 622.5 243.53"/><circle class="f42e301a-aa0f-4909-8bdd-5a59dec0f8cd" cx="295.51" cy="215.42" r="6.02"/><circle class="aef71108-5038-473a-8c53-62e7c18b672c" cx="312.67" cy="215.42" r="6.02"/><circle class="a9a8d4a0-3459-4c45-8f83-b22fba9d46f9" cx="329.78" cy="215.42" r="6.02"/><rect class="e72cb127-3af3-42fe-b292-d35e7bec571a" x="425.54" y="648.85" width="307.74" height="28.82" rx="3.43"/><path class="fd350110-a8c6-4690-bf03-f271845254f9" d="M201.33,441.91l49.93,38.84a10.54,10.54,0,0,0,13,0l45.56-35.45a22.54,22.54,0,0,1-21.92-22.52H208.79a11.3,11.3,0,0,0-11.29,11.3A9.91,9.91,0,0,0,201.33,441.91Zm67.51,44.83a18.07,18.07,0,0,1-22.2,0L197.5,448.52v53.32a11.3,11.3,0,0,0,11.29,11.3h97.89a11.3,11.3,0,0,0,11.3-11.3V448.52Z"/><path class="aef71108-5038-473a-8c53-62e7c18b672c" d="M310.45,407.72a15.06,15.06,0,1,1-15.06,15.06A15.06,15.06,0,0,1,310.45,407.72Z"/><path class="aef71108-5038-473a-8c53-62e7c18b672c" d="M929.44,276.84a5.8,5.8,0,0,0,1.77,11.46,11.38,11.38,0,0,1,13.24,11.92,5.8,5.8,0,1,0,11.58.56,23,23,0,0,0-26.59-23.94ZM926,254a5.8,5.8,0,1,0,1.75,11.46,34.3,34.3,0,0,1,39.8,35.85,5.8,5.8,0,0,0,10.1,4.15,5.87,5.87,0,0,0,1.48-3.62A45.88,45.88,0,0,0,926,254Zm-3.53-23.09a5.8,5.8,0,0,0,1.74,11.46,57.95,57.95,0,0,1,66.67,60,5.8,5.8,0,1,0,11.58.54,69.53,69.53,0,0,0-80-72Z"/><path class="fd350110-a8c6-4690-bf03-f271845254f9" d="M897.08,308.2a65,65,0,0,0,31.16,28.06l7.66-10.42a5.79,5.79,0,0,1,6.68-2l20.59,7.58a5.82,5.82,0,0,1,3.7,6.46l-3.33,18.93a5.78,5.78,0,0,1-5.42,4.79,85.12,85.12,0,0,1-89.35-80.47,5.75,5.75,0,0,1,4.2-5.88l18.47-5.3a5.86,5.86,0,0,1,6.83,3l9.69,19.7a5.82,5.82,0,0,1-1.31,6.85Z"/></svg>