<svg id="b407a6b3-5465-434d-9c54-f5025e71d7d6" data-name="Layer 1" xmlns="http://www.w3.org/2000/svg" viewBox="0 0 193.13 85.87"><defs><style>.b84c4f0d-fca8-43c9-a00d-1ade6ba42f15{fill:#e0e5e5;}</style></defs><path class="b84c4f0d-fca8-43c9-a00d-1ade6ba42f15" d="M192.76,41.6a84.62,84.62,0,0,0-78.57-21c-8.9,2.24-19.65,6.11-23.75,15.07-2,4.31-2.37,9.59.1,13.79a13.1,13.1,0,0,0,10.65,6.06c9.92.62,16.68-7.95,18-17.07a30.45,30.45,0,0,0-10.34-26.63A30.84,30.84,0,0,0,79.68,6c-7.44,2.4-16.77,12-10.6,20,5.68,7.35,16.87,2.43,22-2.88,3.33-3.42,6.1-7.39,9.76-10.5a14.89,14.89,0,0,1,13.62-3.44C124.81,11.79,130,24,127.31,33.78c-1.34,4.89-4.67,8.49-9.77,9.37a36.88,36.88,0,0,1-8.27.2,39.52,39.52,0,0,1-7.73-1.14c-5-1.27-9.45-3.92-12.23-8.32a22.48,22.48,0,0,1-3.12-14.35c.55-5.15,2.93-10.43,7.26-13.45s10-3.83,15.13-3.54a35,35,0,0,1,24.48,12.57c12.48,15,7.79,39-8.64,49.12-9.18,5.64-21,7.57-31.62,6.63-9.43-.84-18.86-5-22.91-14.07A25.58,25.58,0,0,1,71.64,33a18.74,18.74,0,0,1,11.18-8.25c5.3-1.19,10,1.74,13.31,5.66a33.68,33.68,0,0,1,6.92,14.91,35.77,35.77,0,0,1,.7,8.7,81.13,81.13,0,0,1-1.18,9.18c-.81,5.21-1.18,10.53,1.05,15.45a11.69,11.69,0,0,0,10.11,7.2,13.62,13.62,0,0,0,11.09-5.45c3-4,3.35-9.48,1.92-14.15-3-9.88-13.39-15.4-22.86-17.55-8.73-2-18.2-1.47-26.38,2.3a29,29,0,0,0-10.43,8c-3,3.73-5.52,8.74-3.57,13.54,1.47,3.64,5,6,8.68,7a15.56,15.56,0,0,0,12.19-1.89c4.29-2.62,7.46-6.72,10-11a75.43,75.43,0,0,0,7.19-15.59,36.3,36.3,0,0,0,1.61-16.92,28.54,28.54,0,0,0-5.55-12.56C91.89,14.11,82.78,9.46,73.25,10.07A30,30,0,0,0,50,23.7a21.29,21.29,0,0,0-3.27,14.92c.89,4.81,4.19,8.57,8.29,11s9.13,3.81,13.9,5a116.06,116.06,0,0,0,17.38,2.88,65.78,65.78,0,0,0,17.33-.76c5.1-1,10.34-2.59,14.57-5.69,3.72-2.73,6.65-6.64,6.73-11.42s-2.76-9.06-6.23-12.12a38.46,38.46,0,0,0-13.6-7.33,50.48,50.48,0,0,0-16.26-2.49,49.68,49.68,0,0,0-16.5,3,99.68,99.68,0,0,0-15.65,7.71c-9.94,5.74-20.37,12.35-32.22,12.68-8.71.24-18.56-3.92-22-12.47-.58-1.47-3-.83-2.41.67C3.48,37.78,12.18,42.59,21,43.44c11.1,1.06,21.77-4.21,31.12-9.55,9.73-5.56,19.34-11.72,30.66-13.3,10.47-1.46,22.07.55,31,6.32,3.84,2.48,7.68,6.19,8.47,10.9s-2.11,8.79-5.81,11.37c-4.24,3-9.38,4.42-14.42,5.28a65.59,65.59,0,0,1-17.37.37,118.24,118.24,0,0,1-17.1-3.14c-4.51-1.12-9.15-2.51-12.95-5.28A13.57,13.57,0,0,1,49,33.87,22.22,22.22,0,0,1,55.52,20.7c6.42-6.51,16.29-9.69,25.25-7.5A27.4,27.4,0,0,1,99.84,31c3.55,10.93-1,22.46-6.27,32-4.13,7.56-11.19,16.82-21,14-3.45-1-6.85-3.58-7.22-7.39-.46-4.86,3.45-9.46,6.91-12.41,6.66-5.67,15.82-7.65,24.38-7.1a41.74,41.74,0,0,1,13,3c4.72,1.9,9.38,4.77,12.34,9,2.85,4.08,4.05,9.59,2.18,14.33a11,11,0,0,1-10,6.87c-4.7,0-7.88-3.6-9.11-7.84-1.58-5.46-.13-11.1.65-16.57,1.51-10.61-.8-22-7.86-30.3-3.05-3.6-7.27-6.48-12.12-6.66S76,24.46,72.62,27.87c-5.69,5.66-8.09,14.15-7.14,22A25.07,25.07,0,0,0,79.23,69.76c9.06,4.52,19.89,4.48,29.65,2.74,9.91-1.76,19.62-6.13,25.94-14.21a37.55,37.55,0,0,0,7.84-25A34.3,34.3,0,0,0,131.22,9.61a37.15,37.15,0,0,0-25-9.61C101.18.08,95.8,1.22,91.67,4.3a20.77,20.77,0,0,0-7.54,12.4c-2,9.32,1.27,19.83,9.62,25,4.23,2.61,9.23,3.67,14.13,4.07s10.84.71,15.29-2c8.17-4.93,8.7-16.78,5.44-24.75a20.73,20.73,0,0,0-9.69-10.88,17.38,17.38,0,0,0-14-.93c-4.35,1.73-7.63,5.09-10.65,8.55s-5.7,7-9.68,9.22c-3.25,1.78-7.81,3.11-11.33,1.29-3.91-2-4.35-6.61-2.42-10.19,4.83-8.94,16.9-10.45,25.82-8a28.11,28.11,0,0,1,19.54,20.63c2,8.54-.4,20.6-9.86,23.66-3.86,1.24-8.58.84-11.74-1.9-3.68-3.19-4-8.49-2.32-12.8,3.45-9.08,14.57-12.74,23.19-14.82a82.87,82.87,0,0,1,52.19,4.7A78,78,0,0,1,191,43.37c1.15,1.13,2.92-.64,1.77-1.77Z"/></svg>