<svg id="e292d7b5-2afe-49d7-ad34-905ebd993f7e" data-name="Layer 1" xmlns="http://www.w3.org/2000/svg" viewBox="0 0 297.22 77.1"><defs><style>.b7960980-11ed-47f6-93a2-aa7ea1149afa{fill:#e0e5e5;}.b8d53ac6-2195-42a4-a95b-ead93a50afad{fill:#fbe100;}.a2621c32-29ad-414b-8001-a53a86138d0c{fill:#4c4c4c;}.e1833cd2-511e-472b-bb3d-03adf32059e1{fill:#2ba5a2;}</style></defs><path class="b7960980-11ed-47f6-93a2-aa7ea1149afa" d="M.9,48.67a91.71,91.71,0,0,0,24,1.9,74.46,74.46,0,0,0,20.92-3.79,32.31,32.31,0,0,0,7.67-3.64,12.74,12.74,0,0,0,4.11-5.49,23.18,23.18,0,0,0,1.9-7.54c.15-2,0-4.29-1.11-6a4,4,0,0,0-4.86-1.54c-1.8.77-2.62,2.79-3,4.59a21.26,21.26,0,0,0,0,7.25,14.37,14.37,0,0,0,2,6c1.74,2.54,5.05,4.33,7.84,5.43A20.55,20.55,0,0,0,71.25,47c8.14-1.3,14.91-6.72,22.61-9.28,6.2-2.06,14.21-2.62,18.85,2.85a15,15,0,0,1,3.15,6.28c.4,1.76.45,4-1,5.3a5.08,5.08,0,0,1-2.91,1.09l.89.37c-4.55-4.13,3.86-8,7-9.13a23.19,23.19,0,0,1,8.83-1.5c4.55.24,9,1.94,13.42,3s9.08,1.65,13.51.43a17.76,17.76,0,0,0,8.25-5.12c4.43-4.82,6.59-12,4.56-18.33a37.83,37.83,0,0,0-2.33-4.79,7.36,7.36,0,0,1-.17-6.27,13.33,13.33,0,0,1,6.35-6.16c5.31-2.71,11.63-3.29,17.51-3.13a103.83,103.83,0,0,1,23.5,2.84c4.4,1.15,9,2.78,12.54,5.72a12.55,12.55,0,0,1,4.49,6.79,6.83,6.83,0,0,1,.22,1.58,12.77,12.77,0,0,1,0,1.75,8.6,8.6,0,0,1-.23,1.44,12.19,12.19,0,0,1-.44,1.57,7.18,7.18,0,0,1-.49,1.22c-.68,1.45,1.48,2.72,2.16,1.27A14,14,0,0,0,230.83,13c-5-7.53-15.46-10-23.79-11.4A102,102,0,0,0,185.39.11c-5.79.32-12.11,1.46-16.9,4.94a13.93,13.93,0,0,0-5.39,7.16,9.68,9.68,0,0,0,.21,5.76c.6,1.74,1.75,3.17,2.41,4.88,2.28,5.91.18,12.8-4.19,17.18A15.09,15.09,0,0,1,153,44.36c-4.49.67-9-.47-13.35-1.59-3.88-1-8-2.36-12-2.31a26.72,26.72,0,0,0-8.48,1.61c-3.87,1.36-10.78,4.46-10.23,9.6a5.68,5.68,0,0,0,1.49,3.1,2.23,2.23,0,0,0,1.65,1,6.93,6.93,0,0,0,2.16-.44,6.27,6.27,0,0,0,4.23-4.94c.82-4.83-2.14-10.42-5.86-13.36-6.32-5-15.39-3.48-22.26-.59C82.62,39.63,74.79,45.59,66,44.69a18.72,18.72,0,0,1-10.73-4.92C53.78,38.35,53.31,36,53,34a16.4,16.4,0,0,1,.24-7.21c.37-1.21,1.38-2.74,2.71-1.71,1.49,1.17,1.19,4.2,1,5.8a19.52,19.52,0,0,1-2.56,7.6C53,40.77,50.92,41.9,48.54,43a49.56,49.56,0,0,1-9.76,3.2A86,86,0,0,1,14.36,48a86.22,86.22,0,0,1-12.8-1.76C0,45.92-.68,48.33.9,48.67Z"/><path class="b7960980-11ed-47f6-93a2-aa7ea1149afa" d="M225.19,61A15,15,0,0,0,232,73.28c5.37,3.74,12.47,4.56,18.77,3.21,6.65-1.44,12.64-5.19,17.65-9.7A57.77,57.77,0,0,0,281,50.39c1.5-2.91,3-7,6.36-8.22,2.58-1,5.93-.94,8.65-.75,1.6.11,1.6-2.39,0-2.5a32.14,32.14,0,0,0-7.46.4A9.92,9.92,0,0,0,282,43.53c-1.87,2.53-3,5.54-4.62,8.26A55.93,55.93,0,0,1,271.52,60C263.23,69.66,250,78.15,237,73.1c-5.07-2-9.37-6.46-9.28-12.15a1.25,1.25,0,0,0-2.5,0Z"/><path class="b8d53ac6-2195-42a4-a95b-ead93a50afad" d="M212.88,23.36s19-7.67,26.84,12.76v17s-11.07,6.71-26.37,2.07Z"/><path class="a2621c32-29ad-414b-8001-a53a86138d0c" d="M226.13,22.59l-.4-.83V20.45l-.84-.47-1-.38-.75-.94h-1.69l-2.09-3.5-.54,1.16-.56-.1-2.07,3.1-1,4.41L214,25.61,215.13,45l2.53,13.42,5,5.07,3.49,1.55s.64.24.54-3.8c0,0,.47-1.22.75-.09,0,0-.08,4.71.66,4.41l3.29-2.16,7.51-11.55,4-16.14V21.48l-3.47-3.29-.47,1.6-.66.84L238,22.7l-.84.19-.57,4.31h-.84l-.34,1.37s3.92,5.08,4.09,7.55c0,0-.48,11.22-6.89,17.64l-2.87,1.89a15.47,15.47,0,0,1-9.48.09l-1.41-3.66-.47-1.6.28-2.25-1.12-3.85-1.22-14.83s-.2-3.32-.2-3.6.19-1.31.19-1.31l.25-1.83S222.22,21.74,226.13,22.59Z"/><path class="e1833cd2-511e-472b-bb3d-03adf32059e1" d="M219.33,15.16s-10.48-.31-16.79,4h-.93s-6.78,3.23-9.4,17.25S202.38,63.08,207.77,64s3.55-.77,9.1,1.85,9.26-.77,9.26-.77.26-1.83-2.08-1.83l-.85-.56-.84-1.32h-1l-.47-1.4a12.79,12.79,0,0,1-3.19-6.86l-1.14-7.5-.08-1.32c-.9,0-1.56-11.81-1.19-14.44,0,0-.69-4.34-.12-6.12l.56-2.25.47-2.16,1-1.6,1-1.5.56.1Z"/><path class="e1833cd2-511e-472b-bb3d-03adf32059e1" d="M240,17.07a39.79,39.79,0,0,1,12.86,7.13h.66s11.17,7.23,2.25,26.94c0,0-7,13.14-19.24,14.46A18,18,0,0,1,234,65s-3.76-.56-5.92.57l1.5-1.69.38-2.07,2.72-1.69.19-2.91.56-.65.38-.76,1.59-1.5V53l.85-2.25,1-.19c.62.08,5.08-11.68,4-15.36l-.18-1.82-.19-3.75-.09-1.38.28-2.76-.56-.93.47-2.73-1.13-2.06-.47-1.6Z"/></svg>