<svg xmlns="http://www.w3.org/2000/svg" viewBox="0 0 1200 680"><defs><style>.a73245e5-e845-4c6b-81d7-03150c7fa3a9{isolation:isolate;}.b1c9e1fd-d0a3-48c5-adfe-73a593807f7a{fill:#ffdf00;}.e27790a6-9928-43a1-b687-1134e6844038{fill:#283e42;}.baaee842-49ce-4e14-ac77-00589c3a1abd{fill:#9a0056;}.bab28b1f-67f5-4c01-8c5a-b69f87fd6bc6{fill:#00a7a2;}.ea1f2771-252c-45ec-b65c-e560225766c0{fill:#dbdbdb;mix-blend-mode:multiply;}.f15d65e7-3977-4c35-926d-8917fe3e13e1{fill:#fff;}</style></defs><g class="a73245e5-e845-4c6b-81d7-03150c7fa3a9"><g id="a8c24948-d6d1-44a6-b37b-b1c955787f52" data-name="Layer 1"><polygon class="b1c9e1fd-d0a3-48c5-adfe-73a593807f7a" points="956.16 276.86 897.72 284.56 915.18 301.01 764.61 459.32 790.83 473.76 935.08 319.76 951.93 335.63 956.16 276.86"/><polygon class="b1c9e1fd-d0a3-48c5-adfe-73a593807f7a" points="957.23 155.93 898.79 163.63 916.25 180.08 808.48 293.44 796.71 236.19 703.61 333.58 724.48 352.84 779.59 292.91 791.9 352.84 936.15 198.83 953.01 214.71 957.23 155.93"/><path class="e27790a6-9928-43a1-b687-1134e6844038" d="M486.23,337.05a39.87,39.87,0,0,1-32.51-62.93,1.61,1.61,0,0,1,2.62,1.86,36.65,36.65,0,1,0,66.55,21.21V145.76a1.61,1.61,0,0,1,3.21,0V297.19A39.91,39.91,0,0,1,486.23,337.05Z"/><path class="e27790a6-9928-43a1-b687-1134e6844038" d="M486.5,322.07a23.3,23.3,0,0,1-23.27-23.27,1.61,1.61,0,1,1,3.21,0,20.08,20.08,0,0,0,20.06,20.06,19.84,19.84,0,0,0,12.58-4.43,1.61,1.61,0,1,1,2,2.5A23.33,23.33,0,0,1,486.5,322.07Z"/><path class="e27790a6-9928-43a1-b687-1134e6844038" d="M560.21,304.15a22.1,22.1,0,0,1-22.07-22.08V146.43a1.61,1.61,0,0,1,3.21,0V282.07a18.86,18.86,0,1,0,18.86-18.86,1.61,1.61,0,1,1,0-3.21,22.08,22.08,0,0,1,0,44.15Z"/><path class="e27790a6-9928-43a1-b687-1134e6844038" d="M498.42,374.81a1.6,1.6,0,0,1-.5-3.12,45,45,0,0,0,30.85-42.8V142.82a1.61,1.61,0,0,1,3.21,0V328.89a48.22,48.22,0,0,1-33.06,45.84A1.42,1.42,0,0,1,498.42,374.81Z"/><path class="baaee842-49ce-4e14-ac77-00589c3a1abd" d="M510.45,151.25s-5.62-28.9-9.63-61.4S498.41,43.7,530.11,2.77h1.23C563,43.7,564.65,57.34,560.63,89.85s-9.63,61.4-9.63,61.4Z"/><path class="e27790a6-9928-43a1-b687-1134e6844038" d="M652.87,75.8h5.35a0,0,0,0,1,0,0V230.94a.83.83,0,0,1-.83.83h-3.68a.83.83,0,0,1-.83-.83V75.8A0,0,0,0,1,652.87,75.8Z" transform="matrix(1, 0, 0, 1, 0.17, -0.7)"/><polygon class="e27790a6-9928-43a1-b687-1134e6844038" points="840.59 478.05 655.45 211.58 496 409.56 427.51 360.33 178.16 679.23 714.31 678.16 855.57 545.47 840.59 478.05"/><polygon class="bab28b1f-67f5-4c01-8c5a-b69f87fd6bc6" points="496 409.56 427.51 360.33 178.16 679.23 436.76 678.72 477.81 603.25 438.21 632.15 574.12 397.79 544.16 411.7 655.45 211.58 496 409.56"/><path class="baaee842-49ce-4e14-ac77-00589c3a1abd" d="M290.26,579.84v66a13.45,13.45,0,0,0,13.45,13.44h12.61a31,31,0,0,1,28.52,18.86H210a31,31,0,0,1,28.53-18.86h12.61a13.44,13.44,0,0,0,13.44-13.44v-66Z"/><path class="baaee842-49ce-4e14-ac77-00589c3a1abd" d="M125.79,429.43c-25.6,13.22-31.41,52.88-13,88.6s54.14,54,79.74,40.73,31.41-52.88,13-88.59S151.39,416.22,125.79,429.43Zm60.87,117.92c-18.95,9.78-47.54-6.35-62.44-35.21s-11.48-61.51,7.46-71.29,47.54,6.34,62.44,35.21S205.6,537.57,186.66,547.35Z"/><path class="baaee842-49ce-4e14-ac77-00589c3a1abd" d="M344,470.17c-18.43,35.71-12.62,75.38,13,88.59s61.31-5,79.74-40.73,12.62-75.38-13-88.6S362.4,434.46,344,470.17Zm11.42,5.89c14.9-28.87,43.49-45,62.43-35.21s22.36,42.42,7.46,71.29-43.49,45-62.44,35.21S340.48,504.93,355.38,476.06Z"/><circle class="ea1f2771-252c-45ec-b65c-e560225766c0" cx="669.52" cy="527.69" r="95.78" transform="translate(-177.04 627.98) rotate(-45)"/><circle class="baaee842-49ce-4e14-ac77-00589c3a1abd" cx="657.59" cy="509.62" r="95.78" transform="translate(12.69 1035.2) rotate(-76.95)"/><circle class="f15d65e7-3977-4c35-926d-8917fe3e13e1" cx="657.59" cy="509.62" r="71.16" transform="translate(12.14 1034.52) rotate(-76.89)"/><circle class="baaee842-49ce-4e14-ac77-00589c3a1abd" cx="657.59" cy="509.62" r="39.6" transform="translate(11.43 1033.64) rotate(-76.82)"/><path class="b1c9e1fd-d0a3-48c5-adfe-73a593807f7a" d="M616.06,376.07h5.35a0,0,0,0,1,0,0v142.3a.83.83,0,0,1-.83.83h-3.68a.83.83,0,0,1-.83-.83V376.07A0,0,0,0,1,616.06,376.07Z" transform="translate(-142.94 392.34) rotate(-31.73)"/><polygon class="b1c9e1fd-d0a3-48c5-adfe-73a593807f7a" points="584.32 391.94 566.43 391.68 541.1 350.73 559 350.98 584.32 391.94"/><polygon class="b1c9e1fd-d0a3-48c5-adfe-73a593807f7a" points="584.34 391.93 592.11 375.8 566.78 334.84 559.02 350.97 584.34 391.93"/><polygon class="b1c9e1fd-d0a3-48c5-adfe-73a593807f7a" points="564.08 359.16 571.85 343.04 566.78 334.84 559.02 350.97 564.08 359.16"/><polygon class="b1c9e1fd-d0a3-48c5-adfe-73a593807f7a" points="584.34 391.93 592.11 375.8 587.05 367.61 579.28 383.74 584.34 391.93"/><polygon class="b1c9e1fd-d0a3-48c5-adfe-73a593807f7a" points="574.21 375.55 581.98 359.42 576.91 351.23 569.15 367.35 574.21 375.55"/><polygon class="e27790a6-9928-43a1-b687-1134e6844038" points="714.31 678.16 870.02 403.67 1043.38 678.16 714.31 678.16"/><path class="baaee842-49ce-4e14-ac77-00589c3a1abd" d="M383.37,380.66H171.48a8.3,8.3,0,0,1-8.3-8.29h0a8.3,8.3,0,0,1,8.3-8.29H383.37a8.29,8.29,0,0,1,8.29,8.29h0A8.29,8.29,0,0,1,383.37,380.66Z"/><path class="baaee842-49ce-4e14-ac77-00589c3a1abd" d="M230.6,372.37a8.31,8.31,0,0,1,8.3-8.3H171.48a8.3,8.3,0,1,0,0,16.59H238.9A8.3,8.3,0,0,1,230.6,372.37Z"/><path class="b1c9e1fd-d0a3-48c5-adfe-73a593807f7a" d="M379.89,380.66H175l7.26,116a95.39,95.39,0,0,0,95.21,89.45h0a95.41,95.41,0,0,0,95.22-89.45Z"/><path class="b1c9e1fd-d0a3-48c5-adfe-73a593807f7a" d="M227.15,496.68l-7.25-116H175l7.26,116a95.39,95.39,0,0,0,95.21,89.45h0a95.72,95.72,0,0,0,22.47-2.67A95.44,95.44,0,0,1,227.15,496.68Z"/><polygon class="bab28b1f-67f5-4c01-8c5a-b69f87fd6bc6" points="714.31 678.16 801.85 678.16 851.29 521.92 835.24 530.48 870.02 403.67 714.31 678.16"/><path class="bab28b1f-67f5-4c01-8c5a-b69f87fd6bc6" d="M870.55,483.4H1098c-12.31-17.13-36.39-28.36-58.86-16.59,19.26-71.17-74.91-76.52-83.47-16.05-8.56-14.45-29.43,0-25.68,12.3-10.17-11.77-30-5.35-28.9,9.64C883.53,463.47,870,477.51,870.55,483.4Z"/><path class="bab28b1f-67f5-4c01-8c5a-b69f87fd6bc6" d="M229.53,325h198c0-11.23-18.73-19.79-30.5-17.12,13.38-46.55-64.74-65.28-68.49-5.88-5.88-15-30-8.56-30,6.95-15.52-23-50.3-13.91-55.12,10.17C235.15,313.78,229.53,325,229.53,325Z"/><polygon class="baaee842-49ce-4e14-ac77-00589c3a1abd" points="652.11 153.75 652.11 73.89 658.38 73.89 750.63 113.42 658.33 153.8 652.11 153.75"/><circle class="b1c9e1fd-d0a3-48c5-adfe-73a593807f7a" cx="530.11" cy="56.54" r="13.24"/><circle class="bab28b1f-67f5-4c01-8c5a-b69f87fd6bc6" cx="530.11" cy="56.54" r="9.63"/><path class="b1c9e1fd-d0a3-48c5-adfe-73a593807f7a" d="M507.14,132.79c1.91,11.26,3.31,18.46,3.31,18.46H551s1.4-7.2,3.3-18.46Z"/><path class="baaee842-49ce-4e14-ac77-00589c3a1abd" d="M507.15,132.81c-14.72-14.6-31.12-1.18-26.76,19.45,3.95,18.65,18.12,38.18,33.78,45.11a2.91,2.91,0,0,0,4.07-3.17C515.36,178.81,507.15,132.81,507.15,132.81Z"/><path class="baaee842-49ce-4e14-ac77-00589c3a1abd" d="M489.09,157.75c-3.51-16.58,6.39-28.47,18.05-24.94-14.72-14.6-31.11-1.18-26.75,19.45C484.27,170.57,498,189.7,513.32,197,501.73,187.77,492.21,172.49,489.09,157.75Z"/><path class="baaee842-49ce-4e14-ac77-00589c3a1abd" d="M554.43,132.81c14.72-14.6,31.12-1.18,26.75,19.45-3.94,18.65-18.12,38.18-33.78,45.11a2.91,2.91,0,0,1-4.07-3.17C546.21,178.81,554.43,132.81,554.43,132.81Z"/><path class="baaee842-49ce-4e14-ac77-00589c3a1abd" d="M572.49,157.75c3.5-16.58-6.4-28.47-18.06-24.94,14.72-14.6,31.12-1.18,26.75,19.45-3.87,18.31-17.61,37.44-32.93,44.69C559.84,187.77,569.37,172.49,572.49,157.75Z"/><rect class="b1c9e1fd-d0a3-48c5-adfe-73a593807f7a" x="333.76" y="391.42" width="22.87" height="85.08" rx="3.56"/><rect class="b1c9e1fd-d0a3-48c5-adfe-73a593807f7a" x="308.08" y="391.42" width="22.87" height="22.87" rx="3.56"/><path class="baaee842-49ce-4e14-ac77-00589c3a1abd" d="M231.4,521.6l2.9-21.87h-9.15v-6.58h10.16L237.42,477h-9.59v-6.58h10.6l2.9-21.32h6.48L245,470.38h11.62l2.89-21.32h6.59l-2.79,21.32h9.15V477H262.31l-2,16.19h9.59v6.58H259.3l-2.9,21.87h-6.7l2.91-21.87H241l-2.9,21.87Zm22.21-28.45L255.73,477H244.12L242,493.15Z"/><path class="baaee842-49ce-4e14-ac77-00589c3a1abd" d="M306.58,433.52h-.3L288.75,443l-2.64-10.39,22-11.79h11.63V521.6H306.58Z"/></g></g></svg>