<svg id="a56efe86-1fe5-48c0-84dd-a1e5cdb245d7" data-name="Layer 1" xmlns="http://www.w3.org/2000/svg" viewBox="0 0 735.29 665.26"><path d="M306.13,611.21s23.66-9.52,33.36,15.86v21.12s-13.76,8.34-32.78,2.57Z" style="fill:#ffe100"/><path d="M322.6,610.26l-.5-1V607.6l-1.05-.58-1.28-.47-.93-1.17h-2.1L314.15,601l-.67,1.44-.7-.12-2.57,3.85-1.28,5.48-1.4,2.33,1.4,24.15,3.15,16.68,6.18,6.3,4.33,1.93s.8.29.68-4.73c0,0,.58-1.52.93-.12,0,0-.11,5.86.82,5.48L329.1,661l9.33-14.35,5-20.06V608.88l-4.32-4.08-.58,2-.82,1.05-.35,2.57-1.05.23-.7,5.37h-1.05l-.42,1.69s4.87,6.32,5.09,9.39c0,0-.6,13.94-8.57,21.92l-3.56,2.35a19.26,19.26,0,0,1-11.78.12l-1.75-4.55-.58-2,.35-2.8-1.4-4.78-1.52-18.43s-.25-4.12-.25-4.47.24-1.63.24-1.63l.3-2.27S317.73,609.21,322.6,610.26Z" style="fill:#4c4c4c"/><path d="M314.15,601s-13-.38-20.87,5h-1.15s-8.42,4-11.68,21.44,12.64,33.12,19.34,34.27,4.4-1,11.3,2.3,11.51-1,11.51-1,.33-2.28-2.58-2.28l-1-.7-1.05-1.63h-1.28l-.58-1.75s-2.92-2.68-4-8.52l-1.41-9.32-.1-1.65c-1.12,0-1.94-14.67-1.48-17.94,0,0-.85-5.39-.15-7.61l.7-2.8.58-2.68,1.28-2,1.28-1.87.7.12Z" style="fill:#00a7a2"/><path d="M339.84,603.4a49.4,49.4,0,0,1,16,8.87h.82s13.88,9,2.8,33.48c0,0-8.75,16.33-23.91,18a23.54,23.54,0,0,1-3.15-.7s-4.67-.7-7.35.7l1.87-2.1.47-2.57,3.38-2.1.23-3.62.7-.82.47-.93,2-1.87v-1.63l1.05-2.8,1.28-.23c.77.1,6.31-14.51,5-19.09l-.23-2.26L341,619l-.12-1.71.35-3.43-.7-1.17.58-3.38-1.4-2.57-.58-2Z" style="fill:#00a7a2"/><path d="M101.19,304.11A50.91,50.91,0,1,1,152.1,253.2,51,51,0,0,1,101.19,304.11Zm0-93.19a42.28,42.28,0,1,0,42.28,42.28A42.33,42.33,0,0,0,101.19,210.92Z" style="fill:#203e45"/><path d="M300.8,478.39a29.87,29.87,0,1,1,29.87-29.87A29.9,29.9,0,0,1,300.8,478.39Zm0-54.67a24.81,24.81,0,1,0,24.81,24.81A24.84,24.84,0,0,0,300.8,423.72Z" style="fill:#9b0056"/><path d="M542.59,591a66.07,66.07,0,1,1,66.07-66.07A66.15,66.15,0,0,1,542.59,591Zm0-121a54.87,54.87,0,1,0,54.87,54.87A54.93,54.93,0,0,0,542.59,470Z" style="fill:#00a8a3"/><path d="M575.93,311.8a50.91,50.91,0,1,1,50.91-50.91A51,51,0,0,1,575.93,311.8Zm0-93.19a42.28,42.28,0,1,0,42.28,42.28A42.33,42.33,0,0,0,575.93,218.61Z" style="fill:#00a8a3"/><path d="M363.14,521.83a59,59,0,1,1,59-59A59.05,59.05,0,0,1,363.14,521.83Zm0-108a49,49,0,1,0,49,49A49,49,0,0,0,363.14,413.84Z" style="fill:#ffe100"/><path d="M157.48,330.5a38.88,38.88,0,1,1,38.88-38.88A38.92,38.92,0,0,1,157.48,330.5Zm0-71.17a32.29,32.29,0,1,0,32.29,32.29A32.33,32.33,0,0,0,157.48,259.33Z" style="fill:#ffe100"/><path d="M496,318.47a66.07,66.07,0,1,1,66.07-66.07A66.15,66.15,0,0,1,496,318.47Zm0-120.94a54.87,54.87,0,1,0,54.87,54.87A54.93,54.93,0,0,0,496,197.53Z" style="fill:#ffe100"/><path d="M328.29,101.82A50.91,50.91,0,1,1,379.2,50.91,51,51,0,0,1,328.29,101.82Zm0-93.19a42.28,42.28,0,1,0,42.28,42.28A42.33,42.33,0,0,0,328.29,8.63Z" style="fill:#00a8a3"/><path d="M391.14,564.16A38.88,38.88,0,1,1,430,525.28,38.92,38.92,0,0,1,391.14,564.16Zm0-71.17a32.29,32.29,0,1,0,32.29,32.29A32.33,32.33,0,0,0,391.14,493Z" style="fill:#203e45"/><path d="M164.73,520A50.91,50.91,0,1,1,215.64,469,51,51,0,0,1,164.73,520Zm0-93.19A42.28,42.28,0,1,0,207,469,42.33,42.33,0,0,0,164.73,426.76Z" style="fill:#00a8a3"/><path d="M137.51,549.42a29.87,29.87,0,1,1,29.87-29.87A29.9,29.9,0,0,1,137.51,549.42Zm0-54.68a24.81,24.81,0,1,0,24.81,24.81A24.84,24.84,0,0,0,137.51,494.74Z" style="fill:#203e45"/><path d="M344.79,589a14.15,14.15,0,1,1,14.15-14.15A14.17,14.17,0,0,1,344.79,589Zm0-25.9a11.75,11.75,0,1,0,11.75,11.75A11.76,11.76,0,0,0,344.79,563.09Z" style="fill:#9b0056"/><path d="M451.21,573.67a17.84,17.84,0,1,1,17.84-17.84A17.86,17.86,0,0,1,451.21,573.67Zm0-32.65A14.81,14.81,0,1,0,466,555.83,14.82,14.82,0,0,0,451.21,541Z" style="fill:#203e45"/><path d="M56.5,509.41A19.81,19.81,0,1,1,76.31,489.6,19.83,19.83,0,0,1,56.5,509.41Zm0-36.27A16.46,16.46,0,1,0,73,489.6,16.48,16.48,0,0,0,56.5,473.14Z" style="fill:#203e45"/><path d="M14.15,524.2A14.15,14.15,0,1,1,28.3,510.05,14.17,14.17,0,0,1,14.15,524.2Zm0-25.9A11.75,11.75,0,1,0,25.9,510.05,11.76,11.76,0,0,0,14.15,498.3Z" style="fill:#00a8a3"/><path d="M70.35,230.64a66.07,66.07,0,1,1,66.07-66.07A66.15,66.15,0,0,1,70.35,230.64Zm0-120.95a54.87,54.87,0,1,0,54.87,54.87A54.93,54.93,0,0,0,70.35,109.69Z" style="fill:#9b0056"/><path d="M116.72,147.13a19.81,19.81,0,1,1,19.81-19.81A19.83,19.83,0,0,1,116.72,147.13Zm0-36.27a16.46,16.46,0,1,0,16.46,16.46A16.48,16.48,0,0,0,116.72,110.86Z" style="fill:#203e45"/><path d="M593.52,149.66a38.88,38.88,0,1,1,38.88-38.88A38.92,38.92,0,0,1,593.52,149.66Zm0-71.17a32.29,32.29,0,1,0,32.29,32.29A32.33,32.33,0,0,0,593.52,78.49Z" style="fill:#203e45"/><path d="M669.22,185.07A66.07,66.07,0,1,1,735.29,119,66.15,66.15,0,0,1,669.22,185.07Zm0-120.94A54.87,54.87,0,1,0,724.09,119,54.93,54.93,0,0,0,669.22,64.13Z" style="fill:#00a7a2"/><path d="M536.81,161.41A14.15,14.15,0,1,1,551,147.26,14.17,14.17,0,0,1,536.81,161.41Zm0-25.9a11.75,11.75,0,1,0,11.75,11.75A11.76,11.76,0,0,0,536.81,135.51Z" style="fill:#00a8a3"/><path d="M414.35,156.54a38.88,38.88,0,1,1,38.88-38.88A38.92,38.92,0,0,1,414.35,156.54Zm0-71.17a32.29,32.29,0,1,0,32.29,32.29A32.33,32.33,0,0,0,414.35,85.37Z" style="fill:#9b0056"/><path d="M382.37,100.56a29.87,29.87,0,1,1,29.87-29.87A29.9,29.9,0,0,1,382.37,100.56Zm0-54.67A24.81,24.81,0,1,0,407.18,70.7,24.84,24.84,0,0,0,382.37,45.89Z" style="fill:#203e45"/><path d="M273.78,124.7a14.15,14.15,0,1,1,14.15-14.15A14.17,14.17,0,0,1,273.78,124.7Zm0-25.9a11.75,11.75,0,1,0,11.75,11.75A11.76,11.76,0,0,0,273.78,98.8Z" style="fill:#00a8a3"/><path d="M630.27,349.56a14.15,14.15,0,1,1,14.15-14.15A14.17,14.17,0,0,1,630.27,349.56Zm0-25.89A11.75,11.75,0,1,0,642,335.42,11.76,11.76,0,0,0,630.27,323.67Z" style="fill:#00a8a3"/><circle cx="319.64" cy="289.55" r="146.84" style="fill:#00a8a3"/><path d="M340.27,352.84V336.33a16.83,16.83,0,0,1-11.19-5.6,16.19,16.19,0,0,1-4.46-11.41,17.26,17.26,0,0,1,2.27-8.71,15.64,15.64,0,0,1,6.31-6.23,16.86,16.86,0,0,1,8.5-2.27,17.32,17.32,0,0,1,8.93,2.41,16.44,16.44,0,0,1,6.38,6.87,20.86,20.86,0,0,1,2.27,9.71A37.07,37.07,0,0,1,355,338.67a31.9,31.9,0,0,1-5.17,7.23,43.31,43.31,0,0,1-4,3.68A32.89,32.89,0,0,1,340.27,352.84Zm41.94,0V336.33a19.38,19.38,0,0,1-11.34-5.88,16,16,0,0,1-4.18-11.12,17,17,0,0,1,2.27-8.57,16.71,16.71,0,0,1,6.09-6.31,16.33,16.33,0,0,1,8.43-2.34,17.89,17.89,0,0,1,9.14,2.34,16.77,16.77,0,0,1,6.31,6.66A20.89,20.89,0,0,1,401.2,321q0,15.24-9.56,25.22a21.38,21.38,0,0,1-3.83,3.4A42.07,42.07,0,0,1,382.21,352.84Z" style="fill:#203e45"/><path d="M293.93,230.58v16.65A19.56,19.56,0,0,1,305.62,253a16.37,16.37,0,0,1,4.25,11.41,17.18,17.18,0,0,1-17.36,17.22A16.23,16.23,0,0,1,280,276.07a19.65,19.65,0,0,1-5-13.6A38,38,0,0,1,277.42,249a37.26,37.26,0,0,1,6.94-11.34A40.61,40.61,0,0,1,293.93,230.58Zm-42.08,0v16.65A20.49,20.49,0,0,1,263.61,253a15.78,15.78,0,0,1,4.32,11.34,16.5,16.5,0,0,1-5.1,12.19,17.17,17.17,0,0,1-12.4,5,16.09,16.09,0,0,1-12.4-5.53,19.65,19.65,0,0,1-5-13.6,37.9,37.9,0,0,1,2.55-13.67,34.19,34.19,0,0,1,7.16-11.55A36.88,36.88,0,0,1,251.85,230.58Z" style="fill:#203e45"/></svg>