<svg id="e3682812-bde9-4002-8069-f1592d63dcdb" data-name="Layer 1" xmlns="http://www.w3.org/2000/svg" viewBox="0 0 114.65 649.96"><path d="M30.78,532c.37,1,.88.7,1.28.07s.15-2.22-.21-2.28a4,4,0,0,0-.06-.5c-.21-1.12-.76-1.37-1.07-.49A5.71,5.71,0,0,0,30.78,532Z" style="fill:#00a8a3"/><path d="M52.55,536.31c1.53,1.34,3.35-.94,3.19-6.41-.07-2.27-.44-4.07-1.15-4-.56-1-1.37-1-1.93-.12C51.52,527.63,51,535,52.55,536.31Z" style="fill:#00a8a3"/><path d="M16.89,522.8c1.33,4.47,3.14,3.35,4.35-.65a2.8,2.8,0,0,1,2.24-.73c2.65.57.55-1.67.2-2.3A24.86,24.86,0,0,1,21.74,512c-.41-2.37-.73-5.59-1.47-7.25-1.22-2.75-3.46-1.2-4.09,2.92C15.5,512.05,15.8,519.15,16.89,522.8Z" style="fill:#00a8a3"/><path d="M34.39,536.85c.32,0,.56,1.51.72,2a3.63,3.63,0,0,0,.62,1.31c.5.58,1,.37,1.56.15s1.87-.42-.23-2.38c-.29.12-.62.28-.91.06s-.52-1.2-.74-2.08c-.31-1.22-.74-2-1.25-1.47S32.19,537.06,34.39,536.85Z" style="fill:#00a8a3"/><path d="M7.17,497.43a3.1,3.1,0,0,0,.48.84,20.85,20.85,0,0,0,1.29,3.82,10.64,10.64,0,0,0,2.63,4c.13.11.24,0,.32-.13.56.21,1.71-.38.16-2.35a13,13,0,0,1-1.57-2.69c-.06-.18-.12-.38-.18-.58-.41-1.42-.57-3.26-1-4.69-.28-1-.64-1.7-1-1.84a.67.67,0,0,0-1.14.27A5.58,5.58,0,0,0,7.17,497.43Z" style="fill:#00a8a3"/><path d="M59.44,499.32c.51-1,1.13-.34,1.71-.56a2.62,2.62,0,0,0,1.16-1.43c.35-.78,0-3.18-.34-2.4-.53,1.16-1,1.79-1.66,1.76-.44,0-1-.24-1.22.84-1.84,7.33,0,2.52.35,1.79Z" style="fill:#00a8a3"/><path d="M69.38,516c.3,1.15,1,.53,1.05-.86a5.93,5.93,0,0,0-.28-2.26,11.68,11.68,0,0,0-.74-1.33c-.16-.33-.38-.07-.47.38A6.52,6.52,0,0,0,69.38,516Z" style="fill:#00a8a3"/><path d="M57.89,516.9a5.6,5.6,0,0,1,3.26-.4c1,.12,2.06.52,3.06.1,1.23-.52,2.41-3.7,1.78-7.7s-2.31-3.84-3.21-1c-.56,1.77-.87,4.16-1.7,4.92a9.29,9.29,0,0,1-2.54,1A2.24,2.24,0,0,0,57,515.27C56.33,516.76,55.51,517.58,57.89,516.9Z" style="fill:#00a8a3"/><path d="M5.36,468c0-1.58-.75-5.17-.82,0,0,.15,0,.29,0,.43,0,1.61,0,3.31.1,4.87.08,1.19.35,2.27.79,2.27.24,0,.45-.34.61-.86a6.28,6.28,0,0,0,.4-2.29,8,8,0,0,0-.34-2.55C5.94,469.37,5.36,468.76,5.36,468Z" style="fill:#00a8a3"/><path d="M13,459.17c1.91,5.76-4.44,7.87-1.7,15.44,2,5.63,2.06,7.72,3.63,12.76,2.72,8.7,7.27,17.31,12.28,19.56,3.52,1.58,6.67-.24,8,5.92.53,2.49.76,6.26,1.19,6.16s1.09.27,1.27,3a62.08,62.08,0,0,0,.53,11.39,39,39,0,0,0,1.4,6.31c.42,1.27.89,2.35,1.35,3.45a11.43,11.43,0,0,1,1.27,4.16c.11,1.41.79,1,.8-.33a10.87,10.87,0,0,1,.53-3.34,12.2,12.2,0,0,0,.3-1.53,19.3,19.3,0,0,0,.05-3.14c.1-1-.05-.68.06-1.61.46,1,1.51-3.58,1.57-4.93a25.82,25.82,0,0,0,1.18-3.84c.68-2.93.81-6.79,1.54-9.56,1.05-2,2.09-2.36,6.31-9.61,1.56-2.67,2.44-4.39,4-5.74a4.12,4.12,0,0,1,2.79-1.18c2.27.57,4.57-.07,6.75-2a9.37,9.37,0,0,0,2.67-3.63c.94-2.22,1.61-5.5,2.86-6.17a.37.37,0,0,0,.16-.2c1.21-.79,1.5-.71,2.1-1.86a17.57,17.57,0,0,0,1.51-5,13.85,13.85,0,0,0,1.48-3.54,13,13,0,0,0,.47-3.88c-.54-7.36-3.47,2.73-3.07,1.45.06-.19-2.37.43-2.36.23.65-1.18,10.91-8.06-.2-22.94-9.94-13.31-18.3,6.51-15.62,7.59,1.8.73,2.4-17.86-3.49-14.84l-10.36,6.09L32.14,449C32.64,450.07,10,450.2,13,459.17Zm31.7,75.07v.1l0-.06Z" style="fill:#00a8a3"/><path d="M53.51,488.24c0-.12.08-.45.08-.31,0,1.75,6.11-15.53,10.1-15.91.29,0,.37,1.42.08,1.54-4,1.68-6.13,14.55-10.13,16.12C53.34,489.78,53.3,488.64,53.51,488.24ZM27.2,462.4a17.75,17.75,0,0,1,2.11,4.3c.56,1.65,1,3.55,1.46,5.48.94,4.07,1.73,8.77,3.2,11.18s1,.31.48-.89a1.35,1.35,0,0,0-.09-.32A34.71,34.71,0,0,1,32.21,475c-.57-2.88-.88-6.09-1.31-9.16-.74-5.27-2.06-9.28-3.88-11.1h0a2.53,2.53,0,0,0-.61-.49c-.57-.3-1.49-.61-2,.6C23.38,457.49,26.71,461.66,27.2,462.4Zm-1.14,17c2.58,9.58,6.56,16.85,10.63,17.31,4.54.51.32-1.45,0-1.57-3.91-1.36-7.41-7.88-9.87-17.21C26.35,476.16,25.35,476.79,26.06,479.4ZM44.9,498.11c.19-.84.67-.88,1-1.28a3.84,3.84,0,0,0,.53-2.44c-.09-1-.52-1.37-.81-.93a3.27,3.27,0,0,0-.35,1.14c-.08.48-.12,1.12-.24,1.55a2.53,2.53,0,0,0-.54,1.18C44.26,498.15,44.71,498.93,44.9,498.11Zm22.25-28.86c.38,0,.75-.43,1-1.28s.47-3.39-.37-1.11c-.19.51-.38.84-.64.82S66.82,469.22,67.15,469.25Z" style="fill:#00a8a3"/><polygon points="86.52 0 15.52 0 15.52 74.9 22.36 74.9 22.36 127.27 79.72 127.27 79.72 74.9 86.52 74.9 86.52 0" style="fill:#203e45"/><rect x="21.7" y="121.92" width="58.67" height="25.37" style="fill:#203e45"/><path d="M93.12,149.14h0c-2.84-10.92-20.56-19.34-42-19.34s-39.17,8.42-42,19.35c-.08.2-3.32,8.64,7.79,38.48L46.2,275.38s4.34,13,9.81,0l29.31-87.75C96.58,157.43,93.12,149.14,93.12,149.14Z" style="fill:#ffe100"/><rect x="13.21" y="79.63" width="75.45" height="20.05" style="fill:#9b0056"/><rect x="13.1" y="103.13" width="75.45" height="20.05" style="fill:#00a8a3"/><line x1="51.06" y1="197.16" x2="51.08" y2="281.81" style="fill:none"/><path d="M51.08,282.45c-.54,0-1-.29-1-.65V197.15c0-.36.43-.65,1-.65s1,.29,1,.65V281.8C52.05,282.16,51.61,282.45,51.08,282.45Z" style="fill:#00a8a3"/><circle cx="50.94" cy="187.59" r="12.45" style="fill:#00a8a3"/><path d="M26.11,595.92s23.66-9.52,33.36,15.86v21.11s-13.76,8.34-32.78,2.57Z" style="fill:#ffe100"/><path d="M42.58,595l-.5-1V592.3l-1-.58-1.28-.47-.93-1.17h-2.1l-2.59-4.35-.67,1.44-.7-.12-2.57,3.85-1.28,5.48-1.4,2.33,1.4,24.15,3.15,16.68,6.18,6.3,4.33,1.93s.8.29.68-4.73c0,0,.58-1.52.93-.12,0,0-.11,5.86.82,5.48l4.08-2.68,9.33-14.35,5-20.06V593.58l-4.32-4.08-.58,2-.82,1-.35,2.57-1,.23-.7,5.37h-1l-.42,1.69s4.87,6.32,5.09,9.39c0,0-.6,13.94-8.57,21.92l-3.56,2.35a19.26,19.26,0,0,1-11.78.12l-1.75-4.55-.58-2,.35-2.8-1.4-4.78-1.52-18.43s-.25-4.12-.25-4.47.24-1.63.24-1.63l.3-2.27S37.71,593.91,42.58,595Z" style="fill:#4c4c4c"/><path d="M34.13,585.73s-13-.38-20.87,5H12.11s-8.42,4-11.68,21.44,12.64,33.12,19.34,34.27,4.4-1,11.3,2.3,11.51-1,11.51-1,.33-2.28-2.58-2.28l-1-.7-1.05-1.63H36.62L36,641.4s-2.92-2.68-4-8.52l-1.41-9.32-.1-1.65c-1.12,0-1.94-14.67-1.48-17.94,0,0-.85-5.39-.15-7.61l.7-2.8.58-2.68,1.28-2L32.77,587l.7.12Z" style="fill:#00a7a2"/><path d="M59.82,588.1a49.4,49.4,0,0,1,16,8.87h.82s13.88,9,2.8,33.48c0,0-8.75,16.33-23.91,18a23.54,23.54,0,0,1-3.15-.7s-4.67-.7-7.35.7l1.87-2.1.47-2.57,3.38-2.1L51,638l.7-.82.47-.93,2-1.87v-1.63l1-2.8,1.28-.23c.77.1,6.31-14.51,5-19.08l-.23-2.26L61,603.73,60.87,602l.35-3.43-.7-1.17L61.1,594l-1.4-2.57-.58-2Z" style="fill:#00a7a2"/><ellipse cx="44.09" cy="565.8" rx="8.93" ry="8.74" style="fill:#00a8a3"/><path d="M114.59,381l-.16-2.75c0-.46-.05-.9-.1-1.38l-.18-1.46-.39-2.9c-.08-.49-.12-.94-.23-1.46l-.33-1.54-.71-3.06a16,16,0,0,0-.46-1.57l-.54-1.6-.56-1.59a14.56,14.56,0,0,0-.63-1.59c-.5-1.09-1-2.17-1.55-3.22a28.11,28.11,0,0,0-1.87-3.16,28.38,28.38,0,0,0-2.16-3c-.8-1-1.63-1.91-2.47-2.82s-1.8-1.68-2.72-2.49A38.54,38.54,0,0,0,88,338.72a51.18,51.18,0,0,0-10.57-2.67c-1.67-.29-3.19-.4-4.76-.58s-3-.24-4.44-.3c-2.91-.15-5.56-.19-8.18-.26a84.09,84.09,0,0,1-13.32-1,18.15,18.15,0,0,1-4.35-1.33,8.47,8.47,0,0,1-3-2.44A11.19,11.19,0,0,1,38.29,328a12.47,12.47,0,0,1-.5-1.33L37.37,325c-.3-1.13-.46-2.25-.69-3.4s-.35-2.3-.4-3.45a39.09,39.09,0,0,1,0-7,38.27,38.27,0,0,1,1.28-7,45.06,45.06,0,0,1,6.33-13.49c2.91-4.21,2.6-5.61,6.84-8.84-5,2-5.77,2.38-10,5.93a51.64,51.64,0,0,0-11,12.9,47.78,47.78,0,0,0-3.86,7.94,51.69,51.69,0,0,0-2.47,8.63c-.33,1.48-.49,3-.72,4.47s-.31,3-.34,4.52l-.06,2.27c0,.78.09,1.72.15,2.58a28.61,28.61,0,0,0,1,5.45,27.15,27.15,0,0,0,5.95,10.52,34.48,34.48,0,0,0,9.13,6.88,62.25,62.25,0,0,0,9.07,3.93c2.93,1,5.66,1.86,8.34,2.68S61,362,63.32,362.73c1.2.38,2.25.79,3.35,1.19s2.09.81,3,1.26h0c5.15,1.55,8.83,5.52,8.83,10.18,0,3.61-2.21,6.8-5.6,8.78l0,.05-.28.14-.35.18-14.4,7.32c-.92.51-1.82,1-2.86,1.61L53,394.53l-2,1.21a94.49,94.49,0,0,0-8.67,6,77,77,0,0,0-9,8.29c-1.43,1.63-2.9,3.23-4.21,5l-2,2.67c-.62.92-1.22,1.85-1.82,2.79A84.26,84.26,0,0,0,15.24,444a128,128,0,0,0-3.72,22.19l66.78,1.18c-.75-3.49.92-9.48.65-12.16a36.68,36.68,0,0,1-.17-6.55A12.25,12.25,0,0,1,81,442.4c1.57-2.54,4.57-5.7,8.61-9.62l3.27-3.2,1.74-1.74L96.45,426a81.59,81.59,0,0,0,7.53-9.08c.31-.43.61-.84.91-1.29l.88-1.39c.58-.94,1.16-1.83,1.7-2.82a55.22,55.22,0,0,0,2.92-6.05,50.92,50.92,0,0,0,2.18-6.29c.34-1.06.52-2.1.76-3.15s.45-2.1.61-3.13l.37-3.05c.11-1,.23-2,.24-3l.08-2.91c0-.48,0-1,0-1.44Z" style="fill:#00a8a3"/><path d="M44.18,288.87s8-4.36,8-7.9-1.94,0-1.94,0" style="fill:#00a8a3"/></svg>