<svg id="bd2df3a8-22e4-425f-8a30-e97bd13da6b9" data-name="Layer 1" xmlns="http://www.w3.org/2000/svg" viewBox="0 0 574.95 649.06"><defs><style>.e2113f5c-a5cc-4301-8815-a35af4e0228d{fill:#fbe100;}.ac20af98-f783-44fe-8e8c-bba1a00372d0{fill:#4c4c4c;}.be9b7693-8ec4-4573-a64b-918a1d5a7414{fill:#2ba5a2;}.e72958fc-d210-4663-9ec7-4f6a5fa01f95{fill:#bcc9c9;}.bb1663c3-59ad-4a96-ab30-0300691ed682{fill:#fbe101;}.bdec9099-f03c-4c73-874f-4778af7ba4eb{fill:#ec933f;}.b0e8cfcc-9b64-471e-9446-865f7bbcbe19{fill:#8e1b55;}.a4265978-13db-485a-9d06-0edee4c9b09e{fill:#fff;}</style></defs><path class="e2113f5c-a5cc-4301-8815-a35af4e0228d" d="M293.85,595s23.66-9.52,33.36,15.86V632s-13.76,8.34-32.77,2.56Z"/><path class="ac20af98-f783-44fe-8e8c-bba1a00372d0" d="M310.33,594.06l-.5-1V591.4l-1.05-.58-1.28-.47-.94-1.16h-2.1l-2.59-4.36-.67,1.44-.7-.12L297.93,590l-1.28,5.49-1.4,2.33,1.4,24.14,3.15,16.69,6.18,6.29,4.34,1.93s.79.29.68-4.73c0,0,.58-1.51.93-.11,0,0-.11,5.86.82,5.48l4.08-2.68,9.33-14.35,5-20.06V592.69l-4.32-4.09-.58,2-.82,1-.35,2.56-1.05.24-.7,5.36h-1.05l-.42,1.7s4.87,6.32,5.09,9.38c0,0-.6,14-8.57,21.92l-3.56,2.35a19.22,19.22,0,0,1-11.78.11l-1.75-4.55-.59-2,.35-2.8-1.4-4.78-1.51-18.43s-.26-4.12-.26-4.47.25-1.64.25-1.64l.3-2.27S305.46,593,310.33,594.06Z"/><path class="be9b7693-8ec4-4573-a64b-918a1d5a7414" d="M301.87,584.83s-13-.38-20.87,5h-1.15s-8.42,4-11.68,21.45,12.64,33.12,19.34,34.27,4.41-1,11.3,2.3,11.51-1,11.51-1,.33-2.28-2.59-2.28l-1.05-.7-1.05-1.63h-1.28l-.58-1.75s-2.92-2.68-4-8.51l-1.41-9.32-.11-1.65c-1.12,0-1.93-14.67-1.48-17.94,0,0-.85-5.39-.15-7.6l.7-2.8.58-2.69,1.29-2,1.28-1.87.7.12Z"/><path class="be9b7693-8ec4-4573-a64b-918a1d5a7414" d="M327.56,587.2a49.4,49.4,0,0,1,16,8.87h.82s13.88,9,2.8,33.48c0,0-8.75,16.33-23.92,18a23.5,23.5,0,0,1-3.14-.7s-4.67-.7-7.35.7l1.86-2.1.47-2.57,3.38-2.1.24-3.61.7-.82.46-.93,2-1.87v-1.63l1-2.8,1.29-.23c.77.1,6.31-14.51,5-19.09L329,607.5l-.23-4.67-.12-1.7.35-3.43-.7-1.16.58-3.39-1.4-2.56-.58-2Z"/><path class="be9b7693-8ec4-4573-a64b-918a1d5a7414" d="M229.23,378.47c19.08-.87,71.65,12.95,76.29,61.87s-32.47,63.78-66,66.66-76.31-33.09-73.2-71.94C168.92,402.93,208.1,379.43,229.23,378.47Z"/><path class="e72958fc-d210-4663-9ec7-4f6a5fa01f95" d="M274.07,514.36c-13.48,5.22-8.76,29.26,8.25,31.18s23.19-16.31,19.59-24.46S286.44,509.56,274.07,514.36Z"/><path class="e72958fc-d210-4663-9ec7-4f6a5fa01f95" d="M313.36,552.69c-7.63.47-11.45,9.87-6.78,15s13.69,3.39,16.55-5.92C324.82,556.25,319.73,552.3,313.36,552.69Z"/><path class="bb1663c3-59ad-4a96-ab30-0300691ed682" d="M175.11,295c12.37,3.83,36.08,59,33,70.5s-51,36.93-51,36.93l-11.34,53.72L137.48,414s-29.39,28.78-53.61,1.92-50-48-21.14-65.23C95.72,331,162.73,291.18,175.11,295Z"/><path class="bb1663c3-59ad-4a96-ab30-0300691ed682" d="M372,346.82c27.69-14.48,67-21.59,87.11-5.76,26.41,20.79,19.07,75.78-31.44,88.73C354.3,448.6,308.1,491.18,308.1,491.18s20.1-27.82,14.94-70.5C319.79,393.68,334.39,366.48,372,346.82Z"/><path class="be9b7693-8ec4-4573-a64b-918a1d5a7414" d="M477.69,396.7l13.92-33.1s-37.63-24.94-17-52.76c15.86-21.39,55.5-22.95,76.29-11.51,25.25,13.91,32.47,53.72-1.55,64.27-21.35,6.62-42.27,3.84-42.27,3.84Z"/><path class="e72958fc-d210-4663-9ec7-4f6a5fa01f95" d="M483.87,143c55.75.93,101,46.53,89.18,90.65s-62.37,58-105.16,57.07c-28.9-.65-72.68,35.49-72.68,35.49s30.42-38.37,3.09-73.38C370.68,217.41,397.27,141.55,483.87,143Z"/><path class="e72958fc-d210-4663-9ec7-4f6a5fa01f95" d="M195.72,248S169.44,263.36,155,225,79.74,165.05,28.71,198.14c-39.5,25.61-43.82,101.68,22.68,118S193.15,255.69,195.72,248Z"/><path class="be9b7693-8ec4-4573-a64b-918a1d5a7414" d="M62.73,93.59c11.34-6.19,82.49.4,95.36,2.87,14.95,2.88,25.78,56.12-1.54,53.72-27.72-2.43-25.26,30.21-25.26,30.21s-14.43-20.62-39.18-21.58-40.2,3.36-41.75-20.62S47.78,101.74,62.73,93.59Z"/><path class="e72958fc-d210-4663-9ec7-4f6a5fa01f95" d="M188,128.6s11.86-19.19-9.79-47S182.84,8.22,240.57,1,327.17,35.55,305,67.69,224.07,89.75,188,128.6Z"/><path class="be9b7693-8ec4-4573-a64b-918a1d5a7414" d="M355,1.5c30.42-8.25,150.52,18.26,157.74,61.39,6.19,36.93-19.59,73.86-54.12,71.94s-69.08,7.2-69.08,7.2,39.18-15.35,10.31-24.46-89.18-18.71-80.41-53.72S330.26,8.22,355,1.5Z"/><path class="bdec9099-f03c-4c73-874f-4778af7ba4eb" d="M274.59,105.1c37.63-5.28,95.88,9.59,100,44.6,7.28,61.76-64.43,81.53-64.43,81.53s13.92-29.73-23.2-26.38-70.91-6.24-71.65-47C214.8,129.56,246.86,109,274.59,105.1Z"/><path class="bb1663c3-59ad-4a96-ab30-0300691ed682" d="M274.59,105.1c37.63-5.28,95.88,9.59,100,44.6,7.28,61.76-64.43,81.53-64.43,81.53s13.92-29.73-23.2-26.38-70.91-6.24-71.65-47C214.8,129.56,246.86,109,274.59,105.1Z"/><path class="b0e8cfcc-9b64-471e-9446-865f7bbcbe19" d="M207.58,317.56C205,283,236,250.89,304,248.5c54.64-1.92,90.21,17.26,85.57,56.59-4.27,36.23-103.09,83-103.09,83L301.91,366S211.55,370.72,207.58,317.56Z"/><path class="e72958fc-d210-4663-9ec7-4f6a5fa01f95" d="M150.88,175.12c7-12,41.75-18.23,52.06-.48s-4.12,38.37-27.83,39.81S141.08,191.9,150.88,175.12Z"/><path class="e72958fc-d210-4663-9ec7-4f6a5fa01f95" d="M346.32,224.41c5.31-8.76,21.88-9.33,30.27-1.52,10.64,9.89,3.93,28.53-18.82,25.88C344.68,247.25,339.74,235.23,346.32,224.41Z"/><path class="be9b7693-8ec4-4573-a64b-918a1d5a7414" d="M255.46,213c-13.29-12.37-39.54-11.46-48,2.41-8,13.17-5.23,27.44,5.87,34.46,1.43,1.89,4.54,8.57-10.7,19.68,0,0,32.1-11.19,45.82-18.25C265.34,243.84,268,224.63,255.46,213Z"/><path class="e72958fc-d210-4663-9ec7-4f6a5fa01f95" d="M185.13,152.41c1.49-2.56,8.88-3.88,11.07-.11s-.87,8.17-5.92,8.47A5.48,5.48,0,0,1,185.13,152.41Z"/><path class="e72958fc-d210-4663-9ec7-4f6a5fa01f95" d="M195.19,141.65c.92-1.56,5.45-2.38,6.79-.06s-.54,5-3.63,5.19A3.37,3.37,0,0,1,195.19,141.65Z"/><path class="bb1663c3-59ad-4a96-ab30-0300691ed682" d="M548.82,110.85c-10.57-9.83-31.44-9.11-38.14,1.92-7.23,11.89-3.41,24.93,8.63,29.34l-.11,0s17.53,9.09,26.19,11.57c0,0-6.69-5.08-7.11-10.76C556.05,138.9,559.88,121.14,548.82,110.85Z"/><path class="a4265978-13db-485a-9d06-0edee4c9b09e" d="M393.36,152.06c1.48-2.55,8.88-3.88,11.07-.1s-.87,8.16-5.92,8.47A5.49,5.49,0,0,1,393.36,152.06Z"/><path class="a4265978-13db-485a-9d06-0edee4c9b09e" d="M385.82,166.52c.91-1.57,5.44-2.38,6.78-.06s-.53,5-3.63,5.19A3.36,3.36,0,0,1,385.82,166.52Z"/><path class="bb1663c3-59ad-4a96-ab30-0300691ed682" d="M159.71,57.46c-9.92-9.23-29.5-8.55-35.78,1.8-3.33,5.48-4.16,11.22-2.81,16.13-3.56,5.5-14,5.35-14,5.35,7.21,2.85,22.91,5.91,27,6.69a26.33,26.33,0,0,0,3.36.63C164.36,91.19,172.29,69.16,159.71,57.46Z"/></svg>