<svg id="ba576dd2-a612-4a93-82ea-e55f84c8a431" data-name="Layer 1" xmlns="http://www.w3.org/2000/svg" viewBox="0 0 735.29 665.26"><defs><style>.ab53c71a-6b78-426e-a788-f4fb14264ee4{fill:#fbe100;}.a80e0976-119c-475d-96af-28eb6b9b0f93{fill:#4c4c4c;}.f7d80b28-f4c0-4f70-b887-6abf8c9bd5e3{fill:#2ba5a2;}.bea6d992-497c-4b47-bf72-493be3106029{fill:#bcc9c9;}.ad04946a-9fae-42cf-b6d2-a5375d62e7dc{fill:#8e1b55;}.a280b5c1-dc10-4628-bfc5-ff53b03f0ade{fill:#fff;}.ab5cdc33-34df-4c06-bb94-d449eca011d4{fill:#4e4c4c;}</style></defs><path class="ab53c71a-6b78-426e-a788-f4fb14264ee4" d="M306.13,611.21s23.65-9.52,33.36,15.87v21.11s-13.77,8.34-32.78,2.57Z"/><path class="a80e0976-119c-475d-96af-28eb6b9b0f93" d="M322.6,610.26l-.49-1V607.6l-1.05-.59-1.29-.46-.93-1.17h-2.1L314.15,601l-.68,1.43-.7-.11-2.56,3.85-1.28,5.48-1.4,2.33,1.4,24.15,3.14,16.68,6.19,6.3,4.33,1.92s.8.29.68-4.72c0,0,.59-1.52.94-.12,0,0-.12,5.86.81,5.48L329.1,661l9.34-14.35,5-20.06V608.88l-4.31-4.08-.59,2-.81,1.05-.35,2.57-1.05.23-.7,5.37h-1.05l-.43,1.69s4.88,6.32,5.09,9.39c0,0-.6,13.94-8.57,21.91l-3.56,2.35a19.26,19.26,0,0,1-11.78.12l-1.75-4.55-.58-2,.35-2.8-1.4-4.78-1.52-18.43s-.25-4.12-.25-4.47.24-1.63.24-1.63l.31-2.27S317.73,609.21,322.6,610.26Z"/><path class="f7d80b28-f4c0-4f70-b887-6abf8c9bd5e3" d="M314.15,601s-13-.39-20.87,5h-1.15s-8.43,4-11.68,21.44,12.64,33.13,19.34,34.27,4.4-1,11.29,2.3,11.51-1,11.51-1,.33-2.27-2.58-2.27l-1.05-.7-1-1.64h-1.29L316,656.7s-2.92-2.68-4-8.51l-1.41-9.32-.1-1.65c-1.12,0-1.94-14.67-1.49-17.93,0,0-.84-5.39-.14-7.61l.69-2.8.59-2.68,1.28-2,1.28-1.86.7.11Z"/><path class="f7d80b28-f4c0-4f70-b887-6abf8c9bd5e3" d="M339.84,603.4a49.6,49.6,0,0,1,16,8.86h.81s13.88,9,2.8,33.48c0,0-8.75,16.33-23.91,18a23.54,23.54,0,0,1-3.15-.7s-4.66-.7-7.35.7l1.87-2.1.47-2.56,3.38-2.1.23-3.62.7-.81.47-.94,2-1.86v-1.64l1.05-2.8,1.28-.23c.77.1,6.31-14.51,5-19.09l-.23-2.26L341,619l-.11-1.71.35-3.42-.7-1.17.58-3.38-1.4-2.57-.58-2Z"/><path class="bea6d992-497c-4b47-bf72-493be3106029" d="M101.19,304.11A50.91,50.91,0,1,1,152.1,253.2,51,51,0,0,1,101.19,304.11Zm0-93.19a42.28,42.28,0,1,0,42.28,42.28A42.33,42.33,0,0,0,101.19,210.92Z"/><path class="ad04946a-9fae-42cf-b6d2-a5375d62e7dc" d="M300.8,478.39a29.87,29.87,0,1,1,29.87-29.87A29.9,29.9,0,0,1,300.8,478.39Zm0-54.67a24.81,24.81,0,1,0,24.8,24.8A24.83,24.83,0,0,0,300.8,423.72Z"/><path class="f7d80b28-f4c0-4f70-b887-6abf8c9bd5e3" d="M542.59,591a66.08,66.08,0,1,1,66.07-66.08A66.16,66.16,0,0,1,542.59,591Zm0-121a54.87,54.87,0,1,0,54.87,54.87A54.93,54.93,0,0,0,542.59,470Z"/><path class="f7d80b28-f4c0-4f70-b887-6abf8c9bd5e3" d="M575.93,311.8a50.91,50.91,0,1,1,50.91-50.91A51,51,0,0,1,575.93,311.8Zm0-93.19a42.28,42.28,0,1,0,42.28,42.28A42.33,42.33,0,0,0,575.93,218.61Z"/><path class="ab53c71a-6b78-426e-a788-f4fb14264ee4" d="M363.14,521.83a59,59,0,1,1,59-59A59.07,59.07,0,0,1,363.14,521.83Zm0-108a49,49,0,1,0,49,49A49.05,49.05,0,0,0,363.14,413.84Z"/><path class="ab53c71a-6b78-426e-a788-f4fb14264ee4" d="M157.48,330.5a38.88,38.88,0,1,1,38.88-38.88A38.92,38.92,0,0,1,157.48,330.5Zm0-71.17a32.29,32.29,0,1,0,32.29,32.29A32.33,32.33,0,0,0,157.48,259.33Z"/><path class="ab53c71a-6b78-426e-a788-f4fb14264ee4" d="M496,318.47a66.07,66.07,0,1,1,66.07-66.07A66.15,66.15,0,0,1,496,318.47Zm0-120.94a54.87,54.87,0,1,0,54.87,54.87A54.93,54.93,0,0,0,496,197.53Z"/><path class="f7d80b28-f4c0-4f70-b887-6abf8c9bd5e3" d="M328.29,101.82A50.91,50.91,0,1,1,379.2,50.91,51,51,0,0,1,328.29,101.82Zm0-93.19a42.28,42.28,0,1,0,42.28,42.28A42.33,42.33,0,0,0,328.29,8.63Z"/><path class="bea6d992-497c-4b47-bf72-493be3106029" d="M391.14,564.16A38.88,38.88,0,1,1,430,525.28,38.92,38.92,0,0,1,391.14,564.16Zm0-71.17a32.29,32.29,0,1,0,32.29,32.29A32.33,32.33,0,0,0,391.14,493Z"/><path class="f7d80b28-f4c0-4f70-b887-6abf8c9bd5e3" d="M164.73,520A50.91,50.91,0,1,1,215.64,469,51,51,0,0,1,164.73,520Zm0-93.19A42.28,42.28,0,1,0,207,469,42.33,42.33,0,0,0,164.73,426.76Z"/><path class="bea6d992-497c-4b47-bf72-493be3106029" d="M137.51,549.42a29.87,29.87,0,1,1,29.87-29.87A29.9,29.9,0,0,1,137.51,549.42Zm0-54.68a24.81,24.81,0,1,0,24.81,24.81A24.83,24.83,0,0,0,137.51,494.74Z"/><path class="ad04946a-9fae-42cf-b6d2-a5375d62e7dc" d="M344.79,589a14.15,14.15,0,1,1,14.15-14.14A14.15,14.15,0,0,1,344.79,589Zm0-25.89a11.75,11.75,0,1,0,11.75,11.75A11.76,11.76,0,0,0,344.79,563.09Z"/><path class="a280b5c1-dc10-4628-bfc5-ff53b03f0ade" d="M451.2,573.67A17.84,17.84,0,1,1,469,555.84,17.85,17.85,0,0,1,451.2,573.67Zm0-32.65A14.82,14.82,0,1,0,466,555.84,14.84,14.84,0,0,0,451.2,541Z"/><path class="a280b5c1-dc10-4628-bfc5-ff53b03f0ade" d="M56.5,509.41A19.82,19.82,0,1,1,76.32,489.6,19.83,19.83,0,0,1,56.5,509.41Zm0-36.27A16.46,16.46,0,1,0,73,489.6,16.48,16.48,0,0,0,56.5,473.14Z"/><path class="f7d80b28-f4c0-4f70-b887-6abf8c9bd5e3" d="M14.15,524.19a14.15,14.15,0,1,1,14.14-14.14A14.16,14.16,0,0,1,14.15,524.19Zm0-25.89a11.75,11.75,0,1,0,11.74,11.75A11.76,11.76,0,0,0,14.15,498.3Z"/><path class="ad04946a-9fae-42cf-b6d2-a5375d62e7dc" d="M70.35,230.64a66.08,66.08,0,1,1,66.07-66.08A66.15,66.15,0,0,1,70.35,230.64Zm0-120.95a54.88,54.88,0,1,0,54.87,54.87A54.93,54.93,0,0,0,70.35,109.69Z"/><path class="a280b5c1-dc10-4628-bfc5-ff53b03f0ade" d="M116.72,147.13a19.82,19.82,0,1,1,19.81-19.82A19.84,19.84,0,0,1,116.72,147.13Zm0-36.27a16.46,16.46,0,1,0,16.46,16.45A16.48,16.48,0,0,0,116.72,110.86Z"/><path class="bea6d992-497c-4b47-bf72-493be3106029" d="M593.52,149.66a38.88,38.88,0,1,1,38.88-38.88A38.92,38.92,0,0,1,593.52,149.66Zm0-71.17a32.29,32.29,0,1,0,32.29,32.29A32.33,32.33,0,0,0,593.52,78.49Z"/><path class="f7d80b28-f4c0-4f70-b887-6abf8c9bd5e3" d="M669.21,185.07A66.07,66.07,0,1,1,735.29,119,66.15,66.15,0,0,1,669.21,185.07Zm0-120.94A54.87,54.87,0,1,0,724.09,119,54.93,54.93,0,0,0,669.21,64.13Z"/><path class="f7d80b28-f4c0-4f70-b887-6abf8c9bd5e3" d="M536.81,161.41A14.15,14.15,0,1,1,551,147.26,14.17,14.17,0,0,1,536.81,161.41Zm0-25.9a11.75,11.75,0,1,0,11.75,11.75A11.76,11.76,0,0,0,536.81,135.51Z"/><path class="ad04946a-9fae-42cf-b6d2-a5375d62e7dc" d="M414.35,156.54a38.88,38.88,0,1,1,38.88-38.88A38.92,38.92,0,0,1,414.35,156.54Zm0-71.17a32.29,32.29,0,1,0,32.29,32.29A32.33,32.33,0,0,0,414.35,85.37Z"/><path class="bea6d992-497c-4b47-bf72-493be3106029" d="M382.37,100.56A29.87,29.87,0,1,1,412.23,70.7,29.9,29.9,0,0,1,382.37,100.56Zm0-54.67a24.81,24.81,0,1,0,24.8,24.81A24.84,24.84,0,0,0,382.37,45.89Z"/><path class="f7d80b28-f4c0-4f70-b887-6abf8c9bd5e3" d="M273.78,124.7a14.15,14.15,0,1,1,14.14-14.15A14.17,14.17,0,0,1,273.78,124.7Zm0-25.9a11.75,11.75,0,1,0,11.75,11.75A11.76,11.76,0,0,0,273.78,98.8Z"/><path class="f7d80b28-f4c0-4f70-b887-6abf8c9bd5e3" d="M630.27,349.56a14.15,14.15,0,1,1,14.15-14.14A14.15,14.15,0,0,1,630.27,349.56Zm0-25.89A11.75,11.75,0,1,0,642,335.42,11.76,11.76,0,0,0,630.27,323.67Z"/><circle class="f7d80b28-f4c0-4f70-b887-6abf8c9bd5e3" cx="319.64" cy="289.55" r="146.84"/><path class="ab5cdc33-34df-4c06-bb94-d449eca011d4" d="M340.26,352.84V336.33a16.89,16.89,0,0,1-11.19-5.59,16.23,16.23,0,0,1-4.46-11.41,17.31,17.31,0,0,1,2.26-8.72,15.76,15.76,0,0,1,6.31-6.23,16.86,16.86,0,0,1,8.5-2.27,17.42,17.42,0,0,1,8.93,2.41,16.36,16.36,0,0,1,6.37,6.87,20.89,20.89,0,0,1,2.27,9.71A37.07,37.07,0,0,1,355,338.67a31.6,31.6,0,0,1-5.17,7.23,43.31,43.31,0,0,1-4,3.68A31,31,0,0,1,340.26,352.84Zm41.95,0V336.33a19.38,19.38,0,0,1-11.34-5.88,16,16,0,0,1-4.18-11.12,17,17,0,0,1,2.27-8.57,16.57,16.57,0,0,1,6.09-6.31,16.33,16.33,0,0,1,8.43-2.34,17.89,17.89,0,0,1,9.14,2.34,16.77,16.77,0,0,1,6.31,6.66,20.88,20.88,0,0,1,2.26,9.85q0,15.23-9.56,25.22a21.38,21.38,0,0,1-3.83,3.4A41.15,41.15,0,0,1,382.21,352.84Z"/><path class="ab5cdc33-34df-4c06-bb94-d449eca011d4" d="M293.93,230.58v16.65A19.56,19.56,0,0,1,305.62,253a16.37,16.37,0,0,1,4.25,11.41,17.18,17.18,0,0,1-17.36,17.21A16.29,16.29,0,0,1,280,276.07a19.65,19.65,0,0,1-5-13.6A38,38,0,0,1,277.42,249a37,37,0,0,1,6.95-11.33A40.34,40.34,0,0,1,293.93,230.58Zm-42.08,0v16.65A20.49,20.49,0,0,1,263.61,253a15.8,15.8,0,0,1,4.32,11.34,16.46,16.46,0,0,1-5.1,12.18,17.13,17.13,0,0,1-12.4,5,16.12,16.12,0,0,1-12.4-5.52,19.65,19.65,0,0,1-5-13.6,38,38,0,0,1,2.55-13.68,34.19,34.19,0,0,1,7.16-11.55A37.13,37.13,0,0,1,251.85,230.58Z"/></svg>