<svg id="b7297fbb-a19c-4056-9356-024ba0bce5fd" data-name="aa6c10f6-e0ce-453f-b024-7c04cb304ec0" xmlns="http://www.w3.org/2000/svg" viewBox="0 0 920.2 695.42"><path d="M443.18,642.29s23.66-9.56,33.36,15.94v21.2s-13.76,8.37-32.77,2.58Z" transform="translate(0 -1.15)" style="fill:#fbe100"/><path d="M459.66,641.33l-.5-1v-1.64l-1.05-.59-1.28-.46-.93-1.18h-2.1l-2.6-4.37-.67,1.44-.7-.11-2.57,3.87L446,642.77l-1.4,2.34,1.4,24.25,3.15,16.76,6.18,6.32,4.34,1.93s.79.29.68-4.74c0,0,.58-1.53.93-.12,0,0-.11,5.88.82,5.5l4.08-2.69,9.31-14.4,5-20.15V640l-4.32-4.1-.58,2-.82,1-.35,2.58-1.05.23-.7,5.4h-1.05l-.42,1.69s4.87,6.35,5.09,9.44c0,0-.6,14-8.57,22l-3.56,2.36a19.19,19.19,0,0,1-11.78.12l-1.75-4.57-.59-2,.35-2.81-1.4-4.8L447.48,650s-.25-4.14-.25-4.49.24-1.64.24-1.64l.3-2.28S454.79,640.28,459.66,641.33Z" transform="translate(0 -1.15)" style="fill:#1e363b"/><path d="M451.2,632.06s-13-.38-20.87,5h-1.15s-8.42,4-11.68,21.54,12.64,33.27,19.34,34.41,4.41-.95,11.3,2.31,11.51-1,11.51-1,.33-2.28-2.59-2.28l-1.05-.7-1-1.63h-1.28L453.1,688s-2.92-2.69-4-8.54l-1.41-9.36-.11-1.65c-1.12,0-1.93-14.74-1.48-18,0,0-.85-5.41-.15-7.64l.7-2.81.58-2.69,1.29-2,1.28-1.87.7.11Z" transform="translate(0 -1.15)" style="fill:#2ba5a2"/><path d="M476.89,634.44a49.57,49.57,0,0,1,16,8.9h.82s13.88,9,2.8,33.63c0,0-8.75,16.4-23.91,18.07a22.72,22.72,0,0,1-3.15-.7s-4.67-.7-7.35.7l1.86-2.11.47-2.57,3.38-2.11.24-3.63.7-.81.46-.95,2-1.87v-1.64l1.05-2.82,1.28-.23c.77.1,6.31-14.57,5-19.16l-.23-2.28-.23-4.68-.12-1.72.35-3.43-.7-1.18.58-3.39-1.4-2.58-.58-2Z" transform="translate(0 -1.15)" style="fill:#2ba5a2"/><path d="M383.67,195.46S387.71,56.14,0,1.16H920.2c-387.7,55-383.66,194.57-383.66,194.57Z" transform="translate(0 -1.15)" style="fill:#1e363b"/><path d="M409.42,198.82S412.15,57.06,153.68,1.15l613.44.07C508.65,57.14,511.34,199.07,511.34,199.07Z" transform="translate(0 -1.15)" style="fill:#fbe101"/><ellipse cx="460.94" cy="491.98" rx="11.8" ry="11.85" style="fill:#fbe101"/><ellipse cx="460.94" cy="540.72" rx="11.8" ry="11.85" style="fill:#fbe101"/><ellipse cx="460.94" cy="589.46" rx="11.8" ry="11.85" style="fill:#fbe101"/><path d="M426.57,197.46S428.36,56.72,256.05,1.16l409,.29C492.72,57,494.51,197.74,494.51,197.74Z" transform="translate(0 -1.15)" style="fill:#8e1b55"/><path d="M438,192.8S439.18,55.5,324.31,1.3L597,1.58c-114.92,54.21-113.72,191.5-113.72,191.5Z" transform="translate(0 -1.15)" style="fill:#1e363b"/><polygon points="342.04 191.56 579.47 191.56 483.4 308.06 483.4 456.53 438.08 396.92 438.08 308.08 342.04 191.56" style="fill:#2ba5a2"/></svg>