<svg id="aa6c10f6-e0ce-453f-b024-7c04cb304ec0" data-name="Layer 1" xmlns="http://www.w3.org/2000/svg" viewBox="0 0 920.2 696.57"><defs><style>.eaf59a75-174e-4bc7-aac4-b6552b309ee8{fill:#fbe100;}.a3fabe9b-efa5-40ee-94e1-182e25738c48{fill:#4c4c4c;}.ba2d6eea-0b65-4da3-9f8e-e9084c35be80{fill:#2ba5a2;}.b520e0f4-63b9-4e23-9ab8-4a6072a8e094{fill:#bcc9c9;}.eb557332-63d8-4f4a-9125-9b4e28a5d6d6{fill:#fbe101;}.e556846c-5e91-457b-87e6-4e6fedea58ea{fill:#8e1b55;}.e4103bbe-6cd1-4c7b-8111-3ee072892d99{fill:#fff;}</style></defs><path class="eaf59a75-174e-4bc7-aac4-b6552b309ee8" d="M443.18,642.52s23.66-9.52,33.36,15.87V679.5s-13.76,8.34-32.77,2.57Z"/><path class="a3fabe9b-efa5-40ee-94e1-182e25738c48" d="M459.66,641.57l-.5-1v-1.63l-1.05-.59-1.28-.46-.93-1.17h-2.1l-2.6-4.35-.67,1.43-.7-.11-2.57,3.85L446,643l-1.4,2.33,1.4,24.15,3.15,16.68,6.18,6.3,4.34,1.92s.79.29.68-4.72c0,0,.58-1.52.93-.12,0,0-.11,5.86.82,5.48l4.08-2.68L475.49,678l5-20.06V640.19l-4.32-4.08-.58,2-.82,1-.35,2.57-1.05.23-.7,5.37h-1.05l-.42,1.69s4.87,6.32,5.09,9.39c0,0-.6,13.94-8.57,21.91l-3.56,2.35a19.26,19.26,0,0,1-11.78.12l-1.75-4.55-.59-2,.35-2.8-1.4-4.78-1.51-18.43s-.25-4.12-.25-4.47.24-1.63.24-1.63l.3-2.27S454.79,640.52,459.66,641.57Z"/><path class="ba2d6eea-0b65-4da3-9f8e-e9084c35be80" d="M451.2,632.34s-13-.38-20.87,5h-1.15s-8.42,4-11.68,21.44,12.64,33.13,19.34,34.27,4.41-.95,11.3,2.3,11.51-1,11.51-1,.33-2.27-2.59-2.27l-1.05-.7L455,689.76h-1.28L453.1,688s-2.92-2.68-4-8.51l-1.41-9.32-.11-1.64c-1.12,0-1.93-14.68-1.48-17.94,0,0-.85-5.39-.15-7.61l.7-2.8.58-2.68,1.29-2,1.28-1.86.7.11Z"/><path class="ba2d6eea-0b65-4da3-9f8e-e9084c35be80" d="M476.89,634.71a49.49,49.49,0,0,1,16,8.86h.82s13.88,9,2.8,33.48c0,0-8.75,16.33-23.91,18a23.54,23.54,0,0,1-3.15-.7s-4.67-.7-7.35.7l1.86-2.1.47-2.56,3.38-2.1.24-3.62.7-.81.46-.94,2-1.86v-1.64l1.05-2.8,1.28-.23c.77.1,6.31-14.51,5-19.08l-.23-2.27-.23-4.66-.12-1.71.35-3.42-.7-1.17.58-3.38-1.4-2.57-.58-2Z"/><path class="b520e0f4-63b9-4e23-9ab8-4a6072a8e094" d="M383.67,202.73S387.71,64,0,9.26H920.2C532.5,64,536.54,203,536.54,203Z"/><path class="eb557332-63d8-4f4a-9125-9b4e28a5d6d6" d="M409.42,206.07S412.15,64.92,153.68,9.25l613.44.07c-258.47,55.68-255.78,197-255.78,197Z"/><circle class="eb557332-63d8-4f4a-9125-9b4e28a5d6d6" cx="460.94" cy="494" r="11.8"/><circle class="eb557332-63d8-4f4a-9125-9b4e28a5d6d6" cx="460.94" cy="542.53" r="11.8"/><circle class="eb557332-63d8-4f4a-9125-9b4e28a5d6d6" cx="460.94" cy="591.06" r="11.8"/><path class="e556846c-5e91-457b-87e6-4e6fedea58ea" d="M426.57,204.72S428.36,64.58,256.05,9.26l409,.29C492.72,64.87,494.51,205,494.51,205Z"/><path class="e4103bbe-6cd1-4c7b-8111-3ee072892d99" d="M438,200.07S439.18,56.62,324.31,0L597,.29C482.08,56.92,483.28,200.36,483.28,200.36Z"/><polygon class="ba2d6eea-0b65-4da3-9f8e-e9084c35be80" points="342.04 199.99 579.47 199.99 483.4 315.99 483.4 463.82 438.08 404.47 438.08 316.01 342.04 199.99"/></svg>