<svg id="a292f16d-01f5-49ce-b11b-670e9016f8fb" data-name="Layer 1" xmlns="http://www.w3.org/2000/svg" viewBox="0 0 993.61 700.1"><defs><style>.ab3f5dc2-2022-41f2-be10-cce29030e788{fill:#FFD400;}.b49ece09-7f64-4e46-98ff-3d919746889d{fill:#fff;}.b2abbf8d-d9b0-431d-a0d1-3abae7cd3327{fill:#4c4c4c;}.b63bc46b-37c7-4839-ad94-c6e7b7735677{fill:#bcc9c9;}.e623fe6d-b7ea-4d2b-8a36-29e6b15fa01e{fill:#4e4c4c;}.fdac8b6e-2620-419d-b4a5-1dd51667bdc6{fill:#2ba5a2;}</style></defs><path class="ab3f5dc2-2022-41f2-be10-cce29030e788" d="M609.64,455.42c-2.25-2.1-5.35-1.43-7.81-.15s-1,4.48,1.2,4.61a3.75,3.75,0,0,0,.38,1,4.28,4.28,0,0,0,6.51,1A4.45,4.45,0,0,0,609.64,455.42Z"/><path class="ab3f5dc2-2022-41f2-be10-cce29030e788" d="M477,446.5c-9.29-2.73-20.43,1.87-19.57,12.94.35,4.6,2.61,8.24,6.89,8.11a12.46,12.46,0,0,0,11.74.25C483.05,464.06,486.38,449.26,477,446.5Z"/><path class="ab3f5dc2-2022-41f2-be10-cce29030e788" d="M694.13,474.12c-8-9.05-19.08-6.8-26.53,1.28A44,44,0,0,1,654,476.86c-16.16-1.17-3.41,3.37-1.26,4.66,5.58,3.35,8.8,8.75,11.66,14.43,2.42,4.8,4.34,11.31,8.79,14.67,7.4,5.57,21.05,2.44,25-5.88C702.33,495.86,700.65,481.51,694.13,474.12Z"/><path class="ab3f5dc2-2022-41f2-be10-cce29030e788" d="M587.75,445.54c-2,.06-3.39-3.06-4.31-4.12a9.2,9.2,0,0,0-3.75-2.65c-3.06-1.18-6.36-.76-9.53-.32s-11.4.84,1.33,4.82a15.18,15.18,0,0,1,5.54-.11c2.35.59,3.14,2.44,4.48,4.22,1.86,2.47,4.48,4,7.57,3S601.14,445.15,587.75,445.54Z"/><path class="ab3f5dc2-2022-41f2-be10-cce29030e788" d="M752.74,525.5a10.63,10.63,0,0,0-2.87-1.72c-2-3.1-5.3-5.78-7.77-7.74a46,46,0,0,0-15.93-8.1,2.31,2.31,0,0,0-2,.26c-3.43-.43-10.45.76-1,4.76a47.84,47.84,0,0,1,9.54,5.45q.56.55,1.08,1.17c2.44,2.87,3.39,6.59,5.72,9.5a9.71,9.71,0,0,0,6.19,3.74c2.25.58,5.18.75,6.95-.53C755,530.62,754.64,527.35,752.74,525.5Z"/><path class="ab3f5dc2-2022-41f2-be10-cce29030e788" d="M308.05,541.87c-3.74,2.39-8.23.8-12.38,1.33a18.21,18.21,0,0,0-8.41,3.43c-2.59,1.86-.22,7.65,2.4,5.77,3.87-2.78,7.49-4.31,12.07-4.21,3.22.06,6.84.59,8.84-2,13.54-17.6.2-6.06-2.52-4.31Z"/><path class="ab3f5dc2-2022-41f2-be10-cce29030e788" d="M236.55,501.6c-2.12-2.77-6.89-1.29-7.64,2a5.88,5.88,0,0,0,2,5.43c1.56,1.44,3.6,2,5.3,3.21a2.54,2.54,0,0,0,3.42-.9A7,7,0,0,0,236.55,501.6Z"/><path class="ab3f5dc2-2022-41f2-be10-cce29030e788" d="M319.75,499.65c-7.82,1.29-15.7,1.23-23.6.92-7.29-.29-14.9-1.27-22.17-.26-8.93,1.23-17.54,8.88-13.09,18.48s16.62,9.25,23.24,2.35c4.09-4.25,6.43-10,12.49-11.81,4.56-1.38,13.3-1.72,18.44-2.47,4.24-.32,8.09-1.26,11-3.32C331.07,500,337.06,498,319.75,499.65Z"/><path class="ab3f5dc2-2022-41f2-be10-cce29030e788" d="M763.08,585.06c.12,3.2,4.43,10.45,5,0a5,5,0,0,0,0-.87c-.07-3.25.09-6.69-.52-9.85-.46-2.41-2.09-4.6-4.74-4.61a5.05,5.05,0,0,0-3.72,1.74,6.07,6.07,0,0,0-2.5,4.62,6.94,6.94,0,0,0,2,5.16C759.6,582.27,763.07,583.51,763.08,585.06Z"/><path class="ab3f5dc2-2022-41f2-be10-cce29030e788" d="M980.69,696c-28-6.26-45.68-14.11-61.94-18.72-16.93-4.8-29.06-8.24-39.1-10.92-3.41-2.78-7.67-4.39-12.07-5.67-4.58-1.33-9-2.49-13-5.18-3-2-5.62-4.48-8.73-6.29-7.37-4.33-16.11-2.8-24.05-5.39-8.25-2.7-17.77-7.13-24.35-12.84-27.07-23.49-5.91,1.32-3.54,3.54a22.42,22.42,0,0,1,5,6.44,19.43,19.43,0,0,1,1.33,3.52c0,.09.76,4.09.18,5.66a29.86,29.86,0,0,1-14.45-8.52c-14.21-14.56-5.72-25.5-23.62-43.68-11.49-11.67-18.72-10.94-35.2-26.29-12.25-11.41-12.35-15.62-21.84-25.85-16.36-17.62-43.89-35.07-74.42-39.66-21.41-3.22-40.67.44-48.58-12-3.2-5.05-4.5-12.67-7.13-12.48-2.1.16-4.26,5.27-3.56,9.81,1.24,8,11,11.06,10.25,12.92-1.17,3-27-1.69-27.19-8-.11-3.46,7.51-4.06,11.15-8.92,1.91-2.56,2.73-6.35,1.66-11.92a43.13,43.13,0,0,0-2.94-23.05,41.36,41.36,0,0,0-8.39-12.78,81.39,81.39,0,0,0-8.17-7c-2.88-2.28-6.83-4.61-7.64-8.43-.61-2.85-4.81-2.06-4.92.66-.13,3.42-1.4,4.17-3.29,6.75a11.53,11.53,0,0,0-1.85,3.09,13.51,13.51,0,0,0-.4,6.35c-.61,2.09-1.26,4.09-2,6-2.8-2-5.95-3.86-5.74-7.09.18-2.77-.48-13.4-4.91-.66-.87,2.51,0,4.4,1.06,6.9,1.18,2.94,1.8,5.36,1.46,8.09a39.18,39.18,0,0,0-7.28,7.76c-4.19,5.93-5.09,13.74-9.62,19.32-6.45,4.07-12.77,4.77-38.69,19.39-9.56,5.4-15,8.86-24.51,11.59-7.52,2.16-11.65,2.15-17,2.37a112.72,112.72,0,0,0-41.21,4c-5.72,1.68-11.61,3.62-16.38,7.32-5.77,4.47-10,11.11-17.61,12.45a2.34,2.34,0,0,0-1,.4c-7.41,1.59-9.14,1.43-12.84,3.73a26.51,26.51,0,0,0-9.31,10c-3.13,2.19-6.8,3.78-9.1,7.16a18.79,18.79,0,0,0-3,7.85c-.51,3.27-.17,6.8-2.64,9.38a2.56,2.56,0,0,0-.65,1.19c-4,2.39-7.66,2.55-11.8,2.1a2.19,2.19,0,0,1-.93-.91c-.35-1,.47-1.7.66-2.57a5,5,0,0,0,.07-2.89c-.71-2.25-3-3.2-5.15-3.41-6-.59-10.24,3.77-13.39,8.31C260,580.2,251.86,592.18,234,607.62a20.16,20.16,0,0,0-5.72,2.86l-.07,0c-4.34.52-11.7,1.74-7-6.31a20.46,20.46,0,0,1,1.88-1.84,27.77,27.77,0,0,1,4-2.45,2.26,2.26,0,0,0,.95-.84c39.91-23.64-2-4.33-4.8-3a23.32,23.32,0,0,0-6.52,4.73,41.5,41.5,0,0,0-9.87,13.21c-1,2.06-.55,4-2.48,5.38-1.3.9-7.51,1.92-10.94,2.93a11.1,11.1,0,0,0-2.84.92c-3.12,1.54-4.74,4.47-6.77,7.14-5.35,7.05-12.64,12.74-21.6,14-4.08.55-8.24.33-12.31,1.06a28.69,28.69,0,0,0-11.43,5.12c-5.38,3.75-10.61,7.51-16.1,11A45.92,45.92,0,0,1,110.35,663c-18.48-.12-25.13-8.92-41.45-11.14C57.93,650.35,29,695.05,0,700.09c0,0,0,0,0,0H993.61C990.6,698.06,986.1,697.17,980.69,696ZM524.88,450.74c0-.07,0-.13,0-.2l.15.12Z"/><path class="b49ece09-7f64-4e46-98ff-3d919746889d" d="M413.56,559.08a2.62,2.62,0,0,1-.79,1c-28.95,22-59.36,49.46-97.72,50.63-2.77.09-3.47-4.52-.66-4.91,38.23-5.29,59.46-46.34,98-51.3C415.17,554.15,415.52,557.8,413.56,559.08Zm251.91,82.76c-7.34-3.73-14.27-7.9-20.12-13.75a119,119,0,0,1-13.87-17.51c-8.86-13-16.29-28-30.34-35.7-13.42-7.36-9.28-1-4.6,2.82a2.7,2.7,0,0,0,.81,1,79.46,79.46,0,0,1,20.43,22.86C623.19,610.78,626,621,630,630.83c6.91,16.82,19.47,29.62,36.86,35.46a.53.53,0,0,1,.12,0,36.39,36.39,0,0,0,5.89,1.56c5.44,1,14.26,2,18.89-1.88C702.05,657.54,670.12,644.19,665.47,641.84Zm11.66-54.22C652.66,557,614.7,533.78,575.61,532.27c-43.65-1.69-3.16,4.63,0,5,37.57,4.37,71,25.22,94.21,55C674.22,597.93,683.78,595.93,677.13,587.62ZM496.64,527.7c-1.9,2.67-6.43,2.8-9.25,4.08s-6.08,4.23-5.16,7.78c.84,3.27,4.94,4.37,7.73,3a8.2,8.2,0,0,0,3.43-3.61c.82-1.54,1.2-3.57,2.35-4.93a10.5,10.5,0,0,0,5.22-3.77C502.82,527.59,498.49,525.09,496.64,527.7Zm-215,91.77a12.63,12.63,0,0,0-9.69,4.06c-2.18,2.37-4.69,10.8,3.53,3.54a8.68,8.68,0,0,1,6.16-2.6C284.88,624.57,284.88,619.57,281.67,619.47Z"/><polygon class="b2abbf8d-d9b0-431d-a0d1-3abae7cd3327" points="591.92 0 482.06 0 482.06 115.89 492.65 115.89 492.65 196.94 581.4 196.94 581.4 115.89 591.92 115.89 591.92 0"/><rect class="b63bc46b-37c7-4839-ad94-c6e7b7735677" x="491.63" y="188.66" width="90.79" height="39.25"/><path class="e623fe6d-b7ea-4d2b-8a36-29e6b15fa01e" d="M602.14,230.79h0c-4.4-16.9-31.82-29.93-65-29.93s-60.61,13-65,29.94c-.12.3-5.14,13.37,12.06,59.54l45.36,135.79s6.71,20.09,15.17,0l45.37-135.79C607.49,243.61,602.14,230.79,602.14,230.79Z"/><rect class="fdac8b6e-2620-419d-b4a5-1dd51667bdc6" x="478.49" y="123.22" width="116.76" height="31.02"/><rect class="fdac8b6e-2620-419d-b4a5-1dd51667bdc6" x="478.31" y="159.58" width="116.76" height="31.02"/><line class="ab3f5dc2-2022-41f2-be10-cce29030e788" x1="537.06" y1="305.59" x2="537.09" y2="501.77"/><path class="ab3f5dc2-2022-41f2-be10-cce29030e788" d="M537.09,503.27a1.5,1.5,0,0,1-1.5-1.5l0-196.18a1.5,1.5,0,1,1,3,0l0,196.18A1.5,1.5,0,0,1,537.09,503.27Z"/><circle class="ab3f5dc2-2022-41f2-be10-cce29030e788" cx="536.88" cy="290.28" r="19.26"/><path class="b49ece09-7f64-4e46-98ff-3d919746889d" d="M518.13,633.34s23.65-9.52,33.36,15.86v21.11s-13.77,8.34-32.78,2.57Z"/><path class="b2abbf8d-d9b0-431d-a0d1-3abae7cd3327" d="M534.6,632.38l-.5-1v-1.63l-1.05-.58-1.28-.47-.93-1.16h-2.1l-2.59-4.36-.68,1.44-.7-.12-2.56,3.85-1.29,5.48-1.4,2.34,1.4,24.14L524.07,677l6.19,6.3,4.33,1.93s.8.29.68-4.73c0,0,.58-1.51.93-.11,0,0-.11,5.86.82,5.48l4.08-2.68,9.33-14.35,5-20.06V631l-4.32-4.08-.58,2-.81,1.05-.35,2.56-1,.23-.7,5.37h-1l-.43,1.69s4.88,6.33,5.09,9.39c0,0-.6,13.94-8.57,21.92l-3.56,2.34a19.26,19.26,0,0,1-11.78.12L525.59,669l-.58-2,.35-2.8-1.4-4.78L522.44,641s-.25-4.12-.25-4.47.24-1.64.24-1.64l.31-2.27S529.73,631.33,534.6,632.38Z"/><path class="fdac8b6e-2620-419d-b4a5-1dd51667bdc6" d="M526.15,623.15s-13-.38-20.87,5h-1.15s-8.43,4-11.68,21.45,12.63,33.12,19.34,34.27,4.4-1,11.29,2.3,11.51-1,11.51-1,.33-2.28-2.59-2.28l-1-.7-1.05-1.63h-1.29l-.58-1.75s-2.92-2.68-4-8.52L522.66,661l-.1-1.64c-1.12,0-1.94-14.67-1.49-17.94,0,0-.85-5.39-.15-7.61l.7-2.8.59-2.68,1.28-2,1.28-1.87.7.12Z"/><path class="fdac8b6e-2620-419d-b4a5-1dd51667bdc6" d="M551.83,625.52a49.51,49.51,0,0,1,16,8.87h.81s13.88,9,2.8,33.47c0,0-8.75,16.34-23.91,18a23.54,23.54,0,0,1-3.15-.7s-4.67-.7-7.35.7l1.87-2.1.46-2.57,3.39-2.1.23-3.61.7-.82.47-.93,2-1.87V670.2l1-2.8,1.28-.23c.77.1,6.31-14.52,5-19.09l-.24-2.26-.23-4.67-.12-1.7.35-3.43-.7-1.17.59-3.38-1.4-2.56-.59-2Z"/></svg>