<svg id="f576e0df-923d-4a1e-a274-3527d3230f61" data-name="Layer 1" xmlns="http://www.w3.org/2000/svg" viewBox="0 0 83.72 64.27"><path d="M26.11,10.19S49.76.67,59.47,26.06V47.17S45.7,55.51,26.69,49.74Z" style="fill:#ffd400"/><path d="M42.58,9.24l-.49-1V6.61L41,6l-1.29-.46-.93-1.17h-2.1L34.13,0l-.68,1.43-.7-.11L30.19,5.21,28.9,10.69,27.5,13l1.4,24.15,3.16,16.65,6.19,6.3L42.58,62s.8.29.68-4.72c0,0,.58-1.52.93-.12,0,0-.11,5.86.82,5.48L49.09,60l9.34-14.35,5-20.06V7.86L59.12,3.78l-.59,2-.81,1L57.37,9.4l-1,.23L55.62,15h-1l-.43,1.69S59,23,59.23,26.08c0,0-.6,13.94-8.57,21.91l-3.6,2.33a19.26,19.26,0,0,1-11.78.12l-1.75-4.55-.58-2,.35-2.8-1.4-4.78L30.38,17.88s-.25-4.12-.25-4.47.24-1.63.24-1.63l.31-2.27S37.71,8.19,42.58,9.24Z" style="fill:#4c4c4c"/><path d="M34.13,0s-13-.38-20.87,5H12.11S3.68,9,.43,26.45,13.06,59.56,19.77,60.73s4.4-1,11.29,2.3,11.51-1,11.51-1,.33-2.27-2.58-2.27l-1.05-.7-1-1.64H36.65l-.59-1.69s-2.92-2.68-4-8.51L30.65,37.9l-.1-1.65c-1.12,0-1.94-14.67-1.49-17.93,0,0-.85-5.39-.15-7.61l.7-2.8.59-2.68,1.28-2,1.28-1.86.7.11Z" style="fill:#2ba5a2"/><path d="M59.82,2.38a49.36,49.36,0,0,1,16,8.86h.81s13.88,9,2.8,33.48c0,0-8.75,16.33-23.91,18a26.47,26.47,0,0,1-3.15-.7s-4.67-.7-7.35.7l1.87-2.1.46-2.56L50.74,56,51,52.34l.7-.81.47-.94,2-1.86V47.09l1-2.8,1.28-.23c.77.1,6.31-14.51,5-19.09l-.23-2.26L61,18.05l-.11-1.71.35-3.42-.7-1.17.58-3.38L59.72,5.8l-.58-2Z" style="fill:#2ba5a2"/></svg>