<svg id="b9d9e668-7084-4b1e-a2c7-d6b0c1c6ec03" data-name="Layer 1" xmlns="http://www.w3.org/2000/svg" viewBox="0 0 227.29 34.67"><defs><style>.ea84fa2f-21d7-49e7-8b3d-f77092aa9e4c{fill:#2ba5a2;}</style></defs><path class="ea84fa2f-21d7-49e7-8b3d-f77092aa9e4c" d="M0,20A9.65,9.65,0,0,1,.85,15.9a9.1,9.1,0,0,1,2.36-3.09,10.42,10.42,0,0,1,3.55-1.94,14.65,14.65,0,0,1,4.5-.67,14.94,14.94,0,0,1,4.53.67,10.42,10.42,0,0,1,3.57,1.94A8.92,8.92,0,0,1,21.7,15.9,10,10,0,0,1,22.53,20V34H17.26V21.37a6.73,6.73,0,0,0-1.52-4.77A5.79,5.79,0,0,0,11.26,15a5.78,5.78,0,0,0-4.5,1.64,6.82,6.82,0,0,0-1.5,4.77V34H0Z"/><path class="ea84fa2f-21d7-49e7-8b3d-f77092aa9e4c" d="M26.73,13.29a2.22,2.22,0,0,1,.74-1.87,3.31,3.31,0,0,1,2.07-.57,5.29,5.29,0,0,1,1.53.21,8.21,8.21,0,0,1,.92.3V23.5a6.87,6.87,0,0,0,1.48,4.77A5.75,5.75,0,0,0,38,29.91a5.75,5.75,0,0,0,4.52-1.64A6.87,6.87,0,0,0,44,23.5V13.29a2.25,2.25,0,0,1,.74-1.87,3.24,3.24,0,0,1,2-.57,5.42,5.42,0,0,1,1.57.21,7.53,7.53,0,0,1,.92.3V24.65a10.66,10.66,0,0,1-.8,4.22A8.72,8.72,0,0,1,46.14,32a10.34,10.34,0,0,1-3.58,2,15.92,15.92,0,0,1-9.14,0,10,10,0,0,1-3.55-2,9,9,0,0,1-2.31-3.17,10.16,10.16,0,0,1-.83-4.22Z"/><path class="ea84fa2f-21d7-49e7-8b3d-f77092aa9e4c" d="M54,6.74a2.22,2.22,0,0,1,.74-1.87,3.23,3.23,0,0,1,2-.58,5.41,5.41,0,0,1,1.54.21c.48.14.8.24,1,.3v6.05H66a3,3,0,0,1,2.15.62,2.49,2.49,0,0,1,.62,1.82,4.3,4.3,0,0,1-.23,1.46,7.58,7.58,0,0,1-.37.94H59.27V26a5.18,5.18,0,0,0,.32,2,3.07,3.07,0,0,0,.9,1.22,3.35,3.35,0,0,0,1.34.65,6.92,6.92,0,0,0,1.59.18,7.25,7.25,0,0,0,2.5-.41,7,7,0,0,0,1.66-.79l2.12,3.51a12.08,12.08,0,0,1-1,.7,10.12,10.12,0,0,1-1.64.78,14,14,0,0,1-2.17.62,12.6,12.6,0,0,1-2.63.26q-4,0-6.14-2.1A7.52,7.52,0,0,1,54,27.05Z"/><path class="ea84fa2f-21d7-49e7-8b3d-f77092aa9e4c" d="M92.55,32.36a10.86,10.86,0,0,1-1.36.76,15.82,15.82,0,0,1-1.85.74,17.18,17.18,0,0,1-2.35.58,17.78,17.78,0,0,1-3,.23,14.55,14.55,0,0,1-4.85-.79,11.47,11.47,0,0,1-4-2.33,11.25,11.25,0,0,1-2.7-3.81,12.84,12.84,0,0,1-1-5.21,13.46,13.46,0,0,1,1-5.27,11,11,0,0,1,2.68-3.87,11.35,11.35,0,0,1,4-2.38,15.13,15.13,0,0,1,5-.81,17.08,17.08,0,0,1,3.85.37,10.3,10.3,0,0,1,2.59.92,4,4,0,0,1,1.43,1.25,2.57,2.57,0,0,1,.43,1.39,2.64,2.64,0,0,1-.62,1.7A6.11,6.11,0,0,1,90.7,17a8.89,8.89,0,0,0-2.4-1.5,9.42,9.42,0,0,0-3.87-.71,9,9,0,0,0-2.93.46,6.33,6.33,0,0,0-2.36,1.41A6.78,6.78,0,0,0,77.57,19,8.92,8.92,0,0,0,77,22.39a8.93,8.93,0,0,0,.6,3.46,6.24,6.24,0,0,0,1.67,2.35,6.82,6.82,0,0,0,2.44,1.37,10,10,0,0,0,3,.43,9.24,9.24,0,0,0,3.72-.62,16,16,0,0,0,1.91-.94Z"/><path class="ea84fa2f-21d7-49e7-8b3d-f77092aa9e4c" d="M95.55,19.11a8.38,8.38,0,0,1,2.61-6.58,10.48,10.48,0,0,1,7.22-2.33,11.72,11.72,0,0,1,4.73.81,2.63,2.63,0,0,1,1.83,2.47A3,3,0,0,1,111.5,15a3,3,0,0,1-.72.93,12.71,12.71,0,0,0-1.93-.7,10,10,0,0,0-2.64-.32q-5.4,0-5.4,5.72V34H95.55Z"/><path class="ea84fa2f-21d7-49e7-8b3d-f77092aa9e4c" d="M134.46,33.93c-.3.06-.79.13-1.45.21l-2.33.23c-.89.07-1.89.14-3,.2s-2.26.1-3.46.1a22.72,22.72,0,0,1-5.89-.63,10.05,10.05,0,0,1-3.6-1.66,5.27,5.27,0,0,1-1.8-2.4,8.35,8.35,0,0,1-.48-2.79,8.91,8.91,0,0,1,.57-3.32,5.6,5.6,0,0,1,1.89-2.41A9.32,9.32,0,0,1,118.35,20a23.87,23.87,0,0,1,5.17-.48c1.17,0,2.28,0,3.33.11s1.83.15,2.35.21a6,6,0,0,0-.53-2.68,4.12,4.12,0,0,0-1.45-1.66,5.93,5.93,0,0,0-2.22-.83,16.74,16.74,0,0,0-2.86-.23,12.19,12.19,0,0,0-4.22.6,8.77,8.77,0,0,0-2.11,1,6,6,0,0,1-.76-.87,2.68,2.68,0,0,1-.14-2.84,3,3,0,0,1,1.23-1.11,7.9,7.9,0,0,1,2.35-.76,20.37,20.37,0,0,1,3.74-.28,21.68,21.68,0,0,1,5,.53,11,11,0,0,1,3.86,1.69,7.81,7.81,0,0,1,2.51,3,10.61,10.61,0,0,1,.9,4.57Zm-5.21-10.25-1.73-.28a29.62,29.62,0,0,0-3.81-.18,8.42,8.42,0,0,0-4.57,1,3.29,3.29,0,0,0-1.43,3,3.83,3.83,0,0,0,.3,1.53,2.63,2.63,0,0,0,1,1.17,5.58,5.58,0,0,0,2,.74,16.44,16.44,0,0,0,3.17.26,26.87,26.87,0,0,0,3.37-.17c.83-.1,1.38-.19,1.66-.25Z"/><path class="ea84fa2f-21d7-49e7-8b3d-f77092aa9e4c" d="M158.84,32.36a11.05,11.05,0,0,1-1.37.76,15.62,15.62,0,0,1-1.84.74,17.35,17.35,0,0,1-2.36.58,17.66,17.66,0,0,1-3,.23,14.51,14.51,0,0,1-4.85-.79,11.38,11.38,0,0,1-4-2.33,11,11,0,0,1-2.7-3.81,12.84,12.84,0,0,1-1-5.21,13.46,13.46,0,0,1,1-5.27,10.81,10.81,0,0,1,2.67-3.87,11.44,11.44,0,0,1,4-2.38,15.21,15.21,0,0,1,5-.81,17,17,0,0,1,3.85.37,10,10,0,0,1,2.59.92,3.89,3.89,0,0,1,1.43,1.25,2.58,2.58,0,0,1,.44,1.39,2.7,2.7,0,0,1-.62,1.7A6.4,6.4,0,0,1,157,17a9.05,9.05,0,0,0-2.4-1.5,9.47,9.47,0,0,0-3.88-.71,9,9,0,0,0-2.93.46,6.29,6.29,0,0,0-2.35,1.41A6.51,6.51,0,0,0,143.86,19a8.73,8.73,0,0,0-.58,3.35,8.93,8.93,0,0,0,.6,3.46,6.22,6.22,0,0,0,1.66,2.35A6.86,6.86,0,0,0,148,29.57a9.93,9.93,0,0,0,3,.43,9.19,9.19,0,0,0,3.71-.62,17.23,17.23,0,0,0,1.92-.94Z"/><path class="ea84fa2f-21d7-49e7-8b3d-f77092aa9e4c" d="M161.83,2.45A2.26,2.26,0,0,1,162.57.6a3.24,3.24,0,0,1,2.08-.6,5.17,5.17,0,0,1,1.52.21c.47.14.77.24.93.3V19.36c.4-.27,1-.68,1.68-1.21s1.53-1.13,2.43-1.78l2.77-2c1-.71,1.86-1.36,2.72-2a11.67,11.67,0,0,1,1.85-1.13,5.11,5.11,0,0,1,2.17-.39,3.38,3.38,0,0,1,2.12.67A3.92,3.92,0,0,1,184,12.65c-.65.58-1.53,1.3-2.66,2.14s-2.27,1.69-3.44,2.53-2.27,1.63-3.32,2.35-1.8,1.25-2.26,1.59a55,55,0,0,1,7.15,6.31A65.08,65.08,0,0,1,184.87,34h-6.56c-.7-.86-1.5-1.77-2.37-2.71s-1.82-1.86-2.82-2.77-2-1.79-3-2.64-2-1.62-3-2.33V34h-5.27Z"/><path class="ea84fa2f-21d7-49e7-8b3d-f77092aa9e4c" d="M206.33,32.31c-.24.16-.63.37-1.15.65a11.08,11.08,0,0,1-2,.78,21,21,0,0,1-2.72.65,19.9,19.9,0,0,1-3.4.28,14.29,14.29,0,0,1-4.82-.79,11.21,11.21,0,0,1-3.93-2.33,11.07,11.07,0,0,1-2.65-3.78,12.82,12.82,0,0,1-1-5.15,13.14,13.14,0,0,1,1-5.06,11.46,11.46,0,0,1,2.63-3.92,11.8,11.8,0,0,1,4-2.54,13.53,13.53,0,0,1,5-.9,13.38,13.38,0,0,1,4.24.62,9.86,9.86,0,0,1,3.12,1.67,6.82,6.82,0,0,1,2.56,5.37,7,7,0,0,1-.6,2.94,5.35,5.35,0,0,1-2.12,2.26,12.69,12.69,0,0,1-4.11,1.47,32.93,32.93,0,0,1-6.56.54c-.61,0-1.19,0-1.73,0S191,25,190.36,25a5.75,5.75,0,0,0,2.29,3.81,8.88,8.88,0,0,0,5.47,1.46,12.55,12.55,0,0,0,2.21-.19,12.84,12.84,0,0,0,1.83-.46c.53-.19,1-.37,1.38-.55l.86-.42Zm-16.2-10.94c.71,0,1.39.05,2,.05h1.94a21.64,21.64,0,0,0,4.11-.32,8.45,8.45,0,0,0,2.45-.84,2.54,2.54,0,0,0,1.15-1.15,3.46,3.46,0,0,0,.28-1.34,2.9,2.9,0,0,0-1.41-2.63,6.52,6.52,0,0,0-3.49-.88,7.08,7.08,0,0,0-3,.6,6.62,6.62,0,0,0-2.17,1.6,7.47,7.47,0,0,0-1.36,2.28A8.32,8.32,0,0,0,190.13,21.37Z"/><path class="ea84fa2f-21d7-49e7-8b3d-f77092aa9e4c" d="M210.9,19.11a8.38,8.38,0,0,1,2.61-6.58,10.49,10.49,0,0,1,7.23-2.33,11.79,11.79,0,0,1,4.73.81,2.63,2.63,0,0,1,1.82,2.47,3,3,0,0,1-.44,1.52,3.18,3.18,0,0,1-.71.93,12.87,12.87,0,0,0-1.94-.7,10,10,0,0,0-2.63-.32q-5.4,0-5.4,5.72V34H210.9Z"/></svg>