<svg id="Capa_1" enable-background="new 0 0 512 512"  viewBox="0 0 512 512"  xmlns="http://www.w3.org/2000/svg"><path d="m502 480.888h-30.89v-161.348c0-5.522-4.478-10-10-10s-10 4.478-10 10v161.348h-71.808v-83.148c0-5.522-4.478-10-10-10h-65.208c-5.522 0-10 4.478-10 10v83.148h-70.126v-255.474-156.178h227.142v162.011c0 5.522 4.478 10 10 10s10-4.478 10-10v-172.011c0-5.522-4.478-10-10-10h-24.603v-28.124c0-5.522-4.478-10-10-10h-175.413c-5.522 0-10 4.478-10 10v28.124h-27.125c-5.522 0-10 4.478-10 10v156.178h-78.389v-31.393c0-5.522-4.478-10-10-10h-68.908c-5.522 0-10 4.478-10 10v41.393 255.474h-26.672c-5.522 0-10 4.478-10 10s4.478 10 10 10h492c5.522 0 10-4.478 10-10s-4.478-10-10-10zm-240.906-449.776h155.414v18.124h-155.414zm-204.422 162.909h48.908v21.393h-48.908zm85.187 286.863h-24.337v-35.707h24.337zm62.11.004h-42.109v-45.711c0-5.522-4.478-10-10-10h-44.337c-5.522 0-10 4.478-10 10v45.711h-40.851v-245.474h58.908 88.389zm155.334-.004h-45.208v-73.145h45.208z"/><path d="m469.42 270.96c-4.962-7.437-16.862-4.76-18.196 4.087-1.359 9.013 9.658 14.966 16.475 8.989 3.749-3.286 4.437-8.932 1.721-13.076z"/><path d="m320.455 115.059c0-5.522-4.478-10-10-10h-42.389c-5.522 0-10 4.478-10 10v42.389c0 5.522 4.478 10 10 10h42.389c5.522 0 10-4.478 10-10zm-20 32.388h-22.389v-22.389h22.389z"/><path d="m414.172 115.059c0-5.522-4.478-10-10-10h-42.389c-5.522 0-10 4.478-10 10v42.389c0 5.522 4.478 10 10 10h42.389c5.522 0 10-4.478 10-10zm-20 32.388h-22.389v-22.389h22.389z"/><path d="m320.455 202.499c0-5.522-4.478-10-10-10h-42.389c-5.522 0-10 4.478-10 10v42.389c0 5.522 4.478 10 10 10h42.389c5.522 0 10-4.478 10-10zm-20 32.389h-22.389v-22.389h22.389z"/><path d="m414.172 202.499c0-5.522-4.478-10-10-10h-42.389c-5.522 0-10 4.478-10 10v42.389c0 5.522 4.478 10 10 10h42.389c5.522 0 10-4.478 10-10zm-20 32.389h-22.389v-22.389h22.389z"/><path d="m310.455 279.938h-42.389c-5.522 0-10 4.478-10 10v42.389c0 5.522 4.478 10 10 10h42.389c5.522 0 10-4.478 10-10v-42.389c0-5.522-4.477-10-10-10zm-10 42.389h-22.389v-22.389h22.389z"/><path d="m404.172 279.938h-42.389c-5.522 0-10 4.478-10 10v42.389c0 5.522 4.478 10 10 10h42.389c5.522 0 10-4.478 10-10v-42.389c0-5.522-4.478-10-10-10zm-10 42.389h-22.389v-22.389h22.389z"/><path d="m88.637 258.456c-5.522 0-10 4.478-10 10v125.283c0 5.522 4.478 10 10 10s10-4.478 10-10v-125.283c0-5.522-4.478-10-10-10z"/><path d="m129.592 403.739c5.522 0 10-4.478 10-10v-125.283c0-5.522-4.478-10-10-10s-10 4.478-10 10v125.283c0 5.523 4.477 10 10 10z"/><path d="m170.548 403.739c5.522 0 10-4.478 10-10v-125.283c0-5.522-4.478-10-10-10s-10 4.478-10 10v125.283c0 5.523 4.477 10 10 10z"/></svg>