<svg xmlns="http://www.w3.org/2000/svg" viewBox="0 0 1009.6 506.97"><rect x="222.11" y="295.92" width="151.79" height="66.15" style="fill:#9a0056"/><rect x="182.78" y="121.87" width="579.4" height="281.28" style="fill:#73c6ce"/><rect x="182.78" y="121.87" width="579.4" height="281.28" style="fill:#fff"/><rect x="182.78" y="18.93" width="579.4" height="24.28" style="fill:#fff"/><path d="M762.18,403.15H182.8V121.87H164.93V413.08a9,9,0,0,0,9,9H771a9,9,0,0,0,9-9V121.87H762.18Z" style="fill:#283e42"/><path d="M182.8,18.93H762.2V43.21h17.85V9a9,9,0,0,0-9-9h-597a9,9,0,0,0-9,9V43.21H182.8Z" style="fill:#283e42"/><path d="M896.7,497.49l-117-74.75H165.24l-117,74.75A5.15,5.15,0,0,0,51,507H894a5.14,5.14,0,0,0,2.71-9.48Z" style="fill:#00a7a2"/><polygon points="851.97 480.03 93 480.03 164.94 422.78 780.03 422.78 851.97 480.03" style="fill:#fff"/><path d="M376.69,474.49c-2.43,0-3.46-2.3-2.32-5.07L379.5,457c1-2.43,3.61-4.36,5.83-4.36H560.27c2.22,0,4.83,1.93,5.84,4.36l5.16,12.44c1.14,2.77.12,5.07-2.32,5.07Z" style="fill:none"/><path d="M568.1,472.36H377.54c-1.41,0-2-1.32-1.37-2.93L381.22,457a4.1,4.1,0,0,1,3.4-2.56H561a4.12,4.12,0,0,1,3.4,2.56l5.07,12.44C570.11,471,569.51,472.36,568.1,472.36Z" style="fill:#ccc"/><polygon points="760.75 447.08 186.47 447.08 209.28 427.6 737.75 427.6 760.75 447.08" style="fill:#e2e2e2"/><path d="M93,480v8.37h0a5.94,5.94,0,0,0,5.94,5.94H846a6,6,0,0,0,6-5.94h0V480Z" style="fill:#283e42"/><rect x="222.11" y="295.92" width="151.79" height="66.15" style="fill:#283e42"/><circle cx="59.55" cy="354.16" r="59.55" style="fill:#9a0056"/><circle cx="59.55" cy="354.16" r="47.64" style="fill:#fff"/><circle cx="59.55" cy="354.16" r="35.73" style="fill:#9a0056"/><circle cx="59.55" cy="354.16" r="23.82" style="fill:#fff"/><circle cx="59.55" cy="354.16" r="11.91" style="fill:#9a0056"/><path d="M130,294.42H119.29V283.7l-9.69,9.69-2.41,9.76L57.87,352.49c-1.17,1.17,2.2,4.54,3.37,3.37l49.32-49.37,9.76-2.41Z" style="fill:#ffdf00"/><path d="M406.16,91.27l4.21-.9q.75,3.57,5.8,3.57a5.88,5.88,0,0,0,3.54-.91A2.73,2.73,0,0,0,421,90.76a3.28,3.28,0,0,0-.56-1.82A4.12,4.12,0,0,0,418,87.63l-4.59-1.14a11.21,11.21,0,0,1-3.48-1.4,5.38,5.38,0,0,1-1.8-2.21,6.93,6.93,0,0,1-.68-3,6.34,6.34,0,0,1,2.39-5.16,9.45,9.45,0,0,1,6.12-1.94,11.23,11.23,0,0,1,5.53,1.35,6.07,6.07,0,0,1,3.1,3.83l-4.11,1c-.64-1.81-2.11-2.72-4.43-2.72a4.93,4.93,0,0,0-3.09.84,2.62,2.62,0,0,0-1.06,2.15q0,2.05,3.34,2.88l4.08,1q3.7.93,5,2.75a6.84,6.84,0,0,1,1.27,4,6.57,6.57,0,0,1-2.67,5.56,11,11,0,0,1-6.9,2,12.6,12.6,0,0,1-6.25-1.5A7.38,7.38,0,0,1,406.16,91.27Z" style="fill:#00a7a2"/><path d="M446.64,97.06H431.05v-24h15.43v3.57H435.37v6.5h8.93v3.48h-8.93v6.72h11.27Z" style="fill:#00a7a2"/><path d="M471,97.06h-4.62l-1.92-5.72h-9.23l-1.88,5.72h-3.69l8-24H463Zm-7.7-9.18-3.5-10.71-3.5,10.71Z" style="fill:#00a7a2"/><path d="M494.39,97.06H489.8l-3.73-9.87H480v9.87h-4.33v-24h10.41c2.9,0,5,.65,6.38,2a6.72,6.72,0,0,1,2,5.07,6.34,6.34,0,0,1-4.32,6.36ZM480,83.73h5.38a5.22,5.22,0,0,0,3.48-1A3.38,3.38,0,0,0,490,80a3.22,3.22,0,0,0-1.12-2.56,4.65,4.65,0,0,0-3.15-1H480Z" style="fill:#00a7a2"/><path d="M513.8,88.72l4,.44A9.44,9.44,0,0,1,515,95.1a8.68,8.68,0,0,1-6.3,2.33,8.26,8.26,0,0,1-5.34-1.66,10.42,10.42,0,0,1-3.15-4.48,17,17,0,0,1-1.11-6.24,14.4,14.4,0,0,1,2.6-8.92,9.14,9.14,0,0,1,12.86-1.43l.23.19a10.33,10.33,0,0,1,3,6.29l-4,.42q-1.11-5.43-4.89-5.43a4.18,4.18,0,0,0-3.77,2.26A12.92,12.92,0,0,0,503.8,85c0,2.9.48,5.1,1.44,6.58a4.37,4.37,0,0,0,3.81,2.23,4.17,4.17,0,0,0,3.24-1.5A6,6,0,0,0,513.8,88.72Z" style="fill:#00a7a2"/><path d="M540.8,97.06h-4.33V86.63h-9.16V97.06H523v-24h4.32v9.86h9.16V73.06h4.33Z" style="fill:#00a7a2"/><path d="M871.68,236.72a2,2,0,0,1-1.37-.56,23.1,23.1,0,0,0-32.62,0,1.93,1.93,0,0,1-2.72-2.73,27,27,0,0,1,38.07,0,1.93,1.93,0,0,1,0,2.73,1.9,1.9,0,0,1-1.35.56Z" style="fill:#9a0056"/><path d="M825.86,226.49a2.22,2.22,0,0,1-1.59-3.76l0,0a42.1,42.1,0,0,1,59.43,0,2.22,2.22,0,0,1-3,3.31,1.37,1.37,0,0,1-.17-.17,37.66,37.66,0,0,0-53.17,0A2.22,2.22,0,0,1,825.86,226.49Z" style="fill:#9a0056"/><path d="M814.8,215.65a2.42,2.42,0,0,1-1.71-4.13,58,58,0,0,1,81.89,0,2.42,2.42,0,1,1-3.29,3.55,1.59,1.59,0,0,1-.13-.13,53.17,53.17,0,0,0-75,0A2.43,2.43,0,0,1,814.8,215.65Z" style="fill:#9a0056"/><path d="M903.19,205.77a2.52,2.52,0,0,1-1.76-.73,67.15,67.15,0,0,0-94.85,0,2.49,2.49,0,0,1-3.52-3.52,72.11,72.11,0,0,1,101.89,0,2.49,2.49,0,0,1-1.76,4.25Z" style="fill:#9a0056"/><path d="M863.72,252.49a9.71,9.71,0,0,1-2.82,6.89h0a9.69,9.69,0,0,1-13.7,0l0,0h0a9.69,9.69,0,0,1,0-13.7h0a9.67,9.67,0,0,1,13.67,0h0A9.69,9.69,0,0,1,863.72,252.49Z" style="fill:#9a0056"/><rect x="844.29" y="252.05" width="19.42" height="0.83" style="fill:#9a0056"/><path d="M937.91,336.12l4.91-5.06-6.15-6-4.91,5.06A21.53,21.53,0,0,0,924,327h0l-.11-7-8.55.13.11,7h0a21.82,21.82,0,0,0-7.68,3.32l-5.06-4.9-6,6.14,5.06,4.91a21.53,21.53,0,0,0-3,7.91h0l-7,.11.13,8.55,7-.11h0a21.46,21.46,0,0,0,3.32,7.68l-4.91,5.06,6.14,6,4.91-5.06a21.69,21.69,0,0,0,7.78,3.08h0l.11,7.06,8.56-.14-.11-7.05h0a21.46,21.46,0,0,0,7.68-3.32l5.07,4.91,6-6.14-5.06-4.91a21.53,21.53,0,0,0,3.09-7.78h0l7-.11-.13-8.55-7,.1h0A21.82,21.82,0,0,0,937.91,336.12ZM931,359.06a15.3,15.3,0,1,1-.33-21.64,15.3,15.3,0,0,1,.33,21.64Z" style="fill:#9a0056"/><path d="M889.1,321.43l1.83-3.5-4.25-2.21-1.83,3.5a12.07,12.07,0,0,0-4.67-.41h0L879,315l-4.57,1.45,1.18,3.77h0a11.91,11.91,0,0,0-3.59,3l-3.5-1.82-2.22,4.24,3.5,1.81a12.07,12.07,0,0,0-.41,4.67h0l-3.77,1.18,1.44,4.58,3.76-1.19h0a12.25,12.25,0,0,0,3,3.6l-1.82,3.5,4.25,2.21,1.82-3.5a12.27,12.27,0,0,0,4.67.42h0l1.19,3.76,4.57-1.43-1.18-3.8h0a12.25,12.25,0,0,0,3.6-3l3.5,1.83,2.22-4.25-3.5-1.83a12.08,12.08,0,0,0,.41-4.67h0l3.77-1.18-1.44-4.57L892.11,325h0A12.17,12.17,0,0,0,889.1,321.43Zm0,13.42a8.57,8.57,0,1,1-3.64-11.56h0a8.57,8.57,0,0,1,3.61,11.56Z" style="fill:#00a7a2"/><rect x="207.4" y="121.87" width="530.83" height="255.08" style="fill:#00a7a2"/><polygon points="128.5 168.2 119.11 177.59 109.71 168.2 107.29 170.63 116.68 180.02 107.29 189.41 109.71 191.84 119.11 182.45 128.5 191.84 130.93 189.41 121.54 180.02 130.93 170.63 128.5 168.2" style="fill:#9a0056"/><rect x="222.11" y="141.54" width="151.79" height="66.15" style="fill:#ffdf00"/><rect x="222.11" y="218.73" width="151.79" height="66.15" style="fill:#9a0056"/><path d="M388,141.54H608a2.61,2.61,0,0,1,2.61,2.61h0a2.61,2.61,0,0,1-2.61,2.61H388a2.61,2.61,0,0,1-2.61-2.61h0A2.61,2.61,0,0,1,388,141.54Z" style="fill:#fff"/><path d="M388,155H608a2.61,2.61,0,0,1,2.61,2.61h0A2.61,2.61,0,0,1,608,160.2H388a2.61,2.61,0,0,1-2.61-2.61h0A2.61,2.61,0,0,1,388,155Z" style="fill:#fff"/><path d="M388,168.41H608a2.61,2.61,0,0,1,2.61,2.61h0a2.61,2.61,0,0,1-2.61,2.61H388a2.61,2.61,0,0,1-2.61-2.61h0A2.61,2.61,0,0,1,388,168.41Z" style="fill:#fff"/><rect x="385.34" y="181.84" width="225.25" height="5.22" rx="2.61" style="fill:#fff"/><rect x="385.34" y="195.27" width="140.23" height="5.22" rx="2.61" style="fill:#fff"/><rect x="385.34" y="218.73" width="225.25" height="5.22" rx="2.61" style="fill:#fff"/><rect x="385.34" y="232.16" width="225.25" height="5.22" rx="2.61" style="fill:#fff"/><rect x="385.34" y="245.59" width="225.25" height="5.22" rx="2.61" style="fill:#fff"/><rect x="385.34" y="259.03" width="225.25" height="5.22" rx="2.61" style="fill:#fff"/><rect x="385.34" y="272.46" width="140.23" height="5.22" rx="2.61" style="fill:#fff"/><rect x="385.34" y="295.92" width="225.25" height="5.22" rx="2.61" style="fill:#fff"/><rect x="385.34" y="309.35" width="225.25" height="5.22" rx="2.61" style="fill:#fff"/><rect x="385.34" y="322.78" width="225.25" height="5.22" rx="2.61" style="fill:#fff"/><rect x="385.34" y="336.21" width="225.25" height="5.22" rx="2.61" style="fill:#fff"/><rect x="385.34" y="349.65" width="140.23" height="5.22" rx="2.61" style="fill:#fff"/><rect x="629" y="142.97" width="92.51" height="66.15" style="fill:#ffdf00"/><path d="M720.23,218.73h-90a1.28,1.28,0,0,1-1.28-1.24h0a1.28,1.28,0,0,1,1.28-1.28h90a1.28,1.28,0,0,1,1.28,1.28h0A1.28,1.28,0,0,1,720.23,218.73Z" style="fill:#fff"/><path d="M720.23,226.49h-90a1.28,1.28,0,0,1-1.28-1.28h0a1.28,1.28,0,0,1,1.28-1.28h90a1.28,1.28,0,0,1,1.28,1.28h0a1.28,1.28,0,0,1-1.28,1.28Z" style="fill:#fff"/><rect x="652.36" y="231.74" width="45.79" height="2.56" rx="1.22" style="fill:#fff"/><path d="M659.22,179.6h-8.13l-1.55,3.75h-4.15l7.8-17.5h4l7.83,17.5H660.8Zm-1.28-3.11-2.77-6.7-2.78,6.7Z" style="fill:#fff"/><path d="M668.09,165.85h8a11.21,11.21,0,0,1,5,1.08,8.19,8.19,0,0,1,3.4,3.07,9.37,9.37,0,0,1,0,9.2,8.24,8.24,0,0,1-3.4,3.06,11.22,11.22,0,0,1-5,1.09h-8ZM675.8,180a5.9,5.9,0,0,0,4.19-1.46,5.82,5.82,0,0,0,0-7.93,5.9,5.9,0,0,0-4.19-1.46h-3.7V180Z" style="fill:#fff"/><path d="M691.73,183.08a9.24,9.24,0,0,1-3.11-1.46l1.37-3.05a9.59,9.59,0,0,0,2.68,1.33,9.91,9.91,0,0,0,3.1.5,4.9,4.9,0,0,0,2.55-.52,1.52,1.52,0,0,0,.82-1.36,1.33,1.33,0,0,0-.49-1,3.76,3.76,0,0,0-1.25-.66c-.5-.16-1.19-.35-2.06-.55a26.57,26.57,0,0,1-3.27-.95,5.23,5.23,0,0,1-2.19-1.52A4.13,4.13,0,0,1,689,171a4.89,4.89,0,0,1,.82-2.77,5.61,5.61,0,0,1,2.49-2,10.24,10.24,0,0,1,4.06-.72,13.39,13.39,0,0,1,3.28.4,9.51,9.51,0,0,1,2.8,1.15l-1.25,3.07a9.86,9.86,0,0,0-4.85-1.37,4.6,4.6,0,0,0-2.52.55,1.67,1.67,0,0,0-.81,1.45,1.41,1.41,0,0,0,.94,1.33,14.31,14.31,0,0,0,2.86.87,26.72,26.72,0,0,1,3.28.95,5.28,5.28,0,0,1,2.19,1.5,4,4,0,0,1,.91,2.77,4.79,4.79,0,0,1-.84,2.74,5.72,5.72,0,0,1-2.51,2,10.35,10.35,0,0,1-4.08.73A14,14,0,0,1,691.73,183.08Z" style="fill:#fff"/><rect x="629" y="252.87" width="92.51" height="66.15" style="fill:#9a0056"/><path d="M720.23,328.62h-90a1.28,1.28,0,0,1-1.28-1.28h0a1.28,1.28,0,0,1,1.28-1.28h90a1.28,1.28,0,0,1,1.28,1.28h0a1.28,1.28,0,0,1-1.28,1.28Z" style="fill:#fff"/><path d="M720.23,336.41h-90a1.28,1.28,0,0,1-1.28-1.28h0a1.28,1.28,0,0,1,1.28-1.28h90a1.28,1.28,0,0,1,1.28,1.28h0a1.28,1.28,0,0,1-1.28,1.28Z" style="fill:#fff"/><rect x="652.36" y="341.63" width="45.79" height="2.56" rx="1.22" style="fill:#fff"/><path d="M660.19,290.94h-8.12l-1.55,3.75h-4.15l7.8-17.5h4l7.82,17.5h-4.25Zm-1.27-3.08-2.78-6.7-2.77,6.7Z" style="fill:#fff"/><path d="M669.07,277.19h8a11.08,11.08,0,0,1,5,1.09,8,8,0,0,1,3.4,3.06,9.27,9.27,0,0,1,0,9.2,8,8,0,0,1-3.4,3.06,11.08,11.08,0,0,1-5,1.09h-8Zm7.73,14.17a5.45,5.45,0,1,0,0-10.87h-3.7v10.85Z" style="fill:#fff"/><path d="M692.7,294.43a9.46,9.46,0,0,1-3.11-1.47l1.38-3a9.4,9.4,0,0,0,2.67,1.33,9.91,9.91,0,0,0,3.1.5,5,5,0,0,0,2.55-.51,1.56,1.56,0,0,0,.83-1.37,1.33,1.33,0,0,0-.49-1,3.69,3.69,0,0,0-1.25-.67c-.51-.16-1.2-.35-2.06-.55a26.72,26.72,0,0,1-3.28-.95,5.23,5.23,0,0,1-2.19-1.52,4.13,4.13,0,0,1-.91-2.8,4.84,4.84,0,0,1,.83-2.76,5.64,5.64,0,0,1,2.48-2,10.29,10.29,0,0,1,4.07-.72,13.37,13.37,0,0,1,3.27.4,9.51,9.51,0,0,1,2.8,1.15l-1.25,3.05a9.86,9.86,0,0,0-4.85-1.37,4.58,4.58,0,0,0-2.51.55,1.69,1.69,0,0,0-.81,1.45,1.43,1.43,0,0,0,.93,1.34,15.06,15.06,0,0,0,2.87.86,28.45,28.45,0,0,1,3.27.95,5.51,5.51,0,0,1,2.19,1.5,4,4,0,0,1,.91,2.77,4.79,4.79,0,0,1-.84,2.74,5.48,5.48,0,0,1-2.51,2,10.13,10.13,0,0,1-4.07.73A14.42,14.42,0,0,1,692.7,294.43Z" style="fill:#fff"/><polygon points="310.95 174.62 291.54 163.41 291.54 185.82 310.95 174.62" style="fill:#fff"/><path d="M298,195.63a21,21,0,1,1,21-21h0A21,21,0,0,1,298,195.63Zm0-40.73a19.72,19.72,0,1,0,19.71,19.73h0A19.75,19.75,0,0,0,298,154.9Z" style="fill:#fff"/><polygon points="310.95 251.8 291.54 240.6 291.54 263.01 310.95 251.8" style="fill:#fff"/><path d="M298,272.81a21,21,0,1,1,21-21h0A21,21,0,0,1,298,272.81Zm0-40.72a19.72,19.72,0,1,0,19.71,19.73v0A19.74,19.74,0,0,0,298,232.09Z" style="fill:#fff"/><polygon points="310.95 328.99 291.54 317.78 291.54 340.19 310.95 328.99" style="fill:#fff"/><path d="M298,350a21,21,0,1,1,21-21h0A21,21,0,0,1,298,350Zm0-40.73A19.72,19.72,0,1,0,317.72,329h0A19.75,19.75,0,0,0,298,309.27Z" style="fill:#fff"/><path d="M931.8,55.6v54.77c0,6.84-6.89,12.39-15.39,12.39h-886c-8.5,0-15.39-5.55-15.39-12.39V55.6c0-6.84,6.89-12.39,15.39-12.39h886C924.86,43.21,931.8,48.76,931.8,55.6Z" style="fill:none;stroke:#00a7a2;stroke-miterlimit:10;stroke-width:6px"/><rect x="222.11" y="295.92" width="151.79" height="66.15" style="fill:#283e42"/><path d="M935.52,54.24v57.25c0,7.15-5.12,12.94-11.42,12.94H845.93V41.3H924.1C930.4,41.3,935.52,47.09,935.52,54.24Z" style="fill:#00a7a2"/><path d="M906.8,87.76a15.58,15.58,0,1,0-23.45-1.64.57.57,0,0,1-.11.11L869.8,99.69a2.16,2.16,0,1,0,3.06,3.06h0l13.46-13.46.1-.12A15.58,15.58,0,0,0,906.8,87.76Zm-19-3.06a11.25,11.25,0,1,1,15.91,0A11.26,11.26,0,0,1,887.8,84.7Z" style="fill:#fff"/><polygon points="310.95 251.8 291.54 240.6 291.54 263.01 310.95 251.8" style="fill:#fff"/><path d="M298,272.81a21,21,0,1,1,21-21h0A21,21,0,0,1,298,272.81Zm0-40.72a19.72,19.72,0,1,0,19.71,19.73v0A19.74,19.74,0,0,0,298,232.09Z" style="fill:#fff"/><polygon points="310.95 328.99 291.54 317.78 291.54 340.19 310.95 328.99" style="fill:#fff"/><path d="M298,350a21,21,0,1,1,21-21h0A21,21,0,0,1,298,350Zm0-40.73A19.72,19.72,0,1,0,317.72,329h0A19.75,19.75,0,0,0,298,309.27Z" style="fill:#fff"/><path d="M658.26,454c0,6.43-17.71,11.64-39.55,11.64s-39.55-5.21-39.55-11.64c0-1.5,1-2.94,2.73-4.25a22.85,22.85,0,0,1,5.22-2.75,44.24,44.24,0,0,1,4.48-1.47c7.08-2,16.62-3.16,27.12-3.16a105.8,105.8,0,0,1,27.11,3.16c1.59.44,3,.92,4.37,1.42a23.56,23.56,0,0,1,5.27,2.74C657.26,451,658.26,452.49,658.26,454Z" style="fill:#faaa1f"/><path d="M658.26,445.49V454c0,2.57-2.84,5-7.64,6.88-1.21.48-2.53.93-4,1.36-.77.22-1.57.44-2.4.65l-1.42.33a111.74,111.74,0,0,1-24.12,2.42c-21.84,0-39.55-5.21-39.55-11.64v-8.47Z" style="fill:#ffdf00"/><path d="M650.62,446.82v14c-1.21.48-2.53.93-4,1.36V446.82Z" style="fill:#fffbee"/><path d="M644.25,449.8v13.08l-1.42.33V449.8Z" style="fill:#fffbee"/><ellipse cx="618.64" cy="445.43" rx="39.55" ry="11.64" style="fill:#f7dc75"/><ellipse cx="618.64" cy="445.43" rx="31.96" ry="9.4" style="fill:#faaa1f"/><path d="M642.19,439.07a85.42,85.42,0,0,0-21.6-2.47c-17.65,0-32,4.21-32,9.4,0,2.45,3.18,4.68,8.4,6.36-6.36-1.72-10.36-4.19-10.36-6.93,0-5.2,14.32-9.41,32-9.41C628,436,636.35,437.2,642.19,439.07Z" style="fill:#c5761f"/><path d="M616.23,450.1q-3.56-.08-5.76-.29c-1.47-.14-2.57-.27-3.29-.38l1.68-1.39c1.06.16,2.33.3,3.84.42s3.2.19,5.12.19a25.81,25.81,0,0,0,4.73-.29c.87-.2,1.31-.47,1.31-.8s-.18-.42-.54-.58a7.52,7.52,0,0,0-1.54-.44c-.66-.12-1.44-.24-2.35-.35l-3-.33c-1-.11-2-.23-3-.37a22.82,22.82,0,0,1-2.72-.5,7.84,7.84,0,0,1-2-.72,1.23,1.23,0,0,1-.74-1c0-.68.67-1.25,2-1.72a24.31,24.31,0,0,1,6.23-.91V439h5.15v1.57c1.59,0,3,.11,4.26.2s2.25.18,3,.27l-1.23,1.44c-1-.1-2.09-.21-3.4-.3s-2.79-.15-4.48-.15a20.61,20.61,0,0,0-4,.29c-.89.18-1.33.44-1.33.77s.13.36.39.49a4.93,4.93,0,0,0,1.19.35c.53.1,1.17.2,1.93.29l2.58.29c1.35.15,2.63.32,3.83.49a30.64,30.64,0,0,1,3.15.59,8,8,0,0,1,2.1.81,1.34,1.34,0,0,1,.77,1.11c0,.64-.68,1.19-2,1.66a26.05,26.05,0,0,1-6.69.9v1.82h-5.15Z" style="fill:#f7dc75"/><path d="M658.26,453.3V454c0,2.57-2.84,5-7.64,6.88-1.21.48-2.53.93-4,1.36-.77.22-1.57.44-2.4.65l-1.42.33a111.74,111.74,0,0,1-24.12,2.42c-21.84,0-39.55-5.21-39.55-11.64v-.69c0,6.43,17.71,11.64,39.55,11.64a111.76,111.76,0,0,0,24.12-2.45l1.42-.34c.83-.2,1.63-.42,2.4-.65,1.36-.39,2.69-.84,4-1.36C655.42,458.25,658.26,455.87,658.26,453.3Z" style="fill:#9a0056"/><path d="M658.26,444.68c0,6.43-17.71,11.64-39.55,11.64s-39.55-5.21-39.55-11.64c0-1.5,1-2.93,2.73-4.25a22.85,22.85,0,0,1,5.22-2.75c1.36-.52,2.85-1,4.48-1.47,7.08-2,16.62-3.16,27.12-3.16a105.8,105.8,0,0,1,27.11,3.16c1.59.44,3,.92,4.37,1.43a22.76,22.76,0,0,1,5.27,2.74C657.26,441.71,658.26,443.16,658.26,444.68Z" style="fill:#faaa1f"/><path d="M658.26,436.21v8.47c0,2.58-2.84,4.95-7.64,6.88-1.21.48-2.53.94-4,1.36-.77.23-1.57.44-2.4.65l-1.42.34a112.36,112.36,0,0,1-24.12,2.41c-21.84,0-39.55-5.21-39.55-11.64v-8.47Z" style="fill:#ffdf00"/><path d="M650.62,437.49v14c-1.21.48-2.53.94-4,1.36V437.49Z" style="fill:#fffbee"/><path d="M644.25,440.49v13.07l-1.42.34V440.49Z" style="fill:#fffbee"/><ellipse cx="618.64" cy="436.12" rx="39.55" ry="11.64" style="fill:#f7dc75"/><ellipse cx="618.64" cy="436.12" rx="31.96" ry="9.4" style="fill:#faaa1f"/><path d="M642.19,429.76a86.34,86.34,0,0,0-21.6-2.47c-17.65,0-32,4.21-32,9.4,0,2.45,3.18,4.69,8.4,6.36-6.36-1.72-10.36-4.19-10.36-6.93,0-5.19,14.32-9.4,32-9.4C628,426.72,636.35,427.89,642.19,429.76Z" style="fill:#c5761f"/><path d="M616.23,440.79q-3.56-.07-5.76-.28c-1.47-.15-2.57-.27-3.29-.39l1.68-1.38c1.06.15,2.33.29,3.84.42s3.2.19,5.12.19a25,25,0,0,0,4.73-.3c.87-.2,1.31-.47,1.31-.8s-.18-.41-.54-.58a7.52,7.52,0,0,0-1.54-.44c-.66-.12-1.44-.24-2.35-.35l-3-.33-3-.36a25.51,25.51,0,0,1-2.72-.51,7.84,7.84,0,0,1-2-.72,1.21,1.21,0,0,1-.74-1c0-.67.67-1.24,2-1.71a23.46,23.46,0,0,1,6.23-.91V429.7h5.15v1.58c1.59,0,3,.1,4.26.19s2.25.19,3,.27l-1.23,1.45c-1-.11-2.09-.21-3.4-.31s-2.79-.15-4.48-.15a20.61,20.61,0,0,0-4,.29c-.89.19-1.33.45-1.33.78s.13.35.39.49a5.43,5.43,0,0,0,1.19.35c.53.1,1.17.19,1.93.29l2.58.28c1.35.16,2.63.32,3.83.49a28.2,28.2,0,0,1,3.15.6,7.53,7.53,0,0,1,2.1.8,1.34,1.34,0,0,1,.77,1.11c0,.64-.68,1.2-2,1.66a26.05,26.05,0,0,1-6.69.9v1.83h-5.15Z" style="fill:#f7dc75"/><path d="M658.26,444v.69c0,2.58-2.84,4.95-7.64,6.88-1.21.48-2.53.94-4,1.36-.77.23-1.57.44-2.4.65l-1.42.34a112.36,112.36,0,0,1-24.12,2.41c-21.84,0-39.55-5.21-39.55-11.64V444c0,6.43,17.71,11.64,39.55,11.64a111.74,111.74,0,0,0,24.12-2.42c.48-.1,1-.22,1.42-.33.83-.21,1.63-.43,2.4-.65,1.44-.43,2.76-.88,4-1.36C655.42,448.94,658.26,446.56,658.26,444Z" style="fill:#9a0056"/><path d="M658.26,435.38c0,6.42-17.71,11.63-39.55,11.63s-39.55-5.21-39.55-11.63c0-1.51,1-2.94,2.73-4.26a22.43,22.43,0,0,1,5.22-2.74,44.24,44.24,0,0,1,4.48-1.47,117.46,117.46,0,0,1,54.23,0c1.59.44,3,.91,4.37,1.42a22.76,22.76,0,0,1,5.27,2.74C657.26,432.4,658.26,433.85,658.26,435.38Z" style="fill:#faaa1f"/><path d="M658.26,426.91v8.47c0,2.57-2.84,5-7.64,6.87-1.31.52-2.64,1-4,1.36-.77.23-1.57.45-2.4.65l-1.42.34A112.36,112.36,0,0,1,618.68,447c-21.84,0-39.55-5.21-39.55-11.63v-8.47Z" style="fill:#ffdf00"/><path d="M650.62,428.21v14c-1.31.52-2.64,1-4,1.36v-15.4Z" style="fill:#fffbee"/><path d="M644.25,431.19v13.07l-1.42.34V431.19Z" style="fill:#fffbee"/><ellipse cx="618.64" cy="426.81" rx="39.55" ry="11.64" style="fill:#f7dc75"/><ellipse cx="618.64" cy="426.81" rx="31.96" ry="9.4" style="fill:#faaa1f"/><path d="M642.19,420.49a85.89,85.89,0,0,0-21.6-2.48c-17.65,0-32,4.21-32,9.41,0,2.45,3.18,4.68,8.4,6.35-6.36-1.72-10.36-4.18-10.36-6.93,0-5.19,14.32-9.4,32-9.4C628,417.41,636.35,418.58,642.19,420.49Z" style="fill:#c5761f"/><path d="M616.23,431.49q-3.56-.08-5.76-.28c-1.47-.14-2.57-.27-3.29-.39l1.68-1.38c1.06.15,2.33.29,3.84.42s3.2.19,5.12.19a25,25,0,0,0,4.73-.3c.87-.2,1.31-.46,1.31-.79s-.18-.42-.54-.59a7.5,7.5,0,0,0-1.54-.43c-.66-.13-1.44-.25-2.35-.35l-3-.34c-1-.1-2-.23-3-.36a27.26,27.26,0,0,1-2.72-.5,7.5,7.5,0,0,1-2-.73,1.21,1.21,0,0,1-.74-1c0-.67.67-1.24,2-1.71a24.31,24.31,0,0,1,6.23-.91v-1.63h5.15V422c1.59,0,3,.11,4.26.2s2.25.18,3,.27l-1.23,1.44c-1-.11-2.09-.21-3.4-.31s-2.79-.14-4.48-.14a20.6,20.6,0,0,0-4,.28c-.89.19-1.33.45-1.33.78s.13.36.39.49a4.93,4.93,0,0,0,1.19.35c.53.1,1.17.2,1.93.29s1.62.19,2.58.28c1.35.16,2.63.32,3.83.49a28.2,28.2,0,0,1,3.15.6,7.88,7.88,0,0,1,2.1.81,1.32,1.32,0,0,1,.77,1.1c0,.64-.68,1.2-2,1.67a27,27,0,0,1-6.69.9v1.82h-5.15Z" style="fill:#f7dc75"/><path d="M658.26,434.68v.7c0,2.57-2.84,5-7.64,6.87-1.21.48-2.53.94-4,1.36-.77.23-1.57.44-2.4.65l-1.42.34A112.36,112.36,0,0,1,618.68,447c-21.84,0-39.55-5.21-39.55-11.63v-.7c0,6.43,17.71,11.64,39.55,11.64a112.36,112.36,0,0,0,24.12-2.41l1.42-.34c.83-.21,1.63-.42,2.4-.65,1.44-.42,2.76-.88,4-1.36C655.42,439.63,658.26,437.26,658.26,434.68Z" style="fill:#9a0056"/><path d="M658.26,425.78c0,6.43-17.71,11.64-39.55,11.64s-39.55-5.21-39.55-11.64c0-1.5,1-2.94,2.73-4.26a22.43,22.43,0,0,1,5.22-2.74,44.24,44.24,0,0,1,4.48-1.47,117.46,117.46,0,0,1,54.23,0c1.59.44,3,.91,4.37,1.42a22.76,22.76,0,0,1,5.27,2.74C657.26,422.8,658.26,424.26,658.26,425.78Z" style="fill:#faaa1f"/><path d="M658.26,417.31v8.47c0,2.57-2.84,5-7.64,6.87-1.31.52-2.64,1-4,1.36q-1.15.35-2.4.66l-1.42.33a111.74,111.74,0,0,1-24.12,2.42c-21.84,0-39.55-5.21-39.55-11.64v-8.47Z" style="fill:#ffdf00"/><path d="M650.62,418.61v14c-1.31.52-2.64,1-4,1.36v-15.4Z" style="fill:#fffbee"/><path d="M644.25,421.59v13.08l-1.42.33V421.59Z" style="fill:#fffbee"/><ellipse cx="618.64" cy="417.22" rx="39.55" ry="11.64" style="fill:#f7dc75"/><ellipse cx="618.64" cy="417.22" rx="31.96" ry="9.4" style="fill:#faaa1f"/><path d="M642.19,410.86a85.89,85.89,0,0,0-21.6-2.48c-17.65,0-32,4.22-32,9.41,0,2.45,3.18,4.68,8.4,6.36-6.36-1.72-10.36-4.19-10.36-6.93,0-5.2,14.32-9.41,32-9.41C628,407.81,636.35,409,642.19,410.86Z" style="fill:#c5761f"/><path d="M616.23,421.88c-2.37,0-4.29-.14-5.76-.28s-2.57-.27-3.29-.39l1.68-1.38c1.06.16,2.33.3,3.84.42s3.2.19,5.12.19a25,25,0,0,0,4.73-.3c.87-.2,1.31-.46,1.31-.79s-.18-.42-.54-.58a7.52,7.52,0,0,0-1.54-.44c-.66-.13-1.44-.24-2.35-.35l-3-.34q-1.5-.15-3-.36a22.82,22.82,0,0,1-2.72-.5,7.84,7.84,0,0,1-2-.72,1.23,1.23,0,0,1-.74-1c0-.67.67-1.24,2-1.71a24.31,24.31,0,0,1,6.23-.91v-1.63h5.15v1.57c1.59,0,3,.11,4.26.2s2.25.18,3,.27l-1.23,1.44c-1-.11-2.09-.21-3.4-.31s-2.79-.14-4.48-.14a20.6,20.6,0,0,0-4,.28c-.89.19-1.33.45-1.33.78s.13.36.39.49a4.93,4.93,0,0,0,1.19.35c.53.1,1.17.2,1.93.29l2.58.29c1.35.15,2.63.31,3.83.48a28.2,28.2,0,0,1,3.15.6,7.88,7.88,0,0,1,2.1.81,1.34,1.34,0,0,1,.77,1.11c0,.64-.68,1.19-2,1.66a27,27,0,0,1-6.69.9v1.82h-5.15Z" style="fill:#f7dc75"/><path d="M658.26,425.09v.69c0,2.57-2.84,5-7.64,6.88-1.21.48-2.53.93-4,1.35q-1.15.35-2.4.66l-1.42.33a111.74,111.74,0,0,1-24.12,2.42c-21.84,0-39.55-5.21-39.55-11.64v-.69c0,6.42,17.71,11.63,39.55,11.63a112.36,112.36,0,0,0,24.12-2.41l1.42-.34c.83-.2,1.63-.42,2.4-.65,1.44-.42,2.76-.88,4-1.36C655.42,430,658.26,427.66,658.26,425.09Z" style="fill:#9a0056"/><path d="M658.26,416.49c0,6.43-17.71,11.64-39.55,11.64s-39.55-5.21-39.55-11.64c0-1.5,1-2.94,2.73-4.25a22.85,22.85,0,0,1,5.22-2.75c1.36-.52,2.85-1,4.48-1.47,7.08-2,16.62-3.16,27.12-3.16A105.8,105.8,0,0,1,645.82,408c1.59.44,3,.92,4.37,1.43a23.12,23.12,0,0,1,5.27,2.73C657.26,413.49,658.26,415,658.26,416.49Z" style="fill:#faaa1f"/><path d="M658.26,408v8.49c0,2.58-2.84,4.95-7.64,6.88-1.21.48-2.53.93-4,1.36-.77.22-1.57.44-2.4.65-.46.11-.94.23-1.42.33a111.74,111.74,0,0,1-24.12,2.42c-21.84,0-39.55-5.21-39.55-11.64V408Z" style="fill:#ffdf00"/><path d="M650.62,409.3v14.05c-1.21.48-2.53.93-4,1.36V409.3Z" style="fill:#fffbee"/><path d="M644.25,412.28v13.08c-.46.11-.94.23-1.42.33V412.28Z" style="fill:#fffbee"/><ellipse cx="618.64" cy="407.91" rx="39.55" ry="11.64" style="fill:#ffdf00"/><ellipse cx="618.64" cy="407.91" rx="31.96" ry="9.4" style="fill:#ffdf00"/><path d="M642.19,401.55a86.34,86.34,0,0,0-21.6-2.47c-17.65,0-32,4.21-32,9.4,0,2.45,3.18,4.69,8.4,6.36-6.36-1.72-10.36-4.19-10.36-6.93,0-5.2,14.32-9.41,32-9.41C628,398.49,636.35,399.68,642.19,401.55Z" style="fill:#9a0056"/><path d="M658.26,415.78v.71c0,2.58-2.84,4.95-7.64,6.88-1.21.48-2.53.93-4,1.36-.77.22-1.57.44-2.4.65-.46.11-.94.23-1.42.33a111.74,111.74,0,0,1-24.12,2.42c-21.84,0-39.55-5.21-39.55-11.64v-.69c0,6.43,17.71,11.64,39.55,11.64A111.13,111.13,0,0,0,642.8,425l1.42-.33c.83-.21,1.63-.43,2.4-.65,1.44-.43,2.76-.88,4-1.36C655.42,420.73,658.26,418.35,658.26,415.78Z" style="fill:#9a0056"/><path d="M740.25,454c0,6.43-17.71,11.64-39.55,11.64s-39.54-5.21-39.54-11.64c0-1.5,1-2.94,2.72-4.25a22.53,22.53,0,0,1,5.23-2.75,44.24,44.24,0,0,1,4.48-1.47c7.08-2,16.62-3.16,27.11-3.16a106,106,0,0,1,27.12,3.16c1.58.44,3,.92,4.36,1.42a23.56,23.56,0,0,1,5.27,2.74C739.26,451,740.25,452.49,740.25,454Z" style="fill:#faaa1f"/><path d="M740.25,445.49V454c0,2.57-2.84,5-7.64,6.88-1.2.48-2.53.93-4,1.36-.77.22-1.58.44-2.41.65l-1.41.33a111.76,111.76,0,0,1-24.13,2.42c-21.84,0-39.54-5.21-39.54-11.64v-8.47Z" style="fill:#ffdf00"/><path d="M732.61,446.82v14c-1.2.48-2.53.93-4,1.36V446.82Z" style="fill:#fffbee"/><path d="M726.24,449.8v13.08l-1.41.33V449.8Z" style="fill:#fffbee"/><ellipse cx="700.63" cy="445.43" rx="39.55" ry="11.64" style="fill:#f7dc75"/><ellipse cx="700.63" cy="445.43" rx="31.96" ry="9.4" style="fill:#faaa1f"/><path d="M724.19,439.07a85.5,85.5,0,0,0-21.61-2.47c-17.65,0-32,4.21-32,9.4,0,2.45,3.19,4.68,8.41,6.36-6.37-1.72-10.36-4.19-10.36-6.93,0-5.2,14.31-9.41,32-9.41C710,436,718.35,437.2,724.19,439.07Z" style="fill:#c5761f"/><path d="M698.23,450.1c-2.37-.05-4.3-.15-5.77-.29s-2.56-.27-3.29-.38l1.68-1.39q1.59.24,3.84.42c1.5.13,3.21.19,5.13.19a25.7,25.7,0,0,0,4.72-.29c.88-.2,1.32-.47,1.32-.8s-.19-.42-.55-.58a7.26,7.26,0,0,0-1.53-.44c-.66-.12-1.45-.24-2.36-.35s-1.9-.22-3-.33-2-.23-3-.37a25,25,0,0,1-2.72-.5,7.84,7.84,0,0,1-2-.72,1.23,1.23,0,0,1-.75-1c0-.68.68-1.25,2-1.72a24.38,24.38,0,0,1,6.24-.91V439h5.15v1.57c1.59,0,3,.11,4.26.2s2.24.18,3,.27l-1.23,1.44c-1-.1-2.09-.21-3.39-.3s-2.8-.15-4.48-.15a20.61,20.61,0,0,0-4,.29c-.89.18-1.34.44-1.34.77s.13.36.4.49a4.52,4.52,0,0,0,1.19.35c.52.1,1.17.2,1.93.29l2.57.29c1.36.15,2.63.32,3.84.49a30.45,30.45,0,0,1,3.14.59,8,8,0,0,1,2.11.81,1.31,1.31,0,0,1,.76,1.11c0,.64-.67,1.19-2,1.66a26,26,0,0,1-6.68.9v1.82h-5.15Z" style="fill:#f7dc75"/><path d="M740.25,453.3V454c0,2.57-2.84,5-7.64,6.88-1.2.48-2.53.93-4,1.36-.77.22-1.58.44-2.41.65l-1.41.33a111.76,111.76,0,0,1-24.13,2.42c-21.84,0-39.54-5.21-39.54-11.64v-.69c0,6.43,17.7,11.64,39.54,11.64a111.88,111.88,0,0,0,24.14-2.45l1.41-.34c.83-.2,1.64-.42,2.41-.65,1.36-.39,2.69-.84,4-1.36C737.41,458.25,740.25,455.87,740.25,453.3Z" style="fill:#9a0056"/><path d="M740.25,444.68c0,6.43-17.71,11.64-39.55,11.64s-39.54-5.21-39.54-11.64c0-1.5,1-2.93,2.72-4.25a22.53,22.53,0,0,1,5.23-2.75c1.35-.52,2.85-1,4.48-1.47,7.08-2,16.62-3.16,27.11-3.16a106,106,0,0,1,27.12,3.16c1.58.44,3,.92,4.36,1.43a22.76,22.76,0,0,1,5.27,2.74C739.26,441.71,740.25,443.16,740.25,444.68Z" style="fill:#faaa1f"/><path d="M740.25,436.21v8.47c0,2.58-2.84,4.95-7.64,6.88a41.35,41.35,0,0,1-4,1.36c-.77.23-1.58.44-2.41.65l-1.41.34a112.39,112.39,0,0,1-24.13,2.41c-21.84,0-39.54-5.21-39.54-11.64v-8.47Z" style="fill:#ffdf00"/><path d="M732.61,437.49v14a41.35,41.35,0,0,1-4,1.36V437.49Z" style="fill:#fffbee"/><path d="M726.24,440.49v13.07l-1.41.34V440.49Z" style="fill:#fffbee"/><ellipse cx="700.63" cy="436.12" rx="39.55" ry="11.64" style="fill:#f7dc75"/><ellipse cx="700.63" cy="436.12" rx="31.96" ry="9.4" style="fill:#faaa1f"/><path d="M724.19,429.76a86.42,86.42,0,0,0-21.61-2.47c-17.65,0-32,4.21-32,9.4,0,2.45,3.19,4.69,8.41,6.36-6.37-1.72-10.36-4.19-10.36-6.93,0-5.19,14.31-9.4,32-9.4C710,426.72,718.35,427.89,724.19,429.76Z" style="fill:#c5761f"/><path d="M698.23,440.79c-2.37,0-4.3-.14-5.77-.28s-2.56-.27-3.29-.39l1.68-1.38q1.59.22,3.84.42c1.5.12,3.21.19,5.13.19a24.86,24.86,0,0,0,4.72-.3c.88-.2,1.32-.47,1.32-.8s-.19-.41-.55-.58a7.43,7.43,0,0,0-1.53-.44c-.66-.12-1.45-.24-2.36-.35l-3-.33-3-.36a25.51,25.51,0,0,1-2.72-.51,7.84,7.84,0,0,1-2-.72,1.19,1.19,0,0,1-.75-1c0-.67.68-1.24,2-1.71a23.54,23.54,0,0,1,6.24-.91V429.7h5.15v1.58c1.59,0,3,.1,4.26.19s2.24.19,3,.27l-1.24,1.45c-1-.11-2.09-.21-3.39-.31s-2.8-.15-4.48-.15a20.61,20.61,0,0,0-4,.29c-.89.19-1.34.45-1.34.78s.13.35.4.49a5.43,5.43,0,0,0,1.19.35c.52.1,1.17.19,1.93.29l2.57.28c1.36.16,2.63.32,3.84.49a27.61,27.61,0,0,1,3.14.6,7.6,7.6,0,0,1,2.11.8,1.32,1.32,0,0,1,.76,1.11c0,.64-.67,1.2-2,1.66a26,26,0,0,1-6.68.9v1.83h-5.15Z" style="fill:#f7dc75"/><path d="M740.25,444v.69c0,2.58-2.84,4.95-7.64,6.88a41.35,41.35,0,0,1-4,1.36c-.77.23-1.58.44-2.41.65l-1.41.34a112.39,112.39,0,0,1-24.13,2.41c-21.84,0-39.54-5.21-39.54-11.64V444c0,6.43,17.7,11.64,39.54,11.64a111.86,111.86,0,0,0,24.14-2.42c.48-.1,1-.22,1.41-.33.83-.21,1.64-.43,2.41-.65,1.43-.43,2.76-.88,4-1.36C737.41,448.94,740.25,446.56,740.25,444Z" style="fill:#9a0056"/><path d="M740.25,435.38c0,6.42-17.71,11.63-39.55,11.63s-39.54-5.21-39.54-11.63c0-1.51,1-2.94,2.72-4.26a22.3,22.3,0,0,1,5.23-2.74,44.24,44.24,0,0,1,4.48-1.47,117.46,117.46,0,0,1,54.23,0c1.58.44,3,.91,4.36,1.42a22.76,22.76,0,0,1,5.27,2.74C739.26,432.4,740.25,433.85,740.25,435.38Z" style="fill:#faaa1f"/><path d="M740.25,426.91v8.47c0,2.57-2.84,5-7.64,6.87-1.31.52-2.64,1-4,1.36-.77.23-1.58.45-2.41.65l-1.41.34A112.39,112.39,0,0,1,700.66,447c-21.84,0-39.54-5.21-39.54-11.63v-8.47Z" style="fill:#ffdf00"/><path d="M732.61,428.21v14c-1.31.52-2.64,1-4,1.36v-15.4Z" style="fill:#fffbee"/><path d="M726.24,431.19v13.07l-1.41.34V431.19Z" style="fill:#fffbee"/><ellipse cx="700.63" cy="426.81" rx="39.55" ry="11.64" style="fill:#f7dc75"/><ellipse cx="700.63" cy="426.81" rx="31.96" ry="9.4" style="fill:#faaa1f"/><path d="M724.19,420.49A86,86,0,0,0,702.58,418c-17.65,0-32,4.21-32,9.41,0,2.45,3.19,4.68,8.41,6.35-6.37-1.72-10.36-4.18-10.36-6.93,0-5.19,14.31-9.4,32-9.4C710,417.41,718.35,418.58,724.19,420.49Z" style="fill:#c5761f"/><path d="M698.23,431.49c-2.37,0-4.3-.14-5.77-.28s-2.56-.27-3.29-.39l1.68-1.38q1.59.22,3.84.42c1.5.13,3.21.19,5.13.19a24.86,24.86,0,0,0,4.72-.3c.88-.2,1.32-.46,1.32-.79s-.19-.42-.55-.59a7.41,7.41,0,0,0-1.53-.43c-.66-.13-1.45-.25-2.36-.35l-3-.34c-1-.1-2-.23-3-.36a27.26,27.26,0,0,1-2.72-.5,7.17,7.17,0,0,1-2-.73,1.19,1.19,0,0,1-.75-1c0-.67.68-1.24,2-1.71a24.38,24.38,0,0,1,6.24-.91v-1.63h5.15V422c1.59,0,3,.11,4.26.2s2.24.18,3,.27l-1.24,1.44c-1-.11-2.09-.21-3.39-.31s-2.8-.14-4.48-.14a20.6,20.6,0,0,0-4,.28c-.89.19-1.34.45-1.34.78s.13.36.4.49a4.52,4.52,0,0,0,1.19.35c.52.1,1.17.2,1.93.29s1.61.19,2.57.28c1.36.16,2.63.32,3.84.49a27.61,27.61,0,0,1,3.14.6,8,8,0,0,1,2.11.81,1.29,1.29,0,0,1,.76,1.1c0,.64-.67,1.2-2,1.67a26.88,26.88,0,0,1-6.68.9v1.82h-5.15Z" style="fill:#f7dc75"/><path d="M740.25,434.68v.7c0,2.57-2.84,5-7.64,6.87a41.35,41.35,0,0,1-4,1.36c-.77.23-1.58.44-2.41.65l-1.41.34A112.39,112.39,0,0,1,700.66,447c-21.84,0-39.54-5.21-39.54-11.63v-.7c0,6.43,17.7,11.64,39.54,11.64a112.54,112.54,0,0,0,24.14-2.41l1.41-.34c.83-.21,1.64-.42,2.41-.65,1.43-.42,2.76-.88,4-1.36C737.41,439.63,740.25,437.26,740.25,434.68Z" style="fill:#9a0056"/><path d="M740.25,425.78c0,6.43-17.71,11.64-39.55,11.64s-39.54-5.21-39.54-11.64c0-1.5,1-2.94,2.72-4.26a22.3,22.3,0,0,1,5.23-2.74,44.24,44.24,0,0,1,4.48-1.47,117.46,117.46,0,0,1,54.23,0c1.58.44,3,.91,4.36,1.42a22.76,22.76,0,0,1,5.27,2.74C739.26,422.8,740.25,424.26,740.25,425.78Z" style="fill:#faaa1f"/><path d="M740.25,417.31v8.47c0,2.57-2.84,5-7.64,6.87-1.31.52-2.64,1-4,1.36-.77.23-1.58.45-2.41.66l-1.41.33a111.76,111.76,0,0,1-24.13,2.42c-21.84,0-39.54-5.21-39.54-11.64v-8.47Z" style="fill:#ffdf00"/><path d="M732.61,418.61v14c-1.31.52-2.64,1-4,1.36v-15.4Z" style="fill:#fffbee"/><path d="M726.24,421.59v13.08l-1.41.33V421.59Z" style="fill:#fffbee"/><ellipse cx="700.63" cy="417.22" rx="39.55" ry="11.64" style="fill:#f7dc75"/><ellipse cx="700.63" cy="417.22" rx="31.96" ry="9.4" style="fill:#faaa1f"/><path d="M724.19,410.86a86,86,0,0,0-21.61-2.48c-17.65,0-32,4.22-32,9.41,0,2.45,3.19,4.68,8.41,6.36-6.37-1.72-10.36-4.19-10.36-6.93,0-5.2,14.31-9.41,32-9.41C710,407.81,718.35,409,724.19,410.86Z" style="fill:#c5761f"/><path d="M698.23,421.88c-2.37,0-4.3-.14-5.77-.28s-2.56-.27-3.29-.39l1.68-1.38q1.59.24,3.84.42c1.5.13,3.21.19,5.13.19a24.86,24.86,0,0,0,4.72-.3c.88-.2,1.32-.46,1.32-.79s-.19-.42-.55-.58a7.26,7.26,0,0,0-1.53-.44c-.66-.13-1.45-.24-2.36-.35l-3-.34q-1.5-.15-3-.36a25,25,0,0,1-2.72-.5,7.84,7.84,0,0,1-2-.72,1.23,1.23,0,0,1-.75-1c0-.67.68-1.24,2-1.71a24.38,24.38,0,0,1,6.24-.91v-1.63h5.15v1.57c1.59,0,3,.11,4.26.2s2.24.18,3,.27l-1.24,1.44c-1-.11-2.09-.21-3.39-.31s-2.8-.14-4.48-.14a20.6,20.6,0,0,0-4,.28c-.89.19-1.34.45-1.34.78s.13.36.4.49a4.52,4.52,0,0,0,1.19.35c.52.1,1.17.2,1.93.29l2.57.29c1.36.15,2.63.31,3.84.48a27.61,27.61,0,0,1,3.14.6,8,8,0,0,1,2.11.81,1.31,1.31,0,0,1,.76,1.11c0,.64-.67,1.19-2,1.66a26.88,26.88,0,0,1-6.68.9v1.82h-5.15Z" style="fill:#f7dc75"/><path d="M740.25,425.09v.69c0,2.57-2.84,5-7.64,6.88a41.44,41.44,0,0,1-4,1.35c-.77.23-1.58.45-2.41.66l-1.41.33a111.76,111.76,0,0,1-24.13,2.42c-21.84,0-39.54-5.21-39.54-11.64v-.69c0,6.42,17.7,11.63,39.54,11.63a112.54,112.54,0,0,0,24.14-2.41l1.41-.34c.83-.2,1.64-.42,2.41-.65,1.43-.42,2.76-.88,4-1.36C737.41,430,740.25,427.66,740.25,425.09Z" style="fill:#9a0056"/><path d="M740.25,416.49c0,6.43-17.71,11.64-39.55,11.64s-39.54-5.21-39.54-11.64c0-1.5,1-2.94,2.72-4.25a22.53,22.53,0,0,1,5.23-2.75c1.35-.52,2.85-1,4.48-1.47,7.08-2,16.62-3.16,27.11-3.16A106,106,0,0,1,727.82,408c1.58.44,3,.92,4.36,1.43a23.12,23.12,0,0,1,5.27,2.73C739.26,413.49,740.25,415,740.25,416.49Z" style="fill:#faaa1f"/><path d="M740.25,408v8.49c0,2.58-2.84,4.95-7.64,6.88-1.2.48-2.53.93-4,1.36-.77.22-1.58.44-2.41.65-.46.11-.93.23-1.41.33a111.76,111.76,0,0,1-24.13,2.42c-21.84,0-39.54-5.21-39.54-11.64V408Z" style="fill:#ffdf00"/><path d="M732.61,409.3v14.05c-1.2.48-2.53.93-4,1.36V409.3Z" style="fill:#fffbee"/><path d="M726.24,412.28v13.08c-.46.11-.93.23-1.41.33V412.28Z" style="fill:#fffbee"/><ellipse cx="700.63" cy="407.91" rx="39.55" ry="11.64" style="fill:#f7dc75"/><ellipse cx="700.63" cy="407.91" rx="31.96" ry="9.4" style="fill:#faaa1f"/><path d="M724.19,401.55a86.42,86.42,0,0,0-21.61-2.47c-17.65,0-32,4.21-32,9.4,0,2.45,3.19,4.69,8.41,6.36-6.37-1.72-10.36-4.19-10.36-6.93,0-5.2,14.31-9.41,32-9.41C710,398.49,718.35,399.68,724.19,401.55Z" style="fill:#c5761f"/><path d="M698.23,412.58c-2.37,0-4.3-.15-5.77-.29s-2.56-.27-3.29-.38l1.68-1.39c1.06.16,2.34.3,3.84.43s3.21.19,5.13.19a24.86,24.86,0,0,0,4.72-.3c.88-.2,1.32-.47,1.32-.8s-.19-.42-.55-.58a7.26,7.26,0,0,0-1.53-.44c-.66-.12-1.45-.24-2.36-.35s-1.9-.22-3-.33-2-.23-3-.37a25,25,0,0,1-2.72-.5,7.84,7.84,0,0,1-2-.72,1.23,1.23,0,0,1-.75-1c0-.67.68-1.24,2-1.72a24.38,24.38,0,0,1,6.24-.91v-1.63h5.15v1.58c1.59,0,3,.1,4.26.19s2.24.18,3,.27L709.36,405c-1-.1-2.09-.21-3.39-.3s-2.8-.15-4.48-.15a20.61,20.61,0,0,0-4,.29c-.89.19-1.34.45-1.34.78s.13.35.4.48a4.52,4.52,0,0,0,1.19.35c.52.11,1.17.2,1.93.29l2.57.29c1.36.15,2.63.32,3.84.49a30.45,30.45,0,0,1,3.14.59,8,8,0,0,1,2.11.81,1.31,1.31,0,0,1,.76,1.11c0,.64-.67,1.19-2,1.66a26,26,0,0,1-6.68.9v1.82h-5.15Z" style="fill:#f7dc75"/><path d="M740.25,415.78v.71c0,2.58-2.84,4.95-7.64,6.88-1.2.48-2.53.93-4,1.36-.77.22-1.58.44-2.41.65-.46.11-.93.23-1.41.33a111.76,111.76,0,0,1-24.13,2.42c-21.84,0-39.54-5.21-39.54-11.64v-.69c0,6.43,17.7,11.64,39.54,11.64A111.25,111.25,0,0,0,724.8,425l1.41-.33c.83-.21,1.64-.43,2.41-.65,1.43-.43,2.76-.88,4-1.36C737.41,420.73,740.25,418.35,740.25,415.78Z" style="fill:#9a0056"/><path d="M740.25,407.17c0,6.42-17.71,11.63-39.55,11.63s-39.54-5.21-39.54-11.63c0-1.51,1-2.94,2.72-4.26a22.3,22.3,0,0,1,5.23-2.74c1.35-.53,2.85-1,4.48-1.48,7.08-2,16.62-3.16,27.11-3.16a106,106,0,0,1,27.12,3.16c1.58.44,3,.92,4.36,1.43a22.76,22.76,0,0,1,5.27,2.74C739.26,404.19,740.25,405.64,740.25,407.17Z" style="fill:#faaa1f"/><path d="M740.25,398.69v8.48c0,2.57-2.84,4.94-7.64,6.87a41.35,41.35,0,0,1-4,1.36c-.77.23-1.58.44-2.41.65l-1.41.34a112.39,112.39,0,0,1-24.13,2.41c-21.84,0-39.54-5.21-39.54-11.63v-8.48Z" style="fill:#ffdf00"/><path d="M732.61,400v14a41.35,41.35,0,0,1-4,1.36V400Z" style="fill:#fffbee"/><path d="M726.24,403v13.07l-1.41.34V403Z" style="fill:#fffbee"/><ellipse cx="700.63" cy="398.6" rx="39.55" ry="11.64" style="fill:#f7dc75"/><ellipse cx="700.63" cy="398.6" rx="31.96" ry="9.4" style="fill:#faaa1f"/><path d="M724.19,392.24a86.42,86.42,0,0,0-21.61-2.47c-17.65,0-32,4.21-32,9.41,0,2.45,3.19,4.68,8.41,6.35-6.37-1.72-10.36-4.19-10.36-6.93,0-5.19,14.31-9.4,32-9.4C710,389.2,718.35,390.37,724.19,392.24Z" style="fill:#c5761f"/><path d="M698.23,403.27c-2.37,0-4.3-.14-5.77-.28s-2.56-.27-3.29-.39l1.68-1.38q1.59.22,3.84.42c1.5.13,3.21.19,5.13.19a24.86,24.86,0,0,0,4.72-.3c.88-.2,1.32-.46,1.32-.79s-.19-.42-.55-.59a7.41,7.41,0,0,0-1.53-.43c-.66-.13-1.45-.25-2.36-.35l-3-.34q-1.5-.16-3-.36a25.51,25.51,0,0,1-2.72-.51,7.15,7.15,0,0,1-2-.72,1.19,1.19,0,0,1-.75-1c0-.67.68-1.24,2-1.71a23.54,23.54,0,0,1,6.24-.91v-1.63h5.15v1.57c1.59,0,3,.1,4.26.2s2.24.18,3,.26l-1.24,1.45c-1-.11-2.09-.21-3.39-.31s-2.8-.15-4.48-.15a20.61,20.61,0,0,0-4,.29c-.89.19-1.34.45-1.34.78s.13.36.4.49a5.43,5.43,0,0,0,1.19.35c.52.1,1.17.2,1.93.29s1.61.19,2.57.28c1.36.16,2.63.32,3.84.49a27.61,27.61,0,0,1,3.14.6,8,8,0,0,1,2.11.81,1.29,1.29,0,0,1,.76,1.1c0,.64-.67,1.2-2,1.66a26,26,0,0,1-6.68.91v1.82h-5.15Z" style="fill:#f7dc75"/><path d="M740.25,406.49v.7c0,2.57-2.84,4.94-7.64,6.87a41.35,41.35,0,0,1-4,1.36c-.77.23-1.58.44-2.41.65l-1.41.34a112.39,112.39,0,0,1-24.13,2.41c-21.84,0-39.54-5.21-39.54-11.63v-.7c0,6.43,17.7,11.64,39.54,11.64a111.25,111.25,0,0,0,24.14-2.44c.48-.1,1-.22,1.41-.33.83-.21,1.64-.43,2.41-.65,1.43-.42,2.76-.88,4-1.36C737.41,411.42,740.25,409.05,740.25,406.49Z" style="fill:#9a0056"/><path d="M740.25,397.86c0,6.43-17.71,11.63-39.55,11.63s-39.54-5.2-39.54-11.63c0-1.5,1-2.94,2.72-4.26a22.3,22.3,0,0,1,5.23-2.74,44.24,44.24,0,0,1,4.48-1.47,117.46,117.46,0,0,1,54.23,0c1.58.44,3,.91,4.36,1.42a22.76,22.76,0,0,1,5.27,2.74C739.26,394.88,740.25,396.34,740.25,397.86Z" style="fill:#faaa1f"/><path d="M740.25,389.39v8.47c0,2.57-2.84,4.95-7.64,6.87-1.31.52-2.64,1-4,1.36-.77.23-1.58.45-2.41.65l-1.41.34a112.08,112.08,0,0,1-24.09,2.41c-21.84,0-39.54-5.2-39.54-11.63v-8.47Z" style="fill:#ffdf00"/><path d="M732.61,390.69v14c-1.31.52-2.64,1-4,1.36V390.69Z" style="fill:#fffbee"/><path d="M726.24,393.67v13.07l-1.41.34V393.67Z" style="fill:#fffbee"/><ellipse cx="700.63" cy="389.29" rx="39.55" ry="11.64" style="fill:#f7dc75"/><ellipse cx="700.63" cy="389.29" rx="31.96" ry="9.4" style="fill:#faaa1f"/><path d="M724.19,382.94a85.94,85.94,0,0,0-21.61-2.45c-17.65,0-32,4.21-32,9.41,0,2.45,3.19,4.68,8.41,6.35-6.37-1.71-10.36-4.18-10.36-6.93,0-5.19,14.31-9.4,32-9.4C710,379.89,718.35,381.06,724.19,382.94Z" style="fill:#c5761f"/><path d="M698.23,394c-2.37,0-4.3-.14-5.77-.28s-2.56-.27-3.29-.39l1.68-1.38c1.06.15,2.34.3,3.84.42s3.21.19,5.13.19a24.86,24.86,0,0,0,4.72-.3c.88-.2,1.32-.46,1.32-.79s-.19-.42-.55-.58a7.26,7.26,0,0,0-1.53-.44c-.66-.13-1.45-.24-2.36-.35l-3-.34q-1.5-.15-3-.36c-.91-.12-1.82-.29-2.72-.5a7.84,7.84,0,0,1-2-.72,1.23,1.23,0,0,1-.75-1c0-.67.68-1.24,2-1.71a24.38,24.38,0,0,1,6.24-.91v-1.63h5.15v1.57c1.59,0,3,.11,4.26.2s2.24.18,3,.27l-1.24,1.44c-1-.11-2.09-.21-3.39-.31s-2.8-.14-4.48-.14a20.6,20.6,0,0,0-4,.28c-.89.19-1.34.45-1.34.78s.13.36.4.49a4.52,4.52,0,0,0,1.19.35c.52.1,1.17.2,1.93.29s1.61.19,2.57.28c1.36.16,2.63.32,3.84.49a27.61,27.61,0,0,1,3.14.6,8,8,0,0,1,2.11.81,1.31,1.31,0,0,1,.76,1.11c0,.64-.67,1.19-2,1.66a26.88,26.88,0,0,1-6.68.9v1.82h-5.15Z" style="fill:#f7dc75"/><path d="M740.25,397.17v.69c0,2.57-2.84,4.95-7.64,6.87-1.31.52-2.64,1-4,1.36-.77.23-1.58.45-2.41.66l-1.41.33a112.08,112.08,0,0,1-24.09,2.41c-21.84,0-39.54-5.21-39.54-11.63v-.69c0,6.42,17.7,11.63,39.54,11.63a112.11,112.11,0,0,0,24.1-2.41l1.41-.34c.83-.21,1.64-.42,2.41-.65,1.43-.42,2.76-.88,4-1.36C737.41,402.11,740.25,399.74,740.25,397.17Z" style="fill:#9a0056"/><path d="M740.25,388.55c0,6.43-17.71,11.64-39.55,11.64s-39.54-5.21-39.54-11.64c0-1.5,1-2.94,2.72-4.25a22.53,22.53,0,0,1,5.23-2.75,44.24,44.24,0,0,1,4.48-1.47c7.08-2,16.62-3.16,27.11-3.16a106,106,0,0,1,27.12,3.16c1.58.44,3,.92,4.36,1.42a23.56,23.56,0,0,1,5.27,2.74C739.26,385.57,740.25,387,740.25,388.55Z" style="fill:#faaa1f"/><path d="M740.25,380.08v8.47c0,2.57-2.84,4.95-7.64,6.88-1.2.48-2.53.93-4,1.36-.77.22-1.58.44-2.41.65l-1.41.33a111.76,111.76,0,0,1-24.13,2.42c-21.84,0-39.54-5.21-39.54-11.64v-8.47Z" style="fill:#ffdf00"/><path d="M732.61,381.38v14.05c-1.2.48-2.53.93-4,1.36V381.38Z" style="fill:#fffbee"/><path d="M726.24,384.36v13.13l-1.41.33V384.36Z" style="fill:#fffbee"/><ellipse cx="700.63" cy="379.99" rx="39.55" ry="11.64" style="fill:#ffdf00"/><ellipse cx="700.63" cy="379.99" rx="31.96" ry="9.4" style="fill:#ffdf00"/><path d="M724.19,373.63a85.5,85.5,0,0,0-21.61-2.47c-17.65,0-32,4.21-32,9.4,0,2.45,3.19,4.68,8.41,6.36-6.37-1.72-10.36-4.19-10.36-6.93,0-5.2,14.31-9.41,32-9.41C710,370.58,718.35,371.76,724.19,373.63Z" style="fill:#9a0056"/><path d="M740.25,387.86v.69c0,2.57-2.84,4.95-7.64,6.88-1.2.48-2.53.93-4,1.36-.77.22-1.58.44-2.41.65l-1.41.33a111.76,111.76,0,0,1-24.13,2.42c-21.84,0-39.54-5.21-39.54-11.64v-.69c0,6.43,17.7,11.64,39.54,11.64a111.92,111.92,0,0,0,24.14-2.42l1.41-.33c.83-.21,1.64-.43,2.41-.66,1.36-.39,2.69-.84,4-1.36C737.41,392.81,740.25,390.43,740.25,387.86Z" style="fill:#9a0056"/><path d="M822.24,454c0,6.43-17.7,11.64-39.54,11.64s-39.55-5.21-39.55-11.64c0-1.5,1-2.94,2.73-4.25A22.46,22.46,0,0,1,751.1,447a44.24,44.24,0,0,1,4.48-1.47c7.08-2,16.62-3.16,27.12-3.16a105.8,105.8,0,0,1,27.11,3.16c1.58.44,3,.92,4.37,1.42a23.3,23.3,0,0,1,5.26,2.74C821.25,451,822.24,452.49,822.24,454Z" style="fill:#faaa1f"/><path d="M822.24,445.49V454c0,2.57-2.83,5-7.64,6.88-1.2.48-2.52.93-4,1.36-.77.22-1.57.44-2.4.65l-1.42.33a111.74,111.74,0,0,1-24.12,2.42c-21.84,0-39.55-5.21-39.55-11.64v-8.47Z" style="fill:#ffdf00"/><path d="M814.6,446.82v14c-1.2.48-2.52.93-4,1.36V446.82Z" style="fill:#fffbee"/><path d="M808.24,449.8v13.08l-1.42.33V449.8Z" style="fill:#fffbee"/><ellipse cx="782.63" cy="445.43" rx="39.55" ry="11.64" style="fill:#f7dc75"/><ellipse cx="782.63" cy="445.43" rx="31.96" ry="9.4" style="fill:#faaa1f"/><path d="M806.18,439.07a85.42,85.42,0,0,0-21.6-2.47c-17.66,0-32,4.21-32,9.4,0,2.45,3.19,4.68,8.41,6.36-6.37-1.72-10.36-4.19-10.36-6.93,0-5.2,14.31-9.41,32-9.41C792,436,800.34,437.2,806.18,439.07Z" style="fill:#c5761f"/><path d="M780.22,450.1c-2.37-.05-4.3-.15-5.76-.29s-2.57-.27-3.29-.38l1.68-1.39q1.57.24,3.84.42c1.49.13,3.2.19,5.12.19a25.81,25.81,0,0,0,4.73-.29c.87-.2,1.31-.47,1.31-.8s-.18-.42-.54-.58a7.52,7.52,0,0,0-1.54-.44c-.66-.12-1.45-.24-2.35-.35l-3-.33c-1-.11-2-.23-3-.37a23,23,0,0,1-2.73-.5,7.84,7.84,0,0,1-2-.72,1.23,1.23,0,0,1-.75-1c0-.68.68-1.25,2-1.72a24.31,24.31,0,0,1,6.23-.91V439h5.15v1.57c1.59,0,3,.11,4.26.2s2.25.18,3,.27l-1.22,1.44c-1-.1-2.08-.21-3.39-.3s-2.8-.15-4.48-.15a20.61,20.61,0,0,0-4,.29c-.89.18-1.34.44-1.34.77s.14.36.4.49a4.52,4.52,0,0,0,1.19.35c.52.1,1.17.2,1.93.29l2.58.29c1.35.15,2.63.32,3.83.49a30,30,0,0,1,3.14.59,8,8,0,0,1,2.11.81,1.34,1.34,0,0,1,.77,1.11c0,.64-.68,1.19-2,1.66a26.05,26.05,0,0,1-6.69.9v1.82h-5.15Z" style="fill:#f7dc75"/><path d="M822.24,453.3V454c0,2.57-2.83,5-7.64,6.88-1.2.48-2.52.93-4,1.36-.77.22-1.57.44-2.4.65l-1.42.33a111.74,111.74,0,0,1-24.12,2.42c-21.84,0-39.55-5.21-39.55-11.64v-.69c0,6.43,17.71,11.64,39.55,11.64a111.88,111.88,0,0,0,24.14-2.45l1.42-.34c.83-.2,1.63-.42,2.4-.65a40.06,40.06,0,0,0,4-1.36C819.41,458.25,822.24,455.87,822.24,453.3Z" style="fill:#9a0056"/><path d="M822.24,444.68c0,6.43-17.7,11.64-39.54,11.64s-39.55-5.21-39.55-11.64c0-1.5,1-2.93,2.73-4.25a22.46,22.46,0,0,1,5.22-2.75c1.35-.52,2.85-1,4.48-1.47,7.08-2,16.62-3.16,27.12-3.16a105.8,105.8,0,0,1,27.11,3.16c1.58.44,3,.92,4.37,1.43a22.5,22.5,0,0,1,5.26,2.74C821.25,441.71,822.24,443.16,822.24,444.68Z" style="fill:#faaa1f"/><path d="M822.24,436.21v8.47c0,2.58-2.83,4.95-7.64,6.88a40.44,40.44,0,0,1-4,1.36c-.77.23-1.57.44-2.4.65l-1.42.34a112.36,112.36,0,0,1-24.12,2.41c-21.84,0-39.55-5.21-39.55-11.64v-8.47Z" style="fill:#ffdf00"/><path d="M814.6,437.49v14a40.44,40.44,0,0,1-4,1.36V437.49Z" style="fill:#fffbee"/><path d="M808.24,440.49v13.07l-1.42.34V440.49Z" style="fill:#fffbee"/><ellipse cx="782.63" cy="436.12" rx="39.55" ry="11.64" style="fill:#f7dc75"/><ellipse cx="782.63" cy="436.12" rx="31.96" ry="9.4" style="fill:#faaa1f"/><path d="M806.18,429.76a86.34,86.34,0,0,0-21.6-2.47c-17.66,0-32,4.21-32,9.4,0,2.45,3.19,4.69,8.41,6.36-6.37-1.72-10.36-4.19-10.36-6.93,0-5.19,14.31-9.4,32-9.4C792,426.72,800.34,427.89,806.18,429.76Z" style="fill:#c5761f"/><path d="M780.22,440.79c-2.37,0-4.3-.14-5.76-.28s-2.57-.27-3.29-.39l1.68-1.38q1.57.22,3.84.42c1.49.12,3.2.19,5.12.19a25,25,0,0,0,4.73-.3c.87-.2,1.31-.47,1.31-.8s-.18-.41-.54-.58a7.52,7.52,0,0,0-1.54-.44c-.66-.12-1.45-.24-2.35-.35l-3-.33-3-.36a25.23,25.23,0,0,1-2.73-.51,7.84,7.84,0,0,1-2-.72,1.19,1.19,0,0,1-.75-1c0-.67.67-1.24,2-1.71a23.46,23.46,0,0,1,6.23-.91V429.7h5.15v1.58c1.59,0,3,.1,4.26.19s2.25.19,3,.27l-1.24,1.45c-1-.11-2.08-.21-3.39-.31s-2.8-.15-4.48-.15a20.61,20.61,0,0,0-4,.29c-.89.19-1.34.45-1.34.78s.14.35.4.49a5.43,5.43,0,0,0,1.19.35c.52.1,1.17.19,1.93.29l2.58.28c1.35.16,2.63.32,3.83.49a27.61,27.61,0,0,1,3.14.6,7.6,7.6,0,0,1,2.11.8,1.34,1.34,0,0,1,.77,1.11c0,.64-.68,1.2-2,1.66a26.05,26.05,0,0,1-6.69.9v1.83h-5.15Z" style="fill:#f7dc75"/><path d="M822.24,444v.69c0,2.58-2.83,4.95-7.64,6.88a40.44,40.44,0,0,1-4,1.36c-.77.23-1.57.44-2.4.65l-1.42.34a112.36,112.36,0,0,1-24.12,2.41c-21.84,0-39.55-5.21-39.55-11.64V444c0,6.43,17.71,11.64,39.55,11.64a111.86,111.86,0,0,0,24.14-2.42c.48-.1,1-.22,1.42-.33.83-.21,1.63-.43,2.4-.65,1.44-.43,2.76-.88,4-1.36C819.41,448.94,822.24,446.56,822.24,444Z" style="fill:#9a0056"/><path d="M822.24,435.38c0,6.42-17.7,11.63-39.54,11.63s-39.55-5.21-39.55-11.63c0-1.51,1-2.94,2.73-4.26a22.43,22.43,0,0,1,5.22-2.74,44.24,44.24,0,0,1,4.48-1.47,117.46,117.46,0,0,1,54.23,0c1.58.44,3,.91,4.37,1.42a22.5,22.5,0,0,1,5.26,2.74C821.25,432.4,822.24,433.85,822.24,435.38Z" style="fill:#faaa1f"/><path d="M822.24,426.91v8.47c0,2.57-2.83,5-7.64,6.87a40.06,40.06,0,0,1-4,1.36c-.77.23-1.57.45-2.4.65l-1.42.34A112.36,112.36,0,0,1,782.66,447c-21.84,0-39.55-5.21-39.55-11.63v-8.47Z" style="fill:#ffdf00"/><path d="M814.6,428.21v14a40.06,40.06,0,0,1-4,1.36v-15.4Z" style="fill:#fffbee"/><path d="M808.24,431.19v13.07l-1.42.34V431.19Z" style="fill:#fffbee"/><ellipse cx="782.63" cy="426.81" rx="39.55" ry="11.64" style="fill:#f7dc75"/><ellipse cx="782.63" cy="426.81" rx="31.96" ry="9.4" style="fill:#faaa1f"/><path d="M806.18,420.49a85.89,85.89,0,0,0-21.6-2.48c-17.66,0-32,4.21-32,9.41,0,2.45,3.19,4.68,8.41,6.35-6.37-1.72-10.36-4.18-10.36-6.93,0-5.19,14.31-9.4,32-9.4C792,417.41,800.34,418.58,806.18,420.49Z" style="fill:#c5761f"/><path d="M780.22,431.49c-2.37,0-4.3-.14-5.76-.28s-2.57-.27-3.29-.39l1.68-1.38q1.57.22,3.84.42c1.49.13,3.2.19,5.12.19a25,25,0,0,0,4.73-.3c.87-.2,1.31-.46,1.31-.79s-.18-.42-.54-.59a7.5,7.5,0,0,0-1.54-.43c-.66-.13-1.45-.25-2.35-.35l-3-.34c-1-.1-2-.23-3-.36a27.49,27.49,0,0,1-2.73-.5,7.17,7.17,0,0,1-2-.73,1.19,1.19,0,0,1-.75-1c0-.67.67-1.24,2-1.71a24.31,24.31,0,0,1,6.23-.91v-1.63h5.15V422c1.59,0,3,.11,4.26.2s2.25.18,3,.27l-1.24,1.44c-1-.11-2.08-.21-3.39-.31s-2.8-.14-4.48-.14a20.6,20.6,0,0,0-4,.28c-.89.19-1.34.45-1.34.78s.14.36.4.49a4.52,4.52,0,0,0,1.19.35c.52.1,1.17.2,1.93.29s1.62.19,2.58.28c1.35.16,2.63.32,3.83.49a27.61,27.61,0,0,1,3.14.6,8,8,0,0,1,2.11.81,1.32,1.32,0,0,1,.77,1.1c0,.64-.68,1.2-2,1.67a27,27,0,0,1-6.69.9v1.82h-5.15Z" style="fill:#f7dc75"/><path d="M822.24,434.68v.7c0,2.57-2.83,5-7.64,6.87a40.44,40.44,0,0,1-4,1.36c-.77.23-1.57.44-2.4.65l-1.42.34A112.36,112.36,0,0,1,782.66,447c-21.84,0-39.55-5.21-39.55-11.63v-.7c0,6.43,17.71,11.64,39.55,11.64a112.54,112.54,0,0,0,24.14-2.41l1.42-.34c.83-.21,1.63-.42,2.4-.65,1.44-.42,2.76-.88,4-1.36C819.41,439.63,822.24,437.26,822.24,434.68Z" style="fill:#9a0056"/><path d="M822.24,425.78c0,6.43-17.7,11.64-39.54,11.64s-39.55-5.21-39.55-11.64c0-1.5,1-2.94,2.73-4.26a22.43,22.43,0,0,1,5.22-2.74,44.24,44.24,0,0,1,4.48-1.47,117.46,117.46,0,0,1,54.23,0c1.58.44,3,.91,4.37,1.42a22.5,22.5,0,0,1,5.26,2.74C821.25,422.8,822.24,424.26,822.24,425.78Z" style="fill:#faaa1f"/><path d="M822.24,417.31v8.47c0,2.57-2.83,5-7.64,6.87a40.06,40.06,0,0,1-4,1.36q-1.15.35-2.4.66l-1.42.33a111.74,111.74,0,0,1-24.12,2.42c-21.84,0-39.55-5.21-39.55-11.64v-8.47Z" style="fill:#ffdf00"/><path d="M814.6,418.61v14a40.06,40.06,0,0,1-4,1.36v-15.4Z" style="fill:#fffbee"/><path d="M808.24,421.59v13.08l-1.42.33V421.59Z" style="fill:#fffbee"/><ellipse cx="782.63" cy="417.22" rx="39.55" ry="11.64" style="fill:#f7dc75"/><ellipse cx="782.63" cy="417.22" rx="31.96" ry="9.4" style="fill:#faaa1f"/><path d="M806.18,410.86a85.89,85.89,0,0,0-21.6-2.48c-17.66,0-32,4.22-32,9.41,0,2.45,3.19,4.68,8.41,6.36-6.37-1.72-10.36-4.19-10.36-6.93,0-5.2,14.31-9.41,32-9.41C792,407.81,800.34,409,806.18,410.86Z" style="fill:#c5761f"/><path d="M780.22,421.88c-2.37,0-4.3-.14-5.76-.28s-2.57-.27-3.29-.39l1.68-1.38q1.57.24,3.84.42c1.49.13,3.2.19,5.12.19a25,25,0,0,0,4.73-.3c.87-.2,1.31-.46,1.31-.79s-.18-.42-.54-.58a7.52,7.52,0,0,0-1.54-.44c-.66-.13-1.45-.24-2.35-.35l-3-.34q-1.5-.15-3-.36a23,23,0,0,1-2.73-.5,7.84,7.84,0,0,1-2-.72,1.23,1.23,0,0,1-.75-1c0-.67.67-1.24,2-1.71a24.31,24.31,0,0,1,6.23-.91v-1.63h5.15v1.57c1.59,0,3,.11,4.26.2s2.25.18,3,.27l-1.24,1.44c-1-.11-2.08-.21-3.39-.31s-2.8-.14-4.48-.14a20.6,20.6,0,0,0-4,.28c-.89.19-1.34.45-1.34.78s.14.36.4.49a4.52,4.52,0,0,0,1.19.35c.52.1,1.17.2,1.93.29l2.58.29c1.35.15,2.63.31,3.83.48a27.61,27.61,0,0,1,3.14.6,8,8,0,0,1,2.11.81,1.34,1.34,0,0,1,.77,1.11c0,.64-.68,1.19-2,1.66a27,27,0,0,1-6.69.9v1.82h-5.15Z" style="fill:#f7dc75"/><path d="M822.24,425.09v.69c0,2.57-2.83,5-7.64,6.88a41.44,41.44,0,0,1-4,1.35q-1.15.35-2.4.66l-1.42.33a111.74,111.74,0,0,1-24.12,2.42c-21.84,0-39.55-5.21-39.55-11.64v-.69c0,6.42,17.71,11.63,39.55,11.63a112.54,112.54,0,0,0,24.14-2.41l1.42-.34c.83-.2,1.63-.42,2.4-.65,1.44-.42,2.76-.88,4-1.36C819.41,430,822.24,427.66,822.24,425.09Z" style="fill:#9a0056"/><path d="M822.24,416.49c0,6.43-17.7,11.64-39.54,11.64s-39.55-5.21-39.55-11.64c0-1.5,1-2.94,2.73-4.25a22.46,22.46,0,0,1,5.22-2.75c1.35-.52,2.85-1,4.48-1.47,7.08-2,16.62-3.16,27.12-3.16A105.8,105.8,0,0,1,809.81,408c1.58.44,3,.92,4.37,1.43a23.26,23.26,0,0,1,5.26,2.73C821.25,413.49,822.24,415,822.24,416.49Z" style="fill:#faaa1f"/><path d="M822.24,408v8.49c0,2.58-2.83,4.95-7.64,6.88-1.2.48-2.52.93-4,1.36-.77.22-1.57.44-2.4.65-.47.11-.94.23-1.42.33a111.74,111.74,0,0,1-24.12,2.42c-21.84,0-39.55-5.21-39.55-11.64V408Z" style="fill:#ffdf00"/><path d="M814.6,409.3v14.05c-1.2.48-2.52.93-4,1.36V409.3Z" style="fill:#fffbee"/><path d="M808.24,412.28v13.08c-.47.11-.94.23-1.42.33V412.28Z" style="fill:#fffbee"/><ellipse cx="782.63" cy="407.91" rx="39.55" ry="11.64" style="fill:#f7dc75"/><ellipse cx="782.63" cy="407.91" rx="31.96" ry="9.4" style="fill:#faaa1f"/><path d="M806.18,401.55a86.34,86.34,0,0,0-21.6-2.47c-17.66,0-32,4.21-32,9.4,0,2.45,3.19,4.69,8.41,6.36-6.37-1.72-10.36-4.19-10.36-6.93,0-5.2,14.31-9.41,32-9.41C792,398.49,800.34,399.68,806.18,401.55Z" style="fill:#c5761f"/><path d="M780.22,412.58c-2.37,0-4.3-.15-5.76-.29s-2.57-.27-3.29-.38l1.68-1.39c1,.16,2.33.3,3.84.43s3.2.19,5.12.19a25,25,0,0,0,4.73-.3c.87-.2,1.31-.47,1.31-.8s-.18-.42-.54-.58a7.52,7.52,0,0,0-1.54-.44c-.66-.12-1.45-.24-2.35-.35l-3-.33c-1-.11-2-.23-3-.37a23,23,0,0,1-2.73-.5,7.84,7.84,0,0,1-2-.72,1.23,1.23,0,0,1-.75-1c0-.67.68-1.24,2-1.72a24.31,24.31,0,0,1,6.23-.91v-1.63h5.15v1.58c1.59,0,3,.1,4.26.19s2.25.18,3,.27L791.34,405c-1-.1-2.08-.21-3.39-.3s-2.8-.15-4.48-.15a20.61,20.61,0,0,0-4,.29c-.89.19-1.34.45-1.34.78s.14.35.4.48a4.52,4.52,0,0,0,1.19.35c.52.11,1.17.2,1.93.29l2.58.29c1.35.15,2.63.32,3.83.49a30.45,30.45,0,0,1,3.14.59,8,8,0,0,1,2.11.81,1.34,1.34,0,0,1,.77,1.11c0,.64-.68,1.19-2,1.66a26.05,26.05,0,0,1-6.69.9v1.82h-5.15Z" style="fill:#f7dc75"/><path d="M822.24,415.78v.71c0,2.58-2.83,4.95-7.64,6.88-1.2.48-2.52.93-4,1.36-.77.22-1.57.44-2.4.65-.47.11-.94.23-1.42.33a111.74,111.74,0,0,1-24.12,2.42c-21.84,0-39.55-5.21-39.55-11.64v-.69c0,6.43,17.71,11.64,39.55,11.64A111.25,111.25,0,0,0,806.8,425l1.42-.33c.83-.21,1.63-.43,2.4-.65,1.44-.43,2.76-.88,4-1.36C819.41,420.73,822.24,418.35,822.24,415.78Z" style="fill:#9a0056"/><path d="M822.24,407.17c0,6.42-17.7,11.63-39.54,11.63s-39.55-5.21-39.55-11.63c0-1.51,1-2.94,2.73-4.26a22.43,22.43,0,0,1,5.22-2.74c1.35-.53,2.85-1,4.48-1.48,7.08-2,16.62-3.16,27.12-3.16a105.8,105.8,0,0,1,27.11,3.16c1.58.44,3,.92,4.37,1.43a22.5,22.5,0,0,1,5.26,2.74C821.25,404.19,822.24,405.64,822.24,407.17Z" style="fill:#faaa1f"/><path d="M822.24,398.69v8.48c0,2.57-2.83,4.94-7.64,6.87a40.44,40.44,0,0,1-4,1.36c-.77.23-1.57.44-2.4.65l-1.42.34a112.36,112.36,0,0,1-24.12,2.41c-21.84,0-39.55-5.21-39.55-11.63v-8.48Z" style="fill:#ffdf00"/><path d="M814.6,400v14a40.44,40.44,0,0,1-4,1.36V400Z" style="fill:#fffbee"/><path d="M808.24,403v13.07l-1.42.34V403Z" style="fill:#fffbee"/><ellipse cx="782.63" cy="398.6" rx="39.55" ry="11.64" style="fill:#f7dc75"/><ellipse cx="782.63" cy="398.6" rx="31.96" ry="9.4" style="fill:#faaa1f"/><path d="M806.18,392.24a86.34,86.34,0,0,0-21.6-2.47c-17.66,0-32,4.21-32,9.41,0,2.45,3.19,4.68,8.41,6.35-6.37-1.72-10.36-4.19-10.36-6.93,0-5.19,14.31-9.4,32-9.4C792,389.2,800.34,390.37,806.18,392.24Z" style="fill:#c5761f"/><path d="M780.22,403.27c-2.37,0-4.3-.14-5.76-.28s-2.57-.27-3.29-.39l1.68-1.38q1.57.22,3.84.42c1.49.13,3.2.19,5.12.19a25,25,0,0,0,4.73-.3c.87-.2,1.31-.46,1.31-.79s-.18-.42-.54-.59a7.5,7.5,0,0,0-1.54-.43c-.66-.13-1.45-.25-2.35-.35l-3-.34q-1.5-.16-3-.36a25.23,25.23,0,0,1-2.73-.51,7.15,7.15,0,0,1-2-.72,1.19,1.19,0,0,1-.75-1c0-.67.67-1.24,2-1.71a23.46,23.46,0,0,1,6.23-.91v-1.63h5.15v1.57c1.59,0,3,.1,4.26.2s2.25.18,3,.26l-1.24,1.45c-1-.11-2.08-.21-3.39-.31s-2.8-.15-4.48-.15a20.61,20.61,0,0,0-4,.29c-.89.19-1.34.45-1.34.78s.14.36.4.49a5.43,5.43,0,0,0,1.19.35c.52.1,1.17.2,1.93.29s1.62.19,2.58.28c1.35.16,2.63.32,3.83.49a27.61,27.61,0,0,1,3.14.6,7.62,7.62,0,0,1,2.11.81,1.3,1.3,0,0,1,.77,1.1c0,.64-.68,1.2-2,1.66a26.06,26.06,0,0,1-6.69.91v1.82h-5.15Z" style="fill:#f7dc75"/><path d="M822.24,406.49v.7c0,2.57-2.83,4.94-7.64,6.87a40.44,40.44,0,0,1-4,1.36c-.77.23-1.57.44-2.4.65l-1.42.34a112.36,112.36,0,0,1-24.12,2.41c-21.84,0-39.55-5.21-39.55-11.63v-.7c0,6.43,17.71,11.64,39.55,11.64a111.25,111.25,0,0,0,24.14-2.44c.48-.1,1-.22,1.42-.33.83-.21,1.63-.43,2.4-.65,1.44-.42,2.76-.88,4-1.36C819.41,411.42,822.24,409.05,822.24,406.49Z" style="fill:#9a0056"/><path d="M822.24,398.15c0,6.43-17.7,11.64-39.54,11.64s-39.55-5.21-39.55-11.64c0-1.5,1-2.94,2.73-4.26a22.43,22.43,0,0,1,5.22-2.74,44.24,44.24,0,0,1,4.48-1.47,117.46,117.46,0,0,1,54.23,0c1.58.44,3,.91,4.37,1.42a22.5,22.5,0,0,1,5.26,2.74C821.25,395.17,822.24,396.63,822.24,398.15Z" style="fill:#faaa1f"/><path d="M822.24,389.68v8.47c0,2.57-2.83,5-7.64,6.87a40.06,40.06,0,0,1-4,1.36q-1.15.35-2.4.66l-1.42.33a111.74,111.74,0,0,1-24.12,2.42c-21.84,0-39.55-5.21-39.55-11.64v-8.47Z" style="fill:#ffdf00"/><path d="M814.6,391v14a40.06,40.06,0,0,1-4,1.36v-15.4Z" style="fill:#fffbee"/><path d="M808.24,394V407l-1.42.33V394Z" style="fill:#fffbee"/><ellipse cx="782.63" cy="389.59" rx="39.55" ry="11.64" style="fill:#f7dc75"/><ellipse cx="782.63" cy="389.59" rx="31.96" ry="9.4" style="fill:#faaa1f"/><path d="M806.18,383.23a85.89,85.89,0,0,0-21.6-2.48c-17.66,0-32,4.22-32,9.41,0,2.45,3.19,4.68,8.41,6.36-6.37-1.72-10.36-4.19-10.36-6.93,0-5.2,14.31-9.41,32-9.41C792,380.18,800.34,381.36,806.18,383.23Z" style="fill:#c5761f"/><path d="M780.22,394.25c-2.37,0-4.3-.14-5.76-.28s-2.57-.27-3.29-.39l1.68-1.38q1.57.24,3.84.42c1.49.13,3.2.19,5.12.19a25,25,0,0,0,4.73-.3c.87-.2,1.31-.46,1.31-.79s-.18-.42-.54-.58a7.52,7.52,0,0,0-1.54-.44c-.66-.13-1.45-.24-2.35-.35l-3-.34q-1.5-.15-3-.36a23,23,0,0,1-2.73-.5,7.84,7.84,0,0,1-2-.72,1.23,1.23,0,0,1-.75-1c0-.67.67-1.24,2-1.71a24.31,24.31,0,0,1,6.23-.91v-1.63h5.15v1.57c1.59,0,3,.11,4.26.2s2.25.18,3,.27l-1.24,1.44c-1-.11-2.08-.21-3.39-.31s-2.8-.14-4.48-.14a20.6,20.6,0,0,0-4,.28c-.89.19-1.34.45-1.34.78s.14.36.4.49a4.52,4.52,0,0,0,1.19.35c.52.1,1.17.2,1.93.29l2.58.29c1.35.15,2.63.31,3.83.48a27.61,27.61,0,0,1,3.14.6,8,8,0,0,1,2.11.81,1.34,1.34,0,0,1,.77,1.11c0,.64-.68,1.19-2,1.66a27,27,0,0,1-6.69.9v1.82h-5.15Z" style="fill:#f7dc75"/><path d="M822.24,397.49v.69c0,2.57-2.83,4.95-7.64,6.88a41.44,41.44,0,0,1-4,1.35q-1.15.34-2.4.66l-1.42.33a111.74,111.74,0,0,1-24.12,2.42c-21.84,0-39.55-5.21-39.55-11.64v-.69c0,6.42,17.71,11.63,39.55,11.63a112.51,112.51,0,0,0,24.14-2.44l1.42-.34c.83-.21,1.63-.42,2.4-.65,1.44-.42,2.76-.88,4-1.36C819.41,402.41,822.24,400,822.24,397.49Z" style="fill:#9a0056"/><path d="M822.24,388.84c0,6.43-17.7,11.64-39.54,11.64s-39.55-5.21-39.55-11.64c0-1.5,1-2.94,2.73-4.25a22.46,22.46,0,0,1,5.22-2.75c1.35-.52,2.85-1,4.48-1.47,7.08-2,16.62-3.16,27.12-3.16a105.8,105.8,0,0,1,27.11,3.16c1.58.44,3,.92,4.37,1.43a23.26,23.26,0,0,1,5.26,2.73C821.25,385.87,822.24,387.32,822.24,388.84Z" style="fill:#faaa1f"/><path d="M822.24,380.37v8.47c0,2.58-2.83,5-7.64,6.88-1.2.48-2.52.93-4,1.36-.77.22-1.57.44-2.4.65-.47.11-.94.23-1.42.33a111.32,111.32,0,0,1-24.08,2.43c-21.84,0-39.55-5.21-39.55-11.64v-8.47Z" style="fill:#ffdf00"/><path d="M814.6,381.67v14.05c-1.2.48-2.52.93-4,1.36V381.67Z" style="fill:#fffbee"/><path d="M808.24,384.65v13.08c-.47.11-.94.23-1.42.33V384.65Z" style="fill:#fffbee"/><ellipse cx="782.63" cy="380.28" rx="39.55" ry="11.64" style="fill:#f7dc75"/><ellipse cx="782.63" cy="380.28" rx="31.96" ry="9.4" style="fill:#faaa1f"/><path d="M806.18,373.92a86.34,86.34,0,0,0-21.6-2.47c-17.66,0-32,4.21-32,9.4,0,2.45,3.19,4.68,8.41,6.36-6.37-1.72-10.36-4.19-10.36-6.93,0-5.2,14.31-9.41,32-9.41C792,370.87,800.34,372.05,806.18,373.92Z" style="fill:#c5761f"/><path d="M780.22,385c-2.37,0-4.3-.15-5.76-.29s-2.57-.27-3.29-.38l1.68-1.39c1,.16,2.33.3,3.84.43s3.2.19,5.12.19a25,25,0,0,0,4.73-.3c.87-.2,1.31-.47,1.31-.8s-.18-.42-.54-.58a7.52,7.52,0,0,0-1.54-.44c-.66-.12-1.45-.24-2.35-.35l-3-.33c-1-.11-2-.23-3-.37a23,23,0,0,1-2.73-.5,7.84,7.84,0,0,1-2-.72,1.23,1.23,0,0,1-.75-1c0-.67.68-1.24,2-1.72a24.31,24.31,0,0,1,6.23-.91v-1.63h5.15v1.58c1.59,0,3,.1,4.26.19s2.25.18,3,.27l-1.24,1.44c-1-.1-2.08-.21-3.39-.3s-2.8-.15-4.48-.15a20.61,20.61,0,0,0-4,.29c-.89.19-1.34.45-1.34.78s.14.35.4.48a4.52,4.52,0,0,0,1.19.35c.52.11,1.17.2,1.93.29l2.58.29c1.35.15,2.63.32,3.83.49a30.45,30.45,0,0,1,3.14.59,8,8,0,0,1,2.11.81,1.34,1.34,0,0,1,.77,1.11c0,.64-.68,1.19-2,1.66a26.05,26.05,0,0,1-6.69.9v1.82h-5.15Z" style="fill:#f7dc75"/><path d="M822.24,388.15v.69c0,2.58-2.83,5-7.64,6.88-1.2.48-2.52.93-4,1.36-.77.22-1.57.44-2.4.65-.47.11-.94.23-1.42.33a111.32,111.32,0,0,1-24.08,2.43c-21.84,0-39.55-5.21-39.55-11.64v-.69c0,6.43,17.71,11.64,39.55,11.64a111.5,111.5,0,0,0,24.1-2.43l1.42-.33q1.24-.32,2.4-.66c1.44-.42,2.77-.87,4-1.35C819.41,393.1,822.24,390.72,822.24,388.15Z" style="fill:#9a0056"/><path d="M822.24,379.54c0,6.42-17.7,11.63-39.54,11.63s-39.55-5.21-39.55-11.63c0-1.51,1-2.94,2.73-4.26a22.43,22.43,0,0,1,5.22-2.74c1.35-.53,2.85-1,4.48-1.48,7.08-2,16.62-3.16,27.12-3.16a105.8,105.8,0,0,1,27.11,3.16c1.58.44,3,.92,4.37,1.43a22.5,22.5,0,0,1,5.26,2.74C821.25,376.56,822.24,378,822.24,379.54Z" style="fill:#faaa1f"/><path d="M822.24,371.06v8.48c0,2.57-2.83,4.94-7.64,6.87a40.44,40.44,0,0,1-4,1.36c-.77.23-1.57.44-2.4.65l-1.42.34a112.36,112.36,0,0,1-24.12,2.41c-21.84,0-39.55-5.21-39.55-11.63v-8.48Z" style="fill:#ffdf00"/><path d="M814.6,372.37v14a40.44,40.44,0,0,1-4,1.36v-15.4Z" style="fill:#fffbee"/><path d="M808.24,375.35v13.07l-1.42.34V375.35Z" style="fill:#fffbee"/><ellipse cx="782.63" cy="370.97" rx="39.55" ry="11.64" style="fill:#f7dc75"/><ellipse cx="782.63" cy="370.97" rx="31.96" ry="9.4" style="fill:#faaa1f"/><path d="M806.18,364.61a86.34,86.34,0,0,0-21.6-2.47c-17.66,0-32,4.21-32,9.41,0,2.45,3.19,4.68,8.41,6.35-6.37-1.72-10.36-4.19-10.36-6.93,0-5.19,14.31-9.4,32-9.4C792,361.57,800.34,362.74,806.18,364.61Z" style="fill:#c5761f"/><path d="M780.22,375.64c-2.37,0-4.3-.14-5.76-.28s-2.57-.27-3.29-.39l1.68-1.38q1.57.23,3.84.42c1.49.13,3.2.19,5.12.19a25,25,0,0,0,4.73-.3c.87-.2,1.31-.46,1.31-.79s-.18-.42-.54-.59a7.5,7.5,0,0,0-1.54-.43c-.66-.13-1.45-.25-2.35-.35l-3-.34q-1.5-.16-3-.36a25.23,25.23,0,0,1-2.73-.51,7.15,7.15,0,0,1-2-.72,1.19,1.19,0,0,1-.75-1c0-.67.67-1.24,2-1.71a23.46,23.46,0,0,1,6.23-.91v-1.7h5.15v1.57c1.59,0,3,.1,4.26.2s2.25.18,3,.26L791.34,368c-1-.11-2.08-.21-3.39-.31s-2.8-.15-4.48-.15a20.61,20.61,0,0,0-4,.29c-.89.19-1.34.45-1.34.78s.14.35.4.49a5.43,5.43,0,0,0,1.19.35c.52.1,1.17.2,1.93.29s1.62.19,2.58.28c1.35.16,2.63.32,3.83.49a27.61,27.61,0,0,1,3.14.6,7.62,7.62,0,0,1,2.11.81,1.3,1.3,0,0,1,.77,1.1c0,.64-.68,1.2-2,1.66a26.06,26.06,0,0,1-6.69.91v1.82h-5.15Z" style="fill:#f7dc75"/><path d="M822.24,378.84v.65c0,2.58-2.83,4.95-7.64,6.88a40.44,40.44,0,0,1-4,1.36c-.77.23-1.57.44-2.4.65l-1.42.34a112.36,112.36,0,0,1-24.12,2.41c-21.84,0-39.55-5.21-39.55-11.64v-.69c0,6.43,17.71,11.64,39.55,11.64a111.26,111.26,0,0,0,24.14-2.38c.48-.1,1-.22,1.42-.33.83-.21,1.63-.43,2.4-.65,1.44-.43,2.76-.88,4-1.36C819.41,383.79,822.24,381.42,822.24,378.84Z" style="fill:#9a0056"/><path d="M822.24,370.23c0,6.43-17.7,11.63-39.54,11.63s-39.55-5.2-39.55-11.63c0-1.5,1-2.94,2.73-4.26a22.43,22.43,0,0,1,5.22-2.74,44.24,44.24,0,0,1,4.48-1.47,117.46,117.46,0,0,1,54.23,0c1.58.44,3,.91,4.37,1.42a22.5,22.5,0,0,1,5.26,2.74C821.25,367.25,822.24,368.71,822.24,370.23Z" style="fill:#faaa1f"/><path d="M822.24,361.76v8.47c0,2.57-2.83,4.95-7.64,6.87a40.06,40.06,0,0,1-4,1.36c-.77.23-1.57.45-2.4.65l-1.4.38a112.36,112.36,0,0,1-24.12,2.41c-21.84,0-39.55-5.2-39.55-11.63V361.8Z" style="fill:#ffdf00"/><path d="M814.6,363.06v14a40.06,40.06,0,0,1-4,1.36V363Z" style="fill:#fffbee"/><path d="M808.24,366v13.07l-1.44.38V366Z" style="fill:#fffbee"/><ellipse cx="782.63" cy="361.66" rx="39.55" ry="11.64" style="fill:#f7dc75"/><ellipse cx="782.63" cy="361.66" rx="31.96" ry="9.4" style="fill:#faaa1f"/><path d="M806.18,355.31a85.89,85.89,0,0,0-21.6-2.48c-17.66,0-32,4.21-32,9.41,0,2.45,3.19,4.68,8.41,6.35-6.37-1.71-10.36-4.18-10.36-6.93,0-5.19,14.31-9.4,32-9.4C792,352.26,800.34,353.43,806.18,355.31Z" style="fill:#c5761f"/><path d="M780.22,366.33c-2.37,0-4.3-.14-5.76-.28s-2.57-.27-3.29-.39l1.68-1.38c1,.15,2.33.3,3.84.42s3.2.19,5.12.19a25,25,0,0,0,4.73-.3c.87-.2,1.31-.46,1.31-.79s-.18-.42-.54-.58a7.52,7.52,0,0,0-1.54-.44c-.66-.13-1.45-.24-2.35-.35l-3-.34q-1.5-.15-3-.36c-.92-.12-1.83-.29-2.73-.5a7.84,7.84,0,0,1-2-.72,1.23,1.23,0,0,1-.75-1c0-.67.67-1.24,2-1.71a24.31,24.31,0,0,1,6.23-.91v-1.63h5.15v1.57c1.59,0,3,.11,4.26.2s2.25.18,3,.27l-1.24,1.44c-1-.11-2.08-.21-3.39-.31s-2.8-.14-4.48-.14a20.6,20.6,0,0,0-4,.28c-.89.19-1.34.45-1.34.78s.14.36.4.49a4.52,4.52,0,0,0,1.19.35c.52.1,1.17.2,1.93.29s1.62.19,2.58.28c1.35.16,2.63.32,3.83.49a27.61,27.61,0,0,1,3.14.6,8,8,0,0,1,2.11.81,1.34,1.34,0,0,1,.77,1.11c0,.64-.68,1.19-2,1.66a27,27,0,0,1-6.69.9v1.82h-5.15Z" style="fill:#f7dc75"/><path d="M822.24,369.54v.69c0,2.57-2.83,4.95-7.64,6.87a40.06,40.06,0,0,1-4,1.36q-1.15.35-2.4.66l-1.4.37a112.36,112.36,0,0,1-24.12,2.41c-21.84,0-39.55-5.21-39.55-11.63v-.69c0,6.42,17.71,11.63,39.55,11.63a111.76,111.76,0,0,0,24.12-2.45l1.42-.34c.83-.21,1.63-.42,2.4-.65,1.44-.42,2.76-.88,4-1.36C819.41,374.49,822.24,372.11,822.24,369.54Z" style="fill:#9a0056"/><path d="M822.24,360.92c0,6.43-17.7,11.64-39.54,11.64s-39.55-5.21-39.55-11.64c0-1.5,1-2.94,2.73-4.25a22.46,22.46,0,0,1,5.22-2.75,44.24,44.24,0,0,1,4.48-1.47c7.08-2,16.62-3.16,27.12-3.16a105.8,105.8,0,0,1,27.11,3.16c1.58.44,3,.92,4.37,1.42a23.3,23.3,0,0,1,5.26,2.74C821.25,357.94,822.24,359.4,822.24,360.92Z" style="fill:#faaa1f"/><path d="M822.24,352.49V361c0,2.57-2.83,5-7.64,6.88-1.2.48-2.52.93-4,1.36-.77.22-1.57.44-2.4.65l-1.42.33a111.74,111.74,0,0,1-24.12,2.42c-21.84,0-39.55-5.21-39.55-11.64v-8.47Z" style="fill:#ffdf00"/><path d="M814.6,353.75V367.8c-1.2.48-2.52.93-4,1.36V353.75Z" style="fill:#fffbee"/><path d="M808.24,356.73v13.08l-1.42.33V356.73Z" style="fill:#fffbee"/><ellipse cx="782.63" cy="352.36" rx="39.55" ry="11.64" style="fill:#f7dc75"/><ellipse cx="782.63" cy="352.36" rx="31.96" ry="9.4" style="fill:#faaa1f"/><path d="M806.18,346a85.42,85.42,0,0,0-21.6-2.47c-17.66,0-32,4.21-32,9.4,0,2.45,3.19,4.68,8.41,6.36-6.37-1.72-10.36-4.19-10.36-6.93,0-5.2,14.31-9.41,32-9.41C792,343,800.34,344.13,806.18,346Z" style="fill:#c5761f"/><path d="M780.22,357c-2.37,0-4.3-.15-5.76-.29s-2.57-.27-3.29-.38l1.68-1.39q1.57.24,3.84.42c1.49.13,3.2.19,5.12.19a25.81,25.81,0,0,0,4.73-.29c.87-.2,1.31-.47,1.31-.8s-.18-.42-.54-.58a7.2,7.2,0,0,0-1.51-.42c-.66-.12-1.45-.24-2.35-.35l-3-.33c-1-.11-2-.23-3-.37a23,23,0,0,1-2.73-.5,7.84,7.84,0,0,1-2-.72,1.23,1.23,0,0,1-.75-1c0-.68.68-1.25,2-1.72a24.31,24.31,0,0,1,6.23-.91V346h5.15v1.53c1.59,0,3,.11,4.26.2s2.25.18,3,.27l-1.24,1.44c-1-.1-2.08-.21-3.39-.3s-2.8-.15-4.48-.15a20.61,20.61,0,0,0-4,.29c-.89.18-1.34.44-1.34.77s.14.36.4.49a4.52,4.52,0,0,0,1.19.35c.52.1,1.17.2,1.93.29l2.58.29c1.35.15,2.63.32,3.83.49a30,30,0,0,1,3.14.59,8,8,0,0,1,2.11.81,1.34,1.34,0,0,1,.77,1.11c0,.64-.68,1.19-2,1.66a26.05,26.05,0,0,1-6.69.9v1.82h-5.15Z" style="fill:#f7dc75"/><path d="M822.24,360.23v.69c0,2.57-2.83,4.95-7.64,6.88-1.2.48-2.52.93-4,1.36-.77.22-1.57.44-2.4.65l-1.42.33a111.74,111.74,0,0,1-24.12,2.42c-21.84,0-39.55-5.21-39.55-11.64v-.69c0,6.43,17.71,11.64,39.55,11.64a112.51,112.51,0,0,0,24.14-2.38l1.42-.34c.83-.2,1.63-.42,2.4-.65a40.06,40.06,0,0,0,4-1.36C819.41,365.18,822.24,362.8,822.24,360.23Z" style="fill:#9a0056"/><path d="M822.24,351.61c0,6.43-17.7,11.64-39.54,11.64s-39.55-5.21-39.55-11.64c0-1.5,1-2.93,2.73-4.25a22.46,22.46,0,0,1,5.22-2.75c1.35-.52,2.85-1,4.48-1.47,7.08-2,16.62-3.16,27.12-3.16a105.8,105.8,0,0,1,27.11,3.16c1.58.44,3,.92,4.37,1.43a22.5,22.5,0,0,1,5.26,2.74C821.25,348.64,822.24,350.09,822.24,351.61Z" style="fill:#faaa1f"/><path d="M822.24,343.14v8.47c0,2.58-2.83,4.95-7.64,6.88a40.44,40.44,0,0,1-4,1.36c-.77.23-1.57.44-2.4.65l-1.42.34a112.36,112.36,0,0,1-24.12,2.41c-21.84,0-39.55-5.21-39.55-11.64v-8.47Z" style="fill:#ffdf00"/><path d="M814.6,344.49v14a40.44,40.44,0,0,1-4,1.36V344.49Z" style="fill:#fffbee"/><path d="M808.24,347.43v13.06l-1.42.34v-13.4Z" style="fill:#fffbee"/><ellipse cx="782.63" cy="343.05" rx="39.55" ry="11.64" style="fill:#ffdf00"/><ellipse cx="782.63" cy="343.05" rx="31.96" ry="9.4" style="fill:#ffdf00"/><path d="M806.18,336.69a86.34,86.34,0,0,0-21.6-2.47c-17.66,0-32,4.21-32,9.4,0,2.46,3.19,4.69,8.41,6.36-6.37-1.72-10.36-4.19-10.36-6.93,0-5.19,14.31-9.4,32-9.4C792,333.65,800.34,334.82,806.18,336.69Z" style="fill:#9a0056"/><path d="M822.24,350.92v.69c0,2.58-2.83,4.95-7.64,6.88a40.44,40.44,0,0,1-4,1.36c-.77.23-1.57.44-2.4.65l-1.42.34a112.36,112.36,0,0,1-24.12,2.41c-21.84,0-39.55-5.21-39.55-11.64v-.69c0,6.43,17.71,11.64,39.55,11.64a111.86,111.86,0,0,0,24.14-2.42c.48-.1,1-.22,1.42-.33.83-.21,1.63-.43,2.4-.65,1.44-.43,2.76-.88,4-1.36C819.41,355.87,822.24,353.49,822.24,350.92Z" style="fill:#9a0056"/><path d="M988.53,205.13a5.51,5.51,0,0,1-3.92-1.63L962.13,181l-6.38,6.37a5.55,5.55,0,0,1-9.46-3.43l-3.55-39.67a5.55,5.55,0,0,1,5-6l.5,0h.5l39.67,3.55a5.55,5.55,0,0,1,5,6,5.49,5.49,0,0,1-1.61,3.44l-6.37,6.38L1008,180.12a5.54,5.54,0,0,1,0,7.83l0,0-15.51,15.52A5.52,5.52,0,0,1,988.53,205.13Z" style="fill:#283e42"/><path d="M945.8,144l3.55,39.67a2.44,2.44,0,0,0,4.16,1.51l6.85-6.85a2.46,2.46,0,0,1,3.46,0l23,23a2.43,2.43,0,0,0,3.44,0h0l15.53-15.51a2.43,2.43,0,0,0,0-3.44h0l-23-23a2.46,2.46,0,0,1,0-3.46l6.85-6.85a2.44,2.44,0,0,0-1.51-4.16l-39.67-3.55a2.44,2.44,0,0,0-2.67,2.7Z" style="fill:#ffdf00"/><rect x="947.92" y="120.32" width="30.35" height="3.1" transform="translate(195.91 716.71) rotate(-45)" style="fill:#283e42"/><rect x="924.89" y="106.87" width="3.1" height="30.35" transform="translate(185.05 690.84) rotate(-45)" style="fill:#283e42"/><rect x="911.43" y="157.13" width="30.35" height="3.1" transform="translate(159.19 701.69) rotate(-45)" style="fill:#283e42"/><circle cx="45.88" cy="228.25" r="11.19" style="fill:#283e42"/><path d="M45.88,245.66A17.42,17.42,0,1,1,63.3,228.24h0A17.44,17.44,0,0,1,45.88,245.66Zm0-33.88a16.47,16.47,0,1,0,16.47,16.47A16.47,16.47,0,0,0,45.88,211.78Z" style="fill:#00a7a2"/></svg>