<svg viewBox="0 0 24 24"  xmlns="http://www.w3.org/2000/svg"><g><path clip-rule="evenodd" d="m14.783 9.70236c.781.78104 2.0473.78104 2.8284 0 .781-.78105.781-2.04738 0-2.82843-.7811-.78105-2.0474-.78105-2.8284 0-.7811.78105-.7811 2.04738 0 2.82843zm.7071-.70711c.3905.39053 1.0237.39053 1.4142 0 .3905-.39052.3905-1.02369 0-1.41421s-1.0237-.39052-1.4142 0c-.3906.39052-.3906 1.02369 0 1.41421z" fill-rule="evenodd"/><path d="m12.7207 15.0482c.1046.2556.386.3983.648.311s.405-.3715.3025-.6279c-.7437-1.8603-2.057-3.1735-3.9173-3.9173-.25641-.1025-.54052.0406-.62784.3025-.08732.262.05539.5434.31097.648 1.55837.6376 2.64607 1.7253 3.28367 3.2837z"/><g clip-rule="evenodd" fill-rule="evenodd"><path d="m16.2583 3.79658c1.3554-.30252 2.6321-.3276 3.418-.30223.7234.02335 1.2914.59138 1.3147 1.31476.0254.78583.0003 2.06258-.3022 3.41797-.3018 1.35223-.8887 2.82212-2.0167 3.95012l-.0223.0223c-.9117.9117-1.6278 1.6278-2.2199 2.1405l.2377 2.1394c.0336.3019-.0719.6027-.2867.8175l-2.1224 2.1223c-.5076.5077-1.3689.3309-1.6356-.3357l-.9831-2.4578-3.15518.5258c-.67681.1128-1.26359-.4739-1.15079-1.1508l.52587-3.1552-2.45784-.9831c-.66656-.2666-.84336-1.1279-.33572-1.6356l2.12233-2.1223c.21481-.21481.51561-.32032.81754-.28678l2.13929.23771c.5128-.59211 1.2288-1.30816 2.1406-2.21995l.0222-.02223c1.128-1.128 2.598-1.71485 3.9502-2.01667zm.2178.97599c-1.2479.27854-2.5157.80263-3.4609 1.74779-1.0484 1.04842-1.7893 1.79013-2.2741 2.3792l-.1721.20909-2.67343-.29704-2.12232 2.12229 2.45784.9832c.43632.1745.69226.6293.615 1.0928l-.52587 3.1552 3.15518-.5258c.4636-.0773.9184.1786 1.0929.615l.9831 2.4578 2.1223-2.1223-.297-2.6734.2091-.1721c.5891-.4849 1.3308-1.2258 2.3792-2.2742.9452-.9451 1.4693-2.21294 1.7478-3.46087.2778-1.24477.3025-2.43065.2788-3.16786-.0064-.19641-.1512-.3412-.3476-.34754-.7372-.0238-1.9231.0009-3.1679.27874z"/><path d="m8.31802 21.0748c-.19526-.1952-.19526-.5118 0-.7071l2.12128-2.1213c.1953-.1952.5119-.1952.7071 0 .1953.1953.1953.5119 0 .7071l-2.12127 2.1213c-.19527.1953-.51185.1953-.70711 0z"/><path d="m3.36831 16.1251c-.19526-.1952-.19526-.5118 0-.7071l2.12132-2.1213c.19527-.1952.51185-.1952.70711 0 .19526.1953.19526.5119 0 .7071l-2.12132 2.1213c-.19526.1953-.51185.1953-.70711 0z"/><path d="m4.42709 20.0123c-.19526-.1952-.19526-.5118 0-.7071l2.12132-2.1213c.19526-.1952.51184-.1952.70711 0 .19526.1953.19526.5119 0 .7071l-2.12132 2.1213c-.19527.1953-.51185.1953-.70711 0z"/></g></g></svg>