<svg xmlns="http://www.w3.org/2000/svg" viewBox="0 0 910.06 537.73"><path d="M184.44,240.28c-.63-3.37,3.06-12.1,3.06-12.1a32.69,32.69,0,0,1-7.16,10.29,2.69,2.69,0,0,0-.45.16h0c-3.26.76-12.23-3-12.23-3A32,32,0,0,1,178,242.81h0a4.78,4.78,0,0,0,.19.48c.66,3.34-3,12.13-3,12.13a32.45,32.45,0,0,1,7.17-10.29l.44-.16c3.26-.76,12.22,3,12.22,3a32.2,32.2,0,0,1-10.33-7.21A2.87,2.87,0,0,0,184.44,240.28Z" style="fill:#fff"/><ellipse cx="455.03" cy="515.19" rx="455.03" ry="22.54" style="fill:#d3d3d3"/><rect x="134.14" y="59.27" width="648.15" height="419.95" style="fill:#00a7a2"/><path d="M775.47,43.3H142a19.14,19.14,0,0,0-19.14,19.14h0V487.87a12.44,12.44,0,0,0,12.43,12.45h645.6a13.69,13.69,0,0,0,13.69-13.69h0V62.44A19.14,19.14,0,0,0,775.47,43.3ZM778,472H139.37V66.28H778Z" style="fill:#283e42"/><path d="M774.81,45.8H142.71a17,17,0,0,0-17,17V487.87a12.44,12.44,0,0,0,12.43,12.45h640a13.69,13.69,0,0,0,13.69-13.69h0V62.87A17,17,0,0,0,774.91,45.8ZM778,472H139.37V66.28H778Z" style="fill:#283e42"/><path d="M125.69,485H791.83v5.22a10.08,10.08,0,0,1-10.08,10.08h-646a10.08,10.08,0,0,1-10.08-10.08h0V485h0Z" style="fill:#283e42"/><path d="M47.71,500.87A299.93,299.93,0,0,0,137,514.45H780.35a299.88,299.88,0,0,0,89.26-13.6H47.71Z" style="fill:#283e42"/><path d="M47.71,498v2.83H378.34a37.78,37.78,0,0,1,9.88,1.1c.53.14,1.07.26,1.61.36V496h-340a2.08,2.08,0,0,0-2.12,2Z" style="fill:#00a7a2"/><path d="M527.46,496v6.35a23.7,23.7,0,0,1-4.29.4h-129a23.7,23.7,0,0,1-4.29-.4V496Z" style="fill:#00a7a2"/><path d="M869.57,498v2.83H538.94a37.78,37.78,0,0,0-9.88,1.1c-.53.14-1.06.26-1.6.36V496h340a2.08,2.08,0,0,1,2.11,2Z" style="fill:#00a7a2"/><path d="M733,84.42H716a2.87,2.87,0,0,1-2.87-2.86V77.71a2.87,2.87,0,0,1,2.83-2.84h17A2.87,2.87,0,0,1,735.69,77a1.54,1.54,0,0,1,1.42,1.53v2.35a1.54,1.54,0,0,1-1.42,1.53A2.86,2.86,0,0,1,733,84.42Zm-17-8.9a2.19,2.19,0,0,0-2.19,2.19h0v3.85A2.19,2.19,0,0,0,716,83.75h17a2.2,2.2,0,0,0,2.16-1.8.34.34,0,0,1,.33-.28h.16a.85.85,0,0,0,.86-.84V78.46a.85.85,0,0,0-.84-.86h-.18a.34.34,0,0,1-.33-.28,2.2,2.2,0,0,0-2.16-1.8Z" style="fill:#fff"/><path d="M716.71,76h13.42v7.18H716.71a2.37,2.37,0,0,1-2.37-2.37V78.4A2.37,2.37,0,0,1,716.71,76Z" style="fill:#fff"/><path d="M678.67,77.64a1.1,1.1,0,0,1-.32.79,1.13,1.13,0,0,1-1.58,0,5.85,5.85,0,0,0-8,0,1.13,1.13,0,0,1-1.58,0,1.09,1.09,0,0,1,0-1.53h0a8.12,8.12,0,0,1,11.14,0A1.16,1.16,0,0,1,678.67,77.64Z" style="fill:#fff"/><path d="M675.82,79.39a1.09,1.09,0,0,1,0,1.53h0a1.13,1.13,0,0,1-1.58,0,2.19,2.19,0,0,0-3,0,1.13,1.13,0,0,1-1.58,0,1.1,1.1,0,0,1,0-1.54h0a4.46,4.46,0,0,1,6.12,0Z" style="fill:#fff"/><path d="M674.08,82.87a1.32,1.32,0,1,1-1.32-1.32,1.32,1.32,0,0,1,1.32,1.32Z" style="fill:#fff"/><path d="M695.09,76.26h-4.75a1.1,1.1,0,0,0-1.1,1.1v4.51a1.1,1.1,0,0,0,1.1,1.1h4.75l3.47,2a.34.34,0,0,0,.51-.29V74.54a.34.34,0,0,0-.34-.34.48.48,0,0,0-.17,0Z" style="fill:#fff"/><path d="M700.88,83a.5.5,0,0,1-.33-.12.51.51,0,0,1,0-.72,3.85,3.85,0,0,0,0-5.07.51.51,0,0,1,0-.72.52.52,0,0,1,.72.05,4.88,4.88,0,0,1,0,6.41A.52.52,0,0,1,700.88,83Z" style="fill:#fff"/><rect x="750.67" y="75.49" width="11.02" height="1.66" rx="0.55" style="fill:#fff"/><rect x="750.67" y="78.8" width="9.1" height="1.66" rx="0.55" style="fill:#fff"/><rect x="750.67" y="82.12" width="11.02" height="1.66" rx="0.55" style="fill:#fff"/><path d="M653.62,84.87h-.14a.38.38,0,0,1-.24-.36V80.38L651,82.5a.38.38,0,0,1-.54-.54l2.57-2.57-2.55-2.52a.38.38,0,1,1,.54-.54l2.19,2.19V74.25a.39.39,0,0,1,.24-.35.37.37,0,0,1,.41.08l2.6,2.6a.4.4,0,0,1,0,.54l-2.32,2.32,2.26,2.26a.4.4,0,0,1,0,.54l-2.54,2.53A.34.34,0,0,1,653.62,84.87Zm.39-4.53v3.22l1.6-1.61Zm0-5.18V78.5l1.67-1.67Z" style="fill:#fff"/><path d="M737.15,20.66A20.72,20.72,0,0,0,716.5,0H202.4a20.71,20.71,0,0,0-20.66,20.66v1.66H737.15Z" style="fill:#00a7a2"/><polygon points="181.74 471.95 737.15 471.95 737.15 22.32 181.74 22.32 181.74 471.95 181.74 471.95" style="fill:#fff"/><circle cx="201.58" cy="11.16" r="3.81" style="fill:#9a0056"/><circle cx="213.3" cy="11.16" r="3.81" style="fill:#ffdf00"/><circle cx="225.01" cy="11.16" r="3.81" style="fill:#283e42"/><rect x="181.74" y="353.51" width="554.74" height="118.44" style="fill:#9a0056"/><rect x="477.18" y="396.66" width="29.98" height="29.98" style="fill:#ffdf00"/><rect x="517.63" y="399.99" width="130.39" height="7.61" style="fill:#fff"/><rect x="517.63" y="413.36" width="146.68" height="7.61" style="fill:#fff"/><rect x="259.57" y="396.66" width="29.98" height="29.98" style="fill:#ffdf00"/><rect x="300.02" y="399.99" width="130.39" height="7.61" style="fill:#fff"/><rect x="300.02" y="413.36" width="146.68" height="7.61" style="fill:#fff"/><rect x="212.17" y="161.59" width="15.24" height="15.24" style="fill:#9a0056"/><rect x="232.74" y="163.29" width="66.29" height="3.87" style="fill:#9a0056"/><rect x="232.74" y="170.09" width="74.58" height="3.87" style="fill:#9a0056"/><rect x="272.96" y="281.43" width="29.81" height="1.94" style="fill:#283e42"/><rect x="272.96" y="287.31" width="34.35" height="1.94" style="fill:#283e42"/><rect x="272.96" y="293.2" width="29.12" height="1.94" style="fill:#283e42"/><rect x="232.83" y="230.62" width="8.29" height="21.35" style="fill:#ffdf00"/><rect x="244.36" y="223.2" width="8.29" height="28.78" style="fill:#ffdf00"/><rect x="255.89" y="216.97" width="8.29" height="35.01" style="fill:#ffdf00"/><rect x="267.43" y="212.12" width="8.29" height="39.86" style="fill:#ffdf00"/><rect x="278.96" y="199.67" width="8.29" height="52.31" style="fill:#ffdf00"/><polygon points="294.72 257.39 227.69 257.39 227.69 199.67 229.02 199.67 229.02 256.07 294.72 256.07 294.72 257.39" style="fill:#283e42"/><polygon points="228.35 196.31 229.82 198.85 231.29 201.39 228.35 200.53 225.42 201.39 226.89 198.85 228.35 196.31" style="fill:#283e42"/><polygon points="297.99 256.73 295.45 258.2 292.91 259.67 293.77 256.73 292.91 253.8 295.45 255.26 297.99 256.73" style="fill:#283e42"/><path d="M645.31,127.21a15.84,15.84,0,1,0,15.84,15.84H645.31Z" style="fill:#9a0056"/><path d="M647,125.61V141.4L660.39,133A15.81,15.81,0,0,0,647,125.61Z" style="fill:#ffdf00"/><path d="M664.79,141.44a15.73,15.73,0,0,0-2.47-8.48L649,141.4h0Z" style="fill:#283e42"/><rect x="608.07" y="198.96" width="33.58" height="3.2" rx="1.05" style="fill:#9a0056"/><rect x="608.07" y="204.62" width="11.42" height="3.2" rx="1.05" style="fill:#ffdf00"/><rect x="643.2" y="225.16" width="25.22" height="3.2" rx="1.05" style="fill:#ffdf00"/><rect x="621.1" y="204.62" width="11.23" height="3.2" rx="1.05" style="fill:#9a0056"/><rect x="615.37" y="225.16" width="24.81" height="3.2" rx="1.05" style="fill:#9a0056"/><rect x="671.44" y="225.16" width="24.81" height="3.2" rx="1.05" style="fill:#9a0056"/><rect x="621.1" y="210.28" width="17.69" height="3.2" rx="1.05" style="fill:#00a7a2"/><rect x="617.16" y="215.94" width="17.69" height="3.2" rx="1.05" style="fill:#9a0056"/><rect x="645.77" y="215.94" width="17.69" height="3.2" rx="1.05" style="fill:#9a0056"/><rect x="608.07" y="210.28" width="11.42" height="3.2" rx="1.05" style="fill:#ffdf00"/><rect x="608.07" y="215.94" width="7.76" height="3.2" rx="1.05" style="fill:#ffdf00"/><rect x="608.07" y="225.16" width="5.54" height="3.2" rx="1.05" style="fill:#ffdf00"/><rect x="663.69" y="230.95" width="16.39" height="3.2" rx="1.05" style="fill:#00a7a2"/><rect x="608.07" y="230.95" width="37.56" height="3.2" rx="1.05" style="fill:#9a0056"/><rect x="648.12" y="230.95" width="12.24" height="3.2" rx="1.05" style="fill:#ffdf00"/><rect x="664.48" y="236.67" width="13.33" height="3.2" rx="1.05" style="fill:#00a7a2"/><rect x="615.87" y="236.73" width="31.27" height="3.2" rx="1.05" style="fill:#9a0056"/><rect x="649.8" y="236.67" width="12.24" height="3.2" rx="1.05" style="fill:#ffdf00"/><rect x="608.07" y="274.5" width="11.23" height="3.2" rx="1.05" style="fill:#9a0056"/><rect x="608.07" y="191.58" width="11.23" height="3.2" rx="1.05" style="fill:#9a0056"/><rect x="677.78" y="257.15" width="15.54" height="3.2" rx="1.05" style="fill:#9a0056"/><rect x="623.53" y="257.15" width="37.04" height="3.2" rx="1.05" style="fill:#9a0056"/><rect x="644.32" y="248.05" width="11.42" height="3.2" rx="1.05" style="fill:#ffdf00"/><rect x="631.72" y="248.05" width="11.23" height="3.2" rx="1.05" style="fill:#00a7a2"/><rect x="624.62" y="248.05" width="5.54" height="3.2" rx="1.05" style="fill:#ffdf00"/><rect x="663.02" y="257.15" width="11.61" height="3.2" rx="1.05" style="fill:#ffdf00"/><rect x="666.22" y="262.87" width="12.64" height="3.2" rx="1.05" style="fill:#9a0056"/><rect x="618.61" y="262.93" width="30.84" height="3.2" rx="1.05" style="fill:#9a0056"/><rect x="652.3" y="262.87" width="11.61" height="3.2" rx="1.05" style="fill:#ffdf00"/><rect x="661.9" y="283.05" width="15.54" height="3.2" rx="1.05" style="fill:#9a0056"/><rect x="622.32" y="283.05" width="37.04" height="3.2" rx="1.05" style="fill:#9a0056"/><rect x="608.07" y="283.05" width="11.61" height="3.2" rx="1.05" style="fill:#ffdf00"/><rect x="655.69" y="288.77" width="12.64" height="3.2" rx="1.05" style="fill:#00a7a2"/><rect x="608.07" y="288.83" width="30.84" height="3.2" rx="1.05" style="fill:#9a0056"/><rect x="641.76" y="288.77" width="11.61" height="3.2" rx="1.05" style="fill:#ffdf00"/><rect x="680.98" y="242.39" width="24.14" height="3.2" rx="1.05" style="fill:#9a0056"/><rect x="623.84" y="242.39" width="39.78" height="3.2" rx="1.05" style="fill:#9a0056"/><rect x="666.33" y="242.39" width="12.24" height="3.2" rx="1.05" style="fill:#ffdf00"/><rect x="636.59" y="215.94" width="7.76" height="3.2" rx="1.05" style="fill:#ffdf00"/><path d="M334.38,247.94h13a12.53,12.53,0,0,1,12.53,12.53v36.46h-38V260.48A12.53,12.53,0,0,1,334.38,247.94Z" style="fill:#00a7a2"/><path d="M387.3,213.87h13a12.53,12.53,0,0,1,12.53,12.53h0v70.53h-38V226.41A12.53,12.53,0,0,1,387.3,213.87Z" style="fill:#00a7a2"/><path d="M440.22,185.28h13a12.53,12.53,0,0,1,12.53,12.53h0v99.12h-38V197.82A12.53,12.53,0,0,1,440.22,185.28Z" style="fill:#00a7a2"/><path d="M493.14,163h13a12.53,12.53,0,0,1,12.53,12.53h0V296.94h-38V175.57A12.52,12.52,0,0,1,493.14,163Z" style="fill:#00a7a2"/><path d="M546,128.47h13A12.53,12.53,0,0,1,571.56,141h0V296.94h-38V141A12.52,12.52,0,0,1,546,128.47Z" style="fill:#00a7a2"/><path d="M322.15,204.05h0a7.51,7.51,0,0,1,4.91-9.24c26.52-8.55,123.51-42.58,197-104.55l9.69,11.49c-76.43,64.47-174.45,98.62-202.08,107.4a7.5,7.5,0,0,1-9.44-4.84C322.2,204.23,322.18,204.14,322.15,204.05Z" style="fill:#ffdf00"/><polygon points="555.37 78.17 546.01 98.94 536.65 119.71 523.34 101.22 510.03 82.72 532.7 80.44 555.37 78.17" style="fill:#ffdf00"/><path d="M241,97.06a5.09,5.09,0,0,0-1.92-4.22,23.66,23.66,0,0,0-6.74-3.13,65.91,65.91,0,0,1-7.88-3.13q-10-4.89-10-13.44A12.09,12.09,0,0,1,217,65.62a16.15,16.15,0,0,1,7-5.06,27.4,27.4,0,0,1,10.21-1.81,23.73,23.73,0,0,1,9.9,2,15.67,15.67,0,0,1,6.81,5.61,14.64,14.64,0,0,1,2.43,8.32H241.09a6.21,6.21,0,0,0-1.91-4.86A7.49,7.49,0,0,0,234,68.07a8.46,8.46,0,0,0-5.23,1.46,4.3,4.3,0,0,0,.19,7.28,26.64,26.64,0,0,0,7.43,3.31,46.15,46.15,0,0,1,8.73,3.68q8.29,4.78,8.3,13.19a12.51,12.51,0,0,1-5.07,10.56q-5.06,3.84-13.9,3.84a27.64,27.64,0,0,1-11.27-2.24,17,17,0,0,1-7.6-6.12,15.87,15.87,0,0,1-2.56-9h12.39c0,2.75.71,4.78,2.13,6.07s3.72,2,6.91,2a7.92,7.92,0,0,0,4.84-1.32A4.35,4.35,0,0,0,241,97.06Z" style="fill:#283e42"/><path d="M291.52,88.94H272.1v12.24H295v9.5h-35.3V59.45H295.1V69h-23V79.79h19.42Z" style="fill:#283e42"/><path d="M343.46,86.12a30.22,30.22,0,0,1-2.78,13.27,20.58,20.58,0,0,1-7.9,8.88,22,22,0,0,1-11.67,3.12,22.3,22.3,0,0,1-11.61-3,20.58,20.58,0,0,1-7.9-8.61,29.33,29.33,0,0,1-3-12.84V84.06a30.46,30.46,0,0,1,2.76-13.29,20.45,20.45,0,0,1,7.92-8.88,23.43,23.43,0,0,1,23.34,0,20.9,20.9,0,0,1,7.94,8.82,29.52,29.52,0,0,1,2.87,13.1ZM330.89,84q0-7.64-2.55-11.59a8.18,8.18,0,0,0-7.3-4q-9.29,0-9.82,13.94v3.76q0,7.53,2.5,11.58a8.7,8.7,0,0,0,14.64.07q2.52-4,2.56-11.44Z" style="fill:#283e42"/></svg>