<svg id="aa14c078-df94-4f59-a9e1-bc66a82795b9" data-name="Layer 1" xmlns="http://www.w3.org/2000/svg" xmlns:xlink="http://www.w3.org/1999/xlink" viewBox="0 0 1200 680"><defs><style>.e00b698f-42a9-4b83-9f5e-9c7f99994b3b{fill:none;}.b911741c-7258-474f-a88c-4b2d598a88fd{fill:#283e42;}.be508a82-51f6-482b-b054-7c935a8d8757{fill:#fff;}.ad116d11-9b81-4625-a828-0915bfa529a5{fill:#ffdf00;}.aaa1f758-7922-47ac-af1a-a1a834d57b68{fill:#9a0056;}.bc78a9f3-2800-4683-8c2a-3b8b1adbb558{fill:#00a7a2;}.b8b2e2c7-010e-42ab-8b05-4982ab223dd4{clip-path:url(#bb985a40-797c-4336-8e3b-58dbd5f0c128);}.b930112f-12a2-490b-8c9b-4e783521d9fe{clip-path:url(#af1751b6-0b1c-4f29-bd7b-8146bffcaba6);}.ba24681a-9670-4700-af32-62bbb0812c40{clip-path:url(#f9af24f1-fa8b-46e1-a434-b664caf9c3a6);}.ad33218d-00e6-4277-927e-1372a21094e9{clip-path:url(#b20158b8-4207-43cb-87ca-e1e1ec48efb3);}</style><clipPath id="bb985a40-797c-4336-8e3b-58dbd5f0c128"><rect class="e00b698f-42a9-4b83-9f5e-9c7f99994b3b" x="713.25" y="258.84" width="88.12" height="88.08"/></clipPath><clipPath id="af1751b6-0b1c-4f29-bd7b-8146bffcaba6"><rect class="e00b698f-42a9-4b83-9f5e-9c7f99994b3b" x="788.66" y="198.19" width="81.78" height="81.74"/></clipPath><clipPath id="f9af24f1-fa8b-46e1-a434-b664caf9c3a6"><rect class="e00b698f-42a9-4b83-9f5e-9c7f99994b3b" x="616.59" y="313.21" width="84.12" height="84.22"/></clipPath><clipPath id="b20158b8-4207-43cb-87ca-e1e1ec48efb3"><rect class="e00b698f-42a9-4b83-9f5e-9c7f99994b3b" x="690.66" y="91.19" width="64.87" height="64.84"/></clipPath></defs><rect class="b911741c-7258-474f-a88c-4b2d598a88fd" x="313.6" y="21.53" width="333.4" height="619.99" rx="23"/><rect class="be508a82-51f6-482b-b054-7c935a8d8757" x="324.9" y="60.67" width="310.57" height="505.39" rx="3.21"/><path class="ad116d11-9b81-4625-a828-0915bfa529a5" d="M531.56,41.83H422.65a3.12,3.12,0,0,1-3.12-3.12h0a3.12,3.12,0,0,1,3.12-3.12H531.56a3.11,3.11,0,0,1,3.12,3.12h0A3.12,3.12,0,0,1,531.56,41.83Z"/><path class="ad116d11-9b81-4625-a828-0915bfa529a5" d="M555.67,38.71a5,5,0,1,1-5-5A5,5,0,0,1,555.67,38.71Z"/><path class="aaa1f758-7922-47ac-af1a-a1a834d57b68" d="M370.4,384.9a3.12,3.12,0,0,0,5,.06l12.7-16.64a8.62,8.62,0,0,0,2.38-6.25,8.64,8.64,0,0,0-17.2-.91,8.65,8.65,0,1,0-15.93,5.73h0l.2.28.33.46Z"/><rect class="bc78a9f3-2800-4683-8c2a-3b8b1adbb558" x="348.05" y="140.44" width="264.73" height="191.08" rx="9.27"/><circle class="bc78a9f3-2800-4683-8c2a-3b8b1adbb558" cx="373.3" cy="106.77" r="22.19"/><path class="bc78a9f3-2800-4683-8c2a-3b8b1adbb558" d="M502.6,99.38H404.67a3.06,3.06,0,0,1-3.06-3.06h0a3.06,3.06,0,0,1,3.06-3.06H502.6a3.06,3.06,0,0,1,3.06,3.06h0A3.06,3.06,0,0,1,502.6,99.38Z"/><path class="bc78a9f3-2800-4683-8c2a-3b8b1adbb558" d="M608.19,123.61H404.67a3.06,3.06,0,0,1-3.06-3.06h0a3.07,3.07,0,0,1,3.06-3.07H608.19a3.07,3.07,0,0,1,3.06,3.07h0A3.06,3.06,0,0,1,608.19,123.61Z"/><path class="bc78a9f3-2800-4683-8c2a-3b8b1adbb558" d="M362,527.48H598.85a13.93,13.93,0,0,1,13.93,13.93v24.65a0,0,0,0,1,0,0H348a0,0,0,0,1,0,0V541.4A13.93,13.93,0,0,1,362,527.48Z"/><circle class="bc78a9f3-2800-4683-8c2a-3b8b1adbb558" cx="373.3" cy="493.81" r="22.19" transform="translate(-239.84 408.59) rotate(-45)"/><path class="bc78a9f3-2800-4683-8c2a-3b8b1adbb558" d="M502.6,486.41H404.67a3.06,3.06,0,0,1-3.06-3.06h0a3.06,3.06,0,0,1,3.06-3.06H502.6a3.06,3.06,0,0,1,3.06,3.06h0A3.06,3.06,0,0,1,502.6,486.41Z"/><path class="bc78a9f3-2800-4683-8c2a-3b8b1adbb558" d="M608.19,510.64H404.67a3.06,3.06,0,0,1-3.06-3.06h0a3.06,3.06,0,0,1,3.06-3.06H608.19a3.06,3.06,0,0,1,3.06,3.06h0A3.06,3.06,0,0,1,608.19,510.64Z"/><rect class="bc78a9f3-2800-4683-8c2a-3b8b1adbb558" x="406.04" y="353.95" width="35.21" height="29.84" rx="12.08"/><path class="bc78a9f3-2800-4683-8c2a-3b8b1adbb558" d="M411.53,372.32,407,383.09a2.91,2.91,0,0,0,3.3,4l17.78-3.88Z"/><rect class="bc78a9f3-2800-4683-8c2a-3b8b1adbb558" x="458.17" y="360.2" width="153.08" height="7.14" rx="2.89"/><path class="bc78a9f3-2800-4683-8c2a-3b8b1adbb558" d="M488.37,383.41H461.74a3.59,3.59,0,0,1-3.57-3.57h0a3.59,3.59,0,0,1,3.57-3.58h26.63a3.59,3.59,0,0,1,3.57,3.58h0A3.59,3.59,0,0,1,488.37,383.41Z"/><rect class="b911741c-7258-474f-a88c-4b2d598a88fd" x="325.01" y="419.66" width="310.57" height="19.66"/><path class="b911741c-7258-474f-a88c-4b2d598a88fd" d="M356.91,331.53l35.28-61.21a22,22,0,0,1,36.86-1.92l36.25,50,42.57-65.62a30.18,30.18,0,0,1,51.47,1.36l44.58,77.36Z"/><circle class="b911741c-7258-474f-a88c-4b2d598a88fd" cx="410.41" cy="191.44" r="19.91" transform="translate(156.09 566.16) rotate(-80.84)"/><path class="ad116d11-9b81-4625-a828-0915bfa529a5" d="M684.14,183.57h50.28a26.13,26.13,0,0,1,26.05,26.05h0a26.13,26.13,0,0,1-26.05,26H684.14a26.12,26.12,0,0,1-26-26h0A26.12,26.12,0,0,1,684.14,183.57Z"/><circle class="be508a82-51f6-482b-b054-7c935a8d8757" cx="733.14" cy="209.62" r="4.8"/><circle class="be508a82-51f6-482b-b054-7c935a8d8757" cx="709.28" cy="209.62" r="4.8"/><circle class="be508a82-51f6-482b-b054-7c935a8d8757" cx="685.42" cy="209.62" r="4.8"/><polygon class="ad116d11-9b81-4625-a828-0915bfa529a5" points="672.72 254.07 671.5 239.87 670.27 225.66 679.41 228.01 688.55 230.35 680.64 242.21 672.72 254.07"/><rect class="aaa1f758-7922-47ac-af1a-a1a834d57b68" x="732.14" y="434.83" width="87.96" height="81.86" rx="12.06"/><path class="be508a82-51f6-482b-b054-7c935a8d8757" d="M765.28,483.25h-6.72v-4.78h7.31L767.38,466h-7.14v-4.87H768l1.93-15.37h4.45l-1.93,15.37h11.16l2-15.37h4.45l-2,15.37h6.81V466h-7.31L786,478.47h7.14v4.78h-7.73l-2.1,17.13h-4.45l2-17.13H769.81l-2.1,17.13h-4.53Zm16.21-4.78L783,466H771.91l-1.51,12.43Z"/><polygon class="aaa1f758-7922-47ac-af1a-a1a834d57b68" points="776.7 531.96 770.49 523 764.28 514.05 776.7 514.05 789.12 514.05 782.91 523 776.7 531.96"/><polygon class="ad116d11-9b81-4625-a828-0915bfa529a5" points="574.38 665.09 549.93 677.72 509.16 608.8 533.61 596.17 574.38 665.09"/><path class="ad116d11-9b81-4625-a828-0915bfa529a5" d="M496.71,625.94c-14.55,7.52-32.38,3.41-39.82-9.18s-1.69-28.88,12.86-36.39"/><polygon class="aaa1f758-7922-47ac-af1a-a1a834d57b68" points="541.62 602.74 496.71 625.94 469.75 580.37 514.66 557.16 541.62 602.74"/><path class="b911741c-7258-474f-a88c-4b2d598a88fd" d="M474.14,600.16l-12,6.18a1.69,1.69,0,0,1-2.23-.52h0a1.47,1.47,0,0,1,.72-2l11.95-6.18a1.7,1.7,0,0,1,2.24.52h0A1.48,1.48,0,0,1,474.14,600.16Z"/><path class="b911741c-7258-474f-a88c-4b2d598a88fd" d="M478.38,607.33l-11.95,6.18a1.7,1.7,0,0,1-2.24-.52h0a1.47,1.47,0,0,1,.72-2l11.95-6.18a1.7,1.7,0,0,1,2.24.52h0A1.48,1.48,0,0,1,478.38,607.33Z"/><path class="b911741c-7258-474f-a88c-4b2d598a88fd" d="M482.62,614.5l-11.95,6.18a1.7,1.7,0,0,1-2.24-.52h0a1.49,1.49,0,0,1,.72-2l12-6.17a1.7,1.7,0,0,1,2.24.52h0A1.48,1.48,0,0,1,482.62,614.5Z"/><path class="ad116d11-9b81-4625-a828-0915bfa529a5" d="M514.55,557l27,45.58c49.54-16.66,87.37-27,116.21-33.27L606.63,482.9C565.26,521.14,514.55,557,514.55,557Z"/><polygon class="aaa1f758-7922-47ac-af1a-a1a834d57b68" points="556.47 598 541.16 602.98 514.2 557.41 526.51 548.35 556.47 598"/><path class="aaa1f758-7922-47ac-af1a-a1a834d57b68" d="M638,496.59l-16.57-28c-4.73,4.75-9.72,9.54-14.85,14.28l51.09,86.38c7.56-1.64,14.5-3,20.88-4.11l-18-30.38"/><path class="b911741c-7258-474f-a88c-4b2d598a88fd" d="M638,496.59l22.58,38.17c3.18-1.64,4.45-5.24,2.82-8l-16.66-28.16C645.15,495.86,641.22,495,638,496.59Z"/><path class="b911741c-7258-474f-a88c-4b2d598a88fd" d="M667,502.79h0a1.52,1.52,0,0,1,.74-2.1l33.72-17.42a1.76,1.76,0,0,1,2.3.53h0a1.53,1.53,0,0,1-.75,2.1l-33.71,17.42A1.74,1.74,0,0,1,667,502.79Z"/><path class="b911741c-7258-474f-a88c-4b2d598a88fd" d="M662.1,493.38h0a1.43,1.43,0,0,1,0-2.17l21.89-20a1.84,1.84,0,0,1,2.41-.1h0a1.43,1.43,0,0,1-.05,2.17l-21.89,20A1.84,1.84,0,0,1,662.1,493.38Z"/><path class="b911741c-7258-474f-a88c-4b2d598a88fd" d="M673.59,511.4h0a1.63,1.63,0,0,1,1.27-1.91l29.49-8a1.64,1.64,0,0,1,2.06,1h0a1.65,1.65,0,0,1-1.27,1.92l-29.49,8A1.64,1.64,0,0,1,673.59,511.4Z"/><g class="b8b2e2c7-010e-42ab-8b05-4982ab223dd4"><path class="aaa1f758-7922-47ac-af1a-a1a834d57b68" d="M789.23,303h0V288.4a14.07,14.07,0,0,0-.09-2.25,18.62,18.62,0,0,0-7.64-12.56,16.57,16.57,0,0,0-9.74-3.42c-9.62,0-19.24,0-28.86,0a14.66,14.66,0,0,0-4.25.75,18.71,18.71,0,0,0-13.21,18q-.06,12.31,0,24.65a46.25,46.25,0,0,0,.25,6c.92,6.89,4.74,11.69,11,14.66a19.85,19.85,0,0,0,8.72,1.65c8.26,0,16.52-.08,24.78-.16a23.43,23.43,0,0,0,4.44-.39,18.57,18.57,0,0,0,14.66-18.08c-.06-4.76,0-9.53,0-14.29m12.13,0c0,8.22,0,16.44,0,24.66a19.2,19.2,0,0,1-15.62,18.85,27.11,27.11,0,0,1-4.58.44q-13.51.06-27,0c-7.5,0-15-.1-22.52-.19a17.78,17.78,0,0,1-11.16-4.25,18.84,18.84,0,0,1-6.93-12.53,17.6,17.6,0,0,1-.23-2.5c0-16.29-.09-32.59,0-48.89a19,19,0,0,1,10.27-17.41,17.46,17.46,0,0,1,8.56-2.26c16.72,0,33.43-.06,50.15,0A19.11,19.11,0,0,1,801.06,275a21.25,21.25,0,0,1,.29,3.19c0,8.26,0,16.53,0,24.79Z"/><path class="aaa1f758-7922-47ac-af1a-a1a834d57b68" d="M775.29,288.88a4,4,0,0,0,4-4.11,4.12,4.12,0,0,0-4.12-3.93,3.93,3.93,0,0,0-3.94,4.15,3.86,3.86,0,0,0,4,3.89m-18,31.34c.61,0,1.22,0,1.82,0a9.14,9.14,0,0,0,1.37-.24,17,17,0,0,0,13-10.74,17.81,17.81,0,0,0,1.14-9.17,15.68,15.68,0,0,0-4-9.18c-4.65-4.92-10.56-6.28-16.91-5.1-9.49,1.76-15.52,11.23-13.32,21.07a17.22,17.22,0,0,0,16.94,13.37M784.52,303c0,4.72,0,9.44,0,14.15a13.88,13.88,0,0,1-11.21,13.51,28.89,28.89,0,0,1-5,.31q-12.12,0-24.23,0a13.87,13.87,0,0,1-13.74-12.4c-.1-1.12-.19-2.23-.19-3.34q0-13,0-25.91a14.4,14.4,0,0,1,1.94-7.49,13.76,13.76,0,0,1,9.39-6.68,14.87,14.87,0,0,1,3-.29c8.73,0,17.46,0,26.19,0a13.87,13.87,0,0,1,13.54,11.51,19.09,19.09,0,0,1,.26,2.92c0,4.57,0,9.15,0,13.72Z"/><path class="aaa1f758-7922-47ac-af1a-a1a834d57b68" d="M768.84,302.37A11.53,11.53,0,0,1,746,304.94c-.94-4.66,1.64-11.79,8.55-13.37a12.3,12.3,0,0,1,11.35,2.8,9.35,9.35,0,0,1,3,6.32,15.68,15.68,0,0,1,0,1.68"/></g><g class="b930112f-12a2-490b-8c9b-4e783521d9fe"><path class="bc78a9f3-2800-4683-8c2a-3b8b1adbb558" d="M851.25,218.06c-3.6-4-9.65-4.87-14.49-2.74-5.62,2.48-8.19,7.92-7.6,13.89-10.93,0-19-5.69-26.43-12.84-3,6.65-1.12,12,3.84,17L801.39,232c.21,6.51,4,10.25,9.7,12.76l-5.26.33a13.92,13.92,0,0,0,11.63,8.3c-5.39,4.62-11.59,5.77-18.37,5.61.3.2.47.33.66.44,11.78,6.92,29.07,6.28,40.25-1.68a35.22,35.22,0,0,0,11-13.55,39.58,39.58,0,0,0,3.07-8.34,27.93,27.93,0,0,0,.52-4.29c0-.76-.38-4.41.08-4.87,2.13-2.14,4-4.06,6-6l-.38-.26-6.55,1.61c1.36-1.38,2.38-2.29,3.23-3.33a34.11,34.11,0,0,0,2.07-3.1l-7.77,2.42m19.18-2v46.06c-.13.94-.22,1.9-.42,2.83-1.93,9.49-8.61,14.87-18.81,14.94q-21.62.12-43.23,0c-11.82-.09-19.15-7.4-19.24-19.2q-.15-21.66,0-43.35c.08-11.4,7.32-18.91,18.5-19,14.77-.15,29.55-.1,44.33,0,7.2.05,13.14,2.8,16.54,9.4,1.29,2.52,1.58,5.56,2.32,8.37"/></g><g class="ba24681a-9670-4700-af32-62bbb0812c40"><path class="ad116d11-9b81-4625-a828-0915bfa529a5" d="M661.72,352.21H650.84v12.48h10.54l.21.24a.23.23,0,0,1,.06.12c0,.31.07.62.07.93q0,15.4,0,30.82a1.94,1.94,0,0,1-.13.48c-.37,0-.75.09-1.13.09-9.34,0-18.68.16-28-.05-6.39-.14-11.06-3.44-14-9.09a17.35,17.35,0,0,1-1.8-8.24q0-24.89,0-49.77a16.59,16.59,0,0,1,11.32-16.1,16.32,16.32,0,0,1,5.35-.89c17,0,33.9-.06,50.84,0a16.44,16.44,0,0,1,16.26,13.33,17.1,17.1,0,0,1,.33,3.58q0,25.2,0,50.43a16.27,16.27,0,0,1-4.89,12,15.76,15.76,0,0,1-11.24,4.77c-2.89,0-5.78,0-8.68,0-.39,0-.78,0-1.15-.05-.27-1-.33-31,0-32.57,3.54-.14,7.12,0,10.79-.09.58-4.15,1.11-8.21,1.59-12.46H674.65c0-.49-.12-.83-.12-1.17,0-2.36,0-4.71,0-7.07a12.37,12.37,0,0,1,.28-2.51,4.66,4.66,0,0,1,4.76-3.71c2.18-.07,4.36,0,6.54,0h1.37V326.57a3,3,0,0,0-.57-.16,72.89,72.89,0,0,0-11-.28c-5.21.44-9.46,2.66-12.08,7.4a15.78,15.78,0,0,0-2,7.25c-.11,3.24,0,6.49-.06,9.74v1.69"/></g><path class="b911741c-7258-474f-a88c-4b2d598a88fd" d="M838.3,307.19H870a16.46,16.46,0,0,1,16.42,16.42h0A16.47,16.47,0,0,1,870,340H838.3a16.47,16.47,0,0,1-16.43-16.43h0A16.47,16.47,0,0,1,838.3,307.19Z"/><circle class="be508a82-51f6-482b-b054-7c935a8d8757" cx="869.18" cy="323.61" r="3.02"/><circle class="be508a82-51f6-482b-b054-7c935a8d8757" cx="854.14" cy="323.61" r="3.02"/><circle class="be508a82-51f6-482b-b054-7c935a8d8757" cx="839.1" cy="323.61" r="3.02"/><polygon class="b911741c-7258-474f-a88c-4b2d598a88fd" points="831.1 351.63 830.32 342.68 829.55 333.73 835.31 335.2 841.08 336.68 836.09 344.16 831.1 351.63"/><polygon class="ad116d11-9b81-4625-a828-0915bfa529a5" points="776.12 91.89 769.36 82.14 762.59 72.39 776.12 72.39 789.65 72.39 782.88 82.14 776.12 91.89"/><rect class="ad116d11-9b81-4625-a828-0915bfa529a5" x="736.96" y="2.28" width="78.32" height="72.89" rx="14.51"/><path class="be508a82-51f6-482b-b054-7c935a8d8757" d="M772.2,60A4.21,4.21,0,0,0,779,60L797,36.36a12.2,12.2,0,1,0-20.91-10.11,12.19,12.19,0,1,0-22.46,8.09h0l.29.4c.15.22.31.43.47.64Z"/><polygon class="aaa1f758-7922-47ac-af1a-a1a834d57b68" points="801.37 185.06 797.29 179.18 793.21 173.29 801.37 173.29 809.53 173.29 805.45 179.18 801.37 185.06"/><rect class="aaa1f758-7922-47ac-af1a-a1a834d57b68" x="777.75" y="131" width="47.25" height="43.98" rx="7.1"/><path class="be508a82-51f6-482b-b054-7c935a8d8757" d="M799,165.79a2.53,2.53,0,0,0,4.07.05L814,151.56a7.36,7.36,0,1,0-12.62-6.1,7.36,7.36,0,1,0-13.55,4.88h0l.17.24c.09.13.18.26.28.38Z"/><polygon class="b911741c-7258-474f-a88c-4b2d598a88fd" points="716.96 431.44 712.88 425.56 708.8 419.68 716.96 419.68 725.12 419.68 721.04 425.56 716.96 431.44"/><rect class="b911741c-7258-474f-a88c-4b2d598a88fd" x="693.33" y="377.38" width="47.25" height="43.98" rx="7.1"/><path class="be508a82-51f6-482b-b054-7c935a8d8757" d="M714.59,412.18a2.54,2.54,0,0,0,4.07.05l10.91-14.29a7.36,7.36,0,1,0-12.61-6.1,7.36,7.36,0,1,0-13.55,4.88h0l.18.24a4.73,4.73,0,0,0,.28.39Z"/><g class="ad33218d-00e6-4277-927e-1372a21094e9"><path class="b911741c-7258-474f-a88c-4b2d598a88fd" d="M755.52,105.34v36.54c-.1.74-.18,1.5-.33,2.24-1.54,7.53-6.83,11.8-14.92,11.85q-17.14.1-34.3,0c-9.37-.07-15.19-5.87-15.25-15.23q-.12-17.19,0-34.38c.06-9,5.81-15,14.67-15.1,11.72-.11,23.45-.08,35.17,0,5.71,0,10.43,2.21,13.12,7.45,1,2,1.25,4.41,1.84,6.64"/></g><path class="be508a82-51f6-482b-b054-7c935a8d8757" d="M704.83,116.78,721,129.35a3.42,3.42,0,0,0,4.2,0l14.75-11.47a7.31,7.31,0,0,1-7.1-7.29H707.25a3.65,3.65,0,0,0-3.66,3.65A3.23,3.23,0,0,0,704.83,116.78Zm21.86,14.51a5.83,5.83,0,0,1-7.19,0l-15.91-12.37v17.26a3.66,3.66,0,0,0,3.66,3.66h31.69a3.65,3.65,0,0,0,3.65-3.66V118.92Z"/><path class="be508a82-51f6-482b-b054-7c935a8d8757" d="M740.16,105.71a4.88,4.88,0,1,1-4.88,4.88A4.87,4.87,0,0,1,740.16,105.71Z"/><g id="eb712af4-551f-4877-961a-3f65646ba6dc" data-name="h0BSza"><path class="ad116d11-9b81-4625-a828-0915bfa529a5" d="M764.34,386.08q0-10.56,0-21.1c0-4.88,2.78-7.66,7.64-7.66h42.65c4.62,0,7.47,2.86,7.47,7.5v42.76c0,4.63-2.85,7.49-7.48,7.49H771.86c-4.7,0-7.52-2.85-7.52-7.56ZM794.72,367c0,.56,0,1,0,1.44,0,8.49,0,17,0,25.47a6.14,6.14,0,0,1-5.86,5.84,6.07,6.07,0,0,1-6.28-4.82,6,6,0,0,1,4.35-7,15.85,15.85,0,0,1,2.1-.3v-5.52a11.65,11.65,0,1,0,11.07,11.78c.05-4.86,0-9.72,0-14.58v-1.13c2.6,3,5.64,4.53,9.55,4.24v-6.23c-5.32-.86-8.51-3.91-9.51-9.2Z"/></g><g id="b2db061a-06ee-4f33-88e4-5c716640bb40" data-name="dZq8AC"><path class="bc78a9f3-2800-4683-8c2a-3b8b1adbb558" d="M849.6,467.39H821a7.23,7.23,0,0,1-7.1-5.53,7.85,7.85,0,0,1-.2-1.81q0-28.6,0-57.22a7.25,7.25,0,0,1,7.37-7.34h57.16a7.24,7.24,0,0,1,7.37,7.4q0,28.55,0,57.1a7.23,7.23,0,0,1-7.42,7.4Zm3.6-10.83v-.79c0-5.91,0-11.82,0-17.73a6.12,6.12,0,0,1,.83-3.26,5.36,5.36,0,0,1,6.12-2.35,5.54,5.54,0,0,1,3.83,5.49v18.64h10.74c0-.23,0-.42,0-.61,0-6.52,0-13,0-19.56a13.46,13.46,0,0,0-.24-2.69,12.37,12.37,0,0,0-6.23-8.52,10.79,10.79,0,0,0-12.62.82,33.06,33.06,0,0,0-2.46,2.33v-4H842.46v32.26Zm-28.71-32.27v32.26h10.69V424.29Zm11.8-12.59a6.46,6.46,0,1,0-12.92-.06,6.46,6.46,0,0,0,12.92.06Z"/></g></svg>