
<svg xmlns="http://www.w3.org/2000/svg" id="Layer_1" data-name="Layer 1" viewBox="0 0 303.54 150"><defs><linearGradient id="linear-gradient" x1="121.96" y1="113.96" x2="259.75" y2="63.81" gradientUnits="userSpaceOnUse"><stop offset="0" stop-color="#2ba5a2"/><stop offset=".51" stop-color="#2da5a0"/><stop offset=".56" stop-color="#2ea6a0"/><stop offset=".6" stop-color="#38a897"/><stop offset=".68" stop-color="#53b082"/><stop offset=".78" stop-color="#80bd5f"/><stop offset=".89" stop-color="#bdcf2f"/><stop offset="1" stop-color="#fbe100"/></linearGradient><style>.cls-3{fill:#2ba5a2}</style></defs><path d="M291.14 54.29c-1.58 2.26-3.79 4.04-6.61 5.33-2.82 1.29-6.14 1.94-9.93 1.94-2.19 0-4.48-.22-6.87-.66-2.39-.44-4.64-1.03-6.76-1.79-2.12-.75-3.91-1.59-5.37-2.52l3.65-6.43c1.85 1.12 4.07 2.04 6.65 2.78 2.58.73 5.14 1.09 7.67 1.09 3.46 0 6.17-.7 8.14-2.12 1.97-1.41 2.96-3.38 2.96-5.92s-.97-4.28-2.92-5.55c-1.95-1.27-4.77-1.9-8.47-1.9h-4.6c-.29-.44-.55-1.05-.77-1.83-.22-.78-.33-1.51-.33-2.19 0-2.53 1.53-3.8 4.6-3.8h1.46c3.21 0 5.73-.67 7.56-2.01 1.83-1.34 2.74-3.13 2.74-5.37s-.94-4.14-2.81-5.41c-1.87-1.27-4.25-1.9-7.12-1.9s-5.59.61-7.85 1.83c-2.26 1.22-3.76 2.68-4.49 4.38-1.27-.19-2.34-.7-3.21-1.53-.88-.83-1.31-1.85-1.31-3.07 0-.58.12-1.21.37-1.86.24-.66.66-1.3 1.24-1.94 1.41-1.56 3.54-2.79 6.39-3.69 2.85-.9 5.9-1.35 9.17-1.35 3.75 0 7 .58 9.75 1.75s4.87 2.76 6.36 4.78c1.48 2.02 2.23 4.37 2.23 7.05s-.73 4.98-2.19 7.05c-1.46 2.07-3.48 3.71-6.06 4.93 2.87.93 5.11 2.42 6.72 4.49 1.61 2.07 2.41 4.59 2.41 7.56s-.79 5.59-2.37 7.85Z" style="fill:#fbe100"/><path class="cls-3" d="M252.58 120.19c-3.32-3.22-9.42-4.35-13.81-2.2-4.47 2.19-6.89 7.21-12.01 7.92-4.68.66-8.68-2.73-11.4-5.98-6.62-7.92-10.62-16.76-14.97-25.65-2.02-4.13-3.91-8.36-5.83-12.58v17.41c1.89 4.68 3.72 9.31 5.68 13.72.82 1.66 2.02 4.15 2.68 5.33 1.2 2.16 2.5 4.28 3.95 6.33 2.79 3.92 6.15 7.6 10.36 10.54 7.14 5 17.17 7.67 26.03 5.24 4.83-1.33 9.14-4.23 11.16-8.12 2.02-3.89 1.48-8.75-1.84-11.97ZM158.63 39.17c-5.9-2.59-13.18-3.42-19.31-1.22-6.13 2.2-10.61 7.79-9.56 13.28 1.05 5.49 8.47 9.79 14.75 7.92 2.69-.8 4.84-2.5 7.17-3.88s5.21-2.5 7.98-1.91c1.82.39 3.3 1.46 4.65 2.54 13.49 10.8 20.21 26.53 26.34 41.71V80.2c-4.73-10.4-9.7-20.8-17.51-29.77-3.92-4.5-8.61-8.68-14.52-11.27ZM10.03 73.41a45.363 45.363 0 0 1 4.01-19.27 42.069 42.069 0 0 1 11.02-14.51 49.241 49.241 0 0 1 16.67-9.11 67.828 67.828 0 0 1 21.12-3.13c7.2-.07 14.36.98 21.23 3.13 6.14 1.91 11.84 5 16.78 9.11 4.71 3.95 8.48 8.91 11.02 14.51 2.68 6.1 4.02 12.71 3.9 19.38v65.5H91.09V79.69c0-9.83-2.38-17.29-7.14-22.42-4.76-5.14-11.77-7.69-21.01-7.69s-16.43 2.58-21.12 7.69c-4.7 5.12-7.03 12.59-7.03 22.42v59.33H10.1l-.07-65.61Z"/><path d="m131.21 139.35 84.11-96.09c2.69-3.07 6.58-4.84 10.66-4.84h24.53l-84.09 96.06a14.203 14.203 0 0 1-10.65 4.84l-24.57.03Z" style="fill:url(#linear-gradient)"/></svg>